<svg width="280" height="280" viewBox="0 0 280 280" fill="none" xmlns="http://www.w3.org/2000/svg">
<path d="M140 267.417C204.583 267.417 256.939 237.19 256.939 199.903C256.939 162.617 204.583 132.39 140 132.39C75.416 132.39 23.0605 162.617 23.0605 199.903C23.0605 237.19 75.416 267.417 140 267.417Z" fill="#F5F5F5"/>
<path d="M158.35 247.184C172.317 247.184 183.64 240.647 183.64 232.585C183.64 224.522 172.317 217.985 158.35 217.985C144.383 217.985 133.061 224.522 133.061 232.585C133.061 240.647 144.383 247.184 158.35 247.184Z" fill="#E0E0E0"/>
<path d="M145.207 183.148L77.5645 222.208C75.6605 223.328 72.3397 223.171 70.1389 221.9L46.1261 208.035C43.9309 206.769 43.6901 204.848 45.5661 203.751L113.209 164.691C115.113 163.571 118.433 163.727 120.634 164.999L144.647 178.864C146.87 180.13 147.111 182.051 145.207 183.148Z" fill="#E0E0E0"/>
<path d="M218.041 196.784L223.372 199.881C223.372 199.881 220.684 191.302 222.174 182.666C222.534 180.633 223.269 178.685 224.341 176.921C224.761 176.047 227.976 170.666 225.148 168.179C222.32 165.693 215.684 170.638 215.98 183.932C216.123 188.286 216.815 192.604 218.041 196.784Z" fill="#007438"/>
<path opacity="0.5" d="M218.041 196.784L223.372 199.881C223.372 199.881 220.684 191.302 222.174 182.666C222.534 180.633 223.269 178.685 224.341 176.921C224.761 176.047 227.976 170.666 225.148 168.179C222.32 165.693 215.684 170.638 215.98 183.932C216.123 188.286 216.815 192.604 218.041 196.784Z" fill="black"/>
<path d="M220.523 198.469C220.473 198.469 220.424 198.453 220.383 198.424C220.342 198.395 220.311 198.354 220.294 198.307C220.294 198.251 218.261 192.656 218.367 183.685C218.474 174.714 223.217 169.842 223.267 169.797C223.289 169.775 223.315 169.757 223.344 169.745C223.373 169.733 223.404 169.727 223.435 169.727C223.467 169.727 223.498 169.733 223.526 169.745C223.555 169.757 223.581 169.775 223.603 169.797C223.626 169.82 223.644 169.846 223.656 169.875C223.668 169.905 223.674 169.936 223.674 169.968C223.674 170 223.668 170.031 223.656 170.06C223.644 170.09 223.626 170.116 223.603 170.139C223.559 170.184 218.955 174.871 218.849 183.691C218.743 192.511 220.731 198.088 220.747 198.144C220.759 198.174 220.764 198.205 220.764 198.237C220.763 198.268 220.756 198.299 220.743 198.328C220.73 198.357 220.711 198.383 220.688 198.404C220.664 198.425 220.637 198.442 220.607 198.452L220.523 198.469Z" fill="white"/>
<path d="M222.174 199.204L230.977 204.401C230.977 204.401 235.009 203.808 234.707 200.011C234.405 196.214 232.764 195.324 234.802 193.655C236.841 191.986 237.367 191.88 237.266 190.244C237.165 188.609 236.073 187.898 235.553 187.254C235.032 186.61 233.598 185.244 234.612 183.278C235.625 181.312 236.997 179.403 234.959 178.496C233.738 177.936 231.689 178.636 230.333 180.075C228.978 181.514 227.853 182.556 226.57 182.875C225.288 183.194 222.6 183.233 222.689 185.451C222.779 187.668 223.356 188.436 222.818 189.416C221.805 191.269 217.476 192.272 222.174 199.204Z" fill="#007438"/>
<path opacity="0.2" d="M222.174 199.204L230.977 204.401C230.977 204.401 235.009 203.808 234.707 200.011C234.405 196.214 232.764 195.324 234.802 193.655C236.841 191.986 237.367 191.88 237.266 190.244C237.165 188.609 236.073 187.898 235.553 187.254C235.032 186.61 233.598 185.244 234.612 183.278C235.625 181.312 236.997 179.403 234.959 178.496C233.738 177.936 231.689 178.636 230.333 180.075C228.978 181.514 227.853 182.556 226.57 182.875C225.288 183.194 222.6 183.233 222.689 185.451C222.779 187.668 223.356 188.436 222.818 189.416C221.805 191.269 217.476 192.272 222.174 199.204Z" fill="black"/>
<path d="M225.758 201.555C225.697 201.556 225.639 201.533 225.594 201.491C225.549 201.449 225.522 201.392 225.518 201.331C225.518 201.203 224.554 188.076 233.671 179.458C233.718 179.414 233.78 179.391 233.844 179.393C233.908 179.395 233.969 179.422 234.013 179.469C234.057 179.516 234.08 179.578 234.078 179.642C234.076 179.706 234.048 179.767 234.002 179.811C225.042 188.267 225.994 201.163 226.005 201.292C226.009 201.357 225.989 201.42 225.947 201.47C225.905 201.519 225.845 201.55 225.781 201.555H225.758Z" fill="white"/>
<path d="M227.361 190.306C227.3 190.306 227.241 190.283 227.196 190.242C227.152 190.2 227.125 190.143 227.12 190.082C227.052 189.074 226.78 188.091 226.319 187.192C225.859 186.293 225.221 185.496 224.443 184.852C224.418 184.833 224.396 184.809 224.379 184.782C224.363 184.755 224.352 184.725 224.347 184.693C224.342 184.662 224.343 184.63 224.351 184.599C224.358 184.568 224.372 184.539 224.39 184.513C224.409 184.487 224.433 184.465 224.46 184.449C224.487 184.432 224.517 184.421 224.549 184.416C224.58 184.411 224.612 184.412 224.643 184.42C224.674 184.427 224.703 184.441 224.729 184.46C225.569 185.144 226.258 185.995 226.752 186.959C227.247 187.922 227.536 188.978 227.602 190.06C227.607 190.123 227.586 190.185 227.545 190.233C227.505 190.281 227.446 190.311 227.383 190.317L227.361 190.306Z" fill="white"/>
<path d="M226.688 192.545C226.628 192.546 226.57 192.524 226.526 192.484C226.482 192.438 226.457 192.377 226.457 192.313C226.457 192.249 226.482 192.188 226.526 192.142C226.621 192.036 228.917 189.555 234.226 190.283C234.289 190.294 234.345 190.328 234.384 190.379C234.422 190.43 234.44 190.494 234.433 190.557C234.423 190.621 234.389 190.678 234.338 190.717C234.287 190.755 234.222 190.773 234.159 190.765C229.119 190.076 226.907 192.445 226.879 192.445C226.858 192.476 226.83 192.502 226.796 192.519C226.763 192.537 226.726 192.546 226.688 192.545Z" fill="white"/>
<path d="M56.6268 189.247L54.0004 194.819C54.0004 194.819 51.3404 186.228 45.214 179.962C43.7683 178.489 42.0586 177.302 40.174 176.462C39.3396 175.98 33.6388 173.371 34.574 169.742C35.5092 166.113 43.758 166.382 51.0604 177.509C53.4033 181.171 55.2736 185.115 56.6268 189.247Z" fill="#007438"/>
<path opacity="0.5" d="M56.6268 189.247L54.0004 194.819C54.0004 194.819 51.3404 186.228 45.214 179.962C43.7683 178.489 42.0586 177.302 40.174 176.462C39.3396 175.98 33.6388 173.371 34.574 169.742C35.5092 166.113 43.758 166.382 51.0604 177.509C53.4033 181.171 55.2736 185.115 56.6268 189.247Z" fill="black"/>
<path d="M55.4079 192.08C55.3546 192.08 55.3029 192.062 55.2605 192.03C55.2181 191.997 55.1873 191.952 55.1727 191.901C55.1727 191.845 53.6607 186.172 48.5367 178.92C43.4127 171.668 37.0007 170.47 36.9615 170.458C36.9302 170.453 36.9003 170.442 36.8735 170.424C36.8467 170.407 36.8235 170.385 36.8052 170.359C36.787 170.333 36.7741 170.304 36.7673 170.273C36.7605 170.242 36.7599 170.21 36.7655 170.178C36.7778 170.116 36.8138 170.061 36.866 170.024C36.9182 169.987 36.9826 169.973 37.0455 169.982C37.1127 169.982 43.7655 171.27 48.9623 178.64C54.1591 186.01 55.6823 191.722 55.6823 191.778C55.6978 191.84 55.6883 191.906 55.6559 191.961C55.6234 192.017 55.5707 192.057 55.5087 192.074L55.4079 192.08Z" fill="white"/>
<path d="M54.6004 193.586L50.2884 202.843C50.2884 202.843 46.6316 204.641 44.7332 201.342C42.8348 198.044 43.6692 196.381 41.0484 196.162C38.4276 195.944 37.9236 196.162 37.078 194.757C36.2324 193.351 36.7308 192.141 36.7924 191.318C36.854 190.495 37.2684 188.552 35.314 187.505C33.3596 186.457 31.1476 185.673 32.318 183.769C33.0124 182.649 35.0844 182.028 37.022 182.448C38.9596 182.868 40.466 183.081 41.7148 182.627C42.9636 182.173 45.1868 180.673 46.374 182.549C47.5612 184.425 47.494 185.382 48.5188 185.909C50.4004 186.838 54.5332 185.203 54.6004 193.586Z" fill="#007438"/>
<path opacity="0.2" d="M54.6004 193.586L50.2884 202.843C50.2884 202.843 46.6316 204.641 44.7332 201.342C42.8348 198.044 43.6692 196.381 41.0484 196.162C38.4276 195.944 37.9236 196.162 37.078 194.757C36.2324 193.351 36.7308 192.141 36.7924 191.318C36.854 190.495 37.2684 188.552 35.314 187.505C33.3596 186.457 31.1476 185.673 32.318 183.769C33.0124 182.649 35.0844 182.028 37.022 182.448C38.9596 182.868 40.466 183.081 41.7148 182.627C42.9636 182.173 45.1868 180.673 46.374 182.549C47.5612 184.425 47.494 185.382 48.5188 185.909C50.4004 186.838 54.5332 185.203 54.6004 193.586Z" fill="black"/>
<path d="M52.8416 197.597C52.7992 197.597 52.7575 197.586 52.721 197.564C52.6845 197.542 52.6546 197.511 52.6344 197.474C52.5672 197.362 46.0208 186.212 33.8576 184.325C33.8258 184.32 33.7953 184.309 33.7678 184.293C33.7403 184.276 33.7165 184.254 33.6977 184.228C33.6789 184.201 33.6656 184.172 33.6584 184.141C33.6512 184.109 33.6504 184.077 33.656 184.045C33.6601 184.013 33.6705 183.983 33.6867 183.956C33.7028 183.928 33.7244 183.904 33.75 183.885C33.7757 183.867 33.8049 183.853 33.8359 183.846C33.8669 183.839 33.8991 183.838 33.9304 183.843C46.3288 185.77 52.9704 197.121 53.0544 197.233C53.0746 197.27 53.0849 197.312 53.0843 197.355C53.0836 197.397 53.072 197.438 53.0506 197.475C53.0292 197.512 52.9987 197.542 52.9621 197.563C52.9255 197.585 52.884 197.596 52.8416 197.597Z" fill="white"/>
<path d="M45.1649 189.23C45.1217 189.229 45.0793 189.218 45.042 189.196C45.0046 189.175 44.9736 189.144 44.952 189.106C44.3959 188.179 44.0377 187.146 43.8999 186.074C43.762 185.001 43.8476 183.912 44.1512 182.874C44.1619 182.844 44.1783 182.816 44.1996 182.793C44.2208 182.77 44.2465 182.751 44.2751 182.737C44.3037 182.723 44.3347 182.716 44.3663 182.714C44.3979 182.713 44.4295 182.717 44.4593 182.728C44.489 182.739 44.5164 182.755 44.5399 182.776C44.5633 182.798 44.5823 182.823 44.5958 182.852C44.6094 182.88 44.6171 182.911 44.6187 182.943C44.6202 182.975 44.6155 183.006 44.6049 183.036C44.3311 184.008 44.2569 185.026 44.3868 186.028C44.5167 187.03 44.8481 187.995 45.3609 188.866C45.3768 188.893 45.3872 188.924 45.3913 188.955C45.3955 188.987 45.3933 189.019 45.385 189.049C45.3767 189.08 45.3623 189.109 45.3428 189.134C45.3233 189.159 45.299 189.18 45.2712 189.196C45.2393 189.216 45.2026 189.228 45.1649 189.23Z" fill="white"/>
<path d="M39.7932 193.487C39.7596 193.487 39.7265 193.479 39.6957 193.466C39.6649 193.452 39.6372 193.433 39.614 193.409C39.5915 193.386 39.5736 193.36 39.5614 193.33C39.5492 193.301 39.543 193.27 39.543 193.238C39.543 193.206 39.5492 193.175 39.5614 193.145C39.5736 193.116 39.5915 193.089 39.614 193.067C43.5676 189.455 46.894 190.194 47.006 190.228C47.037 190.235 47.0662 190.248 47.092 190.267C47.1178 190.285 47.1396 190.309 47.1563 190.336C47.1729 190.363 47.1841 190.393 47.189 190.425C47.194 190.456 47.1927 190.488 47.1852 190.519C47.1787 190.55 47.1658 190.58 47.1474 190.606C47.1291 190.632 47.1055 190.655 47.0782 190.671C47.051 190.688 47.0206 190.699 46.9889 190.704C46.9572 190.708 46.9249 190.706 46.894 190.698C46.8604 190.698 43.6908 189.998 39.9388 193.425C39.898 193.461 39.847 193.482 39.7932 193.487Z" fill="white"/>
<path d="M54.6619 76.4405C54.6625 74.8099 55.0917 73.2082 55.9065 71.7958C56.7213 70.3834 57.8931 69.21 59.3043 68.3933L118.396 34.2781C118.79 34.0508 119.23 33.9147 119.684 33.8798C120.137 33.8449 120.593 33.9121 121.017 34.0765C121.442 34.2409 121.824 34.4982 122.136 34.8296C122.448 35.161 122.681 35.5581 122.82 35.9917C122.661 35.2971 122.364 34.6415 121.946 34.0643C121.529 33.487 120.999 32.9997 120.389 32.6317L120.176 32.5085C118.706 31.6336 117.027 31.1712 115.316 31.1701C114.769 31.1649 114.231 31.3081 113.759 31.5845L54.6675 65.7165C53.2541 66.5312 52.0803 67.704 51.2643 69.1167C50.4483 70.5294 50.019 72.1322 50.0195 73.7637V201.55C50.0202 202.084 50.1612 202.608 50.4283 203.07C50.6955 203.533 51.0794 203.917 51.5416 204.184C52.0039 204.451 52.5282 204.592 53.0621 204.593C53.5959 204.593 54.1206 204.454 54.5835 204.188L54.6619 204.143V76.4405Z" fill="#37474F"/>
<path d="M118.317 172.749L59.2261 206.864C58.7639 207.132 58.2393 207.273 57.7053 207.273C57.1712 207.274 56.6465 207.134 56.1838 206.867C55.7212 206.6 55.337 206.216 55.0698 205.754C54.8027 205.291 54.6621 204.766 54.6621 204.232V76.4404C54.6627 74.8098 55.0919 73.2081 55.9067 71.7957C56.7215 70.3833 57.8933 69.2099 59.3045 68.3932L118.396 34.278C118.859 34.012 119.383 33.8724 119.917 33.873C120.451 33.8737 120.975 34.0147 121.438 34.2818C121.9 34.549 122.284 34.9329 122.551 35.3951C122.818 35.8574 122.959 36.3817 122.96 36.9156V164.702C122.96 166.333 122.532 167.935 121.717 169.348C120.902 170.76 119.729 171.933 118.317 172.749Z" fill="#455A64"/>
<path d="M54.6619 204.232V76.4399C54.6626 75.0477 54.9764 73.6735 55.5803 72.4191L51.0107 69.6191C50.3599 70.9136 50.0205 72.3423 50.0195 73.7911V202.647C50.0196 203.154 50.1513 203.652 50.4016 204.093C50.6519 204.534 51.0123 204.902 51.4475 205.162L53.8051 206.562C54.6211 207.049 55.5539 207.306 56.5043 207.306H57.6803C57.2803 207.303 56.8848 207.22 56.5166 207.064C56.1484 206.907 55.8147 206.68 55.5344 206.394C55.2541 206.109 55.0328 205.771 54.8831 205.4C54.7334 205.029 54.6582 204.632 54.6619 204.232Z" fill="#263238"/>
<path d="M116.284 46.5645V154C116.283 155.441 115.903 156.856 115.183 158.103C114.462 159.35 113.427 160.386 112.179 161.107L59.9987 191.229C59.6053 191.458 59.1599 191.581 58.7051 191.588C58.8556 191.936 59.0781 192.248 59.3581 192.504C59.638 192.76 59.9689 192.954 60.3291 193.073C60.6894 193.192 61.0707 193.234 61.4481 193.195C61.8254 193.156 62.1903 193.038 62.5187 192.848L114.699 162.72C115.946 161.999 116.982 160.963 117.701 159.716C118.421 158.468 118.799 157.053 118.799 155.613V49.2413C118.8 48.5586 118.54 47.9012 118.073 47.4036C117.606 46.9061 116.966 46.6059 116.284 46.5645Z" fill="#37474F"/>
<path d="M58.7047 191.56C59.1595 191.553 59.605 191.43 59.9983 191.201L112.179 161.079C113.422 160.361 114.455 159.329 115.175 158.087C115.896 156.845 116.278 155.436 116.284 154V46.5645C115.76 46.5689 115.244 46.6894 114.772 46.9173L62.5911 77.0397C61.3432 77.7595 60.3069 78.7952 59.5863 80.0427C58.8657 81.2902 58.4863 82.7054 58.4863 84.146V190.49C58.4858 190.864 58.562 191.233 58.7103 191.576L58.7047 191.56Z" fill="#007438"/>
<g opacity="0.5">
<path d="M58.7047 191.559C59.1595 191.552 59.605 191.429 59.9983 191.2L112.179 161.078C113.422 160.36 114.455 159.328 115.175 158.086C115.896 156.844 116.278 155.435 116.284 153.999V46.5635C115.76 46.5679 115.244 46.6884 114.772 46.9163L62.5911 77.0387C61.3432 77.7585 60.3069 78.7942 59.5863 80.0417C58.8657 81.2892 58.4863 82.7044 58.4863 84.1451V190.489C58.4858 190.863 58.562 191.233 58.7103 191.575L58.7047 191.559Z" fill="white"/>
</g>
<path d="M80.5401 61.2974C80.5223 61.6232 80.4284 61.9403 80.266 62.2233C80.1036 62.5063 79.8772 62.7473 79.6049 62.927C79.0841 63.2238 78.6641 62.983 78.6641 62.367C78.682 62.0406 78.7765 61.723 78.94 61.4399C79.1034 61.1568 79.3312 60.9161 79.6049 60.7374C80.1201 60.4798 80.5401 60.6982 80.5401 61.2974Z" fill="#263238"/>
<path d="M84.0398 59.2817C84.021 59.6079 83.9261 59.9252 83.7627 60.2081C83.5994 60.4911 83.3721 60.7319 83.099 60.9113C82.5782 61.2081 82.1582 60.9673 82.1582 60.3513C82.1762 60.0249 82.2707 59.7074 82.4341 59.4243C82.5976 59.1412 82.8253 58.9005 83.099 58.7217C83.6142 58.4417 84.0398 58.6825 84.0398 59.2817Z" fill="#263238"/>
<path d="M98.1456 52.2199L86.8 58.7999C86.3464 59.0575 85.9824 58.7999 85.9824 58.1839C85.9872 57.8785 86.0636 57.5784 86.2057 57.308C86.3477 57.0376 86.5513 56.8043 86.8 56.6271L98.1624 50.0695C98.6104 49.8063 98.9744 50.0695 98.9744 50.6799C98.9654 50.9833 98.8857 51.2804 98.7419 51.5477C98.598 51.8151 98.3939 52.0452 98.1456 52.2199Z" fill="#263238"/>
<path d="M96.225 176.78C96.9026 176.78 97.345 177.503 97.345 178.617C97.345 180.364 96.253 182.475 94.9538 183.226L89.5162 186.367C89.2733 186.519 88.9957 186.605 88.7098 186.619C88.0322 186.619 87.5898 185.897 87.5898 184.783C87.5898 183.03 88.7098 180.919 89.981 180.174L95.4186 177.032C95.6632 176.88 95.9428 176.793 96.2306 176.78M96.2306 176.315C95.8611 176.326 95.5013 176.437 95.189 176.635L89.7514 179.771C88.301 180.605 87.125 182.851 87.125 184.811C87.125 186.25 87.7802 187.112 88.7098 187.112C89.0793 187.101 89.4391 186.991 89.7514 186.793L95.189 183.657C96.6338 182.823 97.8098 180.577 97.8098 178.617C97.8098 177.178 97.1602 176.315 96.2306 176.315Z" fill="#263238"/>
<path d="M66.1855 91.6769V212.077C66.1855 214.261 66.9863 215.722 68.2071 216.204H68.2407L73.4487 219.055L73.4151 214.429L72.8551 89.5881L67.3615 86.7881C66.6243 88.3148 66.2233 89.9819 66.1855 91.6769Z" fill="#E6E6E6"/>
<path d="M73.735 219.519L68.1014 216.434C66.707 215.874 65.9062 214.233 65.9062 212.049V91.6489C65.936 89.9026 66.3429 88.1833 67.099 86.6089L67.2222 86.3457L73.1246 89.3641V89.5321L73.6846 214.373L73.735 219.519ZM68.3871 215.952L73.1695 218.573V214.418L72.6095 89.7449L67.5302 87.1465C66.8877 88.5663 66.5409 90.102 66.511 91.6601V212.06C66.511 214.031 67.1998 215.476 68.359 215.93L68.4262 215.963L68.3871 215.952Z" fill="#E6E6E6"/>
<path d="M67.3516 86.799L72.8452 89.599L131.645 55.3886L135.565 53.1038L130.139 50.0462L129.988 49.9566C129.12 49.4358 127.988 49.4694 126.74 50.1918L71.0868 82.319C69.4245 83.4083 68.1241 84.9679 67.3516 86.799Z" fill="#E0E0E0"/>
<path d="M72.8451 89.8737C72.8 89.8733 72.7558 89.8617 72.7163 89.8401L67.2227 87.0401C67.1904 87.0246 67.1616 87.0028 67.1378 86.976C67.1141 86.9492 67.096 86.918 67.0845 86.884C67.073 86.8501 67.0684 86.8143 67.071 86.7786C67.0736 86.7429 67.0832 86.708 67.0995 86.6761C67.8999 84.7989 69.2387 83.201 70.9467 82.0841L126.611 49.9457C127.899 49.2065 129.153 49.1225 130.139 49.7161H130.183L130.295 49.7833L135.716 52.8353C135.759 52.8611 135.794 52.8972 135.818 52.9404C135.843 52.9835 135.856 53.0321 135.856 53.0817C135.857 53.1308 135.845 53.1792 135.82 53.2217C135.795 53.2641 135.759 53.299 135.716 53.3225L72.9963 89.8177C72.9521 89.8503 72.8997 89.8697 72.8451 89.8737ZM67.7211 86.6537L72.8395 89.2745L134.999 53.1041L129.842 50.1921L129.803 50.1585C129.002 49.6993 127.966 49.7945 126.879 50.4217L71.2155 82.5601C69.6855 83.5651 68.4735 84.985 67.7211 86.6537Z" fill="#E0E0E0"/>
<path d="M71.5742 94.7V214.54C71.5742 216.427 72.179 217.782 73.1366 218.421L73.4558 218.594C74.2902 218.986 75.3374 218.902 76.4742 218.242L103.382 202.718L132.161 185.414C133.634 184.492 134.855 183.217 135.711 181.705C136.568 180.192 137.034 178.489 137.066 176.751V56.9112C137.066 55.0856 136.506 53.764 135.599 53.0976C135.446 52.9828 135.278 52.8887 135.101 52.8176C134.615 52.6459 134.096 52.5909 133.585 52.6571C133.074 52.7232 132.586 52.9087 132.161 53.1984L76.4966 85.88C74.9262 86.7019 73.656 87.9995 72.8678 89.5872C72.0598 91.1733 71.6178 92.9204 71.5742 94.7Z" fill="#FAFAFA"/>
<path d="M132.16 185.416C120.708 192.248 90.9103 210.028 76.1599 218.915C75.7199 219.179 75.2179 219.321 74.7051 219.327C74.1923 219.333 73.6871 219.203 73.2408 218.95C72.7946 218.698 72.4234 218.331 72.1649 217.888C71.9064 217.445 71.77 216.942 71.7695 216.429V93.1953C71.7695 91.7925 72.1364 90.414 72.8339 89.1969C73.5314 87.9797 74.5352 86.9662 75.7455 86.2569L132.406 53.0377C132.847 52.7809 133.347 52.6447 133.856 52.6426C134.366 52.6405 134.867 52.7728 135.309 53.026C135.751 53.2792 136.119 53.6444 136.375 54.0849C136.632 54.5255 136.767 55.0257 136.769 55.5353V177.257C136.769 178.899 136.345 180.513 135.538 181.943C134.73 183.373 133.567 184.569 132.16 185.416Z" fill="#FAFAFA"/>
<path d="M131.998 185.169C123.004 190.523 114.014 195.891 105.028 201.275L89.0682 210.823L81.7882 215.191L78.6018 217.106C77.6218 217.694 76.5802 218.534 75.4938 218.909C73.6962 219.536 72.0778 218.097 72.033 216.322C72.033 216.036 72.033 215.762 72.033 215.465V102.479C72.033 99.4723 72.033 96.4595 72.033 93.4523C72.0124 92.0285 72.3721 90.625 73.0749 89.3866C73.7778 88.1482 74.7984 87.1198 76.0314 86.4075C77.3306 85.6403 78.6354 84.8843 79.9514 84.1227L98.241 73.3595L119.941 60.6419C124.057 58.2339 128.162 55.8035 132.261 53.4067C133.538 52.6675 135.145 52.7403 136.035 54.0787C136.35 54.613 136.499 55.2292 136.461 55.8483V176.786C136.517 178.456 136.133 180.112 135.346 181.586C134.56 183.061 133.399 184.302 131.981 185.186C131.673 185.376 131.953 185.863 132.261 185.673C133.753 184.75 134.977 183.453 135.814 181.911C136.651 180.369 137.071 178.635 137.032 176.881V64.4611C137.032 61.5379 137.06 58.6091 137.032 55.6803C137.046 55.0939 136.901 54.5148 136.611 54.0049C136.321 53.4949 135.898 53.0735 135.387 52.7858C134.876 52.498 134.296 52.3548 133.71 52.3714C133.124 52.3881 132.553 52.564 132.059 52.8803C130.693 53.6699 129.338 54.4763 127.983 55.2715L109.2 66.3203L87.3042 79.1555C83.4402 81.4235 79.5202 83.6747 75.673 85.9595C74.3778 86.7216 73.3068 87.8122 72.5683 89.121C71.8299 90.4298 71.4501 91.9104 71.4674 93.4131C71.4674 94.4211 71.4674 95.4291 71.4674 96.4371V215.846C71.4674 216.036 71.4674 216.232 71.4674 216.406C71.4734 216.907 71.5964 217.399 71.8265 217.844C72.0566 218.289 72.3875 218.674 72.7928 218.968C73.198 219.262 73.6665 219.458 74.1607 219.539C74.6549 219.62 75.1613 219.585 75.6394 219.435C76.6978 219.083 77.6946 218.287 78.6466 217.716L81.8946 215.762L89.1746 211.405C99.7623 205.058 110.359 198.723 120.966 192.399L132.295 185.639C132.586 185.471 132.306 184.984 131.998 185.169Z" fill="#EBEBEB"/>
<path d="M75.7229 86.2401L132.406 53.0377C132.846 52.7809 133.346 52.6447 133.856 52.6426C134.366 52.6405 134.867 52.7728 135.309 53.026C135.751 53.2792 136.119 53.6444 136.375 54.0849C136.631 54.5255 136.767 55.0257 136.768 55.5353V60.8833L71.7637 98.4033V93.1841C71.761 91.782 72.1249 90.4034 72.8194 89.1854C73.5139 87.9673 74.5148 86.9519 75.7229 86.2401Z" fill="#EBEBEB"/>
<path d="M114.666 115.391C120.414 105.435 120.414 94.6738 114.666 91.3552C108.918 88.0367 99.5989 93.4172 93.851 103.373C88.103 113.329 88.103 124.09 93.8509 127.408C99.5988 130.727 108.918 125.346 114.666 115.391Z" fill="#007438"/>
<path opacity="0.5" d="M114.666 115.391C120.414 105.435 120.414 94.6738 114.666 91.3552C108.918 88.0367 99.5989 93.4172 93.851 103.373C88.103 113.329 88.103 124.09 93.8509 127.408C99.5988 130.727 108.918 125.346 114.666 115.391Z" fill="white"/>
<path d="M101.618 109.446C101.531 109.446 101.445 109.429 101.365 109.396C101.285 109.363 101.212 109.314 101.151 109.252C101.089 109.191 101.041 109.118 101.007 109.038C100.974 108.958 100.957 108.872 100.957 108.785V104.434C101.005 103.402 101.3 102.396 101.816 101.501C102.333 100.605 103.056 99.8466 103.925 99.2876C104.277 98.9977 104.709 98.822 105.163 98.7841C105.618 98.7462 106.073 98.8479 106.468 99.0756C106.863 99.3032 107.179 99.646 107.374 100.058C107.569 100.47 107.634 100.932 107.559 101.382V105.739C107.559 105.914 107.49 106.082 107.366 106.206C107.242 106.33 107.074 106.4 106.899 106.4C106.723 106.4 106.555 106.33 106.431 106.206C106.307 106.082 106.238 105.914 106.238 105.739V101.36C106.325 101.141 106.33 100.898 106.252 100.675C106.174 100.453 106.018 100.266 105.813 100.15C105.608 100.034 105.368 99.9961 105.137 100.043C104.906 100.091 104.701 100.22 104.558 100.408C103.891 100.853 103.337 101.446 102.936 102.14C102.536 102.834 102.302 103.612 102.251 104.412V108.763C102.257 108.937 102.194 109.107 102.075 109.235C101.956 109.363 101.792 109.439 101.618 109.446Z" fill="#37474F"/>
<path d="M109.593 102.932C109.438 102.868 109.269 102.844 109.103 102.863C108.936 102.881 108.777 102.942 108.641 103.038L99.8374 108.123C99.4513 108.366 99.1317 108.701 98.9078 109.098C98.5556 109.669 98.3623 110.325 98.3478 110.996V118.618C98.3281 118.831 98.3571 119.047 98.4328 119.247C98.5085 119.448 98.6288 119.629 98.7846 119.777C98.8323 119.814 98.8851 119.844 98.9414 119.866C99.0905 119.922 99.2508 119.941 99.4087 119.921C99.5666 119.902 99.7175 119.845 99.8486 119.754L108.641 114.664C109.099 114.337 109.475 113.906 109.736 113.407C109.998 112.908 110.139 112.355 110.147 111.791V104.158C110.178 103.923 110.142 103.683 110.045 103.466C109.947 103.25 109.79 103.065 109.593 102.932Z" fill="#007438"/>
<path d="M105.28 110.879L106.131 113.321L103.146 115.04L103.891 112.027L103.998 111.601C103.494 111.601 103.146 111.226 103.146 110.543C103.15 110.265 103.198 109.989 103.286 109.725C103.519 108.998 103.996 108.372 104.636 107.956C105.459 107.48 106.131 107.866 106.131 108.818C106.09 109.582 105.79 110.309 105.28 110.879Z" fill="#455A64"/>
<path d="M103.868 112L103.974 111.574C103.47 111.574 103.123 111.199 103.123 110.516C103.127 110.238 103.174 109.962 103.263 109.698L105.279 110.88L106.13 113.321L103.868 112Z" fill="#37474F"/>
<path d="M126.001 137.569L82.5446 162.641C80.747 163.677 79.291 162.573 79.291 160.182V153.602C79.291 151.205 80.747 148.422 82.5446 147.386L126.001 122.315C127.798 121.279 129.254 122.377 129.254 124.773V131.353C129.226 133.75 127.77 136.528 126.001 137.569Z" fill="#007438"/>
<path d="M90.3556 146.793H89.5156V153.754H90.3556V146.793Z" fill="#FAFAFA"/>
<path d="M93.1067 148.782L87.0508 152.263L87.4708 152.993L93.5267 149.513L93.1067 148.782Z" fill="#FAFAFA"/>
<path d="M88.0118 148.686L87.5918 149.413L91.8547 151.874L92.2747 151.147L88.0118 148.686Z" fill="#FAFAFA"/>
<path d="M92.3015 145.984L88.0371 153.404L88.7679 153.824L93.0323 146.404L92.3015 145.984Z" fill="#FAFAFA"/>
<path d="M104.674 138.997H103.834V145.958H104.674V138.997Z" fill="#FAFAFA"/>
<path d="M107.056 140.385L101.027 143.865L101.447 144.593L107.476 141.112L107.056 140.385Z" fill="#FAFAFA"/>
<path d="M102.336 140.889L101.916 141.616L106.179 144.077L106.599 143.35L102.336 140.889Z" fill="#FAFAFA"/>
<path d="M106.589 138.128L102.324 145.548L103.055 145.968L107.319 138.548L106.589 138.128Z" fill="#FAFAFA"/>
<path d="M118.994 131.196H118.154V138.157H118.994V131.196Z" fill="#FAFAFA"/>
<path d="M121.863 133.119L115.807 136.6L116.227 137.33L122.283 133.85L121.863 133.119Z" fill="#FAFAFA"/>
<path d="M116.656 133.088L116.236 133.815L120.499 136.277L120.919 135.549L116.656 133.088Z" fill="#FAFAFA"/>
<path d="M120.344 130.767L116.08 138.153L116.808 138.573L121.072 131.187L120.344 130.767Z" fill="#FAFAFA"/>
<path d="M127.261 146.629C127.821 146.629 128.106 147.497 128.106 148.359V154.939C128.106 156.938 126.869 159.341 125.413 160.186L81.9846 185.258C81.7642 185.398 81.5119 185.481 81.251 185.498C80.691 185.498 80.411 184.63 80.411 183.768V177.188C80.411 175.189 81.643 172.786 83.1046 171.941L126.561 146.87C126.779 146.729 127.03 146.646 127.289 146.629M127.289 145.509C126.833 145.526 126.389 145.661 126.001 145.901L82.5446 170.972C80.747 172.008 79.291 174.791 79.291 177.188V183.768C79.291 185.549 80.0974 186.618 81.251 186.618C81.709 186.603 82.1549 186.467 82.5446 186.226L126.001 161.155C127.798 160.119 129.254 157.336 129.254 154.939V148.359C129.254 146.578 128.442 145.509 127.289 145.509Z" fill="#007438"/>
<path d="M95.3478 172.697C95.0311 172.879 94.7584 172.962 94.5298 172.945C94.3026 172.926 94.1275 172.815 94.0045 172.613C93.8815 172.409 93.8201 172.12 93.8201 171.746C93.8201 171.38 93.8815 171.024 94.0045 170.678C94.1275 170.331 94.3006 170.016 94.5238 169.734C94.7484 169.451 95.0117 169.222 95.3138 169.049C95.5169 168.932 95.7061 168.861 95.8812 168.836C96.0576 168.809 96.2113 168.832 96.3423 168.906C96.4746 168.98 96.5775 169.109 96.6511 169.293C96.7246 169.476 96.7613 169.718 96.7613 170.021V170.291L94.1609 171.786V171.175L95.9573 170.143C95.9573 170.001 95.9306 169.891 95.8771 169.812C95.8237 169.733 95.7495 169.69 95.6546 169.683C95.561 169.674 95.4521 169.705 95.3278 169.776C95.1981 169.851 95.0832 169.951 94.9829 170.078C94.884 170.203 94.8065 170.339 94.7504 170.487C94.6942 170.634 94.6655 170.777 94.6641 170.918V171.499C94.6641 171.674 94.6922 171.81 94.7484 171.906C94.8058 172.001 94.8867 172.053 94.991 172.062C95.0952 172.072 95.2188 172.036 95.3619 171.953C95.4568 171.899 95.5437 171.833 95.6225 171.757C95.7014 171.681 95.7689 171.596 95.825 171.502C95.8812 171.408 95.9239 171.308 95.9533 171.202L96.7433 170.808C96.7032 171.05 96.621 171.288 96.4967 171.523C96.3737 171.756 96.2146 171.974 96.0195 172.177C95.8257 172.377 95.6018 172.551 95.3478 172.697ZM98.1728 168.95V171.004L97.3187 171.495V167.943L98.1327 167.475V168.102L98.1688 168.081C98.237 167.835 98.3513 167.606 98.5117 167.394C98.6721 167.18 98.8665 167.007 99.0951 166.876C99.309 166.753 99.4954 166.699 99.6545 166.716C99.8136 166.732 99.9372 166.816 100.025 166.965C100.114 167.113 100.158 167.326 100.158 167.601V169.863L99.3036 170.354V168.268C99.305 168.05 99.2568 167.908 99.1593 167.842C99.0617 167.775 98.9274 167.791 98.7563 167.889C98.6413 167.955 98.5397 168.042 98.4515 168.15C98.3646 168.257 98.2965 168.379 98.247 168.517C98.1989 168.652 98.1742 168.797 98.1728 168.95ZM102.466 164.991V165.73L100.614 166.794V166.055L102.466 164.991ZM101.034 164.964L101.887 164.474V167.78C101.887 167.87 101.899 167.934 101.923 167.971C101.947 168.007 101.981 168.022 102.023 168.018C102.067 168.012 102.118 167.993 102.175 167.96C102.215 167.937 102.255 167.91 102.295 167.88C102.335 167.847 102.366 167.823 102.388 167.806L102.522 168.461C102.479 168.501 102.419 168.553 102.341 168.617C102.264 168.683 102.17 168.75 102.059 168.819C101.854 168.946 101.674 169.018 101.519 169.035C101.365 169.051 101.246 169.007 101.161 168.904C101.075 168.8 101.033 168.632 101.034 168.399V164.964ZM104.389 167.501C104.073 167.682 103.801 167.765 103.572 167.748C103.346 167.729 103.171 167.619 103.048 167.417C102.925 167.214 102.864 166.925 102.864 166.551C102.864 166.186 102.925 165.831 103.048 165.485C103.171 165.139 103.344 164.825 103.566 164.543C103.791 164.26 104.053 164.032 104.355 163.859C104.558 163.742 104.747 163.671 104.921 163.646C105.098 163.619 105.251 163.642 105.382 163.717C105.514 163.79 105.617 163.919 105.69 164.103C105.763 164.285 105.8 164.527 105.8 164.829V165.099L103.204 166.591V165.982L104.997 164.951C104.997 164.809 104.971 164.699 104.917 164.621C104.864 164.542 104.79 164.499 104.695 164.492C104.602 164.483 104.493 164.514 104.369 164.585C104.24 164.659 104.125 164.76 104.025 164.887C103.926 165.011 103.849 165.147 103.793 165.295C103.737 165.441 103.708 165.584 103.707 165.725V166.305C103.707 166.48 103.735 166.615 103.791 166.711C103.848 166.806 103.929 166.858 104.033 166.867C104.137 166.877 104.26 166.84 104.403 166.758C104.498 166.704 104.585 166.639 104.663 166.563C104.742 166.487 104.809 166.402 104.865 166.308C104.921 166.214 104.964 166.114 104.993 166.008L105.782 165.615C105.742 165.856 105.66 166.094 105.536 166.329C105.413 166.561 105.254 166.779 105.06 166.981C104.866 167.182 104.643 167.355 104.389 167.501ZM106.357 166.301V162.755L107.183 162.28V162.898L107.215 162.88C107.271 162.628 107.365 162.407 107.497 162.219C107.629 162.029 107.782 161.885 107.954 161.786C107.996 161.761 108.042 161.738 108.092 161.716C108.141 161.694 108.185 161.677 108.222 161.666V162.539C108.182 162.548 108.127 162.568 108.056 162.598C107.985 162.627 107.92 162.659 107.862 162.693C107.736 162.765 107.624 162.861 107.525 162.981C107.428 163.098 107.351 163.229 107.293 163.373C107.237 163.516 107.209 163.66 107.209 163.804V165.811L106.357 166.301Z" fill="#007438"/>
<path d="M191.18 71.8538C191.205 72.297 191.336 72.7276 191.561 73.1103C191.786 73.4929 192.099 73.8166 192.473 74.0547C193.19 74.4579 193.767 74.1274 193.767 73.321C193.741 72.8779 193.61 72.4473 193.385 72.0647C193.161 71.682 192.848 71.3583 192.473 71.1203C191.762 70.7171 191.18 71.0418 191.18 71.8538Z" fill="#455A64"/>
<path d="M173.836 77.0679C172.698 77.03 171.589 76.6981 170.616 76.1047L166.512 73.7807C166.477 73.7639 166.447 73.7402 166.422 73.7113C166.398 73.6823 166.379 73.6486 166.368 73.6123C166.357 73.5759 166.353 73.5376 166.357 73.4998C166.361 73.4619 166.373 73.4253 166.392 73.3922C166.41 73.359 166.435 73.33 166.466 73.3069C166.496 73.2838 166.531 73.2672 166.568 73.2579C166.604 73.2487 166.643 73.2471 166.68 73.2532C166.718 73.2593 166.754 73.273 166.786 73.2935L170.891 75.6175C172.666 76.6199 174.307 76.7823 175.522 76.0767C176.737 75.3711 177.37 73.9207 177.37 71.9551C177.37 69.7879 178.126 68.1527 179.492 67.3519C180.859 66.5511 182.735 66.7023 184.684 67.8055L191.32 71.5631C191.383 71.6006 191.43 71.6611 191.449 71.7321C191.469 71.8031 191.461 71.879 191.426 71.9439C191.39 72.0084 191.329 72.0558 191.258 72.0758C191.186 72.0957 191.11 72.0866 191.045 72.0503L184.409 68.3207C182.64 67.3183 180.993 67.1559 179.778 67.8671C178.563 68.5783 177.93 70.0231 177.93 71.9831C177.93 74.1559 177.174 75.7911 175.808 76.5863C175.205 76.9191 174.525 77.0853 173.836 77.0679Z" fill="#455A64"/>
<path d="M164.814 72.5251C164.834 72.8832 164.94 73.2314 165.122 73.5403C165.304 73.8492 165.558 74.1099 165.862 74.3003C166.422 74.6307 166.909 74.3619 166.909 73.7067C166.889 73.3486 166.784 73.0004 166.602 72.6915C166.419 72.3826 166.166 72.1219 165.862 71.9315C165.285 71.6011 164.814 71.8699 164.814 72.5251Z" fill="#455A64"/>
<path d="M231.052 66.5729L203.612 51.0385C203.324 50.827 202.976 50.7129 202.618 50.7129C202.261 50.7129 201.913 50.827 201.624 51.0385L199.25 52.6737L200.868 54.6729V83.5857C200.868 85.6073 202.1 87.9537 203.612 88.8329L230.364 103.953L230.487 106.103L232.984 104.39C233.272 104.121 233.495 103.79 233.635 103.422C233.774 103.054 233.828 102.659 233.791 102.267V71.8201C233.802 69.7985 232.57 67.4521 231.052 66.5729Z" fill="#007438"/>
<path opacity="0.3" d="M231.052 66.5729L203.612 51.0385C203.324 50.827 202.976 50.7129 202.618 50.7129C202.261 50.7129 201.913 50.827 201.624 51.0385L199.25 52.6737L200.868 54.6729V83.5857C200.868 85.6073 202.1 87.9537 203.612 88.8329L230.364 103.953L230.487 106.103L232.984 104.39C233.272 104.121 233.495 103.79 233.635 103.422C233.774 103.054 233.828 102.659 233.791 102.267V71.8201C233.802 69.7985 232.57 67.4521 231.052 66.5729Z" fill="black"/>
<path d="M228.721 105.969L201.281 90.4348C199.764 89.5612 198.537 87.2092 198.537 85.1876V54.7236C198.537 52.6964 199.764 51.7668 201.281 52.646L228.721 68.1804C230.239 69.054 231.465 71.406 231.465 73.4276V103.897C231.465 105.919 230.239 106.848 228.721 105.969Z" fill="#007438"/>
<path d="M222.96 79.6042C222.898 79.6051 222.837 79.5853 222.787 79.5477C222.738 79.5102 222.702 79.4572 222.686 79.397C222.101 77.2365 221.197 75.1754 220.003 73.2818C219.963 73.2194 219.95 73.1437 219.965 73.0713C219.981 72.9989 220.025 72.9356 220.087 72.8954C220.118 72.8751 220.153 72.8613 220.19 72.8548C220.226 72.8483 220.263 72.8493 220.3 72.8577C220.336 72.8661 220.37 72.8817 220.4 72.9035C220.43 72.9254 220.455 72.9532 220.474 72.9851C221.699 74.9249 222.628 77.037 223.229 79.2515C223.246 79.3234 223.236 79.3994 223.2 79.4639C223.163 79.5284 223.104 79.5766 223.033 79.5986L222.96 79.6042Z" fill="white"/>
<path d="M223.587 85.2995C223.512 85.2938 223.443 85.2588 223.394 85.2022C223.344 85.1457 223.319 85.072 223.324 84.9971C223.324 84.7003 223.358 84.3867 223.358 84.0675C223.355 83.1101 223.27 82.1546 223.106 81.2115C223.093 81.1372 223.11 81.061 223.154 80.9996C223.198 80.9381 223.264 80.8965 223.338 80.8839C223.412 80.8713 223.488 80.8887 223.55 80.9323C223.611 80.9758 223.653 81.042 223.666 81.1163C223.837 82.0908 223.925 83.0781 223.929 84.0675C223.929 84.3979 223.929 84.7227 223.895 85.0363C223.892 85.0739 223.882 85.1105 223.865 85.144C223.848 85.1776 223.825 85.2075 223.796 85.232C223.767 85.2564 223.734 85.275 223.698 85.2866C223.662 85.2982 223.625 85.3026 223.587 85.2995Z" fill="white"/>
<path d="M206.457 76.0032C206.388 76.0034 206.321 75.9776 206.27 75.9309C206.219 75.8842 206.188 75.82 206.182 75.7512C206.138 75.264 206.115 74.7768 206.115 74.3064C206.115 71.5904 206.849 69.3504 208.182 67.9896C208.207 67.9635 208.238 67.9428 208.271 67.9287C208.305 67.9145 208.341 67.9072 208.378 67.9072C208.414 67.9072 208.45 67.9145 208.484 67.9287C208.518 67.9428 208.548 67.9635 208.574 67.9896C208.6 68.0156 208.621 68.0466 208.635 68.0807C208.649 68.1148 208.656 68.1514 208.656 68.1884C208.656 68.2253 208.649 68.2619 208.635 68.2961C208.621 68.3302 208.6 68.3612 208.574 68.3872C207.347 69.6416 206.67 71.7472 206.67 74.312C206.67 74.7656 206.67 75.236 206.731 75.7064C206.735 75.7429 206.732 75.7798 206.721 75.8149C206.71 75.85 206.693 75.8827 206.669 75.9108C206.646 75.939 206.617 75.9622 206.584 75.9791C206.551 75.9959 206.516 76.006 206.479 76.0088L206.457 76.0032Z" fill="white"/>
<path d="M218.843 71.4726C218.801 71.4731 218.76 71.4643 218.722 71.4469C218.685 71.4295 218.651 71.4038 218.625 71.3718C217.587 70.0507 216.313 68.9341 214.867 68.079C213.008 67.0262 211.261 66.8246 209.827 67.519C209.76 67.5497 209.684 67.5528 209.615 67.5277C209.545 67.5025 209.489 67.4511 209.457 67.3846C209.441 67.3512 209.432 67.315 209.43 67.2779C209.428 67.2409 209.434 67.2039 209.446 67.169C209.459 67.1341 209.478 67.102 209.503 67.0746C209.528 67.0472 209.558 67.0251 209.592 67.0094C211.205 66.2646 213.125 66.4494 215.153 67.6198C216.659 68.5112 217.988 69.6731 219.073 71.047C219.119 71.1044 219.141 71.1777 219.134 71.2511C219.126 71.3245 219.09 71.392 219.033 71.439C218.976 71.4725 218.908 71.4844 218.843 71.4726Z" fill="white"/>
<path d="M208.387 76.2217C208.315 76.2217 208.245 76.1938 208.193 76.1437C208.141 76.0935 208.11 76.0252 208.107 75.9529C208.107 75.7793 208.107 75.6057 208.107 75.4321C208.107 73.4441 208.595 71.8201 209.519 70.7393C209.542 70.7109 209.571 70.6874 209.603 70.6703C209.635 70.6532 209.671 70.6428 209.708 70.6397C209.744 70.6365 209.781 70.6408 209.816 70.6521C209.851 70.6634 209.883 70.6817 209.911 70.7057C209.967 70.7544 210.002 70.8233 210.008 70.8976C210.015 70.9719 209.992 71.0457 209.944 71.1033C209.11 72.0833 208.667 73.5785 208.667 75.4321C208.667 75.5945 208.667 75.7625 208.667 75.9249C208.669 75.9616 208.663 75.9984 208.65 76.0329C208.638 76.0674 208.618 76.0992 208.593 76.1262C208.568 76.1532 208.538 76.1751 208.505 76.1905C208.472 76.2059 208.435 76.2146 208.399 76.2161L208.387 76.2217Z" fill="white"/>
<path d="M210.562 70.4538C210.5 70.4544 210.44 70.4346 210.391 70.3977C210.342 70.3607 210.306 70.3085 210.29 70.2492C210.273 70.1898 210.276 70.1267 210.299 70.0696C210.322 70.0124 210.363 69.9644 210.416 69.933C211.134 69.5063 211.974 69.3328 212.802 69.4402C212.875 69.4473 212.943 69.483 212.99 69.5396C213.037 69.5962 213.06 69.6691 213.054 69.7426C213.046 69.8164 213.009 69.884 212.951 69.931C212.894 69.9781 212.82 70.0009 212.746 69.9946C212.041 69.9105 211.327 70.0642 210.719 70.4314C210.669 70.4521 210.615 70.4598 210.562 70.4538Z" fill="white"/>
<path d="M222.959 88.8997C222.903 88.8998 222.848 88.8834 222.801 88.8525C222.754 88.8216 222.717 88.7776 222.695 88.7261L222.371 87.9141C221.72 86.3438 221.376 84.6634 221.357 82.9637C221.357 78.2149 218.445 72.7213 214.867 70.6941C214.835 70.6761 214.807 70.6519 214.784 70.6228C214.762 70.5938 214.745 70.5605 214.736 70.525C214.726 70.4895 214.724 70.4524 214.729 70.4161C214.734 70.3797 214.747 70.3447 214.766 70.3133C214.783 70.2808 214.807 70.2521 214.836 70.2291C214.865 70.206 214.898 70.189 214.934 70.1791C214.969 70.1691 215.006 70.1665 215.043 70.1713C215.08 70.176 215.115 70.1881 215.147 70.2069C218.876 72.3237 221.917 78.0469 221.917 82.9413C221.931 84.576 222.262 86.1925 222.891 87.7013L223.216 88.5133C223.231 88.547 223.238 88.5834 223.239 88.6201C223.239 88.6569 223.232 88.6933 223.218 88.7273C223.204 88.7612 223.183 88.792 223.157 88.8178C223.13 88.8435 223.099 88.8638 223.065 88.8773C223.032 88.8922 222.995 88.8999 222.959 88.8997Z" fill="white"/>
<path d="M210.101 85.6809C210.044 85.6808 209.988 85.6631 209.941 85.63C209.894 85.597 209.858 85.5502 209.838 85.4961C208.934 82.8499 208.349 80.1051 208.097 77.3201C208.094 77.2828 208.098 77.2454 208.11 77.2099C208.121 77.1744 208.14 77.1416 208.165 77.1134C208.189 77.0852 208.219 77.0622 208.252 77.0458C208.286 77.0293 208.323 77.0198 208.36 77.0177C208.433 77.0159 208.505 77.0421 208.56 77.0909C208.615 77.1397 208.65 77.2076 208.657 77.2809C208.895 80.0131 209.459 82.7071 210.337 85.3057C210.35 85.3402 210.356 85.377 210.355 85.4139C210.353 85.4509 210.345 85.4872 210.329 85.5207C210.313 85.5541 210.291 85.5841 210.263 85.6087C210.236 85.6334 210.204 85.6522 210.169 85.6641C210.147 85.6726 210.124 85.6782 210.101 85.6809Z" fill="white"/>
<path d="M221.313 90.7872C221.256 90.7884 221.2 90.7718 221.153 90.7397C221.106 90.7075 221.07 90.6615 221.05 90.608L220.3 88.592C219.543 86.6243 219.136 84.5397 219.096 82.432V80.2312C219.096 77.616 217.22 74.4296 214.912 73.1248C213.837 72.5144 212.84 72.408 212.112 72.8336C211.384 73.2592 210.992 74.1384 210.992 75.3312V77.28C211.054 80.4457 211.687 83.5743 212.863 86.5144L213.787 88.9224C213.8 88.9569 213.807 88.9938 213.806 89.0309C213.805 89.0679 213.797 89.1045 213.782 89.1383C213.767 89.1722 213.745 89.2027 213.718 89.2281C213.691 89.2535 213.659 89.2733 213.624 89.2864C213.555 89.3119 213.479 89.3091 213.412 89.2787C213.345 89.2483 213.292 89.1927 213.266 89.124L212.342 86.716C211.149 83.7101 210.507 80.5136 210.449 77.28V75.3368C210.449 73.9368 210.936 72.8784 211.832 72.3576C212.728 71.8368 213.932 71.932 215.192 72.6432C217.651 74.0376 219.672 77.4424 219.672 80.2368V82.4376C219.711 84.4787 220.107 86.4972 220.843 88.4016L221.588 90.412C221.601 90.4461 221.607 90.4826 221.607 90.5193C221.606 90.556 221.597 90.5921 221.582 90.6255C221.567 90.6589 221.545 90.6889 221.518 90.7138C221.491 90.7387 221.46 90.7579 221.425 90.7704L221.313 90.7872Z" fill="white"/>
<path d="M218.843 91.5888C218.783 91.5892 218.725 91.5703 218.676 91.5351C218.628 91.4998 218.592 91.4499 218.574 91.3928L218.182 90.0712C217.468 87.7515 217.091 85.3413 217.062 82.9144V79.5208C217.019 78.7521 216.793 78.0048 216.403 77.3407C216.014 76.6765 215.472 76.1147 214.822 75.7016C214.619 75.5532 214.381 75.4606 214.132 75.433C213.882 75.4055 213.63 75.4441 213.4 75.5448C213.203 75.6876 213.048 75.8799 212.949 76.1022C212.851 76.3245 212.813 76.5688 212.84 76.8104C212.84 80.596 213.993 84.9584 216.082 89.0968L216.872 90.6592C216.888 90.6923 216.898 90.7283 216.901 90.7652C216.903 90.8021 216.899 90.8392 216.887 90.8743C216.875 90.9094 216.857 90.9419 216.832 90.9698C216.808 90.9978 216.779 91.0207 216.746 91.0372C216.713 91.0538 216.676 91.0636 216.64 91.0663C216.603 91.0689 216.566 91.0642 216.531 91.0525C216.495 91.0408 216.463 91.0223 216.435 90.9981C216.407 90.9738 216.384 90.9443 216.368 90.9112L215.584 89.3488C213.45 85.132 212.28 80.68 212.28 76.8104C212.248 76.4708 212.308 76.129 212.454 75.8206C212.6 75.5123 212.826 75.2488 213.108 75.0576C213.422 74.9062 213.771 74.8409 214.118 74.8685C214.465 74.896 214.799 75.0154 215.085 75.2144C215.819 75.6795 216.432 76.3126 216.873 77.0614C217.315 77.8102 217.571 78.6532 217.622 79.5208V82.9256C217.647 85.2993 218.015 87.6569 218.714 89.9256L219.106 91.2416C219.117 91.2769 219.121 91.3141 219.117 91.3509C219.114 91.3877 219.103 91.4234 219.085 91.4558C219.067 91.4882 219.043 91.5167 219.014 91.5396C218.985 91.5625 218.951 91.5792 218.916 91.5888C218.892 91.5935 218.867 91.5935 218.843 91.5888Z" fill="white"/>
<path d="M215.702 85.6804C215.639 85.6797 215.577 85.6578 215.528 85.6183C215.478 85.5787 215.443 85.5237 215.428 85.462L215.17 84.2636C214.924 83.1113 214.8 81.9363 214.801 80.758V77.6052C214.801 77.5309 214.83 77.4597 214.883 77.4072C214.935 77.3547 215.007 77.3252 215.081 77.3252C215.155 77.3252 215.226 77.3547 215.279 77.4072C215.331 77.4597 215.361 77.5309 215.361 77.6052V80.758C215.364 81.8874 215.484 83.0133 215.719 84.118L215.977 85.3164C215.985 85.3521 215.986 85.3891 215.98 85.4251C215.973 85.4612 215.96 85.4957 215.94 85.5265C215.92 85.5573 215.894 85.5838 215.864 85.6044C215.834 85.6251 215.8 85.6395 215.764 85.6468L215.702 85.6804Z" fill="white"/>
<path d="M207.066 79.6036C206.997 79.6027 206.931 79.5767 206.879 79.5303C206.828 79.484 206.795 79.4204 206.786 79.3516L206.624 77.7164C206.618 77.6424 206.641 77.5688 206.688 77.5113C206.735 77.4538 206.802 77.4169 206.876 77.4084C206.913 77.4037 206.951 77.4067 206.986 77.4169C207.022 77.4272 207.055 77.4447 207.084 77.4683C207.113 77.4919 207.137 77.521 207.154 77.5541C207.171 77.5871 207.181 77.6233 207.184 77.6604L207.346 79.2956C207.35 79.3324 207.347 79.3696 207.336 79.4051C207.326 79.4405 207.308 79.4735 207.285 79.5022C207.261 79.5308 207.232 79.5545 207.2 79.5719C207.167 79.5893 207.131 79.6001 207.094 79.6036H207.066Z" fill="white"/>
<path d="M231.052 118.462L203.612 102.922C203.324 102.711 202.976 102.597 202.618 102.597C202.261 102.597 201.913 102.711 201.624 102.922L199.25 104.558L200.868 106.557V135.469C200.868 137.491 202.1 139.837 203.612 140.717L230.364 155.837L230.487 157.987L232.984 156.279C233.272 156.01 233.495 155.678 233.635 155.309C233.775 154.94 233.828 154.544 233.791 154.151V123.687C233.802 121.682 232.57 119.336 231.052 118.462Z" fill="#007438"/>
<path opacity="0.3" d="M231.052 118.462L203.612 102.922C203.324 102.711 202.976 102.597 202.618 102.597C202.261 102.597 201.913 102.711 201.624 102.922L199.25 104.558L200.868 106.557V135.469C200.868 137.491 202.1 139.837 203.612 140.717L230.364 155.837L230.487 157.987L232.984 156.279C233.272 156.01 233.495 155.678 233.635 155.309C233.775 154.94 233.828 154.544 233.791 154.151V123.687C233.802 121.682 232.57 119.336 231.052 118.462Z" fill="black"/>
<path d="M228.721 157.854L201.281 142.319C199.764 141.446 198.537 139.099 198.537 137.072V106.608C198.537 104.586 199.764 103.657 201.281 104.53L228.721 120.065C230.239 120.944 231.465 123.29 231.465 125.312V155.782C231.465 157.803 230.239 158.733 228.721 157.854Z" fill="#007438"/>
<path d="M204.653 115.109C204.579 115.109 204.508 115.079 204.455 115.027C204.403 114.974 204.373 114.903 204.373 114.829V112.942C204.371 112.754 204.42 112.57 204.513 112.407C204.607 112.245 204.742 112.11 204.905 112.018C205.074 111.916 205.268 111.862 205.465 111.862C205.662 111.862 205.856 111.916 206.025 112.018L208.002 113.138C208.067 113.174 208.115 113.235 208.136 113.307C208.156 113.379 208.147 113.456 208.111 113.521C208.075 113.587 208.014 113.635 207.942 113.655C207.87 113.676 207.793 113.667 207.727 113.631L205.745 112.511C205.66 112.461 205.563 112.436 205.465 112.436C205.367 112.436 205.27 112.461 205.185 112.511C205.108 112.554 205.043 112.617 204.999 112.694C204.955 112.771 204.932 112.859 204.933 112.947V114.835C204.932 114.908 204.901 114.978 204.849 115.029C204.797 115.08 204.726 115.109 204.653 115.109Z" fill="white"/>
<path d="M207.833 141.076C207.786 141.075 207.74 141.064 207.699 141.042L205.851 139.995C205.409 139.741 205.042 139.374 204.788 138.933C204.533 138.491 204.399 137.99 204.4 137.481V135.739C204.4 135.665 204.43 135.594 204.482 135.541C204.535 135.488 204.606 135.459 204.68 135.459C204.755 135.459 204.826 135.488 204.878 135.541C204.931 135.594 204.96 135.665 204.96 135.739V137.481C204.962 137.894 205.073 138.299 205.283 138.655C205.492 139.011 205.793 139.306 206.153 139.508L208.001 140.555C208.054 140.586 208.095 140.634 208.118 140.69C208.141 140.747 208.145 140.809 208.129 140.868C208.113 140.927 208.078 140.98 208.03 141.017C207.982 141.055 207.922 141.075 207.861 141.076H207.833Z" fill="white"/>
<path d="M224.562 150.433C224.365 150.437 224.172 150.387 224.002 150.287L222.025 149.167C221.961 149.131 221.913 149.07 221.893 148.999C221.873 148.928 221.882 148.851 221.919 148.787C221.956 148.723 222.017 148.677 222.088 148.657C222.159 148.637 222.234 148.645 222.299 148.68L224.282 149.8C224.367 149.849 224.464 149.875 224.562 149.875C224.66 149.875 224.757 149.849 224.842 149.8C224.919 149.757 224.984 149.693 225.028 149.617C225.072 149.54 225.095 149.452 225.094 149.363V147.476C225.094 147.402 225.123 147.331 225.176 147.278C225.228 147.226 225.3 147.196 225.374 147.196C225.448 147.196 225.519 147.226 225.572 147.278C225.624 147.331 225.654 147.402 225.654 147.476V149.363C225.655 149.55 225.606 149.734 225.513 149.895C225.419 150.057 225.284 150.19 225.122 150.282C224.952 150.382 224.759 150.435 224.562 150.433Z" fill="white"/>
<path d="M225.362 126.842C225.288 126.842 225.216 126.812 225.164 126.759C225.111 126.707 225.082 126.636 225.082 126.562V124.82C225.08 124.407 224.969 124.003 224.759 123.647C224.55 123.292 224.249 122.999 223.889 122.798L222.041 121.751C221.976 121.714 221.929 121.652 221.909 121.58C221.889 121.507 221.898 121.43 221.935 121.365C221.953 121.333 221.977 121.305 222.006 121.282C222.035 121.26 222.068 121.243 222.104 121.234C222.139 121.224 222.176 121.222 222.213 121.227C222.249 121.233 222.284 121.245 222.315 121.264L224.163 122.311C224.61 122.561 224.981 122.925 225.241 123.366C225.501 123.807 225.639 124.308 225.642 124.82V126.562C225.642 126.636 225.612 126.707 225.56 126.759C225.507 126.812 225.436 126.842 225.362 126.842Z" fill="white"/>
<path d="M207.134 124.527C207.196 127.707 207.651 130.867 208.489 133.935C210.617 141.965 219.011 146.899 221.318 141.461C222.402 138.786 222.934 135.919 222.881 133.033C222.881 128.105 219.353 122.113 215.007 119.649C210.561 117.135 207.072 119.47 207.134 124.527Z" fill="white"/>
<path d="M214.728 129.013V134.288L212.438 132.574L214.728 129.013Z" fill="#E0E0E0"/>
<path d="M210.467 125.861C210.482 126.12 210.557 126.371 210.688 126.595C210.818 126.819 211 127.009 211.217 127.149C211.637 127.385 211.973 127.194 211.973 126.718C211.959 126.46 211.882 126.208 211.751 125.985C211.619 125.762 211.436 125.574 211.217 125.436C210.803 125.201 210.467 125.391 210.467 125.861Z" fill="#E0E0E0"/>
<path d="M217.477 129.881C217.493 130.14 217.569 130.39 217.701 130.613C217.832 130.836 218.014 131.025 218.233 131.164C218.653 131.399 218.989 131.209 218.989 130.738C218.974 130.479 218.898 130.227 218.766 130.003C218.635 129.779 218.452 129.589 218.233 129.45C217.841 129.215 217.477 129.405 217.477 129.881Z" fill="#E0E0E0"/>
<path d="M213.971 136.87L216.53 136.438C216.53 136.438 215.987 139.171 213.971 136.87Z" fill="#E0E0E0"/>
<path d="M191.18 120.805C191.206 121.247 191.337 121.676 191.562 122.058C191.787 122.439 192.099 122.762 192.473 123C193.19 123.409 193.767 123.078 193.767 122.272C193.741 121.829 193.61 121.398 193.385 121.015C193.161 120.633 192.848 120.309 192.473 120.071C191.762 119.662 191.18 119.993 191.18 120.805Z" fill="#455A64"/>
<path d="M191.23 121.414C191.181 121.413 191.133 121.402 191.09 121.38L184.459 117.6C180.579 115.405 177.42 110.034 177.42 105.638C177.42 101.416 174.391 96.2696 170.667 94.1584L166.511 91.8064C166.447 91.7699 166.399 91.7093 166.379 91.638C166.36 91.5666 166.369 91.4902 166.405 91.4256C166.422 91.3931 166.446 91.3644 166.475 91.3414C166.504 91.3183 166.537 91.3013 166.573 91.2914C166.608 91.2814 166.645 91.2788 166.682 91.2836C166.719 91.2883 166.754 91.3005 166.786 91.3192L170.941 93.6712C174.822 95.872 177.98 101.237 177.98 105.638C177.98 109.855 181.01 115.002 184.734 117.113L191.37 120.876C191.434 120.912 191.482 120.973 191.502 121.044C191.522 121.116 191.512 121.192 191.476 121.257C191.453 121.302 191.417 121.341 191.374 121.368C191.331 121.396 191.281 121.411 191.23 121.414Z" fill="#455A64"/>
<path d="M164.814 90.4631C164.836 90.8215 164.942 91.1698 165.124 91.4793C165.306 91.7888 165.559 92.0508 165.862 92.2439C166.422 92.5687 166.909 92.3055 166.909 91.6503C166.887 91.2918 166.781 90.9436 166.599 90.6341C166.417 90.3245 166.164 90.0625 165.862 89.8695C165.285 89.5447 164.814 89.8079 164.814 90.4631Z" fill="#455A64"/>
<path d="M172.693 141.793C172.693 141.793 176.775 141.519 179.088 147.192C180.527 150.72 182.28 156.152 183.4 159.792C183.74 160.891 183.748 162.066 183.423 163.169C183.099 164.273 182.455 165.256 181.574 165.996L174.457 171.972L171.92 167.34C173.399 165.366 175.026 163.508 176.786 161.78L171.92 147.192L172.693 141.793Z" fill="#FFA8A7"/>
<path d="M174.575 159.12C174.575 159.12 181.06 159.977 182.678 154.976C182.678 154.976 179.878 147.657 178.624 145.226C177.37 142.796 174.749 141.026 172.694 141.793C170.639 142.561 174.575 159.12 174.575 159.12Z" fill="#007438"/>
<path opacity="0.4" d="M174.575 159.12C174.575 159.12 181.06 159.977 182.678 154.976C182.678 154.976 179.878 147.657 178.624 145.226C177.37 142.796 174.749 141.026 172.694 141.793C170.639 142.561 174.575 159.12 174.575 159.12Z" fill="white"/>
<path d="M170.242 224.785C170.242 224.785 167.162 222.147 165.963 222.024C164.765 221.901 162.693 223.95 164.446 227.506C164.933 228.497 166.915 229.567 168.153 231.465C169.39 233.364 170.499 234.792 172.398 234.529C174.296 234.265 174.542 233.201 174.419 231.964C174.259 230.832 174.032 229.71 173.742 228.604L170.242 224.785Z" fill="#37474F"/>
<path d="M172.48 233.964C170.526 234.233 169.378 232.76 168.101 230.806C166.824 228.851 164.786 227.743 164.282 226.723C164.08 226.315 163.915 225.89 163.789 225.452C163.882 226.169 164.098 226.864 164.427 227.507C164.915 228.499 166.897 229.568 168.135 231.467C169.372 233.365 170.481 234.793 172.379 234.53C173.835 234.334 174.317 233.656 174.407 232.794C174.16 233.376 173.628 233.813 172.48 233.964Z" fill="#263238"/>
<path d="M168.605 228.179C168.556 228.18 168.507 228.167 168.465 228.14C168.431 228.122 168.4 228.097 168.375 228.067C168.35 228.037 168.331 228.002 168.32 227.964C168.308 227.927 168.304 227.887 168.308 227.848C168.312 227.809 168.323 227.772 168.342 227.737C168.969 226.626 170.01 225.809 171.237 225.463C171.313 225.452 171.39 225.469 171.453 225.512C171.516 225.555 171.561 225.621 171.578 225.695C171.595 225.769 171.583 225.848 171.545 225.914C171.506 225.98 171.445 226.029 171.372 226.051C170.315 226.36 169.419 227.064 168.868 228.017C168.843 228.065 168.805 228.106 168.759 228.134C168.713 228.163 168.66 228.179 168.605 228.179Z" fill="#EBEBEB"/>
<path d="M167.441 227.115C167.393 227.115 167.345 227.103 167.301 227.081C167.266 227.063 167.236 227.038 167.211 227.008C167.186 226.978 167.167 226.943 167.156 226.905C167.144 226.868 167.14 226.829 167.144 226.79C167.148 226.751 167.159 226.713 167.178 226.678C167.488 226.127 167.904 225.642 168.402 225.252C168.899 224.862 169.469 224.574 170.079 224.405C170.119 224.384 170.163 224.372 170.209 224.371C170.254 224.37 170.299 224.379 170.34 224.398C170.381 224.417 170.418 224.446 170.446 224.481C170.475 224.516 170.495 224.557 170.505 224.601C170.515 224.646 170.515 224.691 170.505 224.736C170.494 224.78 170.474 224.821 170.445 224.856C170.417 224.891 170.38 224.919 170.339 224.938C170.298 224.957 170.253 224.966 170.208 224.965C169.151 225.276 168.255 225.982 167.704 226.936C167.683 226.988 167.646 227.033 167.599 227.065C167.553 227.096 167.498 227.114 167.441 227.115Z" fill="#EBEBEB"/>
<path d="M166.137 226.056C166.088 226.056 166.04 226.044 165.997 226.023C165.926 225.985 165.874 225.92 165.851 225.844C165.828 225.767 165.836 225.685 165.874 225.614C166.502 224.504 167.546 223.688 168.774 223.346C168.813 223.337 168.852 223.335 168.891 223.342C168.93 223.348 168.967 223.362 169 223.383C169.034 223.404 169.063 223.431 169.085 223.463C169.108 223.495 169.124 223.532 169.133 223.57C169.15 223.648 169.135 223.729 169.092 223.796C169.049 223.864 168.981 223.911 168.903 223.928C167.847 224.24 166.951 224.946 166.4 225.9C166.375 225.948 166.337 225.988 166.291 226.015C166.244 226.043 166.191 226.057 166.137 226.056Z" fill="#EBEBEB"/>
<path d="M153.849 233.437C153.849 233.437 149.722 232.098 148.49 232.468C147.258 232.837 146.054 235.716 149.246 238.51C150.131 239.283 152.528 239.529 154.533 240.896C156.537 242.262 158.217 243.209 159.987 242.173C161.757 241.137 161.611 239.933 161.292 238.656C160.894 237.009 160.569 235.811 160.569 235.811L153.849 233.437Z" fill="#37474F"/>
<path d="M159.853 241.574C158.033 242.643 156.292 241.663 154.253 240.252C152.215 238.841 149.717 238.572 148.805 237.794C148.435 237.473 148.096 237.118 147.791 236.735C148.178 237.408 148.678 238.009 149.269 238.511C150.154 239.283 152.551 239.53 154.556 240.896C156.561 242.263 158.241 243.209 160.01 242.173C161.36 241.383 161.561 240.493 161.298 239.625C161.281 240.303 160.901 240.958 159.853 241.574Z" fill="#263238"/>
<path d="M152.88 237.251H152.852C152.773 237.242 152.7 237.203 152.65 237.141C152.6 237.079 152.576 237 152.583 236.92C152.746 235.572 153.437 234.343 154.504 233.504C154.536 233.482 154.572 233.465 154.61 233.456C154.648 233.447 154.687 233.446 154.725 233.452C154.764 233.458 154.801 233.472 154.834 233.493C154.867 233.513 154.896 233.54 154.919 233.572C154.965 233.636 154.984 233.717 154.971 233.795C154.959 233.874 154.916 233.944 154.851 233.992C153.929 234.736 153.327 235.806 153.171 236.982C153.165 237.055 153.131 237.122 153.077 237.172C153.024 237.222 152.953 237.25 152.88 237.251Z" fill="#EBEBEB"/>
<path d="M154.561 237.805C154.483 237.796 154.411 237.758 154.36 237.697C154.31 237.636 154.286 237.559 154.292 237.48C154.456 236.131 155.147 234.901 156.213 234.059C156.278 234.013 156.359 233.995 156.438 234.008C156.516 234.022 156.587 234.066 156.633 234.131C156.655 234.163 156.671 234.199 156.68 234.238C156.688 234.276 156.689 234.315 156.683 234.354C156.676 234.392 156.661 234.429 156.64 234.462C156.619 234.495 156.592 234.523 156.56 234.546C155.635 235.288 155.033 236.36 154.88 237.536C154.873 237.614 154.835 237.686 154.776 237.736C154.716 237.786 154.639 237.811 154.561 237.805Z" fill="#EBEBEB"/>
<path d="M151.29 236.674H151.262C151.184 236.666 151.112 236.627 151.062 236.566C151.011 236.506 150.987 236.428 150.993 236.349C151.155 234.999 151.846 233.768 152.914 232.928C152.979 232.882 153.059 232.863 153.137 232.876C153.215 232.889 153.285 232.933 153.331 232.998C153.377 233.062 153.396 233.142 153.383 233.221C153.369 233.299 153.326 233.369 153.261 233.415C152.336 234.157 151.734 235.229 151.581 236.405C151.574 236.478 151.541 236.546 151.487 236.595C151.433 236.645 151.363 236.673 151.29 236.674Z" fill="#EBEBEB"/>
<path d="M173.938 225.57C174.307 221.482 175.108 215.075 175.444 212.079C175.896 208.293 175.787 204.46 175.119 200.706C174.948 199.821 174.904 198.915 174.99 198.018C175.802 189.875 176.329 176.676 175.881 173.775L164.451 176.195C164.451 176.195 165.851 194.714 166.467 200.874C167.083 207.034 169.379 225.626 169.379 225.626C170.062 226.062 170.857 226.29 171.667 226.28C172.477 226.27 173.266 226.023 173.938 225.57Z" fill="#455A64"/>
<path d="M172.291 229.774C172.607 229.7 172.901 229.556 173.154 229.353C173.406 229.149 173.609 228.891 173.747 228.598C173.747 227.954 173.82 226.879 173.937 225.568C173.266 226.022 172.477 226.268 171.666 226.278C170.856 226.288 170.061 226.061 169.379 225.624L169.782 229.063C170.118 229.365 170.519 229.587 170.954 229.71C171.389 229.833 171.846 229.855 172.291 229.774Z" fill="#FFA8A7"/>
<path d="M161.08 232.76C161.545 226.566 162.446 214.576 162.564 212.689C162.652 210.607 162.52 208.522 162.172 206.468C161.97 205.357 161.97 204.219 162.172 203.108L167.212 175.231L153.397 175.029L152.495 204.233C152.485 204.607 152.5 204.981 152.54 205.353L155.469 232.575C155.469 232.575 158.325 234.977 161.08 232.76Z" fill="#455A64"/>
<path d="M158.771 237.867C159.201 237.817 159.611 237.661 159.965 237.413C160.319 237.164 160.606 236.831 160.799 236.444L161.079 232.76C158.323 235 155.479 232.586 155.479 232.586L155.915 236.663C155.915 236.663 156.554 238.074 158.771 237.867Z" fill="#FFA8A7"/>
<path d="M159.78 143.652L156.521 144.772L153.016 161.354L153.189 176.054C153.189 176.054 155.692 178.053 165.47 178.053C170.958 178.053 174.536 175.981 175.88 173.78L175.001 164.899C175.001 164.899 175.88 156.146 175.88 151.817C175.88 147.488 176.076 143.944 172.694 141.799L169.681 142.051L159.78 143.652Z" fill="#007438"/>
<path opacity="0.2" d="M159.78 143.652L156.521 144.772L153.016 161.354L153.189 176.054C153.189 176.054 155.692 178.053 165.47 178.053C170.958 178.053 174.536 175.981 175.88 173.78L175.001 164.899C175.001 164.899 175.88 156.146 175.88 151.817C175.88 147.488 176.076 143.944 172.694 141.799L169.681 142.051L159.78 143.652Z" fill="white"/>
<path d="M156.241 129.4L154.611 132.632C154.587 132.678 154.574 132.73 154.572 132.782C154.571 132.835 154.58 132.887 154.6 132.935C154.621 132.984 154.651 133.027 154.69 133.063C154.728 133.098 154.774 133.125 154.824 133.141L156.756 133.791L156.241 129.4Z" fill="#F28F8F"/>
<path d="M158.481 123.986C158.481 123.986 156.006 125.319 156.006 132.946C156.006 137.152 156.297 139.834 158.481 139.666C160.665 139.498 166.959 138.675 166.959 138.675V123.986H158.481Z" fill="#FFA8A7"/>
<path d="M158.48 139.693C159.248 139.632 160.524 139.492 161.84 139.335V138.557C160.639 139.069 159.385 139.445 158.1 139.677C158.226 139.692 158.353 139.697 158.48 139.693Z" fill="#F28F8F"/>
<path d="M161.504 138.232V143.031H168.073V136.289L161.504 138.232Z" fill="#FFA8A7"/>
<path d="M161.504 141.205C161.504 141.205 163.867 142.045 165.76 141.715C167.653 141.384 168.073 140.231 168.073 140.231C168.073 140.231 168.689 140.18 169.68 142.045C169.294 142.742 168.742 143.332 168.073 143.764C167.404 144.196 166.638 144.456 165.844 144.52C163.784 144.652 161.719 144.357 159.779 143.652C159.779 143.652 160.72 140.964 161.504 141.205Z" fill="#007438"/>
<path opacity="0.4" d="M161.504 141.205C161.504 141.205 163.867 142.045 165.76 141.715C167.653 141.384 168.073 140.231 168.073 140.231C168.073 140.231 168.689 140.18 169.68 142.045C169.294 142.742 168.742 143.332 168.073 143.764C167.404 144.196 166.638 144.456 165.844 144.52C163.784 144.652 161.719 144.357 159.779 143.652C159.779 143.652 160.72 140.964 161.504 141.205Z" fill="white"/>
<path d="M146.849 155.452L145.085 158.163C145.085 158.163 140.801 156.253 137.805 155.094C136.061 154.446 134.437 153.511 133.001 152.328C133.108 151.161 133.295 150.002 133.561 148.861C133.908 147.685 134.025 146.705 133.001 147.226C131.976 147.747 131.265 149.768 131.203 150.026C131.203 150.026 125.183 143.972 124.433 144.107C123.682 144.241 123.873 145.148 125.474 147.013L127.093 148.883C127.093 148.883 123.402 151.006 124.001 153.324C124.601 155.643 129.467 156.684 129.467 156.684C129.467 156.684 143.708 167.627 146.861 165.644C150.013 163.662 154.477 158 154.477 158L146.849 155.452Z" fill="#FFA8A7"/>
<path d="M157.814 144.341C157.814 144.341 160.446 146.502 158.733 150.971C157.019 155.44 152.645 160.838 152.645 160.838C152.645 160.838 148.065 159.41 146.295 155.709L152.074 146.665C152.484 146.021 153.04 145.482 153.697 145.093C154.353 144.704 155.092 144.475 155.854 144.425C156.403 144.391 157.053 144.363 157.814 144.341Z" fill="#007438"/>
<path opacity="0.4" d="M157.814 144.341C157.814 144.341 160.446 146.502 158.733 150.971C157.019 155.44 152.645 160.838 152.645 160.838C152.645 160.838 148.065 159.41 146.295 155.709L152.074 146.665C152.484 146.021 153.04 145.482 153.697 145.093C154.353 144.704 155.092 144.475 155.854 144.425C156.403 144.391 157.053 144.363 157.814 144.341Z" fill="white"/>
<path d="M157.556 119.483C157.556 119.483 154.958 119.136 154.297 120.922C153.883 122.042 155.204 122.905 155.204 122.905C155.204 122.905 153.524 124.478 156.028 124.965C155.984 125.234 156.009 125.509 156.098 125.766C156.187 126.023 156.338 126.254 156.539 126.438C156.739 126.623 156.982 126.754 157.245 126.822C157.509 126.889 157.785 126.89 158.049 126.825C158.049 126.825 157.758 128.505 159.948 129.115C159.948 129.115 158.828 132.061 160.922 132.1H162.865L162.081 134.373C162.081 134.373 163.537 137.879 168.073 137.879C168.571 136.814 169.132 135.78 169.753 134.782C170.313 134.082 173.113 130.493 173.113 127.648C173.113 124.803 172.021 123.117 170.504 122.742C170.023 121.697 169.273 120.798 168.331 120.138C166.802 119.108 163.588 118.189 161.773 119.455C161.773 119.455 160.166 117.344 159.052 117.344C157.937 117.344 157.556 118.492 157.556 119.483Z" fill="#263238"/>
<path d="M160.923 132.099C160.923 132.099 160.733 129.114 163.247 129.114C165.762 129.114 165.168 134.373 162.082 134.373L160.923 132.099Z" fill="#FFA8A7"/>
</svg>
