<svg width="360" height="486" viewBox="0 0 360 486" fill="none" xmlns="http://www.w3.org/2000/svg">
<path d="M0 30C0 13.4315 13.4315 0 30 0H330C346.569 0 360 13.4315 360 30V486H0V30Z" fill="url(#paint0_linear_2153_11260)"/>
<path d="M0 30C0 13.4315 13.4315 0 30 0H330C346.569 0 360 13.4315 360 30V486H0V30Z" fill="url(#paint1_linear_2153_11260)"/>
<mask id="mask0_2153_11260" style="mask-type:alpha" maskUnits="userSpaceOnUse" x="0" y="0" width="360" height="486">
<path d="M0 30C0 13.4315 13.4315 0 30 0H330C346.569 0 360 13.4315 360 30V486H0V30Z" fill="url(#paint2_linear_2153_11260)"/>
<path d="M0 30C0 13.4315 13.4315 0 30 0H330C346.569 0 360 13.4315 360 30V486H0V30Z" fill="url(#paint3_linear_2153_11260)"/>
</mask>
<g mask="url(#mask0_2153_11260)">
<g opacity="0.5">
<ellipse cx="5.60475" cy="5.10984" rx="5.60475" ry="5.10984" transform="matrix(0.660951 0.750429 0.717633 -0.696422 343.188 50.0859)" fill="white" fill-opacity="0.4"/>
<ellipse cx="5.75353" cy="6.04794" rx="5.75353" ry="6.04794" transform="matrix(0.660951 0.750429 0.717633 -0.696422 352.444 28.4937)" fill="white" fill-opacity="0.4"/>
<ellipse cx="5.75353" cy="6.04794" rx="5.75353" ry="6.04794" transform="matrix(0.660951 0.750429 0.717633 -0.696422 347.816 9.05713)" fill="white" fill-opacity="0.4"/>
<ellipse cx="5.75353" cy="6.04794" rx="5.75353" ry="6.04794" transform="matrix(0.660951 0.750429 0.717633 -0.696422 324.669 -2.28174)" fill="white" fill-opacity="0.4"/>
<ellipse cx="5.75353" cy="6.04794" rx="5.75353" ry="6.04794" transform="matrix(0.660951 0.750429 0.717633 -0.696422 330.841 15.5356)" fill="white" fill-opacity="0.4"/>
<ellipse cx="5.75353" cy="6.04794" rx="5.75353" ry="6.04794" transform="matrix(0.660951 0.750429 0.717633 -0.696422 312.325 22.0146)" fill="white" fill-opacity="0.4"/>
<ellipse cx="5.75353" cy="6.04794" rx="5.75353" ry="6.04794" transform="matrix(0.660951 0.750429 0.717633 -0.696422 296.895 26.8745)" fill="white" fill-opacity="0.4"/>
<ellipse cx="5.75353" cy="6.04794" rx="5.75353" ry="6.04794" transform="matrix(0.660951 0.750429 0.717633 -0.696422 320.04 38.2124)" fill="white" fill-opacity="0.4"/>
<ellipse cx="5.75353" cy="6.04794" rx="5.75353" ry="6.04794" transform="matrix(0.660951 0.750429 0.717633 -0.696422 307.695 4.19727)" fill="white" fill-opacity="0.4"/>
<ellipse cx="5.75353" cy="6.04794" rx="5.75353" ry="6.04794" transform="matrix(0.660951 0.750429 0.717633 -0.696422 289.181 9.05713)" fill="white" fill-opacity="0.4"/>
<ellipse cx="5.75353" cy="6.04794" rx="5.75353" ry="6.04794" transform="matrix(0.660951 0.750429 0.717633 -0.696422 273.746 12.2964)" fill="white" fill-opacity="0.4"/>
<ellipse cx="5.75353" cy="6.04794" rx="5.75353" ry="6.04794" transform="matrix(0.660951 0.750429 0.717633 -0.696422 269.119 -7.14014)" fill="white" fill-opacity="0.4"/>
<ellipse cx="5.75353" cy="6.04794" rx="5.75353" ry="6.04794" transform="matrix(0.660951 0.750429 0.717633 -0.696422 252.146 -5.521)" fill="white" fill-opacity="0.4"/>
<ellipse cx="5.75353" cy="6.04794" rx="5.75353" ry="6.04794" transform="matrix(0.660951 0.750429 0.717633 -0.696422 258.315 13.916)" fill="white" fill-opacity="0.4"/>
<ellipse cx="5.75353" cy="6.04794" rx="5.75353" ry="6.04794" transform="matrix(0.660951 0.750429 0.717633 -0.696422 335.471 33.353)" fill="white" fill-opacity="0.4"/>
<ellipse cx="2.42254" cy="5.56455" rx="2.42254" ry="5.56455" transform="matrix(-0.24001 0.97077 0.964841 0.262833 361.042 74.8535)" fill="white" fill-opacity="0.4"/>
<ellipse cx="2.42254" cy="5.41816" rx="2.42254" ry="5.41816" transform="matrix(-0.24001 0.97077 0.964841 0.262833 352.064 61.9717)" fill="white" fill-opacity="0.4"/>
<ellipse cx="2.42254" cy="5.41816" rx="2.42254" ry="5.41816" transform="matrix(-0.24001 0.97077 0.964841 0.262833 336.636 61.9717)" fill="white" fill-opacity="0.4"/>
<ellipse cx="3.8805" cy="5.41816" rx="3.8805" ry="5.41816" transform="matrix(-0.24001 0.97077 0.964841 0.262833 329.27 47.5986)" fill="white" fill-opacity="0.4"/>
<ellipse cx="3.8805" cy="5.41816" rx="3.8805" ry="5.41816" transform="matrix(-0.24001 0.97077 0.964841 0.262833 306.472 36.4648)" fill="white" fill-opacity="0.4"/>
<ellipse cx="3.8805" cy="5.41816" rx="3.8805" ry="5.41816" transform="matrix(-0.24001 0.97077 0.964841 0.262833 314.188 49.4233)" fill="white" fill-opacity="0.4"/>
<ellipse cx="2.83741" cy="4.01718" rx="2.83741" ry="4.01718" transform="matrix(-0.464025 0.885822 0.866092 0.499884 324.217 60.4805)" fill="white" fill-opacity="0.4"/>
<ellipse cx="2.83741" cy="4.01718" rx="2.83741" ry="4.01718" transform="matrix(-0.464025 0.885822 0.866092 0.499884 348.907 73.4395)" fill="white" fill-opacity="0.4"/>
<ellipse cx="1.9687" cy="4.63906" rx="1.9687" ry="4.63906" transform="matrix(-0.464025 0.885822 0.866092 0.499884 354.273 82.4546)" fill="white" fill-opacity="0.4"/>
<ellipse cx="1.9687" cy="4.63906" rx="1.9687" ry="4.63906" transform="matrix(-0.464025 0.885822 0.866092 0.499884 341.928 80.8354)" fill="white" fill-opacity="0.4"/>
<ellipse cx="1.9687" cy="4.63906" rx="1.9687" ry="4.63906" transform="matrix(-0.464025 0.885822 0.866092 0.499884 331.127 72.7363)" fill="white" fill-opacity="0.4"/>
<ellipse cx="1.9687" cy="4.63906" rx="1.9687" ry="4.63906" transform="matrix(-0.464025 0.885822 0.866092 0.499884 318.782 69.4971)" fill="white" fill-opacity="0.4"/>
<ellipse cx="1.9687" cy="4.63906" rx="1.9687" ry="4.63906" transform="matrix(-0.464025 0.885822 0.866092 0.499884 309.523 61.3979)" fill="white" fill-opacity="0.4"/>
<ellipse cx="1.9687" cy="4.63906" rx="1.9687" ry="4.63906" transform="matrix(-0.464025 0.885822 0.866092 0.499884 309.523 61.3979)" fill="white" fill-opacity="0.4"/>
<ellipse cx="1.9687" cy="4.63906" rx="1.9687" ry="4.63906" transform="matrix(-0.464025 0.885822 0.866092 0.499884 286.377 50.0601)" fill="white" fill-opacity="0.4"/>
<ellipse cx="1.9687" cy="4.63906" rx="1.9687" ry="4.63906" transform="matrix(-0.464025 0.885822 0.866092 0.499884 295.635 58.1592)" fill="white" fill-opacity="0.4"/>
<ellipse cx="2.05318" cy="4.63906" rx="2.05318" ry="4.63906" transform="matrix(-0.464025 0.885822 0.866092 0.499884 306.476 66.1816)" fill="white" fill-opacity="0.4"/>
<ellipse cx="2.05318" cy="4.63906" rx="2.05318" ry="4.63906" transform="matrix(-0.464025 0.885822 0.866092 0.499884 315.773 74.2065)" fill="white" fill-opacity="0.4"/>
<ellipse cx="2.05318" cy="4.63906" rx="2.05318" ry="4.63906" transform="matrix(-0.464025 0.885822 0.866092 0.499884 329.662 80.686)" fill="white" fill-opacity="0.4"/>
<ellipse cx="2.05318" cy="4.63906" rx="2.05318" ry="4.63906" transform="matrix(-0.464025 0.885822 0.866092 0.499884 357.438 96.8833)" fill="white" fill-opacity="0.4"/>
<ellipse cx="2.05318" cy="4.63906" rx="2.05318" ry="4.63906" transform="matrix(-0.464025 0.885822 0.866092 0.499884 349.722 88.7842)" fill="white" fill-opacity="0.4"/>
<ellipse cx="2.05318" cy="4.63906" rx="2.05318" ry="4.63906" transform="matrix(-0.464025 0.885822 0.866092 0.499884 338.921 85.5444)" fill="white" fill-opacity="0.4"/>
<ellipse cx="1.9687" cy="4.63906" rx="1.9687" ry="4.63906" transform="matrix(-0.464025 0.885822 0.866092 0.499884 277.119 38.7222)" fill="white" fill-opacity="0.4"/>
<ellipse cx="1.9687" cy="4.63906" rx="1.9687" ry="4.63906" transform="matrix(-0.464025 0.885822 0.866092 0.499884 263.231 37.103)" fill="white" fill-opacity="0.4"/>
<ellipse cx="1.9687" cy="4.63906" rx="1.9687" ry="4.63906" transform="matrix(-0.464025 0.885822 0.866092 0.499884 274.031 46.8208)" fill="white" fill-opacity="0.4"/>
<ellipse cx="1.9687" cy="4.63906" rx="1.9687" ry="4.63906" transform="matrix(-0.464025 0.885822 0.866092 0.499884 260.144 43.5815)" fill="white" fill-opacity="0.4"/>
<ellipse cx="1.9687" cy="4.63906" rx="1.9687" ry="4.63906" transform="matrix(-0.464025 0.885822 0.866092 0.499884 250.886 32.2422)" fill="white" fill-opacity="0.4"/>
<ellipse cx="1.9687" cy="4.63906" rx="1.9687" ry="4.63906" transform="matrix(-0.464025 0.885822 0.866092 0.499884 240.083 29.0029)" fill="white" fill-opacity="0.4"/>
<ellipse cx="1.50642" cy="4.49385" rx="1.50642" ry="4.49385" transform="matrix(-0.464025 0.885822 0.866092 0.499884 360.015 127.152)" fill="white" fill-opacity="0.4"/>
<ellipse cx="1.50642" cy="4.49385" rx="1.50642" ry="4.49385" transform="matrix(-0.464025 0.885822 0.866092 0.499884 352.3 115.814)" fill="white" fill-opacity="0.4"/>
<ellipse cx="1.50642" cy="4.49385" rx="1.50642" ry="4.49385" transform="matrix(-0.464025 0.885822 0.866092 0.499884 353.846 110.955)" fill="white" fill-opacity="0.4"/>
<ellipse cx="1.50642" cy="4.49385" rx="1.50642" ry="4.49385" transform="matrix(-0.464025 0.885822 0.866092 0.499884 347.673 101.236)" fill="white" fill-opacity="0.4"/>
<ellipse cx="1.50642" cy="4.49385" rx="1.50642" ry="4.49385" transform="matrix(-0.464025 0.885822 0.866092 0.499884 343.043 106.095)" fill="white" fill-opacity="0.4"/>
<ellipse cx="1.50642" cy="4.49385" rx="1.50642" ry="4.49385" transform="matrix(-0.464025 0.885822 0.866092 0.499884 339.956 110.955)" fill="white" fill-opacity="0.4"/>
<ellipse cx="1.50642" cy="4.49385" rx="1.50642" ry="4.49385" transform="matrix(-0.464025 0.885822 0.866092 0.499884 335.327 119.054)" fill="white" fill-opacity="0.4"/>
<ellipse cx="1.50642" cy="4.49385" rx="1.50642" ry="4.49385" transform="matrix(-0.464025 0.885822 0.866092 0.499884 326.068 107.715)" fill="white" fill-opacity="0.4"/>
<ellipse cx="1.50642" cy="4.49385" rx="1.50642" ry="4.49385" transform="matrix(-0.464025 0.885822 0.866092 0.499884 330.697 99.6167)" fill="white" fill-opacity="0.4"/>
<ellipse cx="1.50642" cy="4.49385" rx="1.50642" ry="4.49385" transform="matrix(-0.464025 0.885822 0.866092 0.499884 333.784 93.1382)" fill="white" fill-opacity="0.4"/>
<ellipse cx="1.50642" cy="4.49385" rx="1.50642" ry="4.49385" transform="matrix(-0.464025 0.885822 0.866092 0.499884 322.982 88.2783)" fill="white" fill-opacity="0.4"/>
<ellipse cx="1.50642" cy="4.49385" rx="1.50642" ry="4.49385" transform="matrix(-0.464025 0.885822 0.866092 0.499884 319.896 94.7568)" fill="white" fill-opacity="0.4"/>
<ellipse cx="1.50642" cy="4.49385" rx="1.50642" ry="4.49385" transform="matrix(-0.464025 0.885822 0.866092 0.499884 306.009 93.1382)" fill="white" fill-opacity="0.4"/>
<ellipse cx="1.50642" cy="4.49385" rx="1.50642" ry="4.49385" transform="matrix(-0.464025 0.885822 0.866092 0.499884 310.637 85.0391)" fill="white" fill-opacity="0.4"/>
<ellipse cx="1.50642" cy="4.49385" rx="1.50642" ry="4.49385" transform="matrix(-0.464025 0.885822 0.866092 0.499884 301.379 75.3203)" fill="white" fill-opacity="0.4"/>
<ellipse cx="1.50642" cy="4.49385" rx="1.50642" ry="4.49385" transform="matrix(-0.464025 0.885822 0.866092 0.499884 298.293 80.1797)" fill="white" fill-opacity="0.4"/>
<ellipse cx="1.50642" cy="4.49385" rx="1.50642" ry="4.49385" transform="matrix(-0.464025 0.885822 0.866092 0.499884 289.033 72.0806)" fill="white" fill-opacity="0.4"/>
<ellipse cx="1.50642" cy="4.49385" rx="1.50642" ry="4.49385" transform="matrix(-0.464025 0.885822 0.866092 0.499884 284.405 63.9824)" fill="white" fill-opacity="0.4"/>
<ellipse cx="1.50642" cy="4.49385" rx="1.50642" ry="4.49385" transform="matrix(-0.464025 0.885822 0.866092 0.499884 272.061 57.5034)" fill="white" fill-opacity="0.4"/>
<ellipse cx="1.50642" cy="4.49385" rx="1.50642" ry="4.49385" transform="matrix(-0.464025 0.885822 0.866092 0.499884 256.629 52.6431)" fill="white" fill-opacity="0.4"/>
<ellipse cx="1.50642" cy="4.49385" rx="1.50642" ry="4.49385" transform="matrix(-0.464025 0.885822 0.866092 0.499884 247.37 38.0654)" fill="white" fill-opacity="0.4"/>
<ellipse cx="1.50642" cy="4.49385" rx="1.50642" ry="4.49385" transform="matrix(-0.464025 0.885822 0.866092 0.499884 245.828 44.5449)" fill="white" fill-opacity="0.4"/>
<ellipse cx="1.50642" cy="4.49385" rx="1.50642" ry="4.49385" transform="matrix(-0.464025 0.885822 0.866092 0.499884 236.569 33.2061)" fill="white" fill-opacity="0.4"/>
<ellipse cx="1.50642" cy="4.49385" rx="1.50642" ry="4.49385" transform="matrix(-0.464025 0.885822 0.866092 0.499884 227.31 23.4883)" fill="white" fill-opacity="0.4"/>
<ellipse cx="1.50642" cy="4.49385" rx="1.50642" ry="4.49385" transform="matrix(-0.464025 0.885822 0.866092 0.499884 222.68 31.5879)" fill="white" fill-opacity="0.4"/>
<ellipse cx="1.50642" cy="4.49385" rx="1.50642" ry="4.49385" transform="matrix(-0.464025 0.885822 0.866092 0.499884 213.421 21.8691)" fill="white" fill-opacity="0.4"/>
<ellipse cx="1.50642" cy="4.49385" rx="1.50642" ry="4.49385" transform="matrix(-0.464025 0.885822 0.866092 0.499884 213.421 17.0103)" fill="white" fill-opacity="0.4"/>
<ellipse cx="1.2031" cy="4.49385" rx="1.2031" ry="4.49385" transform="matrix(-0.464025 0.885822 0.866092 0.499884 205.566 7.55957)" fill="white" fill-opacity="0.4"/>
<ellipse cx="1.2031" cy="4.49385" rx="1.2031" ry="4.49385" transform="matrix(-0.464025 0.885822 0.866092 0.499884 194.623 4.58838)" fill="white" fill-opacity="0.4"/>
<ellipse cx="1.2031" cy="4.49385" rx="1.2031" ry="4.49385" transform="matrix(-0.464025 0.885822 0.866092 0.499884 191.537 -1.89111)" fill="white" fill-opacity="0.4"/>
<ellipse cx="1.2031" cy="4.49385" rx="1.2031" ry="4.49385" transform="matrix(-0.464025 0.885822 0.866092 0.499884 202.339 14.3071)" fill="white" fill-opacity="0.4"/>
<ellipse cx="1.2031" cy="4.49385" rx="1.2031" ry="4.49385" transform="matrix(-0.464025 0.885822 0.866092 0.499884 208.511 25.6445)" fill="white" fill-opacity="0.4"/>
<ellipse cx="1.50642" cy="4.49385" rx="1.50642" ry="4.49385" transform="matrix(-0.464025 0.885822 0.866092 0.499884 231.939 41.3052)" fill="white" fill-opacity="0.4"/>
<ellipse cx="3.8805" cy="5.41816" rx="3.8805" ry="5.41816" transform="matrix(-0.24001 0.97077 0.964841 0.262833 298.757 49.4233)" fill="white" fill-opacity="0.4"/>
<ellipse cx="3.8805" cy="5.41816" rx="3.8805" ry="5.41816" transform="matrix(-0.24001 0.97077 0.964841 0.262833 289.498 38.0854)" fill="white" fill-opacity="0.4"/>
<ellipse cx="3.8805" cy="5.41816" rx="3.8805" ry="5.41816" transform="matrix(-0.24001 0.97077 0.964841 0.262833 283.326 25.1265)" fill="white" fill-opacity="0.4"/>
<ellipse cx="3.8805" cy="5.41816" rx="3.8805" ry="5.41816" transform="matrix(-0.24001 0.97077 0.964841 0.262833 267.895 25.1265)" fill="white" fill-opacity="0.4"/>
<ellipse cx="2.93943" cy="4.54996" rx="2.93943" ry="4.54996" transform="matrix(-0.24001 0.97077 0.964841 0.262833 255.231 24.1709)" fill="white" fill-opacity="0.4"/>
<ellipse cx="2.92566" cy="4.57304" rx="2.92566" ry="4.57304" transform="matrix(-0.388344 0.921515 0.906994 0.421143 249.599 9.02051)" fill="white" fill-opacity="0.4"/>
<ellipse cx="2.92566" cy="4.57304" rx="2.92566" ry="4.57304" transform="matrix(-0.388344 0.921515 0.906994 0.421143 234.355 6.82812)" fill="white" fill-opacity="0.4"/>
<ellipse cx="2.92566" cy="4.57304" rx="2.92566" ry="4.57304" transform="matrix(-0.388344 0.921515 0.906994 0.421143 228.182 -7.74902)" fill="white" fill-opacity="0.4"/>
<ellipse cx="2.20758" cy="4.57304" rx="2.20758" ry="4.57304" transform="matrix(-0.388344 0.921515 0.906994 0.421143 222.011 5.20801)" fill="white" fill-opacity="0.4"/>
<ellipse cx="2.20758" cy="4.57304" rx="2.20758" ry="4.57304" transform="matrix(-0.388344 0.921515 0.906994 0.421143 221.454 4.91211)" fill="white" fill-opacity="0.4"/>
<ellipse cx="2.20758" cy="4.57304" rx="2.20758" ry="4.57304" transform="matrix(-0.388344 0.921515 0.906994 0.421143 243.058 22.7295)" fill="white" fill-opacity="0.4"/>
<ellipse cx="2.20758" cy="4.57304" rx="2.20758" ry="4.57304" transform="matrix(-0.388344 0.921515 0.906994 0.421143 229.168 17.8696)" fill="white" fill-opacity="0.4"/>
<ellipse cx="2.20758" cy="4.57304" rx="2.20758" ry="4.57304" transform="matrix(-0.388344 0.921515 0.906994 0.421143 216.824 11.3911)" fill="white" fill-opacity="0.4"/>
<ellipse cx="2.19042" cy="4.61069" rx="2.19042" ry="4.61069" transform="matrix(-0.554713 0.832042 0.805929 0.592012 209.825 0.488281)" fill="white" fill-opacity="0.4"/>
<ellipse cx="2.16965" cy="4.65545" rx="2.16965" ry="4.65545" transform="matrix(-0.708911 0.705298 0.670179 0.742199 198.124 -6.85645)" fill="white" fill-opacity="0.4"/>
<ellipse cx="2.16965" cy="4.65545" rx="2.16965" ry="4.65545" transform="matrix(-0.708911 0.705298 0.670179 0.742199 184.238 -6.85645)" fill="white" fill-opacity="0.4"/>
<ellipse cx="4.32541" cy="5.16557" rx="4.32541" ry="5.16557" transform="matrix(-0.388344 0.921515 0.906994 0.421143 243.159 -8.09717)" fill="white" fill-opacity="0.4"/>
<ellipse cx="355.531" cy="218.541" rx="3.23951" ry="3.0862" transform="rotate(-90 355.531 218.541)" fill="white" fill-opacity="0.4"/>
<ellipse cx="349.359" cy="226.641" rx="3.23951" ry="3.0862" transform="rotate(-90 349.359 226.641)" fill="white" fill-opacity="0.4"/>
<ellipse cx="353.989" cy="247.697" rx="3.23951" ry="3.0862" transform="rotate(-90 353.989 247.697)" fill="white" fill-opacity="0.4"/>
<ellipse cx="357.074" cy="140.793" rx="3.23951" ry="3.0862" transform="rotate(-90 357.074 140.793)" fill="white" fill-opacity="0.4"/>
<ellipse cx="350.903" cy="127.835" rx="3.23951" ry="3.0862" transform="rotate(-90 350.903 127.835)" fill="white" fill-opacity="0.4"/>
<ellipse cx="344.731" cy="137.553" rx="3.23951" ry="3.0862" transform="rotate(-90 344.731 137.553)" fill="white" fill-opacity="0.4"/>
<ellipse cx="350.903" cy="156.99" rx="3.23951" ry="3.0862" transform="rotate(-90 350.903 156.99)" fill="white" fill-opacity="0.4"/>
<ellipse cx="355.531" cy="169.948" rx="3.23951" ry="3.0862" transform="rotate(-90 355.531 169.948)" fill="white" fill-opacity="0.4"/>
<ellipse cx="361.704" cy="186.146" rx="3.23951" ry="3.0862" transform="rotate(-90 361.704 186.146)" fill="white" fill-opacity="0.4"/>
<ellipse cx="349.359" cy="182.907" rx="3.23951" ry="3.0862" transform="rotate(-90 349.359 182.907)" fill="white" fill-opacity="0.4"/>
<ellipse cx="343.187" cy="168.329" rx="3.23951" ry="3.0862" transform="rotate(-90 343.187 168.329)" fill="white" fill-opacity="0.4"/>
<ellipse cx="337.014" cy="155.371" rx="3.23951" ry="3.0862" transform="rotate(-90 337.014 155.371)" fill="white" fill-opacity="0.4"/>
<ellipse cx="327.755" cy="139.173" rx="3.23951" ry="3.0862" transform="rotate(-90 327.755 139.173)" fill="white" fill-opacity="0.4"/>
<ellipse cx="321.582" cy="121.356" rx="3.23951" ry="3.0862" transform="rotate(-90 321.582 121.356)" fill="white" fill-opacity="0.4"/>
<ellipse cx="315.411" cy="108.397" rx="3.23951" ry="3.0862" transform="rotate(-90 315.411 108.397)" fill="white" fill-opacity="0.4"/>
<ellipse cx="307.695" cy="122.976" rx="3.23951" ry="3.0862" transform="rotate(-90 307.695 122.976)" fill="white" fill-opacity="0.4"/>
<ellipse cx="301.523" cy="108.397" rx="3.23951" ry="3.0862" transform="rotate(-90 301.523 108.397)" fill="white" fill-opacity="0.4"/>
<ellipse cx="293.809" cy="93.8201" rx="3.23951" ry="3.0862" transform="rotate(-90 293.809 93.8201)" fill="white" fill-opacity="0.4"/>
<ellipse cx="284.549" cy="82.4817" rx="3.23951" ry="3.0862" transform="rotate(-90 284.549 82.4817)" fill="white" fill-opacity="0.4"/>
<ellipse cx="278.375" cy="72.7629" rx="3.23951" ry="3.0862" transform="rotate(-90 278.375 72.7629)" fill="white" fill-opacity="0.4"/>
<ellipse cx="262.947" cy="67.9036" rx="3.23951" ry="3.0862" transform="rotate(-90 262.947 67.9036)" fill="white" fill-opacity="0.4"/>
<ellipse cx="270.662" cy="82.4817" rx="3.23951" ry="3.0862" transform="rotate(-90 270.662 82.4817)" fill="white" fill-opacity="0.4"/>
<ellipse cx="278.375" cy="93.8201" rx="3.23951" ry="3.0862" transform="rotate(-90 278.375 93.8201)" fill="white" fill-opacity="0.4"/>
<ellipse cx="286.093" cy="108.397" rx="3.23951" ry="3.0862" transform="rotate(-90 286.093 108.397)" fill="white" fill-opacity="0.4"/>
<ellipse cx="293.809" cy="121.356" rx="3.23951" ry="3.0862" transform="rotate(-90 293.809 121.356)" fill="white" fill-opacity="0.4"/>
<ellipse cx="299.981" cy="135.933" rx="3.23951" ry="3.0862" transform="rotate(-90 299.981 135.933)" fill="white" fill-opacity="0.4"/>
<ellipse cx="307.695" cy="147.272" rx="3.23951" ry="3.0862" transform="rotate(-90 307.695 147.272)" fill="white" fill-opacity="0.4"/>
<ellipse cx="315.411" cy="161.85" rx="3.23951" ry="3.0862" transform="rotate(-90 315.411 161.85)" fill="white" fill-opacity="0.4"/>
<ellipse cx="301.523" cy="160.231" rx="3.23951" ry="3.0862" transform="rotate(-90 301.523 160.231)" fill="white" fill-opacity="0.4"/>
<ellipse cx="292.267" cy="147.272" rx="3.23951" ry="3.0862" transform="rotate(-90 292.267 147.272)" fill="white" fill-opacity="0.4"/>
<ellipse cx="284.549" cy="135.933" rx="3.23951" ry="3.0862" transform="rotate(-90 284.549 135.933)" fill="white" fill-opacity="0.4"/>
<ellipse cx="278.375" cy="122.976" rx="3.23951" ry="3.0862" transform="rotate(-90 278.375 122.976)" fill="white" fill-opacity="0.4"/>
<ellipse cx="270.662" cy="108.397" rx="3.23951" ry="3.0862" transform="rotate(-90 270.662 108.397)" fill="white" fill-opacity="0.4"/>
<ellipse cx="264.488" cy="97.0598" rx="3.23951" ry="3.0862" transform="rotate(-90 264.488 97.0598)" fill="white" fill-opacity="0.4"/>
<ellipse cx="256.774" cy="82.4817" rx="3.23951" ry="3.0862" transform="rotate(-90 256.774 82.4817)" fill="white" fill-opacity="0.4"/>
<ellipse cx="249.059" cy="67.9036" rx="3.23951" ry="3.0862" transform="rotate(-90 249.059 67.9036)" fill="white" fill-opacity="0.4"/>
<ellipse cx="241.344" cy="56.5657" rx="3.23951" ry="3.0862" transform="rotate(-90 241.344 56.5657)" fill="white" fill-opacity="0.4"/>
<ellipse cx="2.42963" cy="2.31465" rx="2.42963" ry="2.31465" transform="matrix(0 1 1 0 233.628 66.2837)" fill="white" fill-opacity="0.4"/>
<ellipse cx="2.42963" cy="2.31465" rx="2.42963" ry="2.31465" transform="matrix(0 1 1 0 227.455 51.7056)" fill="white" fill-opacity="0.4"/>
<ellipse cx="2.42963" cy="2.31465" rx="2.42963" ry="2.31465" transform="matrix(0 1 1 0 218.197 38.7485)" fill="white" fill-opacity="0.4"/>
<ellipse cx="2.42963" cy="2.31465" rx="2.42963" ry="2.31465" transform="matrix(0 1 1 0 212.023 50.0859)" fill="white" fill-opacity="0.4"/>
<ellipse cx="2.42963" cy="2.31465" rx="2.42963" ry="2.31465" transform="matrix(0 1 1 0 204.31 35.5088)" fill="white" fill-opacity="0.4"/>
<ellipse cx="2.42963" cy="2.31465" rx="2.42963" ry="2.31465" transform="matrix(0 1 1 0 196.592 20.9316)" fill="white" fill-opacity="0.4"/>
<ellipse cx="2.42963" cy="2.31465" rx="2.42963" ry="2.31465" transform="matrix(0 1 1 0 190.42 9.59277)" fill="white" fill-opacity="0.4"/>
<ellipse cx="2.42963" cy="2.31465" rx="2.42963" ry="2.31465" transform="matrix(0 1 1 0 178.076 4.73389)" fill="white" fill-opacity="0.4"/>
<ellipse cx="2.42963" cy="2.31465" rx="2.42963" ry="2.31465" transform="matrix(0 1 1 0 164.188 -0.125)" fill="white" fill-opacity="0.4"/>
<ellipse cx="2.42963" cy="2.31465" rx="2.42963" ry="2.31465" transform="matrix(0 1 1 0 170.359 14.4521)" fill="white" fill-opacity="0.4"/>
<ellipse cx="2.42963" cy="2.31465" rx="2.42963" ry="2.31465" transform="matrix(0 1 1 0 158.016 9.59277)" fill="white" fill-opacity="0.4"/>
<ellipse cx="2.42963" cy="2.31465" rx="2.42963" ry="2.31465" transform="matrix(0 1 1 0 144.128 7.97363)" fill="white" fill-opacity="0.4"/>
<ellipse cx="2.42963" cy="2.31465" rx="2.42963" ry="2.31465" transform="matrix(0 1 1 0 162.646 29.0303)" fill="white" fill-opacity="0.4"/>
<ellipse cx="2.42963" cy="2.31465" rx="2.42963" ry="2.31465" transform="matrix(0 1 1 0 150.299 22.5513)" fill="white" fill-opacity="0.4"/>
<ellipse cx="2.42963" cy="2.31465" rx="2.42963" ry="2.31465" transform="matrix(0 1 1 0 145.67 30.6494)" fill="white" fill-opacity="0.4"/>
<ellipse cx="2.42963" cy="2.31465" rx="2.42963" ry="2.31465" transform="matrix(0 1 1 0 141.04 35.5088)" fill="white" fill-opacity="0.4"/>
<ellipse cx="2.42963" cy="2.31465" rx="2.42963" ry="2.31465" transform="matrix(0 1 1 0 136.41 43.6074)" fill="white" fill-opacity="0.4"/>
<ellipse cx="2.42963" cy="2.31465" rx="2.42963" ry="2.31465" transform="matrix(0 1 1 0 127.152 59.8052)" fill="white" fill-opacity="0.4"/>
<ellipse cx="2.42963" cy="2.31465" rx="2.42963" ry="2.31465" transform="matrix(0 1 1 0 130.238 79.2417)" fill="white" fill-opacity="0.4"/>
<ellipse cx="2.42963" cy="2.31465" rx="2.42963" ry="2.31465" transform="matrix(0 1 1 0 122.524 38.7485)" fill="white" fill-opacity="0.4"/>
<ellipse cx="2.42963" cy="2.31465" rx="2.42963" ry="2.31465" transform="matrix(0 1 1 0 127.152 29.0303)" fill="white" fill-opacity="0.4"/>
<ellipse cx="2.42963" cy="2.31465" rx="2.42963" ry="2.31465" transform="matrix(0 1 1 0 131.782 22.5513)" fill="white" fill-opacity="0.4"/>
<ellipse cx="2.42963" cy="2.31465" rx="2.42963" ry="2.31465" transform="matrix(0 1 1 0 137.955 16.0723)" fill="white" fill-opacity="0.4"/>
<ellipse cx="2.42963" cy="2.31465" rx="2.42963" ry="2.31465" transform="matrix(0 1 1 0 131.782 3.11377)" fill="white" fill-opacity="0.4"/>
<ellipse cx="2.42963" cy="2.31465" rx="2.42963" ry="2.31465" transform="matrix(0 1 1 0 125.609 9.59277)" fill="white" fill-opacity="0.4"/>
<ellipse cx="2.42963" cy="2.31465" rx="2.42963" ry="2.31465" transform="matrix(0 1 1 0 117.895 19.3115)" fill="white" fill-opacity="0.4"/>
<ellipse cx="2.42963" cy="2.31465" rx="2.42963" ry="2.31465" transform="matrix(0 1 1 0 102.464 17.6924)" fill="white" fill-opacity="0.4"/>
<ellipse cx="2.42963" cy="2.31465" rx="2.42963" ry="2.31465" transform="matrix(0 1 1 0 111.723 4.73389)" fill="white" fill-opacity="0.4"/>
<ellipse cx="2.42963" cy="2.31465" rx="2.42963" ry="2.31465" transform="matrix(0 1 1 0 116.352 -3.36475)" fill="white" fill-opacity="0.4"/>
<ellipse cx="2.42963" cy="2.31465" rx="2.42963" ry="2.31465" transform="matrix(0 1 1 0 97.834 -1.74512)" fill="white" fill-opacity="0.4"/>
<ellipse cx="2.42963" cy="2.31465" rx="2.42963" ry="2.31465" transform="matrix(0 1 1 0 142.584 59.8052)" fill="white" fill-opacity="0.4"/>
<ellipse cx="2.42963" cy="2.31465" rx="2.42963" ry="2.31465" transform="matrix(0 1 1 0 148.756 50.0859)" fill="white" fill-opacity="0.4"/>
<ellipse cx="2.42963" cy="2.31465" rx="2.42963" ry="2.31465" transform="matrix(0 1 1 0 159.559 37.1289)" fill="white" fill-opacity="0.4"/>
<ellipse cx="2.42963" cy="2.31465" rx="2.42963" ry="2.31465" transform="matrix(0 1 1 0 165.73 48.4668)" fill="white" fill-opacity="0.4"/>
<ellipse cx="2.42963" cy="2.31465" rx="2.42963" ry="2.31465" transform="matrix(0 1 1 0 176.532 54.9458)" fill="white" fill-opacity="0.4"/>
<ellipse cx="2.42963" cy="2.31465" rx="2.42963" ry="2.31465" transform="matrix(0 1 1 0 171.904 63.0449)" fill="white" fill-opacity="0.4"/>
<ellipse cx="2.42963" cy="2.31465" rx="2.42963" ry="2.31465" transform="matrix(0 1 1 0 179.619 74.3823)" fill="white" fill-opacity="0.4"/>
<ellipse cx="2.42963" cy="2.31465" rx="2.42963" ry="2.31465" transform="matrix(0 1 1 0 185.791 67.9033)" fill="white" fill-opacity="0.4"/>
<ellipse cx="2.42963" cy="2.31465" rx="2.42963" ry="2.31465" transform="matrix(0 1 1 0 191.964 82.4824)" fill="white" fill-opacity="0.4"/>
<ellipse cx="2.42963" cy="2.31465" rx="2.42963" ry="2.31465" transform="matrix(0 1 1 0 187.334 90.5811)" fill="white" fill-opacity="0.4"/>
<ellipse cx="2.42963" cy="2.31465" rx="2.42963" ry="2.31465" transform="matrix(0 1 1 0 173.446 85.7212)" fill="white" fill-opacity="0.4"/>
<ellipse cx="2.42963" cy="2.31465" rx="2.42963" ry="2.31465" transform="matrix(0 1 1 0 179.619 98.6797)" fill="white" fill-opacity="0.4"/>
<ellipse cx="2.42963" cy="2.31465" rx="2.42963" ry="2.31465" transform="matrix(0 1 1 0 171.904 114.876)" fill="white" fill-opacity="0.4"/>
<ellipse cx="2.42963" cy="2.31465" rx="2.42963" ry="2.31465" transform="matrix(0 1 1 0 165.73 97.0596)" fill="white" fill-opacity="0.4"/>
<ellipse cx="2.42963" cy="2.31465" rx="2.42963" ry="2.31465" transform="matrix(0 1 1 0 161.101 80.8623)" fill="white" fill-opacity="0.4"/>
<ellipse cx="2.42963" cy="2.31465" rx="2.42963" ry="2.31465" transform="matrix(0 1 1 0 167.274 69.5239)" fill="white" fill-opacity="0.4"/>
<ellipse cx="2.42963" cy="2.31465" rx="2.42963" ry="2.31465" transform="matrix(0 1 1 0 161.101 54.9458)" fill="white" fill-opacity="0.4"/>
<ellipse cx="2.42963" cy="2.31465" rx="2.42963" ry="2.31465" transform="matrix(0 1 1 0 154.929 66.2837)" fill="white" fill-opacity="0.4"/>
<ellipse cx="2.42963" cy="2.31465" rx="2.42963" ry="2.31465" transform="matrix(0 1 1 0 145.67 79.2417)" fill="white" fill-opacity="0.4"/>
<ellipse cx="2.42963" cy="2.31465" rx="2.42963" ry="2.31465" transform="matrix(0 1 1 0 151.842 97.0596)" fill="white" fill-opacity="0.4"/>
<ellipse cx="2.42963" cy="2.31465" rx="2.42963" ry="2.31465" transform="matrix(0 1 1 0 136.41 98.6797)" fill="white" fill-opacity="0.4"/>
<ellipse cx="2.42963" cy="2.31465" rx="2.42963" ry="2.31465" transform="matrix(0 1 1 0 142.584 116.497)" fill="white" fill-opacity="0.4"/>
<ellipse cx="2.42963" cy="2.31465" rx="2.42963" ry="2.31465" transform="matrix(0 1 1 0 158.016 113.257)" fill="white" fill-opacity="0.4"/>
<ellipse cx="2.42963" cy="2.31465" rx="2.42963" ry="2.31465" transform="matrix(0 1 1 0 164.188 127.835)" fill="white" fill-opacity="0.4"/>
<ellipse cx="2.42963" cy="2.31465" rx="2.42963" ry="2.31465" transform="matrix(0 1 1 0 185.791 114.876)" fill="white" fill-opacity="0.4"/>
<ellipse cx="2.42963" cy="2.31465" rx="2.42963" ry="2.31465" transform="matrix(0 1 1 0 195.05 105.159)" fill="white" fill-opacity="0.4"/>
<ellipse cx="2.42963" cy="2.31465" rx="2.42963" ry="2.31465" transform="matrix(0 1 1 0 198.137 97.0596)" fill="white" fill-opacity="0.4"/>
<ellipse cx="2.42963" cy="2.31465" rx="2.42963" ry="2.31465" transform="matrix(0 1 1 0 205.852 108.398)" fill="white" fill-opacity="0.4"/>
<ellipse cx="2.42963" cy="2.31465" rx="2.42963" ry="2.31465" transform="matrix(0 1 1 0 201.222 118.116)" fill="white" fill-opacity="0.4"/>
<ellipse cx="2.42963" cy="2.31465" rx="2.42963" ry="2.31465" transform="matrix(0 1 1 0 195.05 127.835)" fill="white" fill-opacity="0.4"/>
<ellipse cx="2.42963" cy="2.31465" rx="2.42963" ry="2.31465" transform="matrix(0 1 1 0 188.878 137.553)" fill="white" fill-opacity="0.4"/>
<ellipse cx="2.42963" cy="2.31465" rx="2.42963" ry="2.31465" transform="matrix(0 1 1 0 173.446 142.413)" fill="white" fill-opacity="0.4"/>
<ellipse cx="2.42963" cy="2.31465" rx="2.42963" ry="2.31465" transform="matrix(0 1 1 0 181.161 155.371)" fill="white" fill-opacity="0.4"/>
<ellipse cx="2.42963" cy="2.31465" rx="2.42963" ry="2.31465" transform="matrix(0 1 1 0 154.929 147.272)" fill="white" fill-opacity="0.4"/>
<ellipse cx="2.42963" cy="2.31465" rx="2.42963" ry="2.31465" transform="matrix(0 1 1 0 148.756 129.455)" fill="white" fill-opacity="0.4"/>
<ellipse cx="2.42963" cy="2.31465" rx="2.42963" ry="2.31465" transform="matrix(0 1 1 0 181.161 127.835)" fill="white" fill-opacity="0.4"/>
<ellipse cx="2.42963" cy="2.31465" rx="2.42963" ry="2.31465" transform="matrix(0 1 1 0 153.386 41.9873)" fill="white" fill-opacity="0.4"/>
<ellipse cx="2.42963" cy="2.31465" rx="2.42963" ry="2.31465" transform="matrix(0 1 1 0 170.359 40.3687)" fill="white" fill-opacity="0.4"/>
<ellipse cx="2.42963" cy="2.31465" rx="2.42963" ry="2.31465" transform="matrix(0 1 1 0 107.093 40.3687)" fill="white" fill-opacity="0.4"/>
<ellipse cx="2.42963" cy="2.31465" rx="2.42963" ry="2.31465" transform="matrix(0 1 1 0 110.179 63.0449)" fill="white" fill-opacity="0.4"/>
<ellipse cx="2.42963" cy="2.31465" rx="2.42963" ry="2.31465" transform="matrix(0 1 1 0 113.265 84.1016)" fill="white" fill-opacity="0.4"/>
<ellipse cx="2.42963" cy="2.31465" rx="2.42963" ry="2.31465" transform="matrix(0 1 1 0 96.2891 90.5811)" fill="white" fill-opacity="0.4"/>
<ellipse cx="2.42963" cy="2.31465" rx="2.42963" ry="2.31465" transform="matrix(0 1 1 0 102.464 108.397)" fill="white" fill-opacity="0.4"/>
<ellipse cx="2.42963" cy="2.31465" rx="2.42963" ry="2.31465" transform="matrix(0 1 1 0 119.438 101.919)" fill="white" fill-opacity="0.4"/>
<ellipse cx="2.42963" cy="2.31465" rx="2.42963" ry="2.31465" transform="matrix(0 1 1 0 125.609 119.736)" fill="white" fill-opacity="0.4"/>
<ellipse cx="2.42963" cy="2.31465" rx="2.42963" ry="2.31465" transform="matrix(0 1 1 0 107.093 129.455)" fill="white" fill-opacity="0.4"/>
<ellipse cx="2.42963" cy="2.31465" rx="2.42963" ry="2.31465" transform="matrix(0 1 1 0 131.782 137.553)" fill="white" fill-opacity="0.4"/>
<ellipse cx="2.42963" cy="2.31465" rx="2.42963" ry="2.31465" transform="matrix(0 1 1 0 94.749 69.5234)" fill="white" fill-opacity="0.4"/>
<ellipse cx="2.42963" cy="2.31465" rx="2.42963" ry="2.31465" transform="matrix(0 1 1 0 90.1182 45.2275)" fill="white" fill-opacity="0.4"/>
<ellipse cx="2.42963" cy="2.31465" rx="2.42963" ry="2.31465" transform="matrix(0 1 1 0 88.5752 20.9316)" fill="white" fill-opacity="0.4"/>
<ellipse cx="2.42963" cy="2.31465" rx="2.42963" ry="2.31465" transform="matrix(0 1 1 0 68.5146 27.4106)" fill="white" fill-opacity="0.4"/>
<ellipse cx="2.42963" cy="2.31465" rx="2.42963" ry="2.31465" transform="matrix(0 1 1 0 73.1465 54.9458)" fill="white" fill-opacity="0.4"/>
<ellipse cx="2.42963" cy="2.31465" rx="2.42963" ry="2.31465" transform="matrix(0 1 1 0 76.2305 74.3823)" fill="white" fill-opacity="0.4"/>
<ellipse cx="2.42963" cy="2.31465" rx="2.42963" ry="2.31465" transform="matrix(0 1 1 0 57.7129 87.3408)" fill="white" fill-opacity="0.4"/>
<ellipse cx="2.42963" cy="2.31465" rx="2.42963" ry="2.31465" transform="matrix(0 1 1 0 53.083 63.0449)" fill="white" fill-opacity="0.4"/>
<ellipse cx="2.42963" cy="2.31465" rx="2.42963" ry="2.31465" transform="matrix(0 1 1 0 51.541 37.1289)" fill="white" fill-opacity="0.4"/>
<ellipse cx="2.42963" cy="2.31465" rx="2.42963" ry="2.31465" transform="matrix(0 1 1 0 49.999 9.59277)" fill="white" fill-opacity="0.4"/>
<ellipse cx="2.42963" cy="2.31465" rx="2.42963" ry="2.31465" transform="matrix(0 1 1 0 8.33496 4.73389)" fill="white" fill-opacity="0.4"/>
<ellipse cx="2.42963" cy="2.31465" rx="2.42963" ry="2.31465" transform="matrix(0 1 1 0 31.4795 25.791)" fill="white" fill-opacity="0.4"/>
<ellipse cx="2.42963" cy="2.31465" rx="2.42963" ry="2.31465" transform="matrix(0 1 1 0 8.33496 38.7485)" fill="white" fill-opacity="0.4"/>
<ellipse cx="2.42963" cy="2.31465" rx="2.42963" ry="2.31465" transform="matrix(0 1 1 0 34.5693 50.0859)" fill="white" fill-opacity="0.4"/>
<ellipse cx="2.42963" cy="2.31465" rx="2.42963" ry="2.31465" transform="matrix(0 1 1 0 11.4209 63.0449)" fill="white" fill-opacity="0.4"/>
<ellipse cx="2.42963" cy="2.31465" rx="2.42963" ry="2.31465" transform="matrix(0 1 1 0 36.1113 76.0024)" fill="white" fill-opacity="0.4"/>
<ellipse cx="2.42963" cy="2.31465" rx="2.42963" ry="2.31465" transform="matrix(0 1 1 0 12.9658 92.2002)" fill="white" fill-opacity="0.4"/>
<ellipse cx="2.42963" cy="2.31465" rx="2.42963" ry="2.31465" transform="matrix(0 1 1 0 34.5674 106.777)" fill="white" fill-opacity="0.4"/>
<ellipse cx="2.42963" cy="2.31465" rx="2.42963" ry="2.31465" transform="matrix(0 1 1 0 11.4209 119.736)" fill="white" fill-opacity="0.4"/>
<ellipse cx="2.42963" cy="2.31465" rx="2.42963" ry="2.31465" transform="matrix(0 1 1 0 68.5146 1.49512)" fill="white" fill-opacity="0.4"/>
<ellipse cx="2.42963" cy="2.31465" rx="2.42963" ry="2.31465" transform="matrix(0 1 1 0 85.4883 -3.36475)" fill="white" fill-opacity="0.4"/>
<ellipse cx="2.42963" cy="2.31465" rx="2.42963" ry="2.31465" transform="matrix(0 1 1 0 79.3164 98.6797)" fill="white" fill-opacity="0.4"/>
<ellipse cx="2.42963" cy="2.31465" rx="2.42963" ry="2.31465" transform="matrix(0 1 1 0 83.9463 121.356)" fill="white" fill-opacity="0.4"/>
<ellipse cx="2.42963" cy="2.31465" rx="2.42963" ry="2.31465" transform="matrix(0 1 1 0 59.2559 111.637)" fill="white" fill-opacity="0.4"/>
<ellipse cx="2.42963" cy="2.31465" rx="2.42963" ry="2.31465" transform="matrix(0 1 1 0 185.791 16.0723)" fill="white" fill-opacity="0.4"/>
<ellipse cx="2.42963" cy="2.31465" rx="2.42963" ry="2.31465" transform="matrix(0 1 1 0 219.74 64.6641)" fill="white" fill-opacity="0.4"/>
<ellipse cx="2.42963" cy="2.31465" rx="2.42963" ry="2.31465" transform="matrix(0 1 1 0 225.912 79.2417)" fill="white" fill-opacity="0.4"/>
<ellipse cx="2.42963" cy="2.31465" rx="2.42963" ry="2.31465" transform="matrix(0 1 1 0 232.085 93.8203)" fill="white" fill-opacity="0.4"/>
<ellipse cx="2.42963" cy="2.31465" rx="2.42963" ry="2.31465" transform="matrix(0 1 1 0 239.801 105.159)" fill="white" fill-opacity="0.4"/>
<ellipse cx="2.42963" cy="2.31465" rx="2.42963" ry="2.31465" transform="matrix(0 1 1 0 245.973 118.116)" fill="white" fill-opacity="0.4"/>
<ellipse cx="2.42963" cy="2.31465" rx="2.42963" ry="2.31465" transform="matrix(0 1 1 0 255.231 131.075)" fill="white" fill-opacity="0.4"/>
<ellipse cx="2.42963" cy="2.31465" rx="2.42963" ry="2.31465" transform="matrix(0 1 1 0 262.945 140.792)" fill="white" fill-opacity="0.4"/>
<ellipse cx="2.42963" cy="2.31465" rx="2.42963" ry="2.31465" transform="matrix(0 1 1 0 272.203 150.512)" fill="white" fill-opacity="0.4"/>
<ellipse cx="2.42963" cy="2.31465" rx="2.42963" ry="2.31465" transform="matrix(0 1 1 0 281.463 160.23)" fill="white" fill-opacity="0.4"/>
<ellipse cx="2.42963" cy="2.31465" rx="2.42963" ry="2.31465" transform="matrix(0 1 1 0 289.181 171.569)" fill="white" fill-opacity="0.4"/>
<ellipse cx="2.42963" cy="2.31465" rx="2.42963" ry="2.31465" transform="matrix(0 1 1 0 284.547 179.668)" fill="white" fill-opacity="0.4"/>
<ellipse cx="2.42963" cy="2.31465" rx="2.42963" ry="2.31465" transform="matrix(0 1 1 0 273.746 168.329)" fill="white" fill-opacity="0.4"/>
<ellipse cx="2.42963" cy="2.31465" rx="2.42963" ry="2.31465" transform="matrix(0 1 1 0 267.576 158.61)" fill="white" fill-opacity="0.4"/>
<ellipse cx="2.42963" cy="2.31465" rx="2.42963" ry="2.31465" transform="matrix(0 1 1 0 261.401 165.089)" fill="white" fill-opacity="0.4"/>
<ellipse cx="2.42963" cy="2.31465" rx="2.42963" ry="2.31465" transform="matrix(0 1 1 0 252.146 156.991)" fill="white" fill-opacity="0.4"/>
<ellipse cx="2.42963" cy="2.31465" rx="2.42963" ry="2.31465" transform="matrix(0 1 1 0 258.315 150.512)" fill="white" fill-opacity="0.4"/>
<ellipse cx="2.42963" cy="2.31465" rx="2.42963" ry="2.31465" transform="matrix(0 1 1 0 249.06 140.792)" fill="white" fill-opacity="0.4"/>
<ellipse cx="2.42963" cy="2.31465" rx="2.42963" ry="2.31465" transform="matrix(0 1 1 0 244.43 147.272)" fill="white" fill-opacity="0.4"/>
<ellipse cx="2.42963" cy="2.31465" rx="2.42963" ry="2.31465" transform="matrix(0 1 1 0 236.714 135.933)" fill="white" fill-opacity="0.4"/>
<ellipse cx="2.42963" cy="2.31465" rx="2.42963" ry="2.31465" transform="matrix(0 1 1 0 239.801 129.455)" fill="white" fill-opacity="0.4"/>
<ellipse cx="2.42963" cy="2.31465" rx="2.42963" ry="2.31465" transform="matrix(0 1 1 0 233.628 118.116)" fill="white" fill-opacity="0.4"/>
<ellipse cx="2.42963" cy="2.31465" rx="2.42963" ry="2.31465" transform="matrix(0 1 1 0 225.912 105.159)" fill="white" fill-opacity="0.4"/>
<ellipse cx="2.42963" cy="2.31465" rx="2.42963" ry="2.31465" transform="matrix(0 1 1 0 218.197 92.2002)" fill="white" fill-opacity="0.4"/>
<ellipse cx="2.42963" cy="2.31465" rx="2.42963" ry="2.31465" transform="matrix(0 1 1 0 210.479 77.6226)" fill="white" fill-opacity="0.4"/>
<ellipse cx="2.42963" cy="2.31465" rx="2.42963" ry="2.31465" transform="matrix(0 1 1 0 202.764 63.0449)" fill="white" fill-opacity="0.4"/>
<ellipse cx="2.42963" cy="2.31465" rx="2.42963" ry="2.31465" transform="matrix(0 1 1 0 196.592 48.4668)" fill="white" fill-opacity="0.4"/>
<ellipse cx="2.42963" cy="2.31465" rx="2.42963" ry="2.31465" transform="matrix(0 1 1 0 190.42 32.2695)" fill="white" fill-opacity="0.4"/>
<ellipse cx="2.42963" cy="2.31465" rx="2.42963" ry="2.31465" transform="matrix(0 1 1 0 176.532 30.6494)" fill="white" fill-opacity="0.4"/>
<ellipse cx="2.42963" cy="2.31465" rx="2.42963" ry="2.31465" transform="matrix(0 1 1 0 184.248 45.2275)" fill="white" fill-opacity="0.4"/>
<ellipse cx="2.42963" cy="2.31465" rx="2.42963" ry="2.31465" transform="matrix(0 1 1 0 190.42 59.8052)" fill="white" fill-opacity="0.4"/>
<ellipse cx="2.42963" cy="2.31465" rx="2.42963" ry="2.31465" transform="matrix(0 1 1 0 196.592 72.7632)" fill="white" fill-opacity="0.4"/>
<ellipse cx="2.42963" cy="2.31465" rx="2.42963" ry="2.31465" transform="matrix(0 1 1 0 204.31 87.3408)" fill="white" fill-opacity="0.4"/>
<ellipse cx="2.42963" cy="2.31465" rx="2.42963" ry="2.31465" transform="matrix(0 1 1 0 213.567 100.299)" fill="white" fill-opacity="0.4"/>
<ellipse cx="2.42963" cy="2.31465" rx="2.42963" ry="2.31465" transform="matrix(0 1 1 0 219.74 111.637)" fill="white" fill-opacity="0.4"/>
<ellipse cx="2.42963" cy="2.31465" rx="2.42963" ry="2.31465" transform="matrix(0 1 1 0 227.455 124.596)" fill="white" fill-opacity="0.4"/>
<ellipse cx="2.42963" cy="2.31465" rx="2.42963" ry="2.31465" transform="matrix(0 1 1 0 213.567 121.356)" fill="white" fill-opacity="0.4"/>
<ellipse cx="2.42963" cy="2.31465" rx="2.42963" ry="2.31465" transform="matrix(0 1 1 0 210.479 131.075)" fill="white" fill-opacity="0.4"/>
<ellipse cx="2.42963" cy="2.31465" rx="2.42963" ry="2.31465" transform="matrix(0 1 1 0 201.222 139.172)" fill="white" fill-opacity="0.4"/>
<ellipse cx="2.42963" cy="2.31465" rx="2.42963" ry="2.31465" transform="matrix(0 1 1 0 195.05 152.131)" fill="white" fill-opacity="0.4"/>
<ellipse cx="2.42963" cy="2.31465" rx="2.42963" ry="2.31465" transform="matrix(0 1 1 0 204.31 161.85)" fill="white" fill-opacity="0.4"/>
<ellipse cx="2.42963" cy="2.31465" rx="2.42963" ry="2.31465" transform="matrix(0 1 1 0 212.023 150.512)" fill="white" fill-opacity="0.4"/>
<ellipse cx="2.42963" cy="2.31465" rx="2.42963" ry="2.31465" transform="matrix(0 1 1 0 216.653 142.413)" fill="white" fill-opacity="0.4"/>
<ellipse cx="2.42963" cy="2.31465" rx="2.42963" ry="2.31465" transform="matrix(0 1 1 0 222.827 134.314)" fill="white" fill-opacity="0.4"/>
<ellipse cx="2.42963" cy="2.31465" rx="2.42963" ry="2.31465" transform="matrix(0 1 1 0 230.54 144.032)" fill="white" fill-opacity="0.4"/>
<ellipse cx="2.42963" cy="2.31465" rx="2.42963" ry="2.31465" transform="matrix(0 1 1 0 238.258 153.751)" fill="white" fill-opacity="0.4"/>
<ellipse cx="2.42963" cy="2.31465" rx="2.42963" ry="2.31465" transform="matrix(0 1 1 0 245.973 163.47)" fill="white" fill-opacity="0.4"/>
<ellipse cx="2.42963" cy="2.31465" rx="2.42963" ry="2.31465" transform="matrix(0 1 1 0 241.343 171.569)" fill="white" fill-opacity="0.4"/>
<ellipse cx="2.42963" cy="2.31465" rx="2.42963" ry="2.31465" transform="matrix(0 1 1 0 250.602 181.287)" fill="white" fill-opacity="0.4"/>
<ellipse cx="2.42963" cy="2.31465" rx="2.42963" ry="2.31465" transform="matrix(0 1 1 0 256.773 173.188)" fill="white" fill-opacity="0.4"/>
<ellipse cx="2.42963" cy="2.31465" rx="2.42963" ry="2.31465" transform="matrix(0 1 1 0 270.663 176.427)" fill="white" fill-opacity="0.4"/>
<ellipse cx="2.42963" cy="2.31465" rx="2.42963" ry="2.31465" transform="matrix(0 1 1 0 264.487 184.527)" fill="white" fill-opacity="0.4"/>
<ellipse cx="2.42963" cy="2.31465" rx="2.42963" ry="2.31465" transform="matrix(0 1 1 0 272.203 195.865)" fill="white" fill-opacity="0.4"/>
<ellipse cx="2.42963" cy="2.31465" rx="2.42963" ry="2.31465" transform="matrix(0 1 1 0 278.377 186.146)" fill="white" fill-opacity="0.4"/>
<ellipse cx="2.42963" cy="2.31465" rx="2.42963" ry="2.31465" transform="matrix(0 1 1 0 296.895 182.907)" fill="white" fill-opacity="0.4"/>
<ellipse cx="2.42963" cy="2.31465" rx="2.42963" ry="2.31465" transform="matrix(0 1 1 0 290.723 189.386)" fill="white" fill-opacity="0.4"/>
<ellipse cx="2.42963" cy="2.31465" rx="2.42963" ry="2.31465" transform="matrix(0 1 1 0 293.809 212.062)" fill="white" fill-opacity="0.4"/>
<ellipse cx="2.42963" cy="2.31465" rx="2.42963" ry="2.31465" transform="matrix(0 1 1 0 298.437 202.343)" fill="white" fill-opacity="0.4"/>
<ellipse cx="2.42963" cy="2.31465" rx="2.42963" ry="2.31465" transform="matrix(0 1 1 0 304.608 194.245)" fill="white" fill-opacity="0.4"/>
<ellipse cx="2.42963" cy="2.31465" rx="2.42963" ry="2.31465" transform="matrix(0 1 1 0 312.325 205.583)" fill="white" fill-opacity="0.4"/>
<ellipse cx="2.42963" cy="2.31465" rx="2.42963" ry="2.31465" transform="matrix(0 1 1 0 306.153 218.541)" fill="white" fill-opacity="0.4"/>
<ellipse cx="2.42963" cy="2.31465" rx="2.42963" ry="2.31465" transform="matrix(0 1 1 0 312.325 234.739)" fill="white" fill-opacity="0.4"/>
<ellipse cx="2.42963" cy="2.31465" rx="2.42963" ry="2.31465" transform="matrix(0 1 1 0 318.496 221.781)" fill="white" fill-opacity="0.4"/>
<ellipse cx="2.42963" cy="2.31465" rx="2.42963" ry="2.31465" transform="matrix(0 1 1 0 326.212 210.442)" fill="white" fill-opacity="0.4"/>
<ellipse cx="2.42963" cy="2.31465" rx="2.42963" ry="2.31465" transform="matrix(0 1 1 0 332.385 226.64)" fill="white" fill-opacity="0.4"/>
<ellipse cx="2.42963" cy="2.31465" rx="2.42963" ry="2.31465" transform="matrix(0 1 1 0 326.212 241.219)" fill="white" fill-opacity="0.4"/>
<ellipse cx="2.42963" cy="2.31465" rx="2.42963" ry="2.31465" transform="matrix(0 1 1 0 338.558 246.078)" fill="white" fill-opacity="0.4"/>
<ellipse cx="2.42963" cy="2.31465" rx="2.42963" ry="2.31465" transform="matrix(0 1 1 0 330.841 259.035)" fill="white" fill-opacity="0.4"/>
<ellipse cx="2.42963" cy="2.31465" rx="2.42963" ry="2.31465" transform="matrix(0 1 1 0 341.645 265.514)" fill="white" fill-opacity="0.4"/>
<ellipse cx="2.42963" cy="2.31465" rx="2.42963" ry="2.31465" transform="matrix(0 1 1 0 355.531 268.754)" fill="white" fill-opacity="0.4"/>
<ellipse cx="2.42963" cy="2.31465" rx="2.42963" ry="2.31465" transform="matrix(0 1 1 0 358.618 291.43)" fill="white" fill-opacity="0.4"/>
<ellipse cx="2.42963" cy="2.31465" rx="2.42963" ry="2.31465" transform="matrix(0 1 1 0 233.628 161.85)" fill="white" fill-opacity="0.4"/>
<ellipse cx="2.42963" cy="2.31465" rx="2.42963" ry="2.31465" transform="matrix(0 1 1 0 225.912 171.569)" fill="white" fill-opacity="0.4"/>
<ellipse cx="2.42963" cy="2.31465" rx="2.42963" ry="2.31465" transform="matrix(0 1 1 0 218.197 161.85)" fill="white" fill-opacity="0.4"/>
<ellipse cx="2.42963" cy="2.31465" rx="2.42963" ry="2.31465" transform="matrix(0 1 1 0 224.369 150.512)" fill="white" fill-opacity="0.4"/>
<ellipse cx="241.344" cy="82.4817" rx="3.23951" ry="3.0862" transform="rotate(-90 241.344 82.4817)" fill="white" fill-opacity="0.4"/>
<ellipse cx="249.059" cy="97.0598" rx="3.23951" ry="3.0862" transform="rotate(-90 249.059 97.0598)" fill="white" fill-opacity="0.4"/>
<ellipse cx="255.232" cy="108.397" rx="3.23951" ry="3.0862" transform="rotate(-90 255.232 108.397)" fill="white" fill-opacity="0.4"/>
<ellipse cx="262.947" cy="121.356" rx="3.23951" ry="3.0862" transform="rotate(-90 262.947 121.356)" fill="white" fill-opacity="0.4"/>
<ellipse cx="270.662" cy="132.694" rx="3.23951" ry="3.0862" transform="rotate(-90 270.662 132.694)" fill="white" fill-opacity="0.4"/>
<ellipse cx="279.921" cy="145.652" rx="3.23951" ry="3.0862" transform="rotate(-90 279.921 145.652)" fill="white" fill-opacity="0.4"/>
<ellipse cx="287.633" cy="155.371" rx="3.23951" ry="3.0862" transform="rotate(-90 287.633 155.371)" fill="white" fill-opacity="0.4"/>
<ellipse cx="296.895" cy="166.709" rx="3.23951" ry="3.0862" transform="rotate(-90 296.895 166.709)" fill="white" fill-opacity="0.4"/>
<ellipse cx="306.153" cy="176.428" rx="3.23951" ry="3.0862" transform="rotate(-90 306.153 176.428)" fill="white" fill-opacity="0.4"/>
<ellipse cx="315.411" cy="173.188" rx="3.23951" ry="3.0862" transform="rotate(-90 315.411 173.188)" fill="white" fill-opacity="0.4"/>
<ellipse cx="327.755" cy="189.385" rx="3.23951" ry="3.0862" transform="rotate(-90 327.755 189.385)" fill="white" fill-opacity="0.4"/>
<ellipse cx="324.668" cy="176.428" rx="3.23951" ry="3.0862" transform="rotate(-90 324.668 176.428)" fill="white" fill-opacity="0.4"/>
<ellipse cx="313.866" cy="187.766" rx="3.23951" ry="3.0862" transform="rotate(-90 313.866 187.766)" fill="white" fill-opacity="0.4"/>
<ellipse cx="321.582" cy="199.104" rx="3.23951" ry="3.0862" transform="rotate(-90 321.582 199.104)" fill="white" fill-opacity="0.4"/>
<ellipse cx="341.644" cy="215.302" rx="3.23951" ry="3.0862" transform="rotate(-90 341.644 215.302)" fill="white" fill-opacity="0.4"/>
<ellipse cx="333.927" cy="202.343" rx="3.23951" ry="3.0862" transform="rotate(-90 333.927 202.343)" fill="white" fill-opacity="0.4"/>
<ellipse cx="315.411" cy="137.553" rx="3.23951" ry="3.0862" transform="rotate(-90 315.411 137.553)" fill="white" fill-opacity="0.4"/>
<ellipse cx="321.582" cy="150.511" rx="3.23951" ry="3.0862" transform="rotate(-90 321.582 150.511)" fill="white" fill-opacity="0.4"/>
<ellipse cx="329.298" cy="166.709" rx="3.23951" ry="3.0862" transform="rotate(-90 329.298 166.709)" fill="white" fill-opacity="0.4"/>
<ellipse cx="335.471" cy="176.428" rx="3.23951" ry="3.0862" transform="rotate(-90 335.471 176.428)" fill="white" fill-opacity="0.4"/>
<ellipse cx="344.731" cy="189.385" rx="3.23951" ry="3.0862" transform="rotate(-90 344.731 189.385)" fill="white" fill-opacity="0.4"/>
<ellipse cx="338.557" cy="195.865" rx="3.23951" ry="3.0862" transform="rotate(-90 338.557 195.865)" fill="white" fill-opacity="0.4"/>
<ellipse cx="346.274" cy="203.964" rx="3.23951" ry="3.0862" transform="rotate(-90 346.274 203.964)" fill="white" fill-opacity="0.4"/>
<ellipse cx="352.445" cy="197.484" rx="3.23951" ry="3.0862" transform="rotate(-90 352.445 197.484)" fill="white" fill-opacity="0.4"/>
</g>
<g opacity="0.5">
<ellipse cx="5.60475" cy="5.10984" rx="5.60475" ry="5.10984" transform="matrix(-0.660951 -0.750429 -0.717633 0.696422 1.21484 450.609)" fill="white" fill-opacity="0.4"/>
<ellipse cx="5.75353" cy="6.04794" rx="5.75353" ry="6.04794" transform="matrix(-0.660951 -0.750429 -0.717633 0.696422 13.5625 485.159)" fill="white" fill-opacity="0.4"/>
<ellipse cx="5.75353" cy="6.04794" rx="5.75353" ry="6.04794" transform="matrix(-0.660951 -0.750429 -0.717633 0.696422 32.0781 478.681)" fill="white" fill-opacity="0.4"/>
<ellipse cx="5.75353" cy="6.04794" rx="5.75353" ry="6.04794" transform="matrix(-0.660951 -0.750429 -0.717633 0.696422 47.5088 473.82)" fill="white" fill-opacity="0.4"/>
<ellipse cx="5.75353" cy="6.04794" rx="5.75353" ry="6.04794" transform="matrix(-0.660951 -0.750429 -0.717633 0.696422 24.3633 462.483)" fill="white" fill-opacity="0.4"/>
<ellipse cx="5.75353" cy="6.04794" rx="5.75353" ry="6.04794" transform="matrix(-0.660951 -0.750429 -0.717633 0.696422 55.2227 491.638)" fill="white" fill-opacity="0.4"/>
<ellipse cx="5.75353" cy="6.04794" rx="5.75353" ry="6.04794" transform="matrix(-0.660951 -0.750429 -0.717633 0.696422 70.6572 488.398)" fill="white" fill-opacity="0.4"/>
<ellipse cx="5.75353" cy="6.04794" rx="5.75353" ry="6.04794" transform="matrix(-0.660951 -0.750429 -0.717633 0.696422 86.0879 486.779)" fill="white" fill-opacity="0.4"/>
<ellipse cx="5.75353" cy="6.04794" rx="5.75353" ry="6.04794" transform="matrix(-0.660951 -0.750429 -0.717633 0.696422 8.93262 467.342)" fill="white" fill-opacity="0.4"/>
<ellipse cx="2.42254" cy="5.41816" rx="2.42254" ry="5.41816" transform="matrix(0.24001 -0.97077 -0.964841 -0.262833 7.76758 438.723)" fill="white" fill-opacity="0.4"/>
<ellipse cx="3.8805" cy="5.41816" rx="3.8805" ry="5.41816" transform="matrix(0.24001 -0.97077 -0.964841 -0.262833 15.1338 453.096)" fill="white" fill-opacity="0.4"/>
<ellipse cx="3.8805" cy="5.41816" rx="3.8805" ry="5.41816" transform="matrix(0.24001 -0.97077 -0.964841 -0.262833 37.9316 464.23)" fill="white" fill-opacity="0.4"/>
<ellipse cx="3.8805" cy="5.41816" rx="3.8805" ry="5.41816" transform="matrix(0.24001 -0.97077 -0.964841 -0.262833 30.2158 451.271)" fill="white" fill-opacity="0.4"/>
<ellipse cx="2.83741" cy="4.01718" rx="2.83741" ry="4.01718" transform="matrix(0.464025 -0.885822 -0.866092 -0.499884 20.1865 440.214)" fill="white" fill-opacity="0.4"/>
<ellipse cx="1.9687" cy="4.63906" rx="1.9687" ry="4.63906" transform="matrix(0.464025 -0.885822 -0.866092 -0.499884 2.47461 419.859)" fill="white" fill-opacity="0.4"/>
<ellipse cx="1.9687" cy="4.63906" rx="1.9687" ry="4.63906" transform="matrix(0.464025 -0.885822 -0.866092 -0.499884 13.2764 427.959)" fill="white" fill-opacity="0.4"/>
<ellipse cx="1.9687" cy="4.63906" rx="1.9687" ry="4.63906" transform="matrix(0.464025 -0.885822 -0.866092 -0.499884 25.6211 431.198)" fill="white" fill-opacity="0.4"/>
<ellipse cx="1.9687" cy="4.63906" rx="1.9687" ry="4.63906" transform="matrix(0.464025 -0.885822 -0.866092 -0.499884 34.8799 439.297)" fill="white" fill-opacity="0.4"/>
<ellipse cx="1.9687" cy="4.63906" rx="1.9687" ry="4.63906" transform="matrix(0.464025 -0.885822 -0.866092 -0.499884 34.8799 439.297)" fill="white" fill-opacity="0.4"/>
<ellipse cx="1.9687" cy="4.63906" rx="1.9687" ry="4.63906" transform="matrix(0.464025 -0.885822 -0.866092 -0.499884 58.0264 450.635)" fill="white" fill-opacity="0.4"/>
<ellipse cx="1.9687" cy="4.63906" rx="1.9687" ry="4.63906" transform="matrix(0.464025 -0.885822 -0.866092 -0.499884 48.7686 442.536)" fill="white" fill-opacity="0.4"/>
<ellipse cx="2.05318" cy="4.63906" rx="2.05318" ry="4.63906" transform="matrix(0.464025 -0.885822 -0.866092 -0.499884 37.9277 434.513)" fill="white" fill-opacity="0.4"/>
<ellipse cx="2.05318" cy="4.63906" rx="2.05318" ry="4.63906" transform="matrix(0.464025 -0.885822 -0.866092 -0.499884 28.6299 426.488)" fill="white" fill-opacity="0.4"/>
<ellipse cx="2.05318" cy="4.63906" rx="2.05318" ry="4.63906" transform="matrix(0.464025 -0.885822 -0.866092 -0.499884 14.7412 420.009)" fill="white" fill-opacity="0.4"/>
<ellipse cx="2.05318" cy="4.63906" rx="2.05318" ry="4.63906" transform="matrix(0.464025 -0.885822 -0.866092 -0.499884 5.48242 415.15)" fill="white" fill-opacity="0.4"/>
<ellipse cx="1.9687" cy="4.63906" rx="1.9687" ry="4.63906" transform="matrix(0.464025 -0.885822 -0.866092 -0.499884 67.2842 461.973)" fill="white" fill-opacity="0.4"/>
<ellipse cx="1.9687" cy="4.63906" rx="1.9687" ry="4.63906" transform="matrix(0.464025 -0.885822 -0.866092 -0.499884 81.1719 463.592)" fill="white" fill-opacity="0.4"/>
<ellipse cx="1.9687" cy="4.63906" rx="1.9687" ry="4.63906" transform="matrix(0.464025 -0.885822 -0.866092 -0.499884 70.3721 453.874)" fill="white" fill-opacity="0.4"/>
<ellipse cx="1.9687" cy="4.63906" rx="1.9687" ry="4.63906" transform="matrix(0.464025 -0.885822 -0.866092 -0.499884 84.2598 457.113)" fill="white" fill-opacity="0.4"/>
<ellipse cx="1.9687" cy="4.63906" rx="1.9687" ry="4.63906" transform="matrix(0.464025 -0.885822 -0.866092 -0.499884 93.5176 468.453)" fill="white" fill-opacity="0.4"/>
<ellipse cx="1.9687" cy="4.63906" rx="1.9687" ry="4.63906" transform="matrix(0.464025 -0.885822 -0.866092 -0.499884 104.32 471.692)" fill="white" fill-opacity="0.4"/>
<ellipse cx="1.50642" cy="4.49385" rx="1.50642" ry="4.49385" transform="matrix(0.464025 -0.885822 -0.866092 -0.499884 1.36035 394.6)" fill="white" fill-opacity="0.4"/>
<ellipse cx="1.50642" cy="4.49385" rx="1.50642" ry="4.49385" transform="matrix(0.464025 -0.885822 -0.866092 -0.499884 4.44727 389.74)" fill="white" fill-opacity="0.4"/>
<ellipse cx="1.50642" cy="4.49385" rx="1.50642" ry="4.49385" transform="matrix(0.464025 -0.885822 -0.866092 -0.499884 9.07617 381.641)" fill="white" fill-opacity="0.4"/>
<ellipse cx="1.50642" cy="4.49385" rx="1.50642" ry="4.49385" transform="matrix(0.464025 -0.885822 -0.866092 -0.499884 18.335 392.979)" fill="white" fill-opacity="0.4"/>
<ellipse cx="1.50642" cy="4.49385" rx="1.50642" ry="4.49385" transform="matrix(0.464025 -0.885822 -0.866092 -0.499884 13.7061 401.079)" fill="white" fill-opacity="0.4"/>
<ellipse cx="1.50642" cy="4.49385" rx="1.50642" ry="4.49385" transform="matrix(0.464025 -0.885822 -0.866092 -0.499884 10.6191 407.557)" fill="white" fill-opacity="0.4"/>
<ellipse cx="1.50642" cy="4.49385" rx="1.50642" ry="4.49385" transform="matrix(0.464025 -0.885822 -0.866092 -0.499884 21.4209 412.417)" fill="white" fill-opacity="0.4"/>
<ellipse cx="1.50642" cy="4.49385" rx="1.50642" ry="4.49385" transform="matrix(0.464025 -0.885822 -0.866092 -0.499884 24.5068 405.938)" fill="white" fill-opacity="0.4"/>
<ellipse cx="1.50642" cy="4.49385" rx="1.50642" ry="4.49385" transform="matrix(0.464025 -0.885822 -0.866092 -0.499884 38.3945 407.557)" fill="white" fill-opacity="0.4"/>
<ellipse cx="1.50642" cy="4.49385" rx="1.50642" ry="4.49385" transform="matrix(0.464025 -0.885822 -0.866092 -0.499884 33.7666 415.656)" fill="white" fill-opacity="0.4"/>
<ellipse cx="1.50642" cy="4.49385" rx="1.50642" ry="4.49385" transform="matrix(0.464025 -0.885822 -0.866092 -0.499884 43.0244 425.375)" fill="white" fill-opacity="0.4"/>
<ellipse cx="1.50642" cy="4.49385" rx="1.50642" ry="4.49385" transform="matrix(0.464025 -0.885822 -0.866092 -0.499884 46.1104 420.515)" fill="white" fill-opacity="0.4"/>
<ellipse cx="1.50642" cy="4.49385" rx="1.50642" ry="4.49385" transform="matrix(0.464025 -0.885822 -0.866092 -0.499884 55.3691 428.614)" fill="white" fill-opacity="0.4"/>
<ellipse cx="1.50642" cy="4.49385" rx="1.50642" ry="4.49385" transform="matrix(0.464025 -0.885822 -0.866092 -0.499884 59.998 436.712)" fill="white" fill-opacity="0.4"/>
<ellipse cx="1.50642" cy="4.49385" rx="1.50642" ry="4.49385" transform="matrix(0.464025 -0.885822 -0.866092 -0.499884 72.3428 443.191)" fill="white" fill-opacity="0.4"/>
<ellipse cx="1.50642" cy="4.49385" rx="1.50642" ry="4.49385" transform="matrix(0.464025 -0.885822 -0.866092 -0.499884 87.7744 448.052)" fill="white" fill-opacity="0.4"/>
<ellipse cx="1.50642" cy="4.49385" rx="1.50642" ry="4.49385" transform="matrix(0.464025 -0.885822 -0.866092 -0.499884 97.0332 462.629)" fill="white" fill-opacity="0.4"/>
<ellipse cx="1.50642" cy="4.49385" rx="1.50642" ry="4.49385" transform="matrix(0.464025 -0.885822 -0.866092 -0.499884 98.5762 456.15)" fill="white" fill-opacity="0.4"/>
<ellipse cx="1.50642" cy="4.49385" rx="1.50642" ry="4.49385" transform="matrix(0.464025 -0.885822 -0.866092 -0.499884 107.834 467.489)" fill="white" fill-opacity="0.4"/>
<ellipse cx="1.50642" cy="4.49385" rx="1.50642" ry="4.49385" transform="matrix(0.464025 -0.885822 -0.866092 -0.499884 117.094 477.207)" fill="white" fill-opacity="0.4"/>
<ellipse cx="1.50642" cy="4.49385" rx="1.50642" ry="4.49385" transform="matrix(0.464025 -0.885822 -0.866092 -0.499884 121.724 469.107)" fill="white" fill-opacity="0.4"/>
<ellipse cx="1.50642" cy="4.49385" rx="1.50642" ry="4.49385" transform="matrix(0.464025 -0.885822 -0.866092 -0.499884 130.982 478.826)" fill="white" fill-opacity="0.4"/>
<ellipse cx="1.50642" cy="4.49385" rx="1.50642" ry="4.49385" transform="matrix(0.464025 -0.885822 -0.866092 -0.499884 130.982 483.685)" fill="white" fill-opacity="0.4"/>
<ellipse cx="1.2031" cy="4.49385" rx="1.2031" ry="4.49385" transform="matrix(0.464025 -0.885822 -0.866092 -0.499884 142.064 486.388)" fill="white" fill-opacity="0.4"/>
<ellipse cx="1.2031" cy="4.49385" rx="1.2031" ry="4.49385" transform="matrix(0.464025 -0.885822 -0.866092 -0.499884 135.893 475.051)" fill="white" fill-opacity="0.4"/>
<ellipse cx="1.50642" cy="4.49385" rx="1.50642" ry="4.49385" transform="matrix(0.464025 -0.885822 -0.866092 -0.499884 112.464 459.39)" fill="white" fill-opacity="0.4"/>
<ellipse cx="3.8805" cy="5.41816" rx="3.8805" ry="5.41816" transform="matrix(0.24001 -0.97077 -0.964841 -0.262833 45.6465 451.271)" fill="white" fill-opacity="0.4"/>
<ellipse cx="3.8805" cy="5.41816" rx="3.8805" ry="5.41816" transform="matrix(0.24001 -0.97077 -0.964841 -0.262833 54.9053 462.609)" fill="white" fill-opacity="0.4"/>
<ellipse cx="3.8805" cy="5.41816" rx="3.8805" ry="5.41816" transform="matrix(0.24001 -0.97077 -0.964841 -0.262833 61.0771 475.568)" fill="white" fill-opacity="0.4"/>
<ellipse cx="3.8805" cy="5.41816" rx="3.8805" ry="5.41816" transform="matrix(0.24001 -0.97077 -0.964841 -0.262833 76.5088 475.568)" fill="white" fill-opacity="0.4"/>
<ellipse cx="2.93943" cy="4.54996" rx="2.93943" ry="4.54996" transform="matrix(0.24001 -0.97077 -0.964841 -0.262833 89.1719 476.524)" fill="white" fill-opacity="0.4"/>
<ellipse cx="2.92566" cy="4.57304" rx="2.92566" ry="4.57304" transform="matrix(0.388344 -0.921515 -0.906994 -0.421143 94.8047 491.675)" fill="white" fill-opacity="0.4"/>
<ellipse cx="2.92566" cy="4.57304" rx="2.92566" ry="4.57304" transform="matrix(0.388344 -0.921515 -0.906994 -0.421143 110.048 493.867)" fill="white" fill-opacity="0.4"/>
<ellipse cx="2.20758" cy="4.57304" rx="2.20758" ry="4.57304" transform="matrix(0.388344 -0.921515 -0.906994 -0.421143 101.346 477.965)" fill="white" fill-opacity="0.4"/>
<ellipse cx="2.20758" cy="4.57304" rx="2.20758" ry="4.57304" transform="matrix(0.388344 -0.921515 -0.906994 -0.421143 115.235 482.825)" fill="white" fill-opacity="0.4"/>
<ellipse cx="2.20758" cy="4.57304" rx="2.20758" ry="4.57304" transform="matrix(0.388344 -0.921515 -0.906994 -0.421143 127.579 489.304)" fill="white" fill-opacity="0.4"/>
<ellipse cx="-0.327407" cy="363.142" rx="3.23951" ry="3.0862" transform="rotate(90 -0.327407 363.142)" fill="white" fill-opacity="0.4"/>
<ellipse cx="1.21654" cy="332.365" rx="3.23951" ry="3.0862" transform="rotate(90 1.21654 332.365)" fill="white" fill-opacity="0.4"/>
<ellipse cx="7.38939" cy="345.324" rx="3.23951" ry="3.0862" transform="rotate(90 7.38939 345.324)" fill="white" fill-opacity="0.4"/>
<ellipse cx="16.6482" cy="361.522" rx="3.23951" ry="3.0862" transform="rotate(90 16.6482 361.522)" fill="white" fill-opacity="0.4"/>
<ellipse cx="22.821" cy="379.339" rx="3.23951" ry="3.0862" transform="rotate(90 22.821 379.339)" fill="white" fill-opacity="0.4"/>
<ellipse cx="28.9919" cy="392.297" rx="3.23951" ry="3.0862" transform="rotate(90 28.9919 392.297)" fill="white" fill-opacity="0.4"/>
<ellipse cx="36.7087" cy="377.719" rx="3.23951" ry="3.0862" transform="rotate(90 36.7087 377.719)" fill="white" fill-opacity="0.4"/>
<ellipse cx="42.8806" cy="392.297" rx="3.23951" ry="3.0862" transform="rotate(90 42.8806 392.297)" fill="white" fill-opacity="0.4"/>
<ellipse cx="50.5945" cy="406.875" rx="3.23951" ry="3.0862" transform="rotate(90 50.5945 406.875)" fill="white" fill-opacity="0.4"/>
<ellipse cx="59.8542" cy="418.213" rx="3.23951" ry="3.0862" transform="rotate(90 59.8542 418.213)" fill="white" fill-opacity="0.4"/>
<ellipse cx="66.0281" cy="427.932" rx="3.23951" ry="3.0862" transform="rotate(90 66.0281 427.932)" fill="white" fill-opacity="0.4"/>
<ellipse cx="81.4568" cy="432.791" rx="3.23951" ry="3.0862" transform="rotate(90 81.4568 432.791)" fill="white" fill-opacity="0.4"/>
<ellipse cx="73.741" cy="418.213" rx="3.23951" ry="3.0862" transform="rotate(90 73.741 418.213)" fill="white" fill-opacity="0.4"/>
<ellipse cx="66.0281" cy="406.875" rx="3.23951" ry="3.0862" transform="rotate(90 66.0281 406.875)" fill="white" fill-opacity="0.4"/>
<ellipse cx="58.3103" cy="392.297" rx="3.23951" ry="3.0862" transform="rotate(90 58.3103 392.297)" fill="white" fill-opacity="0.4"/>
<ellipse cx="50.5945" cy="379.339" rx="3.23951" ry="3.0862" transform="rotate(90 50.5945 379.339)" fill="white" fill-opacity="0.4"/>
<ellipse cx="44.4226" cy="364.762" rx="3.23951" ry="3.0862" transform="rotate(90 44.4226 364.762)" fill="white" fill-opacity="0.4"/>
<ellipse cx="36.7087" cy="353.423" rx="3.23951" ry="3.0862" transform="rotate(90 36.7087 353.423)" fill="white" fill-opacity="0.4"/>
<ellipse cx="28.9919" cy="338.845" rx="3.23951" ry="3.0862" transform="rotate(90 28.9919 338.845)" fill="white" fill-opacity="0.4"/>
<ellipse cx="42.8806" cy="340.464" rx="3.23951" ry="3.0862" transform="rotate(90 42.8806 340.464)" fill="white" fill-opacity="0.4"/>
<ellipse cx="52.1365" cy="353.423" rx="3.23951" ry="3.0862" transform="rotate(90 52.1365 353.423)" fill="white" fill-opacity="0.4"/>
<ellipse cx="59.8542" cy="364.762" rx="3.23951" ry="3.0862" transform="rotate(90 59.8542 364.762)" fill="white" fill-opacity="0.4"/>
<ellipse cx="66.0281" cy="377.719" rx="3.23951" ry="3.0862" transform="rotate(90 66.0281 377.719)" fill="white" fill-opacity="0.4"/>
<ellipse cx="73.741" cy="392.297" rx="3.23951" ry="3.0862" transform="rotate(90 73.741 392.297)" fill="white" fill-opacity="0.4"/>
<ellipse cx="79.9158" cy="403.635" rx="3.23951" ry="3.0862" transform="rotate(90 79.9158 403.635)" fill="white" fill-opacity="0.4"/>
<ellipse cx="87.6296" cy="418.213" rx="3.23951" ry="3.0862" transform="rotate(90 87.6296 418.213)" fill="white" fill-opacity="0.4"/>
<ellipse cx="95.3445" cy="432.791" rx="3.23951" ry="3.0862" transform="rotate(90 95.3445 432.791)" fill="white" fill-opacity="0.4"/>
<ellipse cx="103.059" cy="444.129" rx="3.23951" ry="3.0862" transform="rotate(90 103.059 444.129)" fill="white" fill-opacity="0.4"/>
<ellipse cx="2.42963" cy="2.31465" rx="2.42963" ry="2.31465" transform="matrix(0 -1 -1 0 110.775 434.411)" fill="white" fill-opacity="0.4"/>
<ellipse cx="2.42963" cy="2.31465" rx="2.42963" ry="2.31465" transform="matrix(0 -1 -1 0 116.948 448.989)" fill="white" fill-opacity="0.4"/>
<ellipse cx="2.42963" cy="2.31465" rx="2.42963" ry="2.31465" transform="matrix(0 -1 -1 0 126.206 461.947)" fill="white" fill-opacity="0.4"/>
<ellipse cx="2.42963" cy="2.31465" rx="2.42963" ry="2.31465" transform="matrix(0 -1 -1 0 132.38 450.609)" fill="white" fill-opacity="0.4"/>
<ellipse cx="2.42963" cy="2.31465" rx="2.42963" ry="2.31465" transform="matrix(0 -1 -1 0 140.094 465.187)" fill="white" fill-opacity="0.4"/>
<ellipse cx="2.42963" cy="2.31465" rx="2.42963" ry="2.31465" transform="matrix(0 -1 -1 0 147.812 479.764)" fill="white" fill-opacity="0.4"/>
<ellipse cx="2.42963" cy="2.31465" rx="2.42963" ry="2.31465" transform="matrix(0 -1 -1 0 174.044 486.243)" fill="white" fill-opacity="0.4"/>
<ellipse cx="2.42963" cy="2.31465" rx="2.42963" ry="2.31465" transform="matrix(0 -1 -1 0 181.758 471.665)" fill="white" fill-opacity="0.4"/>
<ellipse cx="2.42963" cy="2.31465" rx="2.42963" ry="2.31465" transform="matrix(0 -1 -1 0 194.104 478.144)" fill="white" fill-opacity="0.4"/>
<ellipse cx="2.42963" cy="2.31465" rx="2.42963" ry="2.31465" transform="matrix(0 -1 -1 0 198.733 470.046)" fill="white" fill-opacity="0.4"/>
<ellipse cx="2.42963" cy="2.31465" rx="2.42963" ry="2.31465" transform="matrix(0 -1 -1 0 203.363 465.187)" fill="white" fill-opacity="0.4"/>
<ellipse cx="2.42963" cy="2.31465" rx="2.42963" ry="2.31465" transform="matrix(0 -1 -1 0 207.993 457.087)" fill="white" fill-opacity="0.4"/>
<ellipse cx="2.42963" cy="2.31465" rx="2.42963" ry="2.31465" transform="matrix(0 -1 -1 0 217.251 440.89)" fill="white" fill-opacity="0.4"/>
<ellipse cx="2.42963" cy="2.31465" rx="2.42963" ry="2.31465" transform="matrix(0 -1 -1 0 214.165 421.453)" fill="white" fill-opacity="0.4"/>
<ellipse cx="2.42963" cy="2.31465" rx="2.42963" ry="2.31465" transform="matrix(0 -1 -1 0 221.879 461.947)" fill="white" fill-opacity="0.4"/>
<ellipse cx="2.42963" cy="2.31465" rx="2.42963" ry="2.31465" transform="matrix(0 -1 -1 0 217.251 471.665)" fill="white" fill-opacity="0.4"/>
<ellipse cx="2.42963" cy="2.31465" rx="2.42963" ry="2.31465" transform="matrix(0 -1 -1 0 212.621 478.144)" fill="white" fill-opacity="0.4"/>
<ellipse cx="2.42963" cy="2.31465" rx="2.42963" ry="2.31465" transform="matrix(0 -1 -1 0 206.448 484.623)" fill="white" fill-opacity="0.4"/>
<ellipse cx="2.42963" cy="2.31465" rx="2.42963" ry="2.31465" transform="matrix(0 -1 -1 0 226.509 481.383)" fill="white" fill-opacity="0.4"/>
<ellipse cx="2.42963" cy="2.31465" rx="2.42963" ry="2.31465" transform="matrix(0 -1 -1 0 241.939 483.002)" fill="white" fill-opacity="0.4"/>
<ellipse cx="2.42963" cy="2.31465" rx="2.42963" ry="2.31465" transform="matrix(0 -1 -1 0 201.819 440.89)" fill="white" fill-opacity="0.4"/>
<ellipse cx="2.42963" cy="2.31465" rx="2.42963" ry="2.31465" transform="matrix(0 -1 -1 0 195.647 450.609)" fill="white" fill-opacity="0.4"/>
<ellipse cx="2.42963" cy="2.31465" rx="2.42963" ry="2.31465" transform="matrix(0 -1 -1 0 184.845 463.566)" fill="white" fill-opacity="0.4"/>
<ellipse cx="2.42963" cy="2.31465" rx="2.42963" ry="2.31465" transform="matrix(0 -1 -1 0 178.673 452.228)" fill="white" fill-opacity="0.4"/>
<ellipse cx="2.42963" cy="2.31465" rx="2.42963" ry="2.31465" transform="matrix(0 -1 -1 0 167.871 445.749)" fill="white" fill-opacity="0.4"/>
<ellipse cx="2.42963" cy="2.31465" rx="2.42963" ry="2.31465" transform="matrix(0 -1 -1 0 172.499 437.65)" fill="white" fill-opacity="0.4"/>
<ellipse cx="2.42963" cy="2.31465" rx="2.42963" ry="2.31465" transform="matrix(0 -1 -1 0 164.785 426.312)" fill="white" fill-opacity="0.4"/>
<ellipse cx="2.42963" cy="2.31465" rx="2.42963" ry="2.31465" transform="matrix(0 -1 -1 0 158.612 432.792)" fill="white" fill-opacity="0.4"/>
<ellipse cx="2.42963" cy="2.31465" rx="2.42963" ry="2.31465" transform="matrix(0 -1 -1 0 152.439 418.212)" fill="white" fill-opacity="0.4"/>
<ellipse cx="2.42963" cy="2.31465" rx="2.42963" ry="2.31465" transform="matrix(0 -1 -1 0 157.069 410.114)" fill="white" fill-opacity="0.4"/>
<ellipse cx="2.42963" cy="2.31465" rx="2.42963" ry="2.31465" transform="matrix(0 -1 -1 0 170.957 414.974)" fill="white" fill-opacity="0.4"/>
<ellipse cx="2.42963" cy="2.31465" rx="2.42963" ry="2.31465" transform="matrix(0 -1 -1 0 164.785 402.015)" fill="white" fill-opacity="0.4"/>
<ellipse cx="2.42963" cy="2.31465" rx="2.42963" ry="2.31465" transform="matrix(0 -1 -1 0 172.499 385.818)" fill="white" fill-opacity="0.4"/>
<ellipse cx="2.42963" cy="2.31465" rx="2.42963" ry="2.31465" transform="matrix(0 -1 -1 0 178.673 403.635)" fill="white" fill-opacity="0.4"/>
<ellipse cx="2.42963" cy="2.31465" rx="2.42963" ry="2.31465" transform="matrix(0 -1 -1 0 183.303 419.833)" fill="white" fill-opacity="0.4"/>
<ellipse cx="2.42963" cy="2.31465" rx="2.42963" ry="2.31465" transform="matrix(0 -1 -1 0 177.129 431.171)" fill="white" fill-opacity="0.4"/>
<ellipse cx="2.42963" cy="2.31465" rx="2.42963" ry="2.31465" transform="matrix(0 -1 -1 0 183.303 445.749)" fill="white" fill-opacity="0.4"/>
<ellipse cx="2.42963" cy="2.31465" rx="2.42963" ry="2.31465" transform="matrix(0 -1 -1 0 189.475 434.411)" fill="white" fill-opacity="0.4"/>
<ellipse cx="2.42963" cy="2.31465" rx="2.42963" ry="2.31465" transform="matrix(0 -1 -1 0 198.733 421.453)" fill="white" fill-opacity="0.4"/>
<ellipse cx="2.42963" cy="2.31465" rx="2.42963" ry="2.31465" transform="matrix(0 -1 -1 0 192.562 403.635)" fill="white" fill-opacity="0.4"/>
<ellipse cx="2.42963" cy="2.31465" rx="2.42963" ry="2.31465" transform="matrix(0 -1 -1 0 207.993 402.015)" fill="white" fill-opacity="0.4"/>
<ellipse cx="2.42963" cy="2.31465" rx="2.42963" ry="2.31465" transform="matrix(0 -1 -1 0 201.819 384.198)" fill="white" fill-opacity="0.4"/>
<ellipse cx="2.42963" cy="2.31465" rx="2.42963" ry="2.31465" transform="matrix(0 -1 -1 0 186.388 387.438)" fill="white" fill-opacity="0.4"/>
<ellipse cx="2.42963" cy="2.31465" rx="2.42963" ry="2.31465" transform="matrix(0 -1 -1 0 180.216 372.86)" fill="white" fill-opacity="0.4"/>
<ellipse cx="2.42963" cy="2.31465" rx="2.42963" ry="2.31465" transform="matrix(0 -1 -1 0 158.612 385.818)" fill="white" fill-opacity="0.4"/>
<ellipse cx="2.42963" cy="2.31465" rx="2.42963" ry="2.31465" transform="matrix(0 -1 -1 0 149.354 395.536)" fill="white" fill-opacity="0.4"/>
<ellipse cx="2.42963" cy="2.31465" rx="2.42963" ry="2.31465" transform="matrix(0 -1 -1 0 146.267 403.635)" fill="white" fill-opacity="0.4"/>
<ellipse cx="2.42963" cy="2.31465" rx="2.42963" ry="2.31465" transform="matrix(0 -1 -1 0 138.552 392.297)" fill="white" fill-opacity="0.4"/>
<ellipse cx="2.42963" cy="2.31465" rx="2.42963" ry="2.31465" transform="matrix(0 -1 -1 0 143.182 382.579)" fill="white" fill-opacity="0.4"/>
<ellipse cx="2.42963" cy="2.31465" rx="2.42963" ry="2.31465" transform="matrix(0 -1 -1 0 149.354 372.86)" fill="white" fill-opacity="0.4"/>
<ellipse cx="2.42963" cy="2.31465" rx="2.42963" ry="2.31465" transform="matrix(0 -1 -1 0 155.525 363.142)" fill="white" fill-opacity="0.4"/>
<ellipse cx="2.42963" cy="2.31465" rx="2.42963" ry="2.31465" transform="matrix(0 -1 -1 0 170.957 358.282)" fill="white" fill-opacity="0.4"/>
<ellipse cx="2.42963" cy="2.31465" rx="2.42963" ry="2.31465" transform="matrix(0 -1 -1 0 163.242 345.324)" fill="white" fill-opacity="0.4"/>
<ellipse cx="2.42963" cy="2.31465" rx="2.42963" ry="2.31465" transform="matrix(0 -1 -1 0 189.475 353.423)" fill="white" fill-opacity="0.4"/>
<ellipse cx="2.42963" cy="2.31465" rx="2.42963" ry="2.31465" transform="matrix(0 -1 -1 0 195.647 371.241)" fill="white" fill-opacity="0.4"/>
<ellipse cx="2.42963" cy="2.31465" rx="2.42963" ry="2.31465" transform="matrix(0 -1 -1 0 163.242 372.86)" fill="white" fill-opacity="0.4"/>
<ellipse cx="2.42963" cy="2.31465" rx="2.42963" ry="2.31465" transform="matrix(0 -1 -1 0 191.018 458.708)" fill="white" fill-opacity="0.4"/>
<ellipse cx="2.42963" cy="2.31465" rx="2.42963" ry="2.31465" transform="matrix(0 -1 -1 0 174.044 460.327)" fill="white" fill-opacity="0.4"/>
<ellipse cx="2.42963" cy="2.31465" rx="2.42963" ry="2.31465" transform="matrix(0 -1 -1 0 237.311 460.327)" fill="white" fill-opacity="0.4"/>
<ellipse cx="2.42963" cy="2.31465" rx="2.42963" ry="2.31465" transform="matrix(0 -1 -1 0 234.225 437.65)" fill="white" fill-opacity="0.4"/>
<ellipse cx="2.42963" cy="2.31465" rx="2.42963" ry="2.31465" transform="matrix(0 -1 -1 0 231.139 416.593)" fill="white" fill-opacity="0.4"/>
<ellipse cx="2.42963" cy="2.31465" rx="2.42963" ry="2.31465" transform="matrix(0 -1 -1 0 248.114 410.114)" fill="white" fill-opacity="0.4"/>
<ellipse cx="2.42963" cy="2.31465" rx="2.42963" ry="2.31465" transform="matrix(0 -1 -1 0 241.939 392.297)" fill="white" fill-opacity="0.4"/>
<ellipse cx="2.42963" cy="2.31465" rx="2.42963" ry="2.31465" transform="matrix(0 -1 -1 0 224.967 398.775)" fill="white" fill-opacity="0.4"/>
<ellipse cx="2.42963" cy="2.31465" rx="2.42963" ry="2.31465" transform="matrix(0 -1 -1 0 218.794 380.959)" fill="white" fill-opacity="0.4"/>
<ellipse cx="2.42963" cy="2.31465" rx="2.42963" ry="2.31465" transform="matrix(0 -1 -1 0 237.311 371.241)" fill="white" fill-opacity="0.4"/>
<ellipse cx="2.42963" cy="2.31465" rx="2.42963" ry="2.31465" transform="matrix(0 -1 -1 0 212.621 363.142)" fill="white" fill-opacity="0.4"/>
<ellipse cx="2.42963" cy="2.31465" rx="2.42963" ry="2.31465" transform="matrix(0 -1 -1 0 249.654 431.171)" fill="white" fill-opacity="0.4"/>
<ellipse cx="2.42963" cy="2.31465" rx="2.42963" ry="2.31465" transform="matrix(0 -1 -1 0 254.285 455.468)" fill="white" fill-opacity="0.4"/>
<ellipse cx="2.42963" cy="2.31465" rx="2.42963" ry="2.31465" transform="matrix(0 -1 -1 0 255.828 479.764)" fill="white" fill-opacity="0.4"/>
<ellipse cx="2.42963" cy="2.31465" rx="2.42963" ry="2.31465" transform="matrix(0 -1 -1 0 275.889 473.284)" fill="white" fill-opacity="0.4"/>
<ellipse cx="2.42963" cy="2.31465" rx="2.42963" ry="2.31465" transform="matrix(0 -1 -1 0 271.257 445.749)" fill="white" fill-opacity="0.4"/>
<ellipse cx="2.42963" cy="2.31465" rx="2.42963" ry="2.31465" transform="matrix(0 -1 -1 0 268.173 426.312)" fill="white" fill-opacity="0.4"/>
<ellipse cx="2.42963" cy="2.31465" rx="2.42963" ry="2.31465" transform="matrix(0 -1 -1 0 286.69 413.354)" fill="white" fill-opacity="0.4"/>
<ellipse cx="2.42963" cy="2.31465" rx="2.42963" ry="2.31465" transform="matrix(0 -1 -1 0 291.32 437.65)" fill="white" fill-opacity="0.4"/>
<ellipse cx="2.42963" cy="2.31465" rx="2.42963" ry="2.31465" transform="matrix(0 -1 -1 0 292.862 463.566)" fill="white" fill-opacity="0.4"/>
<ellipse cx="2.42963" cy="2.31465" rx="2.42963" ry="2.31465" transform="matrix(0 -1 -1 0 312.924 474.904)" fill="white" fill-opacity="0.4"/>
<ellipse cx="2.42963" cy="2.31465" rx="2.42963" ry="2.31465" transform="matrix(0 -1 -1 0 336.068 461.947)" fill="white" fill-opacity="0.4"/>
<ellipse cx="2.42963" cy="2.31465" rx="2.42963" ry="2.31465" transform="matrix(0 -1 -1 0 309.834 450.609)" fill="white" fill-opacity="0.4"/>
<ellipse cx="2.42963" cy="2.31465" rx="2.42963" ry="2.31465" transform="matrix(0 -1 -1 0 332.982 437.65)" fill="white" fill-opacity="0.4"/>
<ellipse cx="2.42963" cy="2.31465" rx="2.42963" ry="2.31465" transform="matrix(0 -1 -1 0 308.292 424.692)" fill="white" fill-opacity="0.4"/>
<ellipse cx="2.42963" cy="2.31465" rx="2.42963" ry="2.31465" transform="matrix(0 -1 -1 0 331.438 408.495)" fill="white" fill-opacity="0.4"/>
<ellipse cx="2.42963" cy="2.31465" rx="2.42963" ry="2.31465" transform="matrix(0 -1 -1 0 357.67 413.354)" fill="white" fill-opacity="0.4"/>
<ellipse cx="2.42963" cy="2.31465" rx="2.42963" ry="2.31465" transform="matrix(0 -1 -1 0 357.67 448.989)" fill="white" fill-opacity="0.4"/>
<ellipse cx="2.42963" cy="2.31465" rx="2.42963" ry="2.31465" transform="matrix(0 -1 -1 0 356.128 474.904)" fill="white" fill-opacity="0.4"/>
<ellipse cx="2.42963" cy="2.31465" rx="2.42963" ry="2.31465" transform="matrix(0 -1 -1 0 309.836 393.917)" fill="white" fill-opacity="0.4"/>
<ellipse cx="2.42963" cy="2.31465" rx="2.42963" ry="2.31465" transform="matrix(0 -1 -1 0 332.982 380.959)" fill="white" fill-opacity="0.4"/>
<ellipse cx="2.42963" cy="2.31465" rx="2.42963" ry="2.31465" transform="matrix(0 -1 -1 0 265.088 402.015)" fill="white" fill-opacity="0.4"/>
<ellipse cx="2.42963" cy="2.31465" rx="2.42963" ry="2.31465" transform="matrix(0 -1 -1 0 260.457 379.339)" fill="white" fill-opacity="0.4"/>
<ellipse cx="2.42963" cy="2.31465" rx="2.42963" ry="2.31465" transform="matrix(0 -1 -1 0 285.147 389.058)" fill="white" fill-opacity="0.4"/>
<ellipse cx="2.42963" cy="2.31465" rx="2.42963" ry="2.31465" transform="matrix(0 -1 -1 0 158.612 484.623)" fill="white" fill-opacity="0.4"/>
<ellipse cx="2.42963" cy="2.31465" rx="2.42963" ry="2.31465" transform="matrix(0 -1 -1 0 124.663 436.031)" fill="white" fill-opacity="0.4"/>
<ellipse cx="2.42963" cy="2.31465" rx="2.42963" ry="2.31465" transform="matrix(0 -1 -1 0 118.491 421.453)" fill="white" fill-opacity="0.4"/>
<ellipse cx="2.42963" cy="2.31465" rx="2.42963" ry="2.31465" transform="matrix(0 -1 -1 0 112.318 406.875)" fill="white" fill-opacity="0.4"/>
<ellipse cx="2.42963" cy="2.31465" rx="2.42963" ry="2.31465" transform="matrix(0 -1 -1 0 104.604 395.536)" fill="white" fill-opacity="0.4"/>
<ellipse cx="2.42963" cy="2.31465" rx="2.42963" ry="2.31465" transform="matrix(0 -1 -1 0 98.4307 382.579)" fill="white" fill-opacity="0.4"/>
<ellipse cx="2.42963" cy="2.31465" rx="2.42963" ry="2.31465" transform="matrix(0 -1 -1 0 89.1719 369.62)" fill="white" fill-opacity="0.4"/>
<ellipse cx="2.42963" cy="2.31465" rx="2.42963" ry="2.31465" transform="matrix(0 -1 -1 0 81.457 359.902)" fill="white" fill-opacity="0.4"/>
<ellipse cx="2.42963" cy="2.31465" rx="2.42963" ry="2.31465" transform="matrix(0 -1 -1 0 72.1992 350.183)" fill="white" fill-opacity="0.4"/>
<ellipse cx="2.42963" cy="2.31465" rx="2.42963" ry="2.31465" transform="matrix(0 -1 -1 0 62.9404 340.465)" fill="white" fill-opacity="0.4"/>
<ellipse cx="2.42963" cy="2.31465" rx="2.42963" ry="2.31465" transform="matrix(0 -1 -1 0 55.2227 329.126)" fill="white" fill-opacity="0.4"/>
<ellipse cx="2.42963" cy="2.31465" rx="2.42963" ry="2.31465" transform="matrix(0 -1 -1 0 59.8564 321.027)" fill="white" fill-opacity="0.4"/>
<ellipse cx="2.42963" cy="2.31465" rx="2.42963" ry="2.31465" transform="matrix(0 -1 -1 0 70.6572 332.366)" fill="white" fill-opacity="0.4"/>
<ellipse cx="2.42963" cy="2.31465" rx="2.42963" ry="2.31465" transform="matrix(0 -1 -1 0 76.8271 342.084)" fill="white" fill-opacity="0.4"/>
<ellipse cx="2.42963" cy="2.31465" rx="2.42963" ry="2.31465" transform="matrix(0 -1 -1 0 83.002 335.605)" fill="white" fill-opacity="0.4"/>
<ellipse cx="2.42963" cy="2.31465" rx="2.42963" ry="2.31465" transform="matrix(0 -1 -1 0 92.2578 343.704)" fill="white" fill-opacity="0.4"/>
<ellipse cx="2.42963" cy="2.31465" rx="2.42963" ry="2.31465" transform="matrix(0 -1 -1 0 86.0879 350.183)" fill="white" fill-opacity="0.4"/>
<ellipse cx="2.42963" cy="2.31465" rx="2.42963" ry="2.31465" transform="matrix(0 -1 -1 0 95.3438 359.902)" fill="white" fill-opacity="0.4"/>
<ellipse cx="2.42963" cy="2.31465" rx="2.42963" ry="2.31465" transform="matrix(0 -1 -1 0 99.9736 353.423)" fill="white" fill-opacity="0.4"/>
<ellipse cx="2.42963" cy="2.31465" rx="2.42963" ry="2.31465" transform="matrix(0 -1 -1 0 107.689 364.762)" fill="white" fill-opacity="0.4"/>
<ellipse cx="2.42963" cy="2.31465" rx="2.42963" ry="2.31465" transform="matrix(0 -1 -1 0 104.604 371.241)" fill="white" fill-opacity="0.4"/>
<ellipse cx="2.42963" cy="2.31465" rx="2.42963" ry="2.31465" transform="matrix(0 -1 -1 0 110.775 382.579)" fill="white" fill-opacity="0.4"/>
<ellipse cx="2.42963" cy="2.31465" rx="2.42963" ry="2.31465" transform="matrix(0 -1 -1 0 118.491 395.536)" fill="white" fill-opacity="0.4"/>
<ellipse cx="2.42963" cy="2.31465" rx="2.42963" ry="2.31465" transform="matrix(0 -1 -1 0 126.206 408.495)" fill="white" fill-opacity="0.4"/>
<ellipse cx="2.42963" cy="2.31465" rx="2.42963" ry="2.31465" transform="matrix(0 -1 -1 0 133.924 423.072)" fill="white" fill-opacity="0.4"/>
<ellipse cx="2.42963" cy="2.31465" rx="2.42963" ry="2.31465" transform="matrix(0 -1 -1 0 141.639 437.65)" fill="white" fill-opacity="0.4"/>
<ellipse cx="2.42963" cy="2.31465" rx="2.42963" ry="2.31465" transform="matrix(0 -1 -1 0 147.812 452.228)" fill="white" fill-opacity="0.4"/>
<ellipse cx="2.42963" cy="2.31465" rx="2.42963" ry="2.31465" transform="matrix(0 -1 -1 0 153.983 468.426)" fill="white" fill-opacity="0.4"/>
<ellipse cx="2.42963" cy="2.31465" rx="2.42963" ry="2.31465" transform="matrix(0 -1 -1 0 167.871 470.046)" fill="white" fill-opacity="0.4"/>
<ellipse cx="2.42963" cy="2.31465" rx="2.42963" ry="2.31465" transform="matrix(0 -1 -1 0 160.155 455.468)" fill="white" fill-opacity="0.4"/>
<ellipse cx="2.42963" cy="2.31465" rx="2.42963" ry="2.31465" transform="matrix(0 -1 -1 0 153.983 440.89)" fill="white" fill-opacity="0.4"/>
<ellipse cx="2.42963" cy="2.31465" rx="2.42963" ry="2.31465" transform="matrix(0 -1 -1 0 147.812 427.932)" fill="white" fill-opacity="0.4"/>
<ellipse cx="2.42963" cy="2.31465" rx="2.42963" ry="2.31465" transform="matrix(0 -1 -1 0 140.094 413.354)" fill="white" fill-opacity="0.4"/>
<ellipse cx="2.42963" cy="2.31465" rx="2.42963" ry="2.31465" transform="matrix(0 -1 -1 0 130.836 400.396)" fill="white" fill-opacity="0.4"/>
<ellipse cx="2.42963" cy="2.31465" rx="2.42963" ry="2.31465" transform="matrix(0 -1 -1 0 124.663 389.058)" fill="white" fill-opacity="0.4"/>
<ellipse cx="2.42963" cy="2.31465" rx="2.42963" ry="2.31465" transform="matrix(0 -1 -1 0 116.948 376.099)" fill="white" fill-opacity="0.4"/>
<ellipse cx="2.42963" cy="2.31465" rx="2.42963" ry="2.31465" transform="matrix(0 -1 -1 0 130.836 379.339)" fill="white" fill-opacity="0.4"/>
<ellipse cx="2.42963" cy="2.31465" rx="2.42963" ry="2.31465" transform="matrix(0 -1 -1 0 133.924 369.62)" fill="white" fill-opacity="0.4"/>
<ellipse cx="2.42963" cy="2.31465" rx="2.42963" ry="2.31465" transform="matrix(0 -1 -1 0 143.182 361.522)" fill="white" fill-opacity="0.4"/>
<ellipse cx="2.42963" cy="2.31465" rx="2.42963" ry="2.31465" transform="matrix(0 -1 -1 0 149.354 348.564)" fill="white" fill-opacity="0.4"/>
<ellipse cx="2.42963" cy="2.31465" rx="2.42963" ry="2.31465" transform="matrix(0 -1 -1 0 140.094 338.845)" fill="white" fill-opacity="0.4"/>
<ellipse cx="2.42963" cy="2.31465" rx="2.42963" ry="2.31465" transform="matrix(0 -1 -1 0 132.38 350.183)" fill="white" fill-opacity="0.4"/>
<ellipse cx="2.42963" cy="2.31465" rx="2.42963" ry="2.31465" transform="matrix(0 -1 -1 0 127.75 358.282)" fill="white" fill-opacity="0.4"/>
<ellipse cx="2.42963" cy="2.31465" rx="2.42963" ry="2.31465" transform="matrix(0 -1 -1 0 121.576 366.38)" fill="white" fill-opacity="0.4"/>
<ellipse cx="2.42963" cy="2.31465" rx="2.42963" ry="2.31465" transform="matrix(0 -1 -1 0 113.863 356.663)" fill="white" fill-opacity="0.4"/>
<ellipse cx="2.42963" cy="2.31465" rx="2.42963" ry="2.31465" transform="matrix(0 -1 -1 0 106.146 346.944)" fill="white" fill-opacity="0.4"/>
<ellipse cx="2.42963" cy="2.31465" rx="2.42963" ry="2.31465" transform="matrix(0 -1 -1 0 98.4307 337.225)" fill="white" fill-opacity="0.4"/>
<ellipse cx="2.42963" cy="2.31465" rx="2.42963" ry="2.31465" transform="matrix(0 -1 -1 0 103.061 329.126)" fill="white" fill-opacity="0.4"/>
<ellipse cx="2.42963" cy="2.31465" rx="2.42963" ry="2.31465" transform="matrix(0 -1 -1 0 93.8018 319.408)" fill="white" fill-opacity="0.4"/>
<ellipse cx="2.42963" cy="2.31465" rx="2.42963" ry="2.31465" transform="matrix(0 -1 -1 0 87.6299 327.507)" fill="white" fill-opacity="0.4"/>
<ellipse cx="2.42963" cy="2.31465" rx="2.42963" ry="2.31465" transform="matrix(0 -1 -1 0 73.7402 324.268)" fill="white" fill-opacity="0.4"/>
<ellipse cx="2.42963" cy="2.31465" rx="2.42963" ry="2.31465" transform="matrix(0 -1 -1 0 79.916 316.168)" fill="white" fill-opacity="0.4"/>
<ellipse cx="2.42963" cy="2.31465" rx="2.42963" ry="2.31465" transform="matrix(0 -1 -1 0 72.1992 304.83)" fill="white" fill-opacity="0.4"/>
<ellipse cx="2.42963" cy="2.31465" rx="2.42963" ry="2.31465" transform="matrix(0 -1 -1 0 66.0264 314.549)" fill="white" fill-opacity="0.4"/>
<ellipse cx="2.42963" cy="2.31465" rx="2.42963" ry="2.31465" transform="matrix(0 -1 -1 0 47.5088 317.788)" fill="white" fill-opacity="0.4"/>
<ellipse cx="2.42963" cy="2.31465" rx="2.42963" ry="2.31465" transform="matrix(0 -1 -1 0 53.6807 311.31)" fill="white" fill-opacity="0.4"/>
<ellipse cx="2.42963" cy="2.31465" rx="2.42963" ry="2.31465" transform="matrix(0 -1 -1 0 50.5947 288.633)" fill="white" fill-opacity="0.4"/>
<ellipse cx="2.42963" cy="2.31465" rx="2.42963" ry="2.31465" transform="matrix(0 -1 -1 0 45.9668 298.352)" fill="white" fill-opacity="0.4"/>
<ellipse cx="2.42963" cy="2.31465" rx="2.42963" ry="2.31465" transform="matrix(0 -1 -1 0 39.7949 306.45)" fill="white" fill-opacity="0.4"/>
<ellipse cx="2.42963" cy="2.31465" rx="2.42963" ry="2.31465" transform="matrix(0 -1 -1 0 32.0781 295.112)" fill="white" fill-opacity="0.4"/>
<ellipse cx="2.42963" cy="2.31465" rx="2.42963" ry="2.31465" transform="matrix(0 -1 -1 0 38.25 282.154)" fill="white" fill-opacity="0.4"/>
<ellipse cx="2.42963" cy="2.31465" rx="2.42963" ry="2.31465" transform="matrix(0 -1 -1 0 32.0781 265.956)" fill="white" fill-opacity="0.4"/>
<ellipse cx="2.42963" cy="2.31465" rx="2.42963" ry="2.31465" transform="matrix(0 -1 -1 0 25.9072 278.914)" fill="white" fill-opacity="0.4"/>
<ellipse cx="2.42963" cy="2.31465" rx="2.42963" ry="2.31465" transform="matrix(0 -1 -1 0 18.1914 290.252)" fill="white" fill-opacity="0.4"/>
<ellipse cx="2.42963" cy="2.31465" rx="2.42963" ry="2.31465" transform="matrix(0 -1 -1 0 12.0176 274.055)" fill="white" fill-opacity="0.4"/>
<ellipse cx="2.42963" cy="2.31465" rx="2.42963" ry="2.31465" transform="matrix(0 -1 -1 0 18.1914 259.476)" fill="white" fill-opacity="0.4"/>
<ellipse cx="2.42963" cy="2.31465" rx="2.42963" ry="2.31465" transform="matrix(0 -1 -1 0 5.8457 254.617)" fill="white" fill-opacity="0.4"/>
<ellipse cx="2.42963" cy="2.31465" rx="2.42963" ry="2.31465" transform="matrix(0 -1 -1 0 13.5625 241.66)" fill="white" fill-opacity="0.4"/>
<ellipse cx="2.42963" cy="2.31465" rx="2.42963" ry="2.31465" transform="matrix(0 -1 -1 0 2.75879 235.181)" fill="white" fill-opacity="0.4"/>
<ellipse cx="2.42963" cy="2.31465" rx="2.42963" ry="2.31465" transform="matrix(0 -1 -1 0 110.775 338.845)" fill="white" fill-opacity="0.4"/>
<ellipse cx="2.42963" cy="2.31465" rx="2.42963" ry="2.31465" transform="matrix(0 -1 -1 0 118.491 329.126)" fill="white" fill-opacity="0.4"/>
<ellipse cx="2.42963" cy="2.31465" rx="2.42963" ry="2.31465" transform="matrix(0 -1 -1 0 126.206 338.845)" fill="white" fill-opacity="0.4"/>
<ellipse cx="2.42963" cy="2.31465" rx="2.42963" ry="2.31465" transform="matrix(0 -1 -1 0 120.034 350.183)" fill="white" fill-opacity="0.4"/>
<ellipse cx="103.059" cy="418.213" rx="3.23951" ry="3.0862" transform="rotate(90 103.059 418.213)" fill="white" fill-opacity="0.4"/>
<ellipse cx="95.3445" cy="403.635" rx="3.23951" ry="3.0862" transform="rotate(90 95.3445 403.635)" fill="white" fill-opacity="0.4"/>
<ellipse cx="89.1716" cy="392.297" rx="3.23951" ry="3.0862" transform="rotate(90 89.1716 392.297)" fill="white" fill-opacity="0.4"/>
<ellipse cx="81.4568" cy="379.339" rx="3.23951" ry="3.0862" transform="rotate(90 81.4568 379.339)" fill="white" fill-opacity="0.4"/>
<ellipse cx="73.741" cy="368.001" rx="3.23951" ry="3.0862" transform="rotate(90 73.741 368.001)" fill="white" fill-opacity="0.4"/>
<ellipse cx="64.4822" cy="355.043" rx="3.23951" ry="3.0862" transform="rotate(90 64.4822 355.043)" fill="white" fill-opacity="0.4"/>
<ellipse cx="56.7702" cy="345.324" rx="3.23951" ry="3.0862" transform="rotate(90 56.7702 345.324)" fill="white" fill-opacity="0.4"/>
<ellipse cx="47.5085" cy="333.986" rx="3.23951" ry="3.0862" transform="rotate(90 47.5085 333.986)" fill="white" fill-opacity="0.4"/>
<ellipse cx="38.2507" cy="324.267" rx="3.23951" ry="3.0862" transform="rotate(90 38.2507 324.267)" fill="white" fill-opacity="0.4"/>
<ellipse cx="28.9919" cy="327.508" rx="3.23951" ry="3.0862" transform="rotate(90 28.9919 327.508)" fill="white" fill-opacity="0.4"/>
<ellipse cx="16.6482" cy="311.31" rx="3.23951" ry="3.0862" transform="rotate(90 16.6482 311.31)" fill="white" fill-opacity="0.4"/>
<ellipse cx="19.7351" cy="324.267" rx="3.23951" ry="3.0862" transform="rotate(90 19.7351 324.267)" fill="white" fill-opacity="0.4"/>
<ellipse cx="30.5368" cy="312.929" rx="3.23951" ry="3.0862" transform="rotate(90 30.5368 312.929)" fill="white" fill-opacity="0.4"/>
<ellipse cx="22.821" cy="301.591" rx="3.23951" ry="3.0862" transform="rotate(90 22.821 301.591)" fill="white" fill-opacity="0.4"/>
<ellipse cx="2.75951" cy="285.393" rx="3.23951" ry="3.0862" transform="rotate(90 2.75951 285.393)" fill="white" fill-opacity="0.4"/>
<ellipse cx="10.4763" cy="298.352" rx="3.23951" ry="3.0862" transform="rotate(90 10.4763 298.352)" fill="white" fill-opacity="0.4"/>
<ellipse cx="28.9919" cy="363.142" rx="3.23951" ry="3.0862" transform="rotate(90 28.9919 363.142)" fill="white" fill-opacity="0.4"/>
<ellipse cx="22.821" cy="350.183" rx="3.23951" ry="3.0862" transform="rotate(90 22.821 350.183)" fill="white" fill-opacity="0.4"/>
<ellipse cx="15.1052" cy="333.986" rx="3.23951" ry="3.0862" transform="rotate(90 15.1052 333.986)" fill="white" fill-opacity="0.4"/>
<ellipse cx="8.93138" cy="324.267" rx="3.23951" ry="3.0862" transform="rotate(90 8.93138 324.267)" fill="white" fill-opacity="0.4"/>
<ellipse cx="-0.327407" cy="311.31" rx="3.23951" ry="3.0862" transform="rotate(90 -0.327407 311.31)" fill="white" fill-opacity="0.4"/>
<ellipse cx="5.84642" cy="304.83" rx="3.23951" ry="3.0862" transform="rotate(90 5.84642 304.83)" fill="white" fill-opacity="0.4"/>
<ellipse cx="-1.87135" cy="296.731" rx="3.23951" ry="3.0862" transform="rotate(90 -1.87135 296.731)" fill="white" fill-opacity="0.4"/>
</g>
</g>
<defs>
<linearGradient id="paint0_linear_2153_11260" x1="180" y1="0" x2="180" y2="486" gradientUnits="userSpaceOnUse">
<stop stop-color="#007438"/>
<stop offset="1" stop-color="#D9D9D9" stop-opacity="0"/>
</linearGradient>
<linearGradient id="paint1_linear_2153_11260" x1="296" y1="571.024" x2="502.724" y2="146.209" gradientUnits="userSpaceOnUse">
<stop stop-color="#007438"/>
<stop offset="1" stop-color="white" stop-opacity="0"/>
</linearGradient>
<linearGradient id="paint2_linear_2153_11260" x1="180" y1="0" x2="180" y2="486" gradientUnits="userSpaceOnUse">
<stop stop-color="#007438"/>
<stop offset="1" stop-color="#D9D9D9" stop-opacity="0"/>
</linearGradient>
<linearGradient id="paint3_linear_2153_11260" x1="296" y1="571.024" x2="502.724" y2="146.209" gradientUnits="userSpaceOnUse">
<stop stop-color="#007438"/>
<stop offset="1" stop-color="white" stop-opacity="0"/>
</linearGradient>
</defs>
</svg>
