<svg width="307" height="307" viewBox="0 0 307 307" fill="none" xmlns="http://www.w3.org/2000/svg">
<path d="M153.285 46.7448C153.684 43.8713 149.601 41.5074 146.581 41.2618C145.125 41.1452 143.615 41.3662 142.24 40.8873C139.255 39.8496 138.064 35.9753 135.154 34.7473C132.98 33.8263 130.469 34.6429 128.363 35.7051C126.257 36.7673 124.17 38.1059 121.812 38.2594C119.761 38.3883 117.514 37.6454 115.739 38.6278C114.401 39.3768 113.701 40.918 112.473 41.8267C111.245 42.7354 109.691 42.9012 108.175 42.981C106.658 43.0608 105.105 43.0793 103.766 43.7055C102.428 44.3318 101.31 45.7686 101.562 47.236L153.285 46.7448Z" fill="#EBEBEB"/>
<path d="M273.23 99.3714C273.629 96.4979 269.546 94.1279 266.525 93.8823C265.07 93.7656 263.56 93.9928 262.184 93.5077C259.2 92.4701 258.009 88.5957 255.099 87.3677C252.919 86.4529 250.414 87.2695 248.308 88.3317C246.202 89.3939 244.114 90.7324 241.757 90.8798C239.706 91.0087 237.459 90.2658 235.684 91.2543C234.346 91.9973 233.646 93.5384 232.418 94.4472C231.19 95.3559 229.636 95.5278 228.12 95.6076C226.603 95.6874 225.05 95.7059 223.711 96.326C222.373 96.9461 221.225 98.389 221.507 99.8626L273.23 99.3714Z" fill="#EBEBEB"/>
<path d="M26.8382 27.2197H21.2324V143.622H26.8382V27.2197Z" fill="#FAFAFA"/>
<path d="M112.878 27.2197H107.272V143.622H112.878V27.2197Z" fill="#FAFAFA"/>
<path d="M198.924 27.2197H193.318V143.622H198.924V27.2197Z" fill="#FAFAFA"/>
<path d="M284.97 27.2197H279.364V143.622H284.97V27.2197Z" fill="#FAFAFA"/>
<path d="M9.65234 251.532L295.819 251.532V141.196L9.65234 141.196V251.532Z" fill="#FAFAFA"/>
<path d="M283.054 27.5942C283.054 27.6863 224.497 27.7539 152.272 27.7539C80.0474 27.7539 21.4902 27.6863 21.4902 27.5942C21.4902 27.5021 80.0351 27.4346 152.272 27.4346C224.509 27.4346 283.054 27.5082 283.054 27.5942Z" fill="#F5F5F5"/>
<path d="M233.56 251.44H226.444V156.485C226.444 156.017 226.536 155.554 226.715 155.122C226.894 154.69 227.156 154.298 227.487 153.967C227.818 153.636 228.21 153.374 228.642 153.195C229.074 153.016 229.537 152.924 230.005 152.924C230.948 152.925 231.853 153.301 232.519 153.969C233.186 154.637 233.56 155.542 233.56 156.485V251.44Z" fill="#E0E0E0"/>
<path d="M252.968 251.44H245.852V156.485C245.852 155.542 246.226 154.637 246.893 153.969C247.559 153.301 248.464 152.925 249.407 152.924C249.875 152.924 250.338 153.016 250.77 153.195C251.202 153.374 251.595 153.636 251.925 153.967C252.256 154.298 252.518 154.69 252.697 155.122C252.876 155.554 252.968 156.017 252.968 156.485V251.44Z" fill="#E0E0E0"/>
<path d="M248.13 153.273H231.073C230.733 153.273 230.407 153.138 230.166 152.897C229.925 152.657 229.79 152.33 229.79 151.99C229.792 151.651 229.928 151.326 230.168 151.087C230.409 150.847 230.734 150.713 231.073 150.713H248.13C248.298 150.713 248.464 150.746 248.619 150.81C248.774 150.874 248.915 150.968 249.033 151.087C249.152 151.206 249.246 151.346 249.31 151.501C249.374 151.656 249.407 151.822 249.407 151.99C249.408 152.158 249.376 152.325 249.312 152.481C249.248 152.636 249.154 152.778 249.035 152.897C248.917 153.016 248.776 153.111 248.62 153.175C248.465 153.24 248.298 153.273 248.13 153.273Z" fill="#E0E0E0"/>
<path d="M234.953 154.931C234.492 154.93 234.05 154.745 233.724 154.418C233.399 154.091 233.216 153.649 233.216 153.187V150.332C233.216 149.872 233.399 149.43 233.725 149.104C234.051 148.778 234.493 148.595 234.953 148.595C235.414 148.595 235.856 148.778 236.182 149.104C236.508 149.43 236.691 149.872 236.691 150.332V153.187C236.691 153.649 236.508 154.091 236.182 154.418C235.857 154.745 235.415 154.93 234.953 154.931Z" fill="#E0E0E0"/>
<path d="M238.146 154.931C237.685 154.93 237.243 154.745 236.917 154.418C236.592 154.091 236.409 153.649 236.409 153.187V150.332C236.409 149.872 236.592 149.43 236.918 149.104C237.243 148.778 237.685 148.595 238.146 148.595C238.607 148.595 239.049 148.778 239.375 149.104C239.701 149.43 239.884 149.872 239.884 150.332V153.187C239.885 153.416 239.84 153.643 239.753 153.854C239.666 154.066 239.539 154.258 239.377 154.42C239.216 154.582 239.024 154.711 238.813 154.798C238.601 154.886 238.375 154.931 238.146 154.931Z" fill="#E0E0E0"/>
<path d="M241.339 154.931C240.878 154.93 240.436 154.745 240.11 154.418C239.784 154.091 239.602 153.649 239.602 153.187V150.332C239.602 149.872 239.785 149.43 240.11 149.104C240.436 148.778 240.878 148.595 241.339 148.595C241.801 148.595 242.243 148.778 242.57 149.103C242.897 149.429 243.081 149.871 243.083 150.332V153.187C243.083 153.65 242.899 154.093 242.572 154.42C242.245 154.747 241.802 154.931 241.339 154.931Z" fill="#E0E0E0"/>
<path d="M244.538 148.595H244.532C243.572 148.595 242.794 149.373 242.794 150.332V153.194C242.794 154.153 243.572 154.931 244.532 154.931H244.538C245.497 154.931 246.275 154.153 246.275 153.194V150.332C246.275 149.373 245.497 148.595 244.538 148.595Z" fill="#E0E0E0"/>
<path d="M271.456 251.44H264.339V156.485C264.339 155.542 264.714 154.637 265.38 153.969C266.047 153.301 266.951 152.925 267.894 152.924C268.362 152.924 268.825 153.016 269.257 153.195C269.689 153.374 270.082 153.636 270.413 153.967C270.743 154.298 271.006 154.69 271.185 155.122C271.364 155.554 271.456 156.017 271.456 156.485V251.44Z" fill="#E0E0E0"/>
<path d="M266.611 153.273H249.561C249.392 153.274 249.225 153.241 249.069 153.177C248.913 153.113 248.771 153.019 248.651 152.899C248.532 152.78 248.438 152.638 248.373 152.482C248.309 152.326 248.277 152.159 248.277 151.99C248.277 151.822 248.311 151.655 248.375 151.5C248.44 151.345 248.534 151.203 248.654 151.085C248.773 150.966 248.914 150.872 249.07 150.808C249.226 150.745 249.392 150.712 249.561 150.713H266.611C266.78 150.712 266.946 150.745 267.102 150.808C267.258 150.872 267.399 150.966 267.518 151.085C267.638 151.203 267.732 151.345 267.797 151.5C267.861 151.655 267.895 151.822 267.895 151.99C267.895 152.159 267.863 152.326 267.799 152.482C267.734 152.638 267.64 152.78 267.521 152.899C267.401 153.019 267.26 153.113 267.103 153.177C266.947 153.241 266.78 153.274 266.611 153.273Z" fill="#E0E0E0"/>
<path d="M253.441 154.931C252.979 154.931 252.535 154.747 252.208 154.42C251.881 154.093 251.697 153.65 251.697 153.187V150.332C251.699 149.871 251.883 149.429 252.21 149.103C252.537 148.778 252.98 148.595 253.441 148.595C253.902 148.595 254.344 148.778 254.67 149.104C254.996 149.43 255.179 149.872 255.179 150.332V153.187C255.179 153.649 254.996 154.091 254.67 154.418C254.344 154.745 253.902 154.93 253.441 154.931Z" fill="#E0E0E0"/>
<path d="M256.652 154.931C256.19 154.931 255.746 154.748 255.419 154.421C255.092 154.094 254.909 153.65 254.909 153.188V150.333C254.909 149.87 255.092 149.427 255.419 149.1C255.746 148.773 256.19 148.589 256.652 148.589C257.113 148.589 257.555 148.772 257.881 149.098C258.207 149.424 258.39 149.866 258.39 150.326V153.182C258.391 153.411 258.347 153.637 258.26 153.849C258.173 154.061 258.045 154.254 257.884 154.416C257.722 154.579 257.531 154.708 257.319 154.796C257.108 154.885 256.881 154.931 256.652 154.931Z" fill="#E0E0E0"/>
<path d="M259.827 154.931C259.598 154.931 259.371 154.886 259.16 154.798C258.949 154.711 258.757 154.582 258.596 154.42C258.434 154.258 258.306 154.066 258.219 153.854C258.132 153.643 258.088 153.416 258.089 153.187V150.332C258.089 149.872 258.272 149.43 258.598 149.104C258.924 148.778 259.366 148.595 259.827 148.595C260.287 148.595 260.729 148.778 261.055 149.104C261.381 149.43 261.564 149.872 261.564 150.332V153.187C261.564 153.649 261.381 154.091 261.056 154.418C260.73 154.745 260.288 154.93 259.827 154.931Z" fill="#E0E0E0"/>
<path d="M263.02 154.931C262.791 154.931 262.565 154.886 262.353 154.798C262.142 154.711 261.95 154.582 261.789 154.42C261.628 154.258 261.5 154.066 261.413 153.854C261.326 153.643 261.281 153.416 261.282 153.187V150.332C261.282 149.872 261.465 149.43 261.791 149.104C262.117 148.778 262.559 148.595 263.02 148.595C263.481 148.595 263.923 148.778 264.249 149.104C264.574 149.43 264.757 149.872 264.757 150.332V153.187C264.757 153.649 264.575 154.091 264.249 154.418C263.923 154.745 263.481 154.93 263.02 154.931Z" fill="#E0E0E0"/>
<path d="M86.0645 93.0407C86.4636 90.1672 82.3805 87.8033 79.3596 87.5577C77.9045 87.4411 76.394 87.6621 75.0187 87.1832C72.0346 86.1394 70.8435 82.2712 67.9331 81.0432C65.7595 80.1222 63.2544 80.9388 61.1423 82.001C59.0301 83.0632 56.9487 84.4018 54.5909 84.5491C52.5401 84.6842 50.2929 83.9351 48.5184 84.9237C47.186 85.6666 46.4861 87.2077 45.2519 88.1165C44.0178 89.0252 42.4767 89.1971 40.9539 89.2769C39.4312 89.3567 37.8839 89.3752 36.5454 89.9953C35.2069 90.6154 34.0833 92.1013 34.3841 93.5504L86.0645 93.0407Z" fill="#EBEBEB"/>
<path d="M297.673 251.483C297.673 251.575 233.117 251.643 153.506 251.643C73.8949 251.643 9.32666 251.575 9.32666 251.483C9.32666 251.391 73.8703 251.323 153.506 251.323C233.142 251.323 297.673 251.397 297.673 251.483Z" fill="#263238"/>
<path d="M66.6499 241.804C67.1335 242.129 67.5749 242.513 67.9639 242.946C68.9423 243.948 69.8167 245.047 70.5734 246.225C71.3295 247.405 71.9612 248.66 72.4583 249.97C72.6908 250.502 72.8538 251.061 72.9434 251.634C72.6819 251.122 72.4503 250.595 72.2496 250.056C71.1491 247.513 69.646 245.164 67.7981 243.1C67.3918 242.689 67.0085 242.257 66.6499 241.804Z" fill="#263238"/>
<path d="M74.4784 241.11C74.5615 241.613 74.5964 242.123 74.5828 242.633C74.6196 243.572 74.681 244.868 74.8099 246.317C74.9389 247.766 75.1046 249.031 75.2336 249.958C75.3366 250.457 75.3941 250.965 75.4055 251.475C75.2143 250.999 75.0823 250.502 75.0125 249.995C74.5358 247.579 74.3156 245.12 74.3556 242.658C74.3309 242.139 74.3722 241.619 74.4784 241.11Z" fill="#263238"/>
<path d="M82.7186 242.762C80.4028 245.369 78.7216 248.477 77.8066 251.843C77.8265 251.327 77.9174 250.817 78.0768 250.326C78.4017 249.122 78.8653 247.96 79.4583 246.863C80.0537 245.762 80.7726 244.732 81.6012 243.793C81.9251 243.4 82.3011 243.053 82.7186 242.762Z" fill="#263238"/>
<path d="M44.1411 275.727C44.6176 276.054 45.0526 276.437 45.4367 276.869C47.4027 278.876 48.9328 281.267 49.9311 283.893C50.1636 284.425 50.3266 284.984 50.4162 285.557C50.1621 285.043 49.9346 284.517 49.7347 283.979C48.6342 281.436 47.1311 279.087 45.2832 277.023C44.8753 276.615 44.4939 276.183 44.1411 275.727Z" fill="#263238"/>
<path d="M51.9633 275.034C52.0464 275.537 52.0813 276.047 52.0677 276.557C52.1045 277.496 52.1659 278.792 52.2948 280.241C52.4238 281.69 52.5896 282.955 52.7246 283.882C52.828 284.381 52.8835 284.889 52.8904 285.399C52.6992 284.923 52.5673 284.426 52.4975 283.919C52.2598 282.711 52.0856 281.492 51.9756 280.265C51.8652 279.041 51.8201 277.811 51.8405 276.581C51.819 276.063 51.8602 275.543 51.9633 275.034Z" fill="#263238"/>
<path d="M60.2092 276.686C59.0962 278.019 58.096 279.442 57.219 280.941C56.4423 282.492 55.7974 284.107 55.291 285.767C55.3064 285.251 55.3953 284.74 55.555 284.25C55.8842 283.047 56.3497 281.885 56.9427 280.787C57.5325 279.684 58.2496 278.653 59.0794 277.717C59.4063 277.323 59.7866 276.975 60.2092 276.686Z" fill="#263238"/>
<path d="M243.145 276.557C243.625 276.883 244.065 277.267 244.452 277.699C245.433 278.699 246.307 279.798 247.062 280.978C247.82 282.157 248.452 283.412 248.947 284.723C249.18 285.255 249.345 285.814 249.438 286.387C249.172 285.874 248.938 285.345 248.738 284.803C248.186 283.528 247.537 282.296 246.798 281.119C246.046 279.958 245.207 278.855 244.287 277.822C243.88 277.425 243.498 277.002 243.145 276.557Z" fill="#263238"/>
<path d="M250.954 275.863C251.038 276.366 251.073 276.876 251.059 277.386C251.096 278.319 251.163 279.615 251.286 281.07C251.409 282.525 251.581 283.784 251.716 284.711C251.819 285.21 251.875 285.718 251.882 286.228C251.694 285.751 251.562 285.255 251.489 284.748C251.25 283.53 251.076 282.3 250.967 281.064C250.86 279.839 250.815 278.609 250.832 277.38C250.817 276.871 250.858 276.363 250.954 275.863Z" fill="#263238"/>
<path d="M259.2 277.527C258.091 278.861 257.093 280.284 256.216 281.782C255.435 283.332 254.788 284.947 254.282 286.608C254.298 286.092 254.389 285.581 254.552 285.091C255.203 282.678 256.408 280.449 258.071 278.583C258.396 278.18 258.776 277.824 259.2 277.527Z" fill="#263238"/>
<path d="M151.186 272.412C151.669 272.732 152.109 273.114 152.493 273.548C154.462 275.562 155.993 277.962 156.988 280.597C157.22 281.128 157.383 281.687 157.473 282.261C157.213 281.748 156.981 281.221 156.779 280.683C155.679 278.14 154.176 275.791 152.328 273.726C151.92 273.312 151.539 272.873 151.186 272.412Z" fill="#263238"/>
<path d="M159.026 271.713C159.109 272.216 159.144 272.726 159.131 273.236C159.168 274.175 159.229 275.471 159.358 276.92C159.487 278.369 159.653 279.633 159.788 280.567C159.892 281.066 159.947 281.574 159.954 282.083C159.765 281.607 159.633 281.111 159.561 280.604C159.322 279.386 159.148 278.156 159.039 276.92C158.929 275.695 158.884 274.465 158.904 273.236C158.885 272.725 158.926 272.214 159.026 271.713Z" fill="#263238"/>
<path d="M167.248 273.37C166.137 274.703 165.139 276.126 164.264 277.625C163.487 279.174 162.842 280.787 162.336 282.445C162.351 281.929 162.44 281.418 162.6 280.928C162.929 279.727 163.395 278.567 163.988 277.471C164.578 276.368 165.295 275.338 166.124 274.401C166.448 274.006 166.826 273.659 167.248 273.37Z" fill="#263238"/>
<path d="M39.5171 226.823C40.0913 227.092 40.605 227.474 41.0272 227.947C41.4493 228.419 41.7711 228.973 41.9731 229.574C42.3615 230.776 42.4707 232.05 42.2924 233.301C42.0223 235.72 40.6469 238.157 39.1672 240.092C37.1348 238.311 36.662 235.216 36.527 233.626C36.3059 231.115 37.4295 226.448 39.5417 226.823" fill="#007438"/>
<path d="M41.513 244.082C41.3731 243.391 41.4187 242.675 41.6452 242.008C41.8717 241.34 42.2709 240.744 42.8024 240.281C43.3408 239.826 43.9646 239.483 44.6373 239.272C45.3099 239.062 46.0179 238.987 46.7197 239.053C47.044 239.048 47.3655 239.114 47.6615 239.247C47.9575 239.379 48.2208 239.575 48.4327 239.821C48.5925 240.08 48.6796 240.378 48.685 240.682C48.6904 240.987 48.6139 241.287 48.4634 241.552C48.156 242.081 47.7129 242.517 47.1802 242.817C45.418 243.922 43.4962 244.659 41.513 244.045" fill="#007438"/>
<path d="M38.8975 251.493C38.909 251.326 38.9337 251.159 38.9711 250.996C39.0387 250.646 39.1185 250.197 39.2167 249.657C39.4457 248.159 39.9142 246.708 40.6044 245.359C41.3214 244.017 42.3805 242.888 43.6744 242.087C44.0617 241.857 44.4736 241.671 44.9024 241.534C45.0205 241.494 45.1417 241.463 45.2646 241.442C45.3072 241.433 45.351 241.433 45.3936 241.442C44.8064 241.638 44.2423 241.897 43.7112 242.216C42.4555 243.028 41.4266 244.145 40.721 245.464C40.0432 246.796 39.5653 248.222 39.3027 249.694C39.1799 250.253 39.0817 250.707 39.0018 251.02C38.9814 251.181 38.9465 251.339 38.8975 251.493Z" fill="#263238"/>
<path d="M38.977 230.452C38.9831 230.525 38.9831 230.599 38.977 230.673C38.977 230.832 38.977 231.041 39.0139 231.287C39.0446 231.827 39.0753 232.613 39.106 233.583C39.1674 235.517 39.2165 238.194 39.2042 241.154C39.1919 244.113 39.1182 246.79 39.0384 248.724C39.0016 249.694 38.9586 250.48 38.9279 251.021C38.9279 251.272 38.9279 251.481 38.8849 251.635C38.8912 251.706 38.8912 251.778 38.8849 251.85C38.8756 251.778 38.8756 251.706 38.8849 251.635V251.021C38.8849 250.456 38.9156 249.682 38.9402 248.73C38.9893 246.79 39.0384 244.113 39.0507 241.16C39.063 238.206 39.0507 235.529 39.0077 233.589C39.0077 232.638 38.977 231.858 38.9709 231.299C38.9709 231.041 38.9709 230.832 38.9709 230.685C38.9629 230.607 38.965 230.529 38.977 230.452Z" fill="#263238"/>
<path d="M37.9883 245.55C37.7413 244.085 37.1492 242.701 36.2609 241.51C35.3726 240.32 34.2136 239.358 32.8799 238.704C32.2045 238.379 31.3142 238.164 30.7554 238.704C30.1967 239.244 30.3195 240.116 30.5958 240.822C31.1943 242.286 32.2141 243.539 33.5259 244.422C34.8377 245.306 36.3823 245.779 37.9638 245.783" fill="#007438"/>
<path d="M33.2118 240.993C33.3593 241.047 33.5029 241.11 33.6416 241.184C33.7828 241.251 33.9486 241.331 34.1328 241.441C34.344 241.562 34.549 241.693 34.7468 241.834C34.994 241.999 35.2318 242.177 35.4591 242.369C35.7272 242.584 35.9834 242.813 36.2266 243.056C36.7742 243.613 37.2562 244.231 37.6633 244.898C38.0636 245.573 38.3831 246.292 38.615 247.041C38.7123 247.368 38.7923 247.7 38.8545 248.036C38.9117 248.326 38.9506 248.619 38.9711 248.914C39.0005 249.158 39.0128 249.404 39.008 249.651C39.0214 249.835 39.0214 250.019 39.008 250.203C39.008 250.36 38.9916 250.516 38.9589 250.67C38.9159 250.67 38.9896 249.994 38.8668 248.926C38.8234 248.632 38.7619 248.341 38.6826 248.054C38.6173 247.724 38.5333 247.398 38.4308 247.078C38.2033 246.348 37.8943 245.645 37.5098 244.984C37.109 244.321 36.6376 243.704 36.1038 243.142C35.852 242.897 35.6187 242.657 35.3731 242.454C35.1275 242.252 34.8942 242.074 34.6793 241.908C33.8074 241.3 33.1934 241.03 33.2118 240.993Z" fill="#263238"/>
<path d="M257.689 55.8303C258.578 52.0471 256.231 48.2599 252.448 47.3711C248.665 46.4824 244.878 48.8288 243.989 52.6119C243.1 56.3951 245.447 60.1824 249.23 61.0711C253.013 61.9598 256.8 59.6134 257.689 55.8303Z" fill="#007438"/>
<path d="M249.824 69.9525C249.749 68.9863 249.724 68.017 249.75 67.0483C249.724 66.0796 249.749 65.1102 249.824 64.144C249.899 65.1102 249.923 66.0796 249.898 67.0483C249.923 68.017 249.899 68.9863 249.824 69.9525Z" fill="#007438"/>
<path d="M245.765 62.5105C245.802 62.5105 245.151 63.7385 244.292 65.2182C243.432 66.698 242.72 67.8707 242.683 67.8523C242.646 67.8339 243.297 66.6243 244.163 65.1445C245.029 63.6648 245.735 62.492 245.765 62.5105Z" fill="#007438"/>
<path d="M241.602 59.9189C241.09 60.4238 240.542 60.8916 239.963 61.3189C239.417 61.7943 238.838 62.2313 238.231 62.6267C238.749 62.1246 239.299 61.657 239.877 61.2268C240.42 60.7499 240.996 60.3128 241.602 59.9189Z" fill="#007438"/>
<path d="M256.848 67.0913C256.761 66.8609 256.697 66.6223 256.658 66.3791C256.559 65.937 256.412 65.323 256.234 64.6537C256.056 63.9845 255.872 63.3889 255.737 62.953C255.651 62.7217 255.585 62.4834 255.54 62.2407C255.663 62.4544 255.761 62.6809 255.835 62.9161C256.045 63.4731 256.225 64.0408 256.375 64.6169C256.534 65.1912 256.663 65.7732 256.762 66.3607C256.815 66.6007 256.844 66.8455 256.848 67.0913Z" fill="#007438"/>
<path d="M263.983 62.0143C263.259 61.4795 262.564 60.9056 261.902 60.2951C261.21 59.7148 260.548 59.1 259.918 58.4531C260.644 58.9862 261.339 59.5602 262 60.1723C262.695 60.7488 263.357 61.3637 263.983 62.0143Z" fill="#007438"/>
<path d="M266.721 55.0632C266.434 55.0494 266.148 55.0104 265.868 54.9466C265.346 54.8545 264.64 54.744 263.829 54.6519C263.019 54.5598 262.301 54.5045 261.772 54.4738C261.497 54.4724 261.221 54.4477 260.95 54.4001C261.234 54.3725 261.519 54.3725 261.803 54.4001C262.337 54.4001 263.068 54.4431 263.872 54.5352C264.559 54.6122 265.242 54.7249 265.917 54.8729C266.19 54.9111 266.46 54.9749 266.721 55.0632Z" fill="#007438"/>
<path d="M266.727 48.2229C266.727 48.2598 265.211 48.665 263.326 49.1255C261.441 49.586 259.893 49.9237 259.887 49.8869C259.881 49.85 261.398 49.4386 263.289 48.9781C265.18 48.5176 266.715 48.1799 266.727 48.2229Z" fill="#007438"/>
<path d="M258.776 40.2466C258.806 40.2466 258.076 41.4316 257.142 42.8438C256.612 43.7093 256.038 44.5475 255.423 45.3551C255.393 45.3551 256.117 44.17 257.05 42.7578C257.582 41.8914 258.157 41.0531 258.776 40.2466Z" fill="#007438"/>
<path d="M250.88 38.5771C250.905 38.9001 250.905 39.2244 250.88 39.5473C250.88 40.1613 250.88 40.9656 250.88 41.8743C250.88 42.783 250.88 43.6058 250.88 44.2014C250.905 44.5223 250.905 44.8445 250.88 45.1654C250.825 44.8469 250.794 44.5246 250.788 44.2014C250.751 43.5874 250.721 42.783 250.721 41.8743C250.721 40.9656 250.721 40.1367 250.782 39.5411C250.791 39.2178 250.823 38.8956 250.88 38.5771Z" fill="#007438"/>
<path d="M244.906 46.0493C244.869 46.0493 244.126 44.9195 243.248 43.4766C242.37 42.0337 241.682 40.8548 241.719 40.8364C242.314 41.6637 242.868 42.5203 243.377 43.4029C244.255 44.8213 244.937 46.0002 244.906 46.0493Z" fill="#007438"/>
<path d="M241.332 49.0579C241.079 49.0432 240.828 49.0021 240.583 48.9351C240.129 48.843 239.496 48.6895 238.815 48.4869C238.133 48.2843 237.519 48.0755 237.083 47.8729C236.842 47.7964 236.609 47.6935 236.39 47.5659C236.638 47.6158 236.883 47.6856 237.12 47.7747C237.562 47.9159 238.176 48.1124 238.858 48.315C239.539 48.5176 240.16 48.6834 240.608 48.8062C240.857 48.8649 241.1 48.9493 241.332 49.0579Z" fill="#007438"/>
<path d="M239.773 54.4614C239.031 54.6097 238.28 54.7081 237.526 54.7561C236.776 54.8526 236.022 54.8998 235.266 54.8974C236.008 54.75 236.759 54.6536 237.513 54.6088C238.263 54.5124 239.017 54.4632 239.773 54.4614Z" fill="#007438"/>
<path d="M69.5232 55.8743C69.5232 55.8743 69.1794 55.7577 68.547 55.6165C67.6497 55.4187 66.7243 55.3833 65.8147 55.5121C64.4638 55.6894 63.1886 56.2377 62.1307 57.0962C60.8501 58.1526 59.9473 59.5963 59.558 61.21V61.253L59.4843 61.5477L59.3738 61.2714C58.74 59.7329 57.6546 58.4227 56.2608 57.5137C55.1238 56.7769 53.818 56.3416 52.4663 56.2489C51.5486 56.1773 50.6253 56.2582 49.734 56.4883C49.12 56.648 48.7762 56.7953 48.77 56.7769L49.0095 56.6664C49.2442 56.5658 49.4865 56.4837 49.734 56.4208C50.6244 56.1613 51.5526 56.0554 52.4786 56.1077C53.8582 56.1757 55.1969 56.5986 56.3652 57.3357C57.8005 58.2649 58.9152 59.6132 59.558 61.1977H59.3677V61.1486C59.765 59.4945 60.6948 58.0167 62.014 56.9427C62.9218 56.22 63.9842 55.7166 65.1184 55.4717C66.2525 55.2267 67.428 55.2469 68.5531 55.5305C68.7979 55.5883 69.038 55.6643 69.2715 55.7577C69.36 55.7858 69.4446 55.825 69.5232 55.8743Z" fill="#263238"/>
<path d="M87.6057 61.8848C87.6057 61.8848 87.4153 61.8296 87.0654 61.7559C86.5738 61.6593 86.0696 61.6448 85.5733 61.7129C84.8385 61.8173 84.1462 62.121 83.5717 62.5909C82.8688 63.1637 82.3728 63.9508 82.1595 64.832L82.0858 65.1267L81.9691 64.8504C81.6288 64.0122 81.0394 63.2985 80.2806 62.8058C79.6627 62.3982 78.95 62.1571 78.2115 62.1059C77.7131 62.068 77.2119 62.1073 76.7256 62.2225C76.3817 62.3085 76.1975 62.3822 76.1914 62.3699C76.2308 62.3395 76.2742 62.3147 76.3204 62.2962C76.4063 62.2594 76.5352 62.2041 76.7072 62.1488C77.1985 62.0012 77.7114 61.9389 78.2237 61.9646C78.99 62.0008 79.7333 62.238 80.3789 62.6523C81.1775 63.1581 81.7979 63.9009 82.1534 64.7768H81.9691C82.1913 63.8521 82.7139 63.0272 83.455 62.4313C84.0587 61.9493 84.787 61.649 85.5549 61.5655C86.0666 61.5054 86.585 61.5408 87.0838 61.6699C87.2177 61.706 87.3489 61.7512 87.4767 61.805C87.5688 61.8541 87.6118 61.8787 87.6057 61.8848Z" fill="#263238"/>
<path d="M77.5419 31.5043C77.5419 31.5043 77.3516 31.7192 77.0139 32.1183C74.9626 34.4595 73.8323 37.4665 73.8334 40.5792V40.6652H73.6307C73.4386 39.3887 73.0229 38.1562 72.4027 37.0242C71.9082 36.0982 71.2884 35.2449 70.5607 34.4883C70.0618 33.9808 69.5171 33.5204 68.9336 33.113C68.5223 32.8244 68.2828 32.6832 68.3196 32.6648C68.3855 32.6857 68.4476 32.7167 68.5038 32.7569C68.6773 32.8451 68.8454 32.9435 69.0073 33.0516C69.5862 33.439 70.1233 33.8855 70.6099 34.384C71.3719 35.1352 72.0232 35.9911 72.544 36.9259C73.1803 38.0693 73.6086 39.3167 73.8088 40.6099H73.6123V40.524C73.6148 38.1268 74.3099 35.7814 75.614 33.77C76.0068 33.1614 76.4571 32.5919 76.9586 32.0692C77.1305 31.8788 77.284 31.7499 77.3823 31.6578C77.4805 31.5657 77.5358 31.4982 77.5419 31.5043Z" fill="#263238"/>
<path d="M34.2494 157.05C38.2304 157.05 41.4577 153.822 41.4577 149.841C41.4577 145.86 38.2304 142.633 34.2494 142.633C30.2683 142.633 27.041 145.86 27.041 149.841C27.041 153.822 30.2683 157.05 34.2494 157.05Z" fill="#E0E0E0"/>
<path d="M41.4574 149.817C41.4016 149.23 41.3073 148.648 41.175 148.073C40.7574 146.516 39.83 145.143 38.5409 144.175C37.5958 143.463 36.4876 143 35.3174 142.827C34.1473 142.655 32.9525 142.778 31.8422 143.186C31.2095 143.423 30.6172 143.757 30.0862 144.175C29.5125 144.59 29.0106 145.096 28.6003 145.673C27.7106 146.881 27.2307 148.342 27.2307 149.842C27.2307 151.342 27.7106 152.803 28.6003 154.011C29.4243 155.135 30.5632 155.99 31.8729 156.467C32.9832 156.875 34.1779 156.998 35.3481 156.825C36.5183 156.653 37.6265 156.19 38.5716 155.478C39.8607 154.51 40.7881 153.137 41.2057 151.579C41.338 151.005 41.4323 150.422 41.4881 149.836C41.5055 149.989 41.5055 150.143 41.4881 150.296C41.4897 150.483 41.4753 150.67 41.4452 150.855C41.4193 151.11 41.3741 151.362 41.3101 151.61C40.9304 153.225 40.0015 154.657 38.6822 155.662C37.7821 156.361 36.7305 156.838 35.6122 157.056C34.321 157.302 32.9876 157.198 31.7501 156.755C31.088 156.519 30.4665 156.182 29.9081 155.755C29.3059 155.324 28.7789 154.797 28.3485 154.195C27.4154 152.935 26.9116 151.409 26.9116 149.842C26.9116 148.274 27.4154 146.748 28.3485 145.488C28.7789 144.886 29.3059 144.359 29.9081 143.929C30.4665 143.502 31.088 143.164 31.7501 142.928C32.9876 142.485 34.321 142.381 35.6122 142.627C36.7305 142.845 37.7821 143.322 38.6822 144.021C39.9934 145.028 40.9155 146.458 41.2917 148.067C41.3557 148.315 41.4009 148.568 41.4267 148.823C41.4569 149.007 41.4713 149.194 41.4697 149.381C41.4812 149.527 41.4771 149.673 41.4574 149.817Z" fill="#263238"/>
<path d="M40.7082 146.87C40.6081 147.038 40.484 147.191 40.3398 147.324C39.9582 147.705 39.5477 148.056 39.1118 148.374C37.6965 149.437 36.056 150.162 34.3167 150.492C32.5774 150.822 30.7856 150.749 29.0791 150.277C28.5661 150.138 28.0651 149.957 27.5809 149.737C27.3954 149.672 27.2229 149.574 27.0713 149.449C27.0713 149.393 27.8449 149.756 29.1343 150.063C30.8092 150.465 32.5502 150.509 34.2433 150.192C35.9364 149.875 37.5432 149.203 38.9583 148.221C40.1004 147.441 40.6653 146.833 40.7082 146.87Z" fill="#263238"/>
<path d="M41.3343 148.964C41.2297 149.135 41.0992 149.288 40.9475 149.418C40.5664 149.804 40.1559 150.159 39.7195 150.481C38.2514 151.541 36.5653 152.26 34.784 152.586C33.0027 152.912 31.1712 152.837 29.4227 152.366C28.895 152.228 28.3795 152.048 27.8816 151.825C27.6923 151.758 27.5143 151.663 27.3535 151.543C27.3535 151.488 28.1456 151.85 29.4718 152.157C31.1978 152.55 32.9852 152.592 34.7277 152.28C36.466 151.957 38.1205 151.285 39.5905 150.303C40.7019 149.541 41.2975 148.921 41.3343 148.964Z" fill="#263238"/>
<path d="M240.332 251.175L258.199 246.343C258.199 246.343 269.11 262.884 272.499 262.307L264.376 227.309L236.23 233.689L240.332 251.175Z" fill="#263238"/>
<path d="M254.196 235.88C254.22 235.519 254.376 235.18 254.634 234.928C254.892 234.675 255.235 234.527 255.596 234.511C255.956 234.522 256.299 234.67 256.554 234.926C256.809 235.182 256.956 235.525 256.965 235.886C256.939 236.269 256.772 236.628 256.497 236.895C256.221 237.161 255.856 237.316 255.473 237.329C255.098 237.278 254.756 237.085 254.521 236.788C254.285 236.492 254.173 236.116 254.208 235.739" fill="#E0E0E0"/>
<path d="M264.376 227.327L261.563 228.082L270.405 261.343C270.405 261.343 271.443 262.743 272.499 262.313L264.376 227.327Z" fill="#455A64"/>
<path d="M258.15 246.951C258.322 246.908 258.199 246.036 258.555 245.066C258.911 244.095 259.525 243.481 259.421 243.34C259.316 243.199 258.389 243.684 257.978 244.863C257.566 246.042 258.002 247.024 258.15 246.951Z" fill="white"/>
<path d="M260.52 250.266C260.698 250.266 260.815 249.462 261.404 248.713C261.994 247.964 262.718 247.62 262.669 247.454C262.62 247.288 261.631 247.399 260.919 248.344C260.207 249.29 260.336 250.303 260.52 250.266Z" fill="white"/>
<path d="M265.395 251.335C265.395 251.169 264.486 251.132 263.657 251.783C262.828 252.434 262.632 253.324 262.792 253.367C262.951 253.41 263.338 252.796 264.02 252.268C264.701 251.74 265.42 251.507 265.395 251.335Z" fill="white"/>
<path d="M253.956 247.601C254.098 247.491 253.68 246.76 253.521 245.759C253.361 244.758 253.521 243.954 253.324 243.917C253.128 243.88 252.71 244.728 252.919 245.882C253.128 247.036 253.846 247.712 253.956 247.601Z" fill="white"/>
<path d="M166.652 192.422C166.652 192.999 171.65 221.133 174.02 228.832C176.39 236.532 179.687 250.457 185.575 254.148C191.464 257.838 248.289 246.546 248.289 246.546L246.03 230.171L202.436 231.159L200.821 208.884L202.245 204.481C202.245 204.481 206.629 189.929 206.697 184.956C206.764 179.983 182.401 183.065 182.401 183.065L166.652 192.422Z" fill="#263238"/>
<path d="M186.171 203.965C186.171 204.051 182.775 204.345 178.576 204.615C174.376 204.886 170.968 205.039 170.962 204.947C170.956 204.855 174.357 204.566 178.557 204.296C182.757 204.026 186.165 203.848 186.171 203.965Z" fill="#455A64"/>
<path d="M201.281 124.513C201.281 124.513 208.717 132.341 211.523 135.595C214.329 138.85 214.593 148.311 211.344 150.479C208.096 152.646 195.675 146.838 195.675 146.838L188.498 134.122L201.281 124.513Z" fill="#FFBF9D"/>
<path d="M203.424 149.816C203.138 149.791 202.856 149.736 202.583 149.65C202.254 149.578 201.931 149.488 201.612 149.38L200.998 149.184L200.341 148.926C199.255 148.494 198.246 147.887 197.357 147.127C196.272 146.164 195.503 144.894 195.153 143.486C194.94 142.773 194.803 142.041 194.742 141.3C194.687 140.588 194.674 139.906 194.631 139.261C194.598 138.121 194.335 137 193.858 135.964C193.382 135.016 192.76 134.148 192.016 133.392C192.262 133.544 192.483 133.732 192.673 133.95C193.225 134.513 193.685 135.16 194.036 135.866C194.555 136.917 194.85 138.065 194.901 139.237C194.901 140.64 195.081 142.037 195.436 143.394C195.768 144.747 196.497 145.97 197.529 146.906C198.386 147.668 199.358 148.29 200.409 148.748C202.245 149.509 203.442 149.767 203.424 149.816Z" fill="#FF9A6C"/>
<path d="M211.136 137.812C211.08 137.88 208.01 135.356 204.277 132.12C200.544 128.885 197.572 126.251 197.628 126.183C197.683 126.115 200.759 128.639 204.486 131.875C208.213 135.111 211.216 137.745 211.136 137.812Z" fill="#FF9A6C"/>
<path d="M172.005 99.8488C172.005 99.8488 175.26 98.148 179.926 100.463C184.592 102.778 203.448 120.559 203.448 120.559L188.872 134.742L175.769 121.234L172.005 99.8488Z" fill="#007438"/>
<path d="M139.986 106.468L137.855 112.902L130.53 118.134L139.175 145.383L163.441 176.875L205.653 167.278L200.741 155.839L181.646 121.916L172.006 99.8487L164.024 101.881L156.988 99.6768L139.986 106.468Z" fill="#007438"/>
<path d="M132.445 117.587C132.445 117.587 124.353 118.551 126.655 129.867C128.958 141.183 146.383 149.466 146.383 149.466L155.649 139.826L152.787 124.396L132.445 117.587Z" fill="#007438"/>
<path d="M149.239 123.591C148.657 123.454 148.088 123.267 147.538 123.033L143.504 121.51C141.932 120.896 140.495 120.417 139.451 120.067C138.877 119.903 138.314 119.698 137.769 119.453C138.365 119.524 138.951 119.657 139.519 119.852C140.581 120.147 142.036 120.62 143.614 121.209C145.192 121.799 146.604 122.388 147.618 122.824C148.179 123.032 148.722 123.288 149.239 123.591Z" fill="#263238"/>
<path d="M155.852 115.965C155.606 115.91 155.365 115.831 155.133 115.732L153.187 114.995L153.334 114.885C153.532 116.045 153.567 117.227 153.438 118.397V118.575L153.273 118.514L148.545 116.893C145.592 115.861 142.927 114.916 140.999 114.216L138.727 113.374C138.444 113.28 138.169 113.163 137.904 113.024C138.2 113.071 138.491 113.149 138.77 113.258L141.073 114.007C143.019 114.621 145.696 115.56 148.649 116.586L153.365 118.243L153.174 118.36C153.324 117.217 153.324 116.059 153.174 114.916V114.731L153.346 114.805L155.256 115.628C155.464 115.724 155.663 115.837 155.852 115.965Z" fill="#263238"/>
<path d="M162.599 102.716C162.668 102.967 162.713 103.224 162.734 103.484C162.795 103.975 162.875 104.712 162.93 105.584C163.069 107.907 163.022 110.237 162.789 112.553C162.728 113.167 162.648 113.781 162.568 114.395V114.585L162.384 114.517C160.799 113.939 159.288 113.174 157.883 112.239L158.061 112.147C158.005 112.89 157.796 113.613 157.447 114.272C157.34 114.519 157.19 114.745 157.005 114.941C157.005 114.941 157.134 114.683 157.337 114.217C157.62 113.558 157.778 112.852 157.804 112.135V111.939L157.969 112.049C159.386 112.928 160.89 113.656 162.458 114.223L162.243 114.352C162.323 113.738 162.396 113.16 162.458 112.51C162.689 110.217 162.773 107.912 162.709 105.608C162.709 104.718 162.642 104 162.617 103.502C162.58 103.242 162.573 102.978 162.599 102.716Z" fill="#263238"/>
<path d="M189.198 141.767C189.192 141.875 189.172 141.983 189.137 142.086L188.903 142.982C188.799 143.375 188.664 143.848 188.473 144.388C188.283 144.929 188.099 145.555 187.816 146.23C187.534 146.906 187.264 147.636 186.895 148.404C186.527 149.171 186.134 149.982 185.667 150.829C184.672 152.646 183.552 154.392 182.315 156.054C181.059 157.704 179.688 159.263 178.213 160.721C177.52 161.372 176.869 162.004 176.212 162.563C175.555 163.122 174.984 163.613 174.37 164.049C173.756 164.485 173.258 164.853 172.792 165.185C172.325 165.516 171.902 165.799 171.564 165.983L170.766 166.456C170.675 166.515 170.578 166.564 170.477 166.603C170.477 166.603 170.557 166.523 170.729 166.4L171.496 165.878C171.834 165.657 172.239 165.381 172.694 165.037C173.148 164.693 173.688 164.331 174.241 163.871C174.793 163.41 175.414 162.931 176.04 162.366C176.666 161.801 177.323 161.181 178.011 160.524C180.929 157.616 183.42 154.308 185.41 150.7C185.852 149.865 186.288 149.073 186.638 148.306C186.988 147.538 187.313 146.82 187.589 146.157C187.866 145.494 188.08 144.886 188.283 144.352C188.486 143.817 188.645 143.351 188.762 142.964L189.057 142.086C189.088 141.973 189.136 141.866 189.198 141.767Z" fill="#263238"/>
<path d="M182.757 143.111C182.74 143.208 182.713 143.302 182.677 143.394C182.597 143.608 182.505 143.872 182.394 144.192C182.149 144.886 181.75 145.868 181.215 147.071C178.435 153.353 174.632 159.129 169.961 164.165C169.064 165.123 168.315 165.878 167.781 166.382L167.167 166.953C167.099 167.024 167.022 167.088 166.94 167.143C166.94 167.143 166.995 167.051 167.124 166.91L167.701 166.296C168.211 165.768 168.929 164.988 169.807 164.012C174.358 158.912 178.137 153.174 181.025 146.979C181.578 145.794 182.008 144.824 182.29 144.143L182.628 143.369C182.695 143.197 182.744 143.105 182.757 143.111Z" fill="#263238"/>
<path d="M179.902 118.091C180.053 118.304 180.18 118.532 180.283 118.772L181.222 120.676C182.02 122.284 183.144 124.495 184.452 126.896C185.759 129.296 187.018 131.427 187.939 132.968C188.375 133.693 188.743 134.3 189.032 134.81C189.181 135.024 189.305 135.255 189.4 135.498C189.222 135.31 189.063 135.104 188.928 134.884C188.639 134.472 188.234 133.864 187.749 133.109C186.773 131.599 185.489 129.474 184.169 127.067C182.849 124.661 181.768 122.432 181.019 120.799C180.645 119.982 180.356 119.313 180.166 118.852C180.051 118.608 179.963 118.353 179.902 118.091Z" fill="#263238"/>
<path d="M144.903 126.398C145.121 126.257 145.367 126.166 145.623 126.13C145.88 126.094 146.141 126.114 146.389 126.189C146.389 126.189 150.798 121.418 159.633 117.685C168.469 113.952 177.384 107.806 177.384 107.806L181.178 114.713C181.178 114.713 168.174 130.855 163.698 133.588C159.222 136.32 151.191 141.834 146.929 142.147C142.668 142.46 140.857 142.073 140.857 142.073C140.857 142.073 138.745 136.885 140.98 132.108C142.134 129.805 143.27 127.478 144.903 126.398Z" fill="#FFBF9D"/>
<path d="M146.402 126.189C146.142 126.175 145.882 126.198 145.628 126.256C144.957 126.503 144.364 126.927 143.915 127.484C142.428 129.315 141.305 131.414 140.606 133.667C140.236 134.911 140.046 136.201 140.041 137.499C140.043 138.56 140.183 139.617 140.458 140.642C140.742 141.579 141.112 142.488 141.564 143.356C141.564 143.356 141.508 143.307 141.429 143.197C141.309 143.038 141.2 142.872 141.103 142.699C140.741 142.069 140.451 141.399 140.237 140.704C139.928 139.665 139.763 138.589 139.746 137.505C139.733 136.177 139.92 134.854 140.299 133.581C140.676 132.312 141.202 131.092 141.865 129.947C142.384 129.002 143.001 128.115 143.707 127.3C144.197 126.745 144.836 126.343 145.549 126.14C145.751 126.099 145.96 126.099 146.163 126.14C146.245 126.14 146.326 126.157 146.402 126.189Z" fill="#263238"/>
<path d="M166.952 251.378C166.952 251.378 183.352 258.641 188.055 258.322C188.055 258.322 188.792 261.208 192.789 259.04C192.789 259.04 195.356 263.375 198.407 259.82C198.407 259.82 200.617 261.232 203.11 258.027L258.819 252.274C259.723 252.183 260.554 251.736 261.129 251.033C261.705 250.33 261.978 249.427 261.889 248.523C261.799 247.655 261.382 246.855 260.722 246.285C260.063 245.714 259.211 245.417 258.34 245.453C245.083 245.987 195.355 247.909 190.186 246.889C184.218 245.704 171.655 247.976 168.941 248.983C168.935 248.965 165.656 249.898 166.952 251.378Z" fill="#E0E0E0"/>
<path d="M166.952 251.377L166.817 251.199C166.746 251.106 166.695 250.999 166.667 250.885C166.638 250.771 166.633 250.652 166.651 250.536C166.774 250.153 167.037 249.83 167.388 249.634C167.865 249.327 168.381 249.087 168.923 248.921C170.65 248.388 172.413 247.977 174.198 247.693C176.377 247.3 178.962 246.901 181.922 246.656C183.401 246.527 184.992 246.459 186.637 246.478C187.472 246.478 188.32 246.539 189.191 246.637C190.063 246.736 190.935 246.883 191.832 246.957C195.46 247.129 199.415 247.079 203.645 247.024C212.1 246.908 221.66 246.619 231.993 246.275L248.037 245.698L256.424 245.373C257.137 245.373 257.83 245.305 258.561 245.299C259.315 245.316 260.044 245.571 260.643 246.029C261.09 246.371 261.451 246.813 261.697 247.319C261.942 247.826 262.065 248.383 262.055 248.946C262.046 249.509 261.904 250.062 261.642 250.56C261.379 251.058 261.003 251.487 260.544 251.813C260.245 252.025 259.916 252.191 259.568 252.305C259.222 252.406 258.866 252.47 258.506 252.495L254.367 252.919L246.214 253.735L230.649 255.332L203.105 258.156L203.197 258.107C202.628 258.882 201.886 259.513 201.029 259.949C200.608 260.156 200.145 260.264 199.675 260.264C199.206 260.264 198.743 260.156 198.322 259.949H198.481C198.26 260.164 198.058 260.397 197.824 260.563C197.59 260.76 197.332 260.927 197.057 261.06C196.51 261.35 195.876 261.426 195.276 261.275C194.711 261.111 194.193 260.814 193.766 260.409C193.343 260.032 192.977 259.596 192.679 259.114L192.826 259.157C191.984 259.669 191.019 259.947 190.033 259.961C189.554 259.95 189.092 259.786 188.712 259.495C188.342 259.209 188.071 258.813 187.939 258.365L188.043 258.445C187.176 258.44 186.312 258.345 185.464 258.162L184.236 257.892L183.082 257.573C181.566 257.143 180.159 256.676 178.864 256.222C176.267 255.301 174.081 254.435 172.313 253.717C170.544 252.998 169.193 252.415 168.291 252.016L167.259 251.562L166.915 251.396L167.272 251.537L168.309 251.967C169.224 252.348 170.581 252.912 172.356 253.619C174.13 254.325 176.316 255.172 178.913 256.075C180.215 256.523 181.615 256.983 183.125 257.401L184.279 257.714L185.507 257.978C186.337 258.156 187.183 258.245 188.031 258.242H188.117V258.316C188.244 258.727 188.497 259.087 188.842 259.345C189.186 259.603 189.603 259.746 190.033 259.752C190.978 259.728 191.901 259.457 192.71 258.966L192.796 258.917L192.857 259.003C193.404 259.957 194.276 260.683 195.313 261.048C195.857 261.186 196.433 261.116 196.928 260.851C197.21 260.717 197.473 260.543 197.708 260.336C197.929 260.151 198.119 259.924 198.322 259.722L198.395 259.654L198.475 259.703C198.858 259.888 199.278 259.984 199.703 259.984C200.128 259.984 200.548 259.888 200.931 259.703C201.749 259.285 202.457 258.682 203 257.941L203.031 257.898H203.086L230.618 255.031L246.214 253.422L254.349 252.581L258.487 252.151C258.824 252.13 259.158 252.072 259.482 251.979C259.799 251.875 260.099 251.724 260.372 251.531C260.933 251.134 261.354 250.57 261.576 249.919C261.798 249.269 261.809 248.565 261.607 247.908C261.406 247.251 261.003 246.675 260.455 246.26C259.907 245.846 259.242 245.615 258.555 245.6C257.867 245.6 257.137 245.649 256.437 245.673L248.049 245.999L231.999 246.564C221.666 246.889 212.106 247.178 203.645 247.257C199.415 247.3 195.46 247.337 191.819 247.153C190.904 247.079 189.977 246.969 189.161 246.828C188.323 246.726 187.481 246.668 186.637 246.656C184.985 246.656 183.414 246.693 181.94 246.815C178.981 247.043 176.414 247.429 174.216 247.804C172.436 248.093 170.678 248.503 168.954 249.032C167.726 249.413 166.842 249.959 166.701 250.579C166.667 250.794 166.718 251.014 166.842 251.193C166.915 251.31 166.952 251.377 166.952 251.377Z" fill="#263238"/>
<path d="M222.366 246.92L222.74 229.439L227.855 229.464L228.561 246.49L222.366 246.92Z" fill="#E0E0E0"/>
<path d="M242.155 229.415L244.359 246.564L251.162 245.87L247.251 229.359L242.155 229.415Z" fill="#E0E0E0"/>
<path d="M202.441 230.802L188.233 247.939L198.892 251.512L198.972 250.69L204.762 230.464L202.441 230.802Z" fill="#E0E0E0"/>
<path d="M188.805 246.945C188.784 247.516 188.72 248.084 188.614 248.646C188.479 249.696 188.32 251.145 188.234 252.747C188.148 254.35 188.172 255.817 188.203 256.867C188.243 257.437 188.243 258.01 188.203 258.58C188.056 258.025 187.973 257.454 187.957 256.879C187.846 255.501 187.825 254.116 187.896 252.735C187.967 251.353 188.127 249.977 188.375 248.615C188.455 248.044 188.599 247.484 188.805 246.945Z" fill="#263238"/>
<path d="M193.514 246.717C193.524 247.333 193.487 247.948 193.403 248.559C193.305 249.689 193.182 251.248 193.102 252.973C193.023 254.699 192.992 256.264 192.98 257.4C193.007 258.015 192.984 258.631 192.912 259.242C192.804 258.634 192.751 258.018 192.752 257.4C192.709 256.264 192.703 254.693 192.783 252.955C192.863 251.217 193.023 249.658 193.176 248.534C193.226 247.918 193.339 247.309 193.514 246.717Z" fill="#263238"/>
<path d="M198.07 247.387C198.127 247.985 198.14 248.586 198.107 249.186C198.107 250.297 198.107 251.826 198.168 253.514C198.229 255.203 198.358 256.726 198.45 257.812C198.53 258.407 198.567 259.006 198.561 259.605C198.386 259.029 198.273 258.437 198.223 257.837C198.07 256.738 197.922 255.203 197.849 253.539C197.775 251.875 197.812 250.303 197.849 249.192C197.859 248.584 197.933 247.979 198.07 247.387Z" fill="#263238"/>
<path d="M202.73 246.828C202.788 247.378 202.798 247.933 202.761 248.485C202.761 249.511 202.761 250.941 202.81 252.483C202.859 254.024 202.976 255.448 203.062 256.467C203.138 257.017 203.171 257.571 203.16 258.125C202.991 257.595 202.882 257.047 202.835 256.492C202.653 255.166 202.539 253.832 202.491 252.495C202.437 251.156 202.451 249.816 202.534 248.479C202.538 247.923 202.603 247.369 202.73 246.828Z" fill="#263238"/>
<path d="M257.475 245.25H257.297H256.775L254.755 245.355L247.344 245.668L222.882 246.638L209.405 247.105C207.335 247.172 205.365 247.277 203.523 247.191C201.681 247.105 199.961 247.037 198.396 246.957C195.27 246.785 192.741 246.706 190.985 246.699C190.113 246.699 189.431 246.699 188.971 246.699H188.449C188.388 246.709 188.326 246.709 188.265 246.699H188.443L188.971 246.663C189.431 246.663 190.107 246.607 190.985 246.589C192.741 246.552 195.283 246.589 198.408 246.742C199.974 246.804 201.687 246.89 203.529 246.933C205.371 246.976 207.329 246.896 209.399 246.822L222.87 246.331L247.344 245.508L254.761 245.293L256.775 245.256H257.303C257.359 245.246 257.417 245.244 257.475 245.25Z" fill="#263238"/>
<path d="M257.266 248.289C257.266 248.375 245.127 249.64 230.139 251.113C215.152 252.587 202.988 253.717 202.976 253.625C202.964 253.533 215.115 252.274 230.109 250.8C245.103 249.327 257.266 248.197 257.266 248.289Z" fill="#263238"/>
<path d="M258.008 250.697C258.008 250.783 245.802 252.121 230.728 253.675C215.655 255.228 203.418 256.425 203.412 256.339C203.405 256.253 215.618 254.915 230.698 253.362C245.778 251.808 258.002 250.611 258.008 250.697Z" fill="#263238"/>
<path d="M110.213 233.049L110.446 251.561C110.446 251.561 91.7068 258.015 91.4121 261.435L127.313 262.276L128.135 233.418L110.213 233.049Z" fill="#263238"/>
<path d="M121.571 250.267C121.915 250.379 122.205 250.614 122.385 250.927C122.565 251.24 122.623 251.608 122.548 251.961C122.447 252.307 122.218 252.602 121.908 252.784C121.597 252.967 121.229 253.024 120.878 252.944C120.514 252.822 120.208 252.571 120.019 252.238C119.83 251.904 119.77 251.513 119.852 251.139C119.995 250.791 120.265 250.511 120.608 250.357C120.951 250.203 121.339 250.186 121.694 250.31" fill="#E0E0E0"/>
<path d="M127.318 262.277L127.288 259.366L92.9037 259.649C92.9037 259.649 91.2889 260.306 91.4424 261.435L127.318 262.277Z" fill="#455A64"/>
<path d="M109.862 251.365C109.862 251.537 110.74 251.641 111.594 252.225C112.447 252.808 112.883 253.557 113.043 253.489C113.203 253.422 112.969 252.403 111.932 251.715C110.894 251.027 109.832 251.199 109.862 251.365Z" fill="white"/>
<path d="M106.062 252.833C106.019 253.005 106.774 253.318 107.351 254.061C107.928 254.804 108.082 255.608 108.254 255.602C108.426 255.596 108.567 254.608 107.83 253.687C107.093 252.766 106.068 252.667 106.062 252.833Z" fill="white"/>
<path d="M103.821 257.265C103.981 257.308 104.245 256.436 103.821 255.466C103.398 254.496 102.593 254.097 102.507 254.238C102.421 254.379 102.925 254.907 103.262 255.712C103.6 256.516 103.643 257.265 103.821 257.265Z" fill="white"/>
<path d="M110.28 247.14C110.348 247.3 111.158 247.079 112.122 247.171C113.086 247.263 113.878 247.589 113.964 247.441C114.05 247.294 113.35 246.649 112.159 246.557C110.968 246.465 110.2 246.999 110.28 247.14Z" fill="white"/>
<path d="M184.464 165.681C184.464 165.681 128.657 171.238 123.85 172.693C119.042 174.148 114.64 182.91 112.589 187.165C110.538 191.42 107.302 248.565 107.302 248.565L127.712 249.75C127.712 249.75 131.181 214.488 132.01 208.71C132.839 202.933 132.163 195.687 132.163 195.687C132.163 195.687 188.234 202.018 193.563 201.502C198.893 200.986 205.137 195.018 206.918 189.062C209.183 181.4 203.792 167.572 203.792 167.572C203.792 167.572 199.494 165.46 196.05 165.251C192.183 165.065 188.306 165.209 184.464 165.681Z" fill="#263238"/>
<path d="M183.254 182.812H183.095L182.628 182.855L180.841 182.984C179.282 183.089 177.028 183.224 174.241 183.371C168.666 183.66 160.966 183.985 152.45 184.126C143.934 184.268 136.222 184.268 130.641 184.182C127.853 184.139 125.593 184.09 124.034 184.04L122.241 183.979H121.774H121.615C121.668 183.97 121.722 183.97 121.774 183.979H124.028L130.634 184.016C136.21 184.016 143.921 184.016 152.431 183.869C160.941 183.721 168.647 183.439 174.216 183.205L180.817 182.923L182.616 182.849H183.23L183.254 182.812Z" fill="#455A64"/>
<path d="M115.591 158.258C115.591 158.258 106.572 173.756 106.381 178.465C106.381 178.465 103.434 178.883 105.153 183.095C105.153 183.095 100.567 185.164 103.766 188.59C103.766 188.59 102.12 190.634 105.03 193.465V249.953C105.03 250.856 105.386 251.722 106.02 252.365C106.655 253.007 107.517 253.374 108.42 253.385C109.3 253.396 110.152 253.069 110.797 252.47C111.443 251.871 111.834 251.047 111.889 250.168C112.724 236.838 115.941 186.883 117.531 181.86C119.373 176.052 118.495 163.318 117.795 160.512C117.777 160.493 117.188 157.128 115.591 158.258Z" fill="#E0E0E0"/>
<path d="M115.591 158.258L115.781 158.142C115.882 158.081 115.994 158.042 116.11 158.026C116.226 158.01 116.344 158.018 116.457 158.05C116.829 158.212 117.123 158.511 117.28 158.885C117.531 159.392 117.71 159.931 117.814 160.487C118.164 162.268 118.387 164.072 118.483 165.884C118.63 168.101 118.747 170.729 118.661 173.707C118.624 175.288 118.507 176.865 118.311 178.434C118.205 179.283 118.054 180.126 117.857 180.958C117.617 181.812 117.427 182.671 117.243 183.568C116.69 187.172 116.328 191.126 115.941 195.356C115.18 203.817 114.48 213.396 113.749 223.76C113.399 228.942 113.037 234.321 112.662 239.853C112.486 242.616 112.306 245.42 112.122 248.265C112.073 248.977 112.048 249.677 111.975 250.408C111.88 251.16 111.546 251.861 111.023 252.409C110.633 252.82 110.151 253.132 109.616 253.321C109.082 253.509 108.511 253.569 107.949 253.495C107.388 253.421 106.852 253.214 106.385 252.894C105.918 252.573 105.534 252.146 105.264 251.648C105.087 251.323 104.961 250.973 104.889 250.61C104.832 250.253 104.812 249.891 104.828 249.53V237.096C104.828 231.681 104.828 226.406 104.828 221.329C104.828 211.173 104.828 201.779 104.828 193.465L104.865 193.557C104.161 192.908 103.621 192.103 103.287 191.206C103.126 190.764 103.07 190.292 103.123 189.825C103.177 189.358 103.338 188.91 103.594 188.516V188.676C103.403 188.43 103.194 188.203 103.029 187.951C102.857 187.695 102.717 187.419 102.611 187.129C102.393 186.553 102.393 185.918 102.611 185.342C102.84 184.799 103.191 184.315 103.637 183.93C104.061 183.556 104.534 183.242 105.043 182.997L104.987 183.138C104.57 182.243 104.401 181.253 104.496 180.27C104.56 179.798 104.773 179.359 105.105 179.016C105.436 178.674 105.868 178.446 106.338 178.367L106.252 178.459C106.351 177.598 106.541 176.75 106.817 175.929C106.952 175.536 107.087 175.143 107.216 174.757C107.345 174.37 107.517 174.008 107.658 173.645C108.272 172.184 108.886 170.839 109.47 169.599C110.667 167.143 111.772 165.043 112.681 163.367C113.59 161.691 114.314 160.414 114.811 159.554L115.376 158.584C115.505 158.369 115.579 158.258 115.579 158.258C115.579 158.258 115.524 158.375 115.401 158.596L114.86 159.579C114.382 160.45 113.669 161.734 112.773 163.416C111.876 165.098 110.796 167.186 109.611 169.667C108.997 170.895 108.413 172.252 107.824 173.707C107.683 174.075 107.535 174.444 107.388 174.824L106.995 175.985C106.726 176.792 106.545 177.625 106.455 178.471V178.551H106.381C105.96 178.634 105.575 178.846 105.281 179.159C104.987 179.472 104.798 179.869 104.742 180.295C104.661 181.237 104.83 182.184 105.233 183.039L105.27 183.132L105.178 183.181C104.169 183.625 103.352 184.416 102.875 185.41C102.667 185.934 102.667 186.518 102.875 187.043C102.973 187.311 103.103 187.567 103.262 187.804C103.422 188.05 103.624 188.265 103.808 188.498L103.87 188.578L103.815 188.658C103.587 189.02 103.444 189.429 103.399 189.855C103.353 190.281 103.405 190.711 103.551 191.114C103.874 191.972 104.396 192.742 105.073 193.361L105.116 193.398V193.453C105.116 201.767 105.116 211.161 105.116 221.316C105.116 226.394 105.116 231.668 105.116 237.084C105.116 239.798 105.116 242.544 105.116 245.324V249.517C105.103 249.858 105.122 250.199 105.172 250.537C105.24 250.866 105.353 251.184 105.509 251.482C105.755 251.936 106.106 252.325 106.531 252.618C106.957 252.911 107.445 253.099 107.957 253.166C108.469 253.234 108.99 253.18 109.477 253.008C109.964 252.835 110.403 252.55 110.759 252.176C111.241 251.672 111.547 251.026 111.631 250.334C111.698 249.64 111.729 248.909 111.778 248.209C111.958 245.369 112.138 242.563 112.319 239.792C112.699 234.266 113.061 228.881 113.418 223.699C114.161 213.34 114.879 203.762 115.659 195.295C116.058 191.064 116.432 187.11 116.997 183.494C117.163 182.591 117.366 181.701 117.611 180.872C117.813 180.049 117.967 179.214 118.072 178.373C118.274 176.811 118.397 175.239 118.44 173.664C118.538 170.692 118.44 168.07 118.311 165.854C118.227 164.047 118.022 162.248 117.697 160.469C117.452 159.241 117.009 158.271 116.408 158.062C116.3 158.028 116.187 158.017 116.075 158.028C115.963 158.04 115.855 158.074 115.757 158.13L115.591 158.258Z" fill="#263238"/>
<path d="M113.927 213.825L131.261 216.122L130.671 221.199L113.669 220.033L113.927 213.825Z" fill="#E0E0E0"/>
<path d="M129.148 235.42L111.864 235.727L111.803 242.567L128.639 240.492L129.148 235.42Z" fill="#E0E0E0"/>
<path d="M132.138 195.792L116.665 179.785L111.944 189.99L112.275 192.446L132.372 200.686L132.138 195.792Z" fill="#E0E0E0"/>
<path d="M117.593 180.467C117.028 180.379 116.47 180.251 115.923 180.086C114.898 179.834 113.467 179.521 111.889 179.257C110.311 178.993 108.85 178.858 107.8 178.772C107.227 178.759 106.657 178.701 106.093 178.6C106.662 178.521 107.239 178.503 107.812 178.545C109.194 178.591 110.573 178.724 111.938 178.944C113.307 179.172 114.659 179.492 115.984 179.902C116.541 180.025 117.081 180.215 117.593 180.467Z" fill="#263238"/>
<path d="M117.304 185.17C116.683 185.112 116.067 185.008 115.462 184.856C114.35 184.635 112.809 184.347 111.102 184.071C109.396 183.794 107.842 183.604 106.718 183.457C106.099 183.415 105.483 183.326 104.876 183.192C105.49 183.146 106.107 183.16 106.718 183.235C107.848 183.315 109.414 183.481 111.127 183.751C112.84 184.021 114.381 184.365 115.486 184.629C116.11 184.745 116.719 184.926 117.304 185.17Z" fill="#263238"/>
<path d="M116.132 189.627C115.531 189.616 114.932 189.561 114.339 189.462C113.24 189.333 111.718 189.173 110.041 189.05C108.365 188.927 106.824 188.878 105.743 188.854C105.142 188.866 104.541 188.837 103.944 188.768C104.537 188.658 105.14 188.611 105.743 188.626C106.855 188.626 108.396 188.627 110.09 188.731C111.785 188.835 113.308 189.05 114.388 189.234C114.981 189.306 115.566 189.438 116.132 189.627Z" fill="#263238"/>
<path d="M116.162 194.319C115.607 194.309 115.052 194.256 114.505 194.159C113.492 194.043 112.086 193.883 110.532 193.773C108.979 193.662 107.566 193.613 106.541 193.582C105.987 193.603 105.432 193.574 104.883 193.496C105.43 193.395 105.985 193.35 106.541 193.361C109.214 193.292 111.888 193.486 114.523 193.938C115.083 194.001 115.633 194.129 116.162 194.319Z" fill="#263238"/>
<path d="M111.748 248.903C111.74 248.844 111.74 248.784 111.748 248.725C111.748 248.59 111.748 248.418 111.748 248.197C111.748 247.718 111.821 247.043 111.871 246.183C111.993 244.415 112.165 241.885 112.374 238.779C112.828 232.51 113.461 223.889 114.155 214.36C114.517 209.589 114.861 205.052 115.174 200.919C115.334 198.856 115.444 196.885 115.739 195.056C116.033 193.226 116.285 191.537 116.537 189.99C117.047 186.92 117.409 184.397 117.599 182.653C117.704 181.787 117.771 181.106 117.808 180.651L117.863 180.129C117.864 180.069 117.874 180.008 117.894 179.951C117.898 180.01 117.898 180.07 117.894 180.129V180.651C117.894 181.112 117.826 181.793 117.747 182.665C117.587 184.415 117.261 186.932 116.776 190.033C116.543 191.58 116.273 193.275 116.021 195.099C115.769 196.922 115.641 198.881 115.487 200.95C115.18 205.082 114.842 209.626 114.492 214.397C113.762 223.914 113.099 232.534 112.62 238.803C112.362 241.91 112.159 244.433 112.006 246.202C111.932 247.055 111.871 247.731 111.828 248.21C111.828 248.424 111.785 248.596 111.772 248.731C111.772 248.79 111.764 248.848 111.748 248.903Z" fill="#263238"/>
<path d="M108.727 248.356C108.641 248.356 108.727 236.144 108.899 221.082C109.07 206.021 109.304 193.809 109.396 193.809C109.488 193.809 109.396 206.021 109.218 221.089C109.04 236.156 108.819 248.356 108.727 248.356Z" fill="#263238"/>
<path d="M106.252 248.835C106.16 248.835 106.179 236.555 106.289 221.389C106.4 206.224 106.559 193.95 106.651 193.95C106.744 193.95 106.719 206.23 106.608 221.395C106.498 236.561 106.338 248.835 106.252 248.835Z" fill="#263238"/>
<path d="M207.249 187.337C207.249 187.337 207.249 187.509 207.176 187.84C207.096 188.323 206.987 188.801 206.85 189.271C206.346 190.999 205.611 192.652 204.664 194.183C204.013 195.251 203.24 196.24 202.362 197.13C201.324 198.128 200.126 198.946 198.819 199.549C195.816 200.902 192.552 201.577 189.259 201.526C185.992 201.473 182.731 201.239 179.49 200.826L171.551 199.979L166.203 199.365L164.748 199.187C164.578 199.171 164.41 199.142 164.245 199.101C164.414 199.085 164.585 199.085 164.754 199.101L166.216 199.224L171.576 199.715L179.521 200.495C182.751 200.892 185.999 201.118 189.253 201.17C192.501 201.219 195.72 200.564 198.69 199.249C199.972 198.661 201.15 197.869 202.178 196.903C203.047 196.031 203.817 195.065 204.474 194.023C205.432 192.513 206.189 190.884 206.727 189.179C206.918 188.565 207.04 188.098 207.114 187.773C207.144 187.623 207.19 187.477 207.249 187.337Z" fill="#455A64"/>
<path d="M193.643 95.5744C191.844 102.77 188.952 114.086 188.08 117.5C187.827 118.427 187.914 119.414 188.326 120.282C188.628 120.918 189.079 121.474 189.639 121.901C190.2 122.328 190.855 122.615 191.549 122.738C192.212 122.86 192.894 122.818 193.537 122.615C194.179 122.411 194.762 122.053 195.233 121.571C195.847 120.957 196.393 120.245 196.4 119.686C196.4 118.728 200.176 103.87 201.76 97.6497C201.964 96.8475 201.927 96.0028 201.653 95.2217C201.379 94.4407 200.88 93.758 200.219 93.2596C199.666 92.8495 199.021 92.5812 198.341 92.4784C197.66 92.3755 196.965 92.4413 196.316 92.6698C195.667 92.8983 195.083 93.2826 194.617 93.789C194.151 94.2955 193.817 94.9085 193.643 95.5744Z" fill="#455A64"/>
<path d="M195.675 119.932C195.644 119.932 195.675 119.804 195.675 119.589C195.645 119.289 195.523 119.006 195.325 118.778C194.846 118.164 193.704 117.919 192.537 117.642C191.536 117.397 190.487 117.431 189.504 117.74C189.112 117.908 188.73 118.101 188.362 118.318C188.623 117.948 188.995 117.673 189.425 117.532C190.436 117.136 191.545 117.065 192.599 117.329C193.172 117.449 193.736 117.609 194.287 117.808C194.769 117.958 195.196 118.246 195.515 118.637C195.725 118.908 195.83 119.246 195.81 119.589C195.773 119.828 195.687 119.939 195.675 119.932Z" fill="#263238"/>
<path d="M204.578 111.521C204.449 110.561 204.152 109.632 203.7 108.776C203.672 107.554 203.347 106.358 202.754 105.289C201.938 103.895 197.971 100.42 193.968 100.137C193.48 100.103 192.99 100.175 192.533 100.35C192.076 100.524 191.663 100.796 191.322 101.147C190.981 101.498 190.72 101.919 190.559 102.381C190.398 102.843 190.34 103.334 190.388 103.821C190.388 103.821 190.388 103.877 190.388 103.901C190.388 103.926 186.932 104.441 186.901 106.922V107.923C186.901 107.923 184.629 110.87 187.932 111.656C187.932 111.656 187.165 115.757 190.253 116.015C192.19 116.174 194.134 116.198 196.074 116.089L196.86 117.507L196.565 118.969C196.565 118.969 195.951 121.517 194.3 122.26C192.022 123.304 191.033 122.929 190.192 124.243C189.754 124.939 189.514 125.741 189.497 126.563C189.479 127.384 189.686 128.196 190.094 128.909L191.69 131.85C192.046 134.214 192.863 135.154 192.863 135.154L202.073 131.04C202.185 130.989 202.282 130.911 202.357 130.814C202.432 130.716 202.482 130.601 202.502 130.48C202.522 130.359 202.512 130.234 202.472 130.118C202.433 130.001 202.365 129.896 202.275 129.812L200.661 128.326C200.661 128.326 201.655 127.909 202.503 125.913L203.067 124.538C203.848 123.253 204.447 121.867 204.848 120.418C205.155 118.649 204.891 113.351 204.578 111.521Z" fill="#E0E0E0"/>
<path d="M202.221 116.457C201.902 115.692 201.489 114.971 200.993 114.308C199.729 112.758 197.982 111.677 196.032 111.238C194.077 110.836 192.062 110.836 190.107 111.238C188.603 111.526 187.682 111.802 187.651 111.753C187.845 111.645 188.051 111.561 188.265 111.502C188.676 111.366 189.278 111.188 190.033 111.017C192.014 110.535 194.078 110.497 196.075 110.906C198.092 111.346 199.889 112.486 201.147 114.123C201.516 114.619 201.808 115.167 202.012 115.75C202.125 115.971 202.196 116.21 202.221 116.457Z" fill="#263238"/>
<path d="M202.773 110.243C202.165 109.721 201.528 109.236 200.864 108.788C199.199 107.805 197.328 107.225 195.399 107.093C193.467 106.981 191.528 107.126 189.634 107.523C188.166 107.806 187.27 108.033 187.257 107.984C187.452 107.882 187.658 107.806 187.871 107.757C188.27 107.634 188.854 107.468 189.584 107.302C191.493 106.83 193.462 106.652 195.424 106.774C197.404 106.908 199.318 107.542 200.986 108.616C201.486 108.944 201.947 109.327 202.362 109.758C202.522 109.899 202.66 110.062 202.773 110.243Z" fill="#263238"/>
<path d="M201.288 105.694C201.288 105.737 200.674 105.399 199.74 104.976C197.239 103.853 194.486 103.406 191.758 103.68C190.714 103.778 190.076 103.926 190.064 103.87C190.051 103.815 190.211 103.791 190.5 103.711C190.903 103.597 191.313 103.511 191.728 103.453C194.504 103.054 197.336 103.513 199.845 104.767C200.22 104.948 200.583 105.153 200.931 105.381C201.171 105.571 201.3 105.676 201.288 105.694Z" fill="#263238"/>
<path d="M193.348 130.555C193.348 130.469 194.975 130.039 196.965 129.419C198.954 128.799 200.55 128.221 200.587 128.307C198.312 129.444 195.867 130.203 193.348 130.555Z" fill="#263238"/>
<path d="M192.409 84.8179C195.865 86.7642 203.405 91.1421 203.405 91.1421C204.161 90.7921 218.025 43.0597 220.628 34.0769C220.762 33.6198 220.784 33.1376 220.695 32.67C220.605 32.2024 220.405 31.7628 220.112 31.3876C218.27 29.0482 214.279 24.259 212.167 24.7318C209.711 25.2906 194.527 72.1265 191.334 82.0671C191.17 82.5793 191.187 83.1325 191.383 83.6335C191.578 84.1345 191.941 84.5528 192.409 84.8179Z" fill="#007438"/>
<path d="M204.578 87.7657C204.541 87.8026 203.909 87.3237 202.828 86.636C201.426 85.7359 199.942 84.9711 198.395 84.3519C196.841 83.7475 195.231 83.3011 193.587 83.0195C192.329 82.7985 191.537 82.7309 191.537 82.6818C191.724 82.6503 191.915 82.6503 192.101 82.6818C192.611 82.6991 193.119 82.7442 193.624 82.8169C195.307 83.0335 196.957 83.4562 198.536 84.0756C200.105 84.6948 201.595 85.4965 202.975 86.4641C203.503 86.8386 203.921 87.1579 204.203 87.3912C204.486 87.6245 204.59 87.7473 204.578 87.7657Z" fill="#263238"/>
<path d="M213.72 25.4073C213.706 25.4572 213.69 25.5063 213.671 25.5546C213.628 25.6713 213.579 25.8125 213.512 25.9906C213.36 26.3999 213.145 26.9525 212.867 27.6483L210.491 33.7699C208.495 38.9214 205.83 46.0499 203.123 54.0319C200.415 62.0139 198.125 69.2898 196.541 74.5764C195.767 77.2104 195.135 79.3471 194.699 80.8514C194.484 81.5698 194.312 82.1409 194.189 82.5584L194.054 83.0004C194.039 83.0518 194.019 83.1012 193.993 83.1478C193.986 83.0948 193.986 83.0412 193.993 82.9882C193.993 82.8715 194.054 82.7241 194.097 82.5399C194.207 82.1224 194.355 81.5453 194.545 80.8146C194.938 79.3226 195.54 77.1675 196.301 74.515C197.83 69.2039 200.065 61.9034 202.791 53.9276C205.517 45.9517 208.225 38.8109 210.276 33.6656C211.295 31.099 212.118 29.0299 212.732 27.6115L213.438 25.9721L213.622 25.5485C213.671 25.4502 213.714 25.4011 213.72 25.4073Z" fill="#263238"/>
<path d="M176.924 106.935L180.387 104.117C180.787 102.232 181.344 100.383 182.051 98.5906C182.162 97.2564 182.581 95.9661 183.273 94.8201C183.965 93.6742 184.913 92.7035 186.042 91.984C186.415 91.1644 186.958 90.4333 187.634 89.8385C188.31 89.2438 189.105 88.7989 189.965 88.5333C190.343 87.5896 190.992 86.779 191.83 86.2042C192.668 85.6293 193.658 85.3159 194.675 85.3036C200.759 85.0396 205.604 88.9876 206.384 90.8296C207.163 92.6716 205.315 94.0163 205.315 94.0163L205.708 96.2574C205.867 97.1735 205.665 98.1155 205.143 98.8853C205.143 98.8853 205.561 101.906 203.621 101.998C201.68 102.09 201.392 100.697 201.392 100.697C201.392 100.697 199.722 101.476 198.936 101.237L196.995 100.623L193.686 100.353L191.193 102.078C191.193 102.078 189.965 107.776 188.891 109.483C187.816 111.19 181.836 115.875 181.836 115.875L176.924 106.935Z" fill="#E0E0E0"/>
<path d="M185.256 95.3291C185.487 95.2216 185.73 95.1412 185.98 95.0897C186.653 94.9154 187.336 94.7822 188.025 94.6906C190.31 94.4047 192.628 94.5253 194.871 95.0467C196.104 95.3376 197.305 95.7489 198.457 96.2747C199.43 96.6525 200.325 97.2061 201.097 97.9079C201.383 98.2113 201.575 98.5909 201.65 99.0009C201.705 99.3075 201.678 99.6234 201.57 99.9157C201.506 100.101 201.396 100.268 201.251 100.401C201.152 100.487 201.085 100.511 201.085 100.505C201.243 100.337 201.364 100.138 201.442 99.9216C201.521 99.7047 201.554 99.4741 201.539 99.244C201.525 99.0139 201.463 98.7891 201.359 98.5837C201.254 98.3782 201.109 98.1963 200.931 98.0492C200.162 97.3971 199.285 96.8839 198.34 96.5326C197.197 96.0356 196.011 95.6431 194.797 95.3598C192.584 94.8518 190.304 94.7026 188.043 94.9178C186.318 95.0958 185.268 95.3844 185.256 95.3291Z" fill="#263238"/>
<path d="M190.659 91.1608C190.881 91.0707 191.114 91.0108 191.353 90.9828C191.993 90.8705 192.642 90.8151 193.293 90.817C195.461 90.8086 197.594 91.3604 199.487 92.4189C201.379 93.4774 202.966 95.0068 204.093 96.8587C204.437 97.4118 204.729 97.9956 204.965 98.6025C205.066 98.8192 205.138 99.0484 205.18 99.284C205.125 99.284 204.793 98.3385 203.903 96.9815C202.748 95.2048 201.178 93.7359 199.328 92.7015C197.479 91.6671 195.405 91.0983 193.287 91.0442C191.666 90.995 190.665 91.2222 190.659 91.1608Z" fill="#263238"/>
<path d="M192.925 88.275C193.105 88.2147 193.294 88.1836 193.484 88.1829C193.701 88.1553 193.921 88.1451 194.141 88.1522C194.434 88.1444 194.727 88.1567 195.019 88.189C195.775 88.2524 196.525 88.3818 197.26 88.5758C198.16 88.8176 199.04 89.1276 199.894 89.503C200.747 89.8887 201.569 90.3425 202.35 90.8599C202.978 91.2887 203.568 91.7715 204.112 92.3028C204.331 92.4927 204.536 92.6978 204.726 92.9168C204.873 93.0814 205.007 93.2581 205.125 93.4449C205.244 93.5905 205.34 93.7543 205.407 93.9299C205.358 93.9668 204.922 93.3159 203.977 92.4379C203.421 91.9392 202.828 91.4836 202.202 91.0748C200.666 90.0778 198.987 89.3201 197.223 88.8276C196.504 88.6255 195.771 88.4757 195.031 88.3794C193.729 88.2504 192.931 88.3364 192.925 88.275Z" fill="#263238"/>
<path d="M192.623 100.266C192.623 100.358 191.273 100.5 189.676 101.003C188.08 101.506 186.772 101.924 186.741 101.826C187.644 101.344 188.597 100.966 189.584 100.696C190.555 100.339 191.591 100.192 192.623 100.266Z" fill="#263238"/>
<path d="M190.254 116.01C190.124 116.014 189.994 116.002 189.867 115.973C189.496 115.912 189.145 115.765 188.841 115.543C188 114.929 187.564 113.394 187.828 111.632L187.908 111.749L187.386 111.595C187.208 111.521 187.036 111.435 186.864 111.343C186.5 111.124 186.226 110.782 186.091 110.379C185.983 109.944 186.009 109.486 186.164 109.065C186.305 108.627 186.512 108.213 186.778 107.837L186.748 107.917C186.748 107.457 186.748 107.008 186.797 106.493C186.893 105.978 187.136 105.503 187.497 105.124C188.281 104.366 189.273 103.86 190.346 103.668L190.223 103.834C190.152 103.205 190.254 102.568 190.518 101.992C190.799 101.396 191.239 100.889 191.789 100.525C192.358 100.151 193.024 99.953 193.704 99.9536C194.042 99.9627 194.378 99.9935 194.711 100.046C195.037 100.119 195.381 100.162 195.7 100.267C197.819 100.917 199.766 102.033 201.398 103.533C201.786 103.88 202.147 104.256 202.478 104.657C202.799 105.053 203.056 105.496 203.24 105.971C203.607 106.855 203.804 107.801 203.823 108.758V108.685C204.512 110.168 204.884 111.778 204.916 113.413C205.02 114.849 205.051 116.102 205.057 117.133C205.069 117.932 205.04 118.732 204.971 119.528C204.953 119.734 204.922 119.939 204.879 120.142C204.872 120.213 204.856 120.284 204.83 120.351C204.83 120.351 204.83 120.056 204.885 119.51C204.94 118.963 204.922 118.153 204.885 117.121C204.848 116.09 204.799 114.843 204.676 113.437C204.627 111.843 204.253 110.276 203.577 108.832V108.795V108.758C203.55 107.84 203.354 106.935 203 106.087C202.601 105.182 201.99 104.386 201.22 103.767C199.623 102.302 197.718 101.215 195.645 100.586C195.331 100.482 195.031 100.439 194.693 100.365C194.376 100.316 194.056 100.287 193.735 100.279C193.116 100.276 192.509 100.456 191.991 100.795C191.491 101.126 191.09 101.586 190.831 102.127C190.593 102.643 190.497 103.213 190.554 103.779V103.914H190.419C189.409 104.094 188.473 104.564 187.724 105.265C187.407 105.607 187.194 106.033 187.11 106.493C187.049 106.935 187.073 107.432 187.055 107.88V107.923V107.96C186.785 108.275 186.584 108.644 186.466 109.042C186.347 109.439 186.314 109.857 186.367 110.269C186.48 110.621 186.715 110.922 187.03 111.116C187.19 111.202 187.349 111.282 187.509 111.349L188.006 111.509H188.098V111.595C187.816 113.302 188.203 114.8 188.976 115.383C189.261 115.608 189.593 115.766 189.947 115.844L190.254 116.01Z" fill="#263238"/>
<path d="M155.022 83.1049C155.301 80.9913 155.228 78.8462 154.807 76.7562C154.734 76.4185 153.426 69.3882 148.698 64.7463C145.321 61.4 139.654 59.7238 135.08 60.786C130.505 61.8483 125.256 64.6604 123.285 69.9101C121.314 75.1598 122.161 77.7079 122.161 77.7079C122.161 77.7079 121.854 82.1901 122.161 83.369C122.714 85.3583 125.802 89.6625 125.802 89.6625L127.552 91.3448L152.272 87.1021L155.022 83.1049Z" fill="#007438"/>
<path d="M153.684 86.6972C153.896 83.3978 153.822 80.0862 153.463 76.7996C153.101 73.4932 151.924 70.3284 150.037 67.5896C149.742 67.1843 147.445 64.5625 146.967 64.7406C146.635 64.8757 148.323 67.4483 148.231 67.8106C147.384 71.1201 147.906 74.6628 149.103 77.8679C150.293 80.9696 151.826 83.929 153.671 86.6911" fill="#263238"/>
<path d="M123.929 81.0475C123.012 77.4396 123.486 73.6188 125.256 70.3439C127.025 67.0691 129.962 64.5797 133.483 63.3704L134.214 63.1248C142.196 60.896 148.545 66.4281 150.546 74.4715L157.392 100.081L155.649 114.308L140.532 108.26C139.869 106.019 139.666 105.35 139.648 105.356C139.629 105.362 131.721 106.762 129.05 99.2771C127.761 95.6791 125.71 88.0102 123.929 81.0475Z" fill="#FFBF9D"/>
<path d="M139.648 105.381C143.12 104.179 146.175 102.008 148.453 99.1245C148.453 99.1245 148.035 105.59 140.293 107.487L139.648 105.381Z" fill="#FF9A6C"/>
<path d="M128.019 87.1266C128.11 87.4085 128.309 87.6431 128.572 87.7798C128.835 87.9165 129.142 87.9443 129.425 87.8573C129.565 87.8211 129.697 87.7571 129.813 87.6691C129.928 87.5811 130.024 87.471 130.097 87.3451C130.169 87.2192 130.215 87.0801 130.232 86.9361C130.25 86.7921 130.238 86.646 130.199 86.5065C130.106 86.2255 129.907 85.992 129.644 85.8555C129.381 85.719 129.076 85.6905 128.792 85.7758C128.652 85.8121 128.52 85.8761 128.405 85.964C128.289 86.052 128.193 86.1622 128.121 86.2881C128.049 86.414 128.002 86.553 127.985 86.6971C127.967 86.8411 127.979 86.9871 128.019 87.1266Z" fill="#263238"/>
<path d="M126.674 83.8289C126.852 83.921 127.46 83.0369 128.614 82.6439C129.768 82.251 130.818 82.5395 130.898 82.3553C130.935 82.2694 130.714 82.0668 130.253 81.9255C129.634 81.7486 128.976 81.7679 128.368 81.9808C127.765 82.1863 127.243 82.5775 126.876 83.0983C126.618 83.5035 126.582 83.786 126.674 83.8289Z" fill="#263238"/>
<path d="M138.451 84.0251C138.545 84.3049 138.745 84.5371 139.007 84.6723C139.27 84.8075 139.574 84.8353 139.857 84.7496C139.997 84.7141 140.129 84.6508 140.244 84.5634C140.36 84.476 140.456 84.3664 140.528 84.241C140.6 84.1156 140.647 83.977 140.664 83.8333C140.682 83.6897 140.67 83.5441 140.631 83.405C140.539 83.1231 140.34 82.8885 140.077 82.7518C139.814 82.6151 139.508 82.5873 139.225 82.6743C139.084 82.7105 138.952 82.7745 138.837 82.8625C138.722 82.9505 138.625 83.0606 138.553 83.1865C138.481 83.3124 138.435 83.4515 138.417 83.5955C138.4 83.7395 138.411 83.8856 138.451 84.0251Z" fill="#263238"/>
<path d="M137.904 80.4881C138.088 80.5802 138.696 79.6961 139.851 79.3031C141.005 78.9101 142.055 79.1987 142.129 79.0145C142.172 78.9286 141.95 78.7259 141.515 78.5847C140.896 78.4078 140.237 78.4271 139.63 78.64C139.028 78.8455 138.508 79.2368 138.144 79.7575C137.849 80.1504 137.818 80.4329 137.904 80.4881Z" fill="#263238"/>
<path d="M136.996 90.5156C136.321 90.5336 135.65 90.6346 135 90.8165C134.693 90.8902 134.386 90.927 134.276 90.7428C134.147 90.4452 134.11 90.1158 134.171 89.7972C134.208 88.9868 134.239 88.1394 134.276 87.2553C134.392 83.6388 134.368 80.7039 134.22 80.6978C134.073 80.6916 133.864 83.6265 133.747 87.243C133.747 88.1333 133.704 88.9806 133.686 89.7911C133.622 90.2166 133.709 90.651 133.932 91.0191C134.009 91.1052 134.103 91.1734 134.209 91.2191C134.316 91.2647 134.43 91.2865 134.546 91.2831C134.725 91.2715 134.903 91.2365 135.074 91.1787C135.74 91.0396 136.385 90.8168 136.996 90.5156Z" fill="#263238"/>
<path d="M137.143 77.9164C137.388 78.162 138.279 77.5296 139.494 77.106C140.71 76.6823 141.803 76.5595 141.815 76.2157C141.815 76.056 141.521 75.8595 141.005 75.7613C140.344 75.6529 139.667 75.7185 139.04 75.9516C138.418 76.1698 137.865 76.5491 137.437 77.0507C137.118 77.4559 137.026 77.7936 137.143 77.9164Z" fill="#263238"/>
<path d="M125.163 79.4706C125.489 79.6548 126.348 79.0716 127.478 78.6909C128.608 78.3102 129.64 78.1812 129.768 77.8313C129.824 77.6655 129.584 77.4506 129.081 77.3401C128.399 77.216 127.697 77.2797 127.048 77.5243C126.397 77.7432 125.817 78.136 125.372 78.6602C125.059 79.0593 125.016 79.3785 125.163 79.4706Z" fill="#263238"/>
<path d="M151.842 80.2618C151.952 80.1574 156.49 76.9585 158.086 82.1591C159.683 87.3596 154.114 87.8877 154.114 87.7403C154.114 87.593 151.842 80.2618 151.842 80.2618Z" fill="#FFBF9D"/>
<path d="M155.065 85.2848C155.065 85.2848 155.175 85.3216 155.347 85.3462C155.591 85.369 155.835 85.2989 156.029 85.1497C156.52 84.7813 156.71 83.762 156.446 82.8226C156.326 82.3689 156.103 81.9488 155.796 81.5946C155.697 81.447 155.563 81.3257 155.407 81.2412C155.251 81.1567 155.077 81.1115 154.899 81.1096C154.787 81.113 154.679 81.1563 154.596 81.2317C154.513 81.307 154.459 81.4096 154.445 81.5209C154.445 81.6867 154.482 81.785 154.445 81.7972C154.408 81.8095 154.31 81.7481 154.285 81.5209C154.274 81.3819 154.311 81.2433 154.389 81.128C154.5 80.977 154.665 80.8756 154.85 80.8455C155.076 80.821 155.305 80.8557 155.514 80.9461C155.722 81.0365 155.904 81.1796 156.041 81.3613C156.402 81.7423 156.663 82.2062 156.802 82.7121C157.091 83.7682 156.858 84.9164 156.188 85.3646C156.061 85.4483 155.917 85.5023 155.766 85.5225C155.615 85.5427 155.461 85.5286 155.317 85.4812C155.114 85.4076 155.053 85.3032 155.065 85.2848Z" fill="#FF9A6C"/>
<path d="M124.734 71.4151C123.751 71.2002 125.464 67.7311 127.257 66.1532C129.971 63.8015 134.496 61.499 137.628 61.4561C141.398 61.4069 144.805 62.2788 147.495 64.919C150.137 67.6432 152.009 71.0209 152.916 74.7062C153.286 75.8013 153.36 76.9747 153.131 78.1077C152.744 79.477 151.566 80.619 152.1 82.1908C152.205 82.4736 152.253 82.7742 152.241 83.0756C152.229 83.3769 152.158 83.673 152.032 83.9469C151.381 85.2424 149.932 84.6346 149.11 83.8425C147.353 82.1417 146.5 79.741 145.702 77.4323C145.046 75.8217 144.659 74.1148 144.554 72.3791C144.554 71.4336 144.713 70.488 144.658 69.5424C144.659 69.0699 144.558 68.6028 144.361 68.1735C144.163 67.7441 143.875 67.3627 143.516 67.0557C143.341 66.9369 143.156 66.8342 142.963 66.7487C142.045 66.3348 141.033 66.1735 140.031 66.2814C139.029 66.3894 138.075 66.7627 137.265 67.3627C134.638 69.2723 130.088 72.3177 128.479 71.716C126.17 70.8441 125.44 70.0398 125.44 70.0398L124.734 71.4151Z" fill="#263238"/>
<path d="M140.882 90.1475C140.704 90.1843 141.048 91.3755 140.268 92.5359C139.488 93.6964 138.174 93.9297 138.217 94.1016C138.217 94.1814 138.567 94.249 139.114 94.1016C139.817 93.9083 140.43 93.4735 140.845 92.8736C141.243 92.2944 141.399 91.583 141.281 90.8904C141.183 90.3746 140.962 90.1168 140.882 90.1475Z" fill="#263238"/>
<path d="M152.032 83.9458C152.032 83.9458 152.683 96.3609 146.574 100.769L145.775 100.518C145.775 100.518 151.381 94.9917 151.025 84.2651L152.032 83.9458Z" fill="#263238"/>
<path d="M131.396 103.072C131.396 103.072 136.99 98.0498 147.016 100.303C147.016 100.303 145.008 104.22 139.36 105.418C135.031 106.339 131.396 103.152 131.396 103.072Z" fill="#263238"/>
<path d="M135.27 106.098C133.256 106.111 131.255 105.772 129.357 105.097L129.032 104.987C127.325 104.44 122.186 94.819 121.922 93.5481C121.621 92.099 123.015 85.7871 123.15 85.0749L123.764 85.2099C123.334 87.1133 122.278 92.3078 122.536 93.4253C122.849 94.9541 127.982 104.004 129.228 104.404L129.56 104.514C131.144 105.036 134.091 106.012 139.347 105.128C144.873 104.183 150.227 99.0802 151.203 97.2014C151.965 95.74 153.61 84.7679 154.372 79.1743L154.986 79.2603C154.894 79.9234 152.757 95.562 151.756 97.4838C150.706 99.4977 145.254 104.735 139.476 105.736C138.087 105.976 136.68 106.097 135.27 106.098Z" fill="#E0E0E0"/>
<path d="M122.456 93.6842L121.983 93.2912C122.155 93.0886 126.281 88.2564 138.033 87.2679C149.785 86.2794 152.831 90.1598 152.954 90.3379L152.456 90.7002C152.426 90.6633 149.491 86.9302 138.082 87.888C126.674 88.8459 122.499 93.6351 122.456 93.6842Z" fill="#E0E0E0"/>
<path d="M125.544 99.9843L125.256 99.4685C129.321 97.3508 133.738 95.9921 138.291 95.4591C145.825 94.5749 150.927 97.4607 151.136 97.5835L150.829 98.1177C146.963 96.2268 142.627 95.5136 138.359 96.067C133.885 96.5863 129.543 97.9136 125.544 99.9843Z" fill="#E0E0E0"/>
<path d="M142.178 104.379C142.073 104.079 139.611 96.9071 139.408 96.2378C139.206 95.5686 138.794 88.4584 138.794 87.6418L139.408 87.605C139.574 90.7425 139.863 95.587 140.022 96.0413C140.225 96.7045 142.761 104.097 142.785 104.171L142.178 104.379Z" fill="#E0E0E0"/>
<path d="M136.682 105.872L131.77 97.1902C131.156 96.1402 129.566 89.5275 129.499 89.245L130.113 89.0977C130.573 90.9949 131.869 96.0788 132.323 96.8893L137.235 105.571L136.682 105.872Z" fill="#E0E0E0"/>
<path d="M131.795 105.675C131.641 105.448 128.012 100.1 127.239 98.8476C126.95 98.381 123.917 92.3208 123.788 92.0629L124.335 91.7866C125.421 93.9602 127.54 98.1661 127.761 98.5406C128.528 99.7686 132.267 105.295 132.304 105.344L131.795 105.675Z" fill="#E0E0E0"/>
<path d="M147.446 101.647L146.832 101.592C146.983 99.8693 147.227 98.1558 147.562 96.4592C147.937 94.9917 148.477 88.6675 148.483 88.6C148.575 87.5132 148.79 84.959 148.821 84.7993L149.435 84.9344L149.134 84.8669L149.435 84.9283C149.435 85.094 149.22 87.3044 149.109 88.6552C149.109 88.9193 148.557 95.0961 148.17 96.6372C147.845 98.2942 147.603 99.9663 147.446 101.647Z" fill="#E0E0E0"/>
<path d="M135.307 59.9077L140.906 60.2392C141.089 60.2515 141.267 60.2951 141.434 60.3682C142.662 60.9822 147.47 61.5225 149.337 64.6662C150.663 66.8888 152.757 70.1492 153.598 72.771C153.677 73.027 153.684 73.2997 153.62 73.5597C153.555 73.8197 153.421 74.0572 153.231 74.2466C153.042 74.436 152.805 74.5703 152.545 74.6348C152.285 74.6994 152.012 74.6918 151.756 74.613C150.003 73.9626 148.131 73.6946 146.267 73.827C139.064 74.5024 129.222 76.0681 124.955 77.0014C123.942 77.2163 122.922 76.8602 123.082 75.8348C123.432 73.563 123.991 70.1246 124.31 69.0071C124.752 67.4967 127.865 64.1627 128.608 63.3829C128.712 63.2705 128.834 63.177 128.97 63.1066L134.533 60.0857C134.769 59.9555 135.037 59.8938 135.307 59.9077Z" fill="#007438"/>
<path d="M126.355 72.1513C129.326 71.3039 136.258 70.7206 139.721 71.2118C142.05 71.6124 144.282 72.4454 146.303 73.6678L122.867 77.708L118.158 78.8009C120.012 75.8414 123.414 72.9986 126.355 72.1513Z" fill="#007438"/>
<path d="M122.118 74.3982C122.388 74.2025 122.673 74.03 122.972 73.8824C123.53 73.5693 124.359 73.1518 125.428 72.6544C126.662 72.1157 127.937 71.6763 129.241 71.3405C130.848 70.9411 132.497 70.735 134.153 70.7265C137.152 70.6437 140.147 71.0227 143.031 71.8501C143.9 72.1175 144.74 72.4734 145.536 72.9123C145.748 73.0302 145.953 73.1593 146.15 73.2991C146.224 73.3444 146.292 73.398 146.353 73.4588C146.048 73.3293 145.751 73.1838 145.462 73.0228C144.651 72.6348 143.809 72.3144 142.945 72.065C140.073 71.3123 137.109 70.9692 134.14 71.0458C132.509 71.0461 130.884 71.2336 129.296 71.6045C128.003 71.9209 126.735 72.3313 125.501 72.8325C124.445 73.2684 123.61 73.6553 123.045 73.9316C122.751 74.115 122.441 74.2712 122.118 74.3982Z" fill="#263238"/>
<path d="M154.016 75.7977L154.329 79.1931L151.658 80.3659C151.658 80.3659 151.689 84.1972 150.24 84.7376C148.791 85.2779 147.428 84.1604 147.428 84.1604L146.973 73.5812C146.973 73.5812 151.683 72.2304 151.652 72.4207C151.621 72.6111 154.016 75.7977 154.016 75.7977Z" fill="#007438"/>
<path d="M132.089 68.5471C132.105 67.1763 132.311 65.8144 132.703 64.5008C132.986 63.1629 133.46 61.8726 134.109 60.6694C134.195 60.6694 133.557 62.4132 133.01 64.5806C132.464 66.748 132.188 68.5532 132.089 68.5471Z" fill="#263238"/>
<path d="M122.935 71.8378C123.112 71.3698 123.34 70.9229 123.616 70.5054C124.077 69.7072 124.746 68.6205 125.532 67.4354C126.318 66.2504 127.061 65.225 127.619 64.4882C127.899 64.0744 128.222 63.6916 128.583 63.3462C128.367 63.797 128.106 64.2249 127.804 64.6233L125.796 67.6135C125.053 68.731 124.384 69.7441 123.813 70.616C123.561 71.0515 123.267 71.4608 122.935 71.8378Z" fill="#263238"/>
<path d="M146.371 67.1773C146.285 67.2141 145.506 65.5011 144.161 63.6345C142.816 61.7679 141.453 60.4601 141.527 60.3926C141.884 60.6023 142.205 60.8676 142.478 61.1785C143.192 61.8739 143.841 62.6322 144.419 63.4442C145.001 64.255 145.511 65.1159 145.941 66.0168C146.143 66.3796 146.288 66.7709 146.371 67.1773Z" fill="#263238"/>
<path d="M155.145 79.0577C155.053 79.1436 153.917 77.0806 151.528 75.5824C149.14 74.0843 146.801 73.9492 146.831 73.8264C147.335 73.7963 147.841 73.8461 148.33 73.9737C150.743 74.4482 152.894 75.8028 154.365 77.7744C154.693 78.1573 154.956 78.5907 155.145 79.0577Z" fill="#263238"/>
<path d="M196.284 136.461L195.946 136.633L194.958 137.112L191.133 138.905C186.381 140.983 181.523 142.811 176.581 144.382C169.243 146.695 161.752 148.493 154.164 149.761L152.549 150.043L150.91 150.276L147.569 150.743C145.316 151.05 143.001 151.24 140.656 151.504C135.946 151.861 131.059 152.168 126.043 152.118C116.616 152.195 107.201 151.433 97.9091 149.841C93.8521 149.139 89.8687 148.064 86.0098 146.629C82.63 145.391 79.4645 143.632 76.6278 141.416C75.4303 140.401 74.3399 139.265 73.3736 138.027C72.5385 136.904 71.8359 135.689 71.2799 134.405C70.3847 132.332 70.0869 130.05 70.4203 127.816C70.682 126.422 71.2117 125.092 71.9799 123.899L72.6491 123.027L72.8824 122.732C72.8824 122.732 72.8149 122.843 72.6737 123.046L72.0597 123.936C71.3246 125.133 70.8206 126.458 70.5738 127.841C70.267 130.046 70.5773 132.292 71.4702 134.331C72.0304 135.599 72.7351 136.798 73.5701 137.904C74.5312 139.124 75.6155 140.241 76.8059 141.238C79.6277 143.427 82.7747 145.161 86.1326 146.378C89.9798 147.801 93.9511 148.864 97.995 149.552C107.271 151.122 116.666 151.874 126.073 151.799C131.077 151.799 135.953 151.517 140.656 151.185C143.001 150.927 145.31 150.737 147.563 150.436L150.897 149.976L152.537 149.742L154.145 149.466C161.724 148.213 169.208 146.44 176.544 144.161C182.819 142.245 187.719 140.17 191.114 138.789L194.958 137.045L195.965 136.597C196.161 136.504 196.284 136.461 196.284 136.461Z" fill="#263238"/>
<path d="M107.849 155.513C107.71 155.53 107.57 155.53 107.432 155.513H106.24C105.203 155.513 103.699 155.415 101.85 155.274C97.0246 154.889 92.233 154.154 87.5135 153.076C84.7505 152.462 82.141 151.719 79.8017 150.982C77.4623 150.245 75.3747 149.484 73.6617 148.778C72.7959 148.44 72.0284 148.103 71.353 147.808C70.6776 147.513 70.125 147.255 69.6277 147.028L68.5532 146.5C68.4253 146.446 68.3038 146.378 68.1909 146.297C68.3256 146.336 68.457 146.385 68.5839 146.445L69.6829 146.911C70.1557 147.126 70.739 147.372 71.4206 147.642C72.1021 147.912 72.8757 148.256 73.7476 148.563C75.473 149.245 77.5606 149.957 79.8876 150.7C82.2147 151.443 84.7996 152.13 87.581 152.769C92.2897 153.835 97.0622 154.596 101.869 155.047C103.711 155.219 105.209 155.335 106.247 155.391L107.438 155.471C107.576 155.476 107.713 155.49 107.849 155.513Z" fill="#263238"/>
</svg>
