<svg width="360" height="257" viewBox="0 0 360 257" fill="none" xmlns="http://www.w3.org/2000/svg">
<ellipse cx="3.7702" cy="3.97819" rx="3.7702" ry="3.97819" transform="matrix(0.678851 0.734276 0.734276 -0.678851 347.387 -1.94336)" fill="#007438" fill-opacity="0.3"/>
<ellipse cx="3.7702" cy="3.97819" rx="3.7702" ry="3.97819" transform="matrix(0.678851 0.734276 0.734276 -0.678851 335.963 2.21094)" fill="#007438" fill-opacity="0.3"/>
<ellipse cx="3.7702" cy="3.97819" rx="3.7702" ry="3.97819" transform="matrix(0.678851 0.734276 0.734276 -0.678851 339.079 14.6733)" fill="#007438" fill-opacity="0.3"/>
<ellipse cx="3.7702" cy="3.97819" rx="3.7702" ry="3.97819" transform="matrix(0.678851 0.734276 0.734276 -0.678851 343.233 27.1362)" fill="#007438" fill-opacity="0.3"/>
<ellipse cx="3.05403" cy="3.58105" rx="3.05403" ry="3.58105" transform="matrix(0.678851 0.734276 0.734276 -0.678851 332.782 30.2646)" fill="#007438" fill-opacity="0.3"/>
<ellipse cx="3.7702" cy="3.97819" rx="3.7702" ry="3.97819" transform="matrix(0.678851 0.734276 0.734276 -0.678851 346.349 38.5601)" fill="#007438" fill-opacity="0.3"/>
<ellipse cx="3.6727" cy="3.36113" rx="3.6727" ry="3.36113" transform="matrix(0.678851 0.734276 0.734276 -0.678851 328.693 18.1328)" fill="#007438" fill-opacity="0.3"/>
<ellipse cx="3.6727" cy="3.36113" rx="3.6727" ry="3.36113" transform="matrix(0.678851 0.734276 0.734276 -0.678851 317.269 21.2485)" fill="#007438" fill-opacity="0.3"/>
<ellipse cx="3.7702" cy="3.97819" rx="3.7702" ry="3.97819" transform="matrix(0.678851 0.734276 0.734276 -0.678851 323.5 7.40332)" fill="#007438" fill-opacity="0.3"/>
<ellipse cx="3.7702" cy="3.97819" rx="3.7702" ry="3.97819" transform="matrix(0.678851 0.734276 0.734276 -0.678851 320.384 -5.05908)" fill="#007438" fill-opacity="0.3"/>
<ellipse cx="3.7702" cy="3.97819" rx="3.7702" ry="3.97819" transform="matrix(0.678851 0.734276 0.734276 -0.678851 308.96 -0.904785)" fill="#007438" fill-opacity="0.3"/>
<ellipse cx="3.7702" cy="3.97819" rx="3.7702" ry="3.97819" transform="matrix(0.678851 0.734276 0.734276 -0.678851 296.498 3.24902)" fill="#007438" fill-opacity="0.3"/>
<ellipse cx="3.7702" cy="3.97819" rx="3.7702" ry="3.97819" transform="matrix(0.678851 0.734276 0.734276 -0.678851 286.113 6.36523)" fill="#007438" fill-opacity="0.3"/>
<ellipse cx="3.7702" cy="3.97819" rx="3.7702" ry="3.97819" transform="matrix(0.678851 0.734276 0.734276 -0.678851 301.69 13.6348)" fill="#007438" fill-opacity="0.3"/>
<ellipse cx="3.7702" cy="3.97819" rx="3.7702" ry="3.97819" transform="matrix(0.678851 0.734276 0.734276 -0.678851 280.92 -5.05908)" fill="#007438" fill-opacity="0.3"/>
<ellipse cx="3.7702" cy="3.97819" rx="3.7702" ry="3.97819" transform="matrix(0.678851 0.734276 0.734276 -0.678851 270.534 -2.98193)" fill="#007438" fill-opacity="0.3"/>
<ellipse cx="3.7702" cy="3.97819" rx="3.7702" ry="3.97819" transform="matrix(0.678851 0.734276 0.734276 -0.678851 260.148 -1.94336)" fill="#007438" fill-opacity="0.3"/>
<ellipse cx="3.7702" cy="3.97819" rx="3.7702" ry="3.97819" transform="matrix(0.678851 0.734276 0.734276 -0.678851 312.076 10.519)" fill="#007438" fill-opacity="0.3"/>
<ellipse cx="3.7702" cy="3.97819" rx="3.7702" ry="3.97819" transform="matrix(0.678851 0.734276 0.734276 -0.678851 350.503 11.5576)" fill="#007438" fill-opacity="0.3"/>
<ellipse cx="3.7702" cy="3.97819" rx="3.7702" ry="3.97819" transform="matrix(0.678851 0.734276 0.734276 -0.678851 354.657 22.9819)" fill="#007438" fill-opacity="0.3"/>
<ellipse cx="3.7702" cy="3.97819" rx="3.7702" ry="3.97819" transform="matrix(0.678851 0.734276 0.734276 -0.678851 358.811 35.4443)" fill="#007438" fill-opacity="0.3"/>
<ellipse cx="1.55783" cy="3.63493" rx="1.55783" ry="3.63493" transform="matrix(-0.251198 0.967936 0.967936 0.251198 360.632 52.7559)" fill="#007438" fill-opacity="0.3"/>
<ellipse cx="1.55783" cy="3.63493" rx="1.55783" ry="3.63493" transform="matrix(-0.251198 0.967936 0.967936 0.251198 354.401 44.4478)" fill="#007438" fill-opacity="0.3"/>
<ellipse cx="1.86855" cy="3.63493" rx="1.86855" ry="3.63493" transform="matrix(-0.251198 0.967936 0.967936 0.251198 338.979 36.5757)" fill="#007438" fill-opacity="0.3"/>
<ellipse cx="1.55783" cy="3.73314" rx="1.55783" ry="3.73314" transform="matrix(-0.251198 0.967936 0.967936 0.251198 329.286 37.1284)" fill="#007438" fill-opacity="0.3"/>
<ellipse cx="1.55783" cy="3.63493" rx="1.55783" ry="3.63493" transform="matrix(-0.251198 0.967936 0.967936 0.251198 323.244 28.8691)" fill="#007438" fill-opacity="0.3"/>
<ellipse cx="1.55783" cy="3.63493" rx="1.55783" ry="3.63493" transform="matrix(-0.251198 0.967936 0.967936 0.251198 312.86 28.8691)" fill="#007438" fill-opacity="0.3"/>
<ellipse cx="2.49538" cy="3.63493" rx="2.49538" ry="3.63493" transform="matrix(-0.251198 0.967936 0.967936 0.251198 307.902 19.6533)" fill="#007438" fill-opacity="0.3"/>
<ellipse cx="2.49538" cy="3.63493" rx="2.49538" ry="3.63493" transform="matrix(-0.251198 0.967936 0.967936 0.251198 292.559 12.5146)" fill="#007438" fill-opacity="0.3"/>
<ellipse cx="2.49538" cy="3.63493" rx="2.49538" ry="3.63493" transform="matrix(-0.251198 0.967936 0.967936 0.251198 297.751 20.8232)" fill="#007438" fill-opacity="0.3"/>
<ellipse cx="1.83913" cy="2.67229" rx="1.83913" ry="2.67229" transform="matrix(-0.481822 0.876269 0.876269 0.481822 304.501 27.9131)" fill="#007438" fill-opacity="0.3"/>
<ellipse cx="1.83913" cy="2.67229" rx="1.83913" ry="2.67229" transform="matrix(-0.481822 0.876269 0.876269 0.481822 321.119 36.2217)" fill="#007438" fill-opacity="0.3"/>
<ellipse cx="1.83913" cy="3.62319" rx="1.83913" ry="3.62319" transform="matrix(-0.481822 0.876269 0.876269 0.481822 335.03 42.5752)" fill="#007438" fill-opacity="0.3"/>
<ellipse cx="1.27606" cy="3.08597" rx="1.27606" ry="3.08597" transform="matrix(-0.481822 0.876269 0.876269 0.481822 341.345 50.3105)" fill="#007438" fill-opacity="0.3"/>
<ellipse cx="1.27606" cy="3.08597" rx="1.27606" ry="3.08597" transform="matrix(-0.481822 0.876269 0.876269 0.481822 338.231 53.4263)" fill="#007438" fill-opacity="0.3"/>
<ellipse cx="1.27606" cy="3.08597" rx="1.27606" ry="3.08597" transform="matrix(-0.481822 0.876269 0.876269 0.481822 330.961 48.2334)" fill="#007438" fill-opacity="0.3"/>
<ellipse cx="1.27606" cy="3.08597" rx="1.27606" ry="3.08597" transform="matrix(-0.481822 0.876269 0.876269 0.481822 324.731 42.002)" fill="#007438" fill-opacity="0.3"/>
<ellipse cx="1.27606" cy="3.08597" rx="1.27606" ry="3.08597" transform="matrix(-0.481822 0.876269 0.876269 0.481822 316.422 40.9639)" fill="#007438" fill-opacity="0.3"/>
<ellipse cx="1.27606" cy="3.08597" rx="1.27606" ry="3.08597" transform="matrix(-0.481822 0.876269 0.876269 0.481822 309.152 35.771)" fill="#007438" fill-opacity="0.3"/>
<ellipse cx="1.27606" cy="3.08597" rx="1.27606" ry="3.08597" transform="matrix(-0.481822 0.876269 0.876269 0.481822 300.844 33.6938)" fill="#007438" fill-opacity="0.3"/>
<ellipse cx="1.27606" cy="3.08597" rx="1.27606" ry="3.08597" transform="matrix(-0.481822 0.876269 0.876269 0.481822 294.612 28.501)" fill="#007438" fill-opacity="0.3"/>
<ellipse cx="1.27606" cy="3.08597" rx="1.27606" ry="3.08597" transform="matrix(-0.481822 0.876269 0.876269 0.481822 294.612 28.501)" fill="#007438" fill-opacity="0.3"/>
<ellipse cx="1.27606" cy="3.08597" rx="1.27606" ry="3.08597" transform="matrix(-0.481822 0.876269 0.876269 0.481822 279.034 21.2314)" fill="#007438" fill-opacity="0.3"/>
<ellipse cx="1.27606" cy="3.08597" rx="1.27606" ry="3.08597" transform="matrix(-0.481822 0.876269 0.876269 0.481822 285.266 26.4243)" fill="#007438" fill-opacity="0.3"/>
<ellipse cx="1.33081" cy="3.08597" rx="1.33081" ry="3.08597" transform="matrix(-0.481822 0.876269 0.876269 0.481822 292.562 31.5684)" fill="#007438" fill-opacity="0.3"/>
<ellipse cx="1.33081" cy="3.08597" rx="1.33081" ry="3.08597" transform="matrix(-0.481822 0.876269 0.876269 0.481822 298.819 36.7139)" fill="#007438" fill-opacity="0.3"/>
<ellipse cx="1.33081" cy="3.08597" rx="1.33081" ry="3.08597" transform="matrix(-0.481822 0.876269 0.876269 0.481822 308.166 40.8682)" fill="#007438" fill-opacity="0.3"/>
<ellipse cx="1.33081" cy="3.08597" rx="1.33081" ry="3.08597" transform="matrix(-0.481822 0.876269 0.876269 0.481822 344.516 59.562)" fill="#007438" fill-opacity="0.3"/>
<ellipse cx="1.33081" cy="3.08597" rx="1.33081" ry="3.08597" transform="matrix(-0.481822 0.876269 0.876269 0.481822 351.786 64.7544)" fill="#007438" fill-opacity="0.3"/>
<ellipse cx="1.33081" cy="3.08597" rx="1.33081" ry="3.08597" transform="matrix(-0.481822 0.876269 0.876269 0.481822 358.017 69.9473)" fill="#007438" fill-opacity="0.3"/>
<ellipse cx="0.721932" cy="2.35219" rx="0.721932" ry="2.35219" transform="matrix(-0.481822 0.876269 0.876269 0.481822 348.083 67.5669)" fill="#007438" fill-opacity="0.3"/>
<ellipse cx="0.721932" cy="2.35219" rx="0.721932" ry="2.35219" transform="matrix(-0.481822 0.876269 0.876269 0.481822 339.775 62.3745)" fill="#007438" fill-opacity="0.3"/>
<ellipse cx="0.721932" cy="2.35219" rx="0.721932" ry="2.35219" transform="matrix(-0.481822 0.876269 0.876269 0.481822 334.582 57.1816)" fill="#007438" fill-opacity="0.3"/>
<ellipse cx="0.721932" cy="2.35219" rx="0.721932" ry="2.35219" transform="matrix(-0.481822 0.876269 0.876269 0.481822 329.389 59.2588)" fill="#007438" fill-opacity="0.3"/>
<ellipse cx="0.721932" cy="2.35219" rx="0.721932" ry="2.35219" transform="matrix(-0.481822 0.876269 0.876269 0.481822 335.621 64.4517)" fill="#007438" fill-opacity="0.3"/>
<ellipse cx="0.721932" cy="2.35219" rx="0.721932" ry="2.35219" transform="matrix(-0.481822 0.876269 0.876269 0.481822 343.929 69.644)" fill="#007438" fill-opacity="0.3"/>
<ellipse cx="1.33081" cy="3.08597" rx="1.33081" ry="3.08597" transform="matrix(-0.481822 0.876269 0.876269 0.481822 326.86 51.2534)" fill="#007438" fill-opacity="0.3"/>
<ellipse cx="1.33081" cy="3.08597" rx="1.33081" ry="3.08597" transform="matrix(-0.481822 0.876269 0.876269 0.481822 321.667 46.0605)" fill="#007438" fill-opacity="0.3"/>
<ellipse cx="1.33081" cy="3.08597" rx="1.33081" ry="3.08597" transform="matrix(-0.481822 0.876269 0.876269 0.481822 314.397 43.9834)" fill="#007438" fill-opacity="0.3"/>
<ellipse cx="1.27606" cy="3.08597" rx="1.27606" ry="3.08597" transform="matrix(-0.481822 0.876269 0.876269 0.481822 272.803 13.9619)" fill="#007438" fill-opacity="0.3"/>
<ellipse cx="1.27606" cy="3.08597" rx="1.27606" ry="3.08597" transform="matrix(-0.481822 0.876269 0.876269 0.481822 263.456 12.9233)" fill="#007438" fill-opacity="0.3"/>
<ellipse cx="1.27606" cy="3.08597" rx="1.27606" ry="3.08597" transform="matrix(-0.481822 0.876269 0.876269 0.481822 270.726 19.1543)" fill="#007438" fill-opacity="0.3"/>
<ellipse cx="1.27606" cy="3.08597" rx="1.27606" ry="3.08597" transform="matrix(-0.481822 0.876269 0.876269 0.481822 261.378 17.0771)" fill="#007438" fill-opacity="0.3"/>
<ellipse cx="1.27606" cy="3.08597" rx="1.27606" ry="3.08597" transform="matrix(-0.481822 0.876269 0.876269 0.481822 255.147 9.80713)" fill="#007438" fill-opacity="0.3"/>
<ellipse cx="1.27606" cy="3.08597" rx="1.27606" ry="3.08597" transform="matrix(-0.481822 0.876269 0.876269 0.481822 247.877 7.72998)" fill="#007438" fill-opacity="0.3"/>
<ellipse cx="0.97642" cy="3.33028" rx="0.97642" ry="3.33028" transform="matrix(-0.481822 0.876269 0.876269 0.481822 347.149 56.3062)" fill="#007438" fill-opacity="0.3"/>
<ellipse cx="0.97642" cy="2.98938" rx="0.97642" ry="2.98938" transform="matrix(-0.481822 0.876269 0.876269 0.481822 353.761 62.1562)" fill="#007438" fill-opacity="0.3"/>
<ellipse cx="0.97642" cy="2.98938" rx="0.97642" ry="2.98938" transform="matrix(-0.481822 0.876269 0.876269 0.481822 355.598 95.5869)" fill="#007438" fill-opacity="0.3"/>
<ellipse cx="0.97642" cy="2.98938" rx="0.97642" ry="2.98938" transform="matrix(-0.481822 0.876269 0.876269 0.481822 350.405 87.2783)" fill="#007438" fill-opacity="0.3"/>
<ellipse cx="0.97642" cy="2.98938" rx="0.97642" ry="2.98938" transform="matrix(-0.481822 0.876269 0.876269 0.481822 354.559 83.1245)" fill="#007438" fill-opacity="0.3"/>
<ellipse cx="0.97642" cy="2.98938" rx="0.97642" ry="2.98938" transform="matrix(-0.481822 0.876269 0.876269 0.481822 358.713 78.9697)" fill="#007438" fill-opacity="0.3"/>
<ellipse cx="0.97642" cy="2.98938" rx="0.97642" ry="2.98938" transform="matrix(-0.481822 0.876269 0.876269 0.481822 359.752 90.394)" fill="#007438" fill-opacity="0.3"/>
<ellipse cx="0.97642" cy="2.98938" rx="0.97642" ry="2.98938" transform="matrix(-0.481822 0.876269 0.876269 0.481822 349.366 75.854)" fill="#007438" fill-opacity="0.3"/>
<ellipse cx="0.97642" cy="2.98938" rx="0.97642" ry="2.98938" transform="matrix(-0.481822 0.876269 0.876269 0.481822 351.443 72.7383)" fill="#007438" fill-opacity="0.3"/>
<ellipse cx="0.97642" cy="2.98938" rx="0.97642" ry="2.98938" transform="matrix(-0.481822 0.876269 0.876269 0.481822 345.213 77.9316)" fill="#007438" fill-opacity="0.3"/>
<ellipse cx="0.97642" cy="2.98938" rx="0.97642" ry="2.98938" transform="matrix(-0.481822 0.876269 0.876269 0.481822 340.019 71.6997)" fill="#007438" fill-opacity="0.3"/>
<ellipse cx="0.97642" cy="2.98938" rx="0.97642" ry="2.98938" transform="matrix(-0.481822 0.876269 0.876269 0.481822 331.71 66.5073)" fill="#007438" fill-opacity="0.3"/>
<ellipse cx="0.97642" cy="2.98938" rx="0.97642" ry="2.98938" transform="matrix(-0.481822 0.876269 0.876269 0.481822 328.595 70.6611)" fill="#007438" fill-opacity="0.3"/>
<ellipse cx="0.97642" cy="2.98938" rx="0.97642" ry="2.98938" transform="matrix(-0.481822 0.876269 0.876269 0.481822 323.402 63.3916)" fill="#007438" fill-opacity="0.3"/>
<ellipse cx="0.97642" cy="2.98938" rx="0.97642" ry="2.98938" transform="matrix(-0.481822 0.876269 0.876269 0.481822 324.442 60.2759)" fill="#007438" fill-opacity="0.3"/>
<ellipse cx="0.97642" cy="2.98938" rx="0.97642" ry="2.98938" transform="matrix(-0.481822 0.876269 0.876269 0.481822 320.288 54.0444)" fill="#007438" fill-opacity="0.3"/>
<ellipse cx="0.97642" cy="2.98938" rx="0.97642" ry="2.98938" transform="matrix(-0.481822 0.876269 0.876269 0.481822 317.172 57.1602)" fill="#007438" fill-opacity="0.3"/>
<ellipse cx="0.97642" cy="2.98938" rx="0.97642" ry="2.98938" transform="matrix(-0.481822 0.876269 0.876269 0.481822 315.095 60.2759)" fill="#007438" fill-opacity="0.3"/>
<ellipse cx="0.97642" cy="2.98938" rx="0.97642" ry="2.98938" transform="matrix(-0.481822 0.876269 0.876269 0.481822 311.979 65.4688)" fill="#007438" fill-opacity="0.3"/>
<ellipse cx="0.97642" cy="2.98938" rx="0.97642" ry="2.98938" transform="matrix(-0.481822 0.876269 0.876269 0.481822 305.748 58.1987)" fill="#007438" fill-opacity="0.3"/>
<ellipse cx="0.97642" cy="2.98938" rx="0.97642" ry="2.98938" transform="matrix(-0.481822 0.876269 0.876269 0.481822 308.864 53.0059)" fill="#007438" fill-opacity="0.3"/>
<ellipse cx="0.97642" cy="2.98938" rx="0.97642" ry="2.98938" transform="matrix(-0.481822 0.876269 0.876269 0.481822 310.941 48.8521)" fill="#007438" fill-opacity="0.3"/>
<ellipse cx="0.97642" cy="2.98938" rx="0.97642" ry="2.98938" transform="matrix(-0.481822 0.876269 0.876269 0.481822 303.671 45.7363)" fill="#007438" fill-opacity="0.3"/>
<ellipse cx="0.97642" cy="2.98938" rx="0.97642" ry="2.98938" transform="matrix(-0.481822 0.876269 0.876269 0.481822 301.594 49.8901)" fill="#007438" fill-opacity="0.3"/>
<ellipse cx="0.97642" cy="2.98938" rx="0.97642" ry="2.98938" transform="matrix(-0.481822 0.876269 0.876269 0.481822 292.247 48.8521)" fill="#007438" fill-opacity="0.3"/>
<ellipse cx="0.97642" cy="2.98938" rx="0.97642" ry="2.98938" transform="matrix(-0.481822 0.876269 0.876269 0.481822 295.362 43.6592)" fill="#007438" fill-opacity="0.3"/>
<ellipse cx="0.97642" cy="2.98938" rx="0.97642" ry="2.98938" transform="matrix(-0.481822 0.876269 0.876269 0.481822 289.131 37.4277)" fill="#007438" fill-opacity="0.3"/>
<ellipse cx="0.97642" cy="2.98938" rx="0.97642" ry="2.98938" transform="matrix(-0.481822 0.876269 0.876269 0.481822 287.054 40.5435)" fill="#007438" fill-opacity="0.3"/>
<ellipse cx="0.97642" cy="2.98938" rx="0.97642" ry="2.98938" transform="matrix(-0.481822 0.876269 0.876269 0.481822 280.822 35.3506)" fill="#007438" fill-opacity="0.3"/>
<ellipse cx="0.97642" cy="2.98938" rx="0.97642" ry="2.98938" transform="matrix(-0.481822 0.876269 0.876269 0.481822 277.707 30.1582)" fill="#007438" fill-opacity="0.3"/>
<ellipse cx="0.97642" cy="2.98938" rx="0.97642" ry="2.98938" transform="matrix(-0.481822 0.876269 0.876269 0.481822 269.398 26.0039)" fill="#007438" fill-opacity="0.3"/>
<ellipse cx="0.97642" cy="2.98938" rx="0.97642" ry="2.98938" transform="matrix(-0.481822 0.876269 0.876269 0.481822 259.013 22.8877)" fill="#007438" fill-opacity="0.3"/>
<ellipse cx="0.97642" cy="2.98938" rx="0.97642" ry="2.98938" transform="matrix(-0.481822 0.876269 0.876269 0.481822 252.781 13.541)" fill="#007438" fill-opacity="0.3"/>
<ellipse cx="0.97642" cy="2.98938" rx="0.97642" ry="2.98938" transform="matrix(-0.481822 0.876269 0.876269 0.481822 251.743 17.6953)" fill="#007438" fill-opacity="0.3"/>
<ellipse cx="0.97642" cy="2.98938" rx="0.97642" ry="2.98938" transform="matrix(-0.481822 0.876269 0.876269 0.481822 245.511 10.4253)" fill="#007438" fill-opacity="0.3"/>
<ellipse cx="0.97642" cy="2.98938" rx="0.97642" ry="2.98938" transform="matrix(-0.481822 0.876269 0.876269 0.481822 239.28 4.19385)" fill="#007438" fill-opacity="0.3"/>
<ellipse cx="0.97642" cy="2.98938" rx="0.97642" ry="2.98938" transform="matrix(-0.481822 0.876269 0.876269 0.481822 236.164 9.38721)" fill="#007438" fill-opacity="0.3"/>
<ellipse cx="0.97642" cy="2.98938" rx="0.97642" ry="2.98938" transform="matrix(-0.481822 0.876269 0.876269 0.481822 229.933 3.15576)" fill="#007438" fill-opacity="0.3"/>
<ellipse cx="0.97642" cy="2.98938" rx="0.97642" ry="2.98938" transform="matrix(-0.481822 0.876269 0.876269 0.481822 229.933 0.0400391)" fill="#007438" fill-opacity="0.3"/>
<ellipse cx="0.779815" cy="2.98938" rx="0.779815" ry="2.98938" transform="matrix(-0.481822 0.876269 0.876269 0.481822 222.474 -1.69287)" fill="#007438" fill-opacity="0.3"/>
<ellipse cx="0.779815" cy="2.98938" rx="0.779815" ry="2.98938" transform="matrix(-0.481822 0.876269 0.876269 0.481822 226.628 5.57666)" fill="#007438" fill-opacity="0.3"/>
<ellipse cx="0.97642" cy="2.98938" rx="0.97642" ry="2.98938" transform="matrix(-0.481822 0.876269 0.876269 0.481822 242.396 15.6182)" fill="#007438" fill-opacity="0.3"/>
<ellipse cx="0.97642" cy="2.98938" rx="0.97642" ry="2.98938" transform="matrix(-0.481822 0.876269 0.876269 0.481822 359.752 67.5454)" fill="#007438" fill-opacity="0.3"/>
<ellipse cx="2.49538" cy="3.63493" rx="2.49538" ry="3.63493" transform="matrix(-0.251198 0.967936 0.967936 0.251198 287.366 20.8232)" fill="#007438" fill-opacity="0.3"/>
<ellipse cx="2.49538" cy="3.63493" rx="2.49538" ry="3.63493" transform="matrix(-0.251198 0.967936 0.967936 0.251198 281.135 13.5532)" fill="#007438" fill-opacity="0.3"/>
<ellipse cx="2.49538" cy="3.63493" rx="2.49538" ry="3.63493" transform="matrix(-0.251198 0.967936 0.967936 0.251198 276.98 5.24463)" fill="#007438" fill-opacity="0.3"/>
<ellipse cx="2.49538" cy="3.63493" rx="2.49538" ry="3.63493" transform="matrix(-0.251198 0.967936 0.967936 0.251198 266.595 5.24463)" fill="#007438" fill-opacity="0.3"/>
<ellipse cx="1.89022" cy="3.05247" rx="1.89022" ry="3.05247" transform="matrix(-0.251198 0.967936 0.967936 0.251198 258.072 4.63184)" fill="#007438" fill-opacity="0.3"/>
<ellipse cx="1.89022" cy="3.05247" rx="1.89022" ry="3.05247" transform="matrix(-0.404541 0.91452 0.91452 0.404541 254.281 -5.08252)" fill="#007438" fill-opacity="0.3"/>
<ellipse cx="1.42628" cy="3.05247" rx="1.42628" ry="3.05247" transform="matrix(-0.404541 0.91452 0.91452 0.404541 249.879 3.70752)" fill="#007438" fill-opacity="0.3"/>
<ellipse cx="1.42628" cy="3.05247" rx="1.42628" ry="3.05247" transform="matrix(-0.404541 0.91452 0.91452 0.404541 240.531 0.591797)" fill="#007438" fill-opacity="0.3"/>
<ellipse cx="1.42628" cy="3.05247" rx="1.42628" ry="3.05247" transform="matrix(-0.404541 0.91452 0.91452 0.404541 232.223 -3.5625)" fill="#007438" fill-opacity="0.3"/>
<ellipse cx="1.55783" cy="3.63493" rx="1.55783" ry="3.63493" transform="matrix(-0.251198 0.967936 0.967936 0.251198 344.015 45.4863)" fill="#007438" fill-opacity="0.3"/>
<ellipse cx="1.55783" cy="3.63493" rx="1.55783" ry="3.63493" transform="matrix(-0.251198 0.967936 0.967936 0.251198 351.285 52.7559)" fill="#007438" fill-opacity="0.3"/>
<ellipse cx="1.55783" cy="3.63493" rx="1.55783" ry="3.63493" transform="matrix(-0.251198 0.967936 0.967936 0.251198 356.478 58.9873)" fill="#007438" fill-opacity="0.3"/>
<circle cx="358.811" cy="143.797" r="2.07711" transform="rotate(-90 358.811 143.797)" fill="#007438" fill-opacity="0.3"/>
<circle cx="352.58" cy="151.067" r="2.07711" transform="rotate(-90 352.58 151.067)" fill="#007438" fill-opacity="0.3"/>
<circle cx="351.541" cy="140.682" r="2.07711" transform="rotate(-90 351.541 140.682)" fill="#007438" fill-opacity="0.3"/>
<circle cx="355.696" cy="134.45" r="2.07711" transform="rotate(-90 355.696 134.45)" fill="#007438" fill-opacity="0.3"/>
<circle cx="359.85" cy="127.181" r="2.07711" transform="rotate(-90 359.85 127.181)" fill="#007438" fill-opacity="0.3"/>
<circle cx="356.734" cy="114.718" r="2.07711" transform="rotate(-90 356.734 114.718)" fill="#007438" fill-opacity="0.3"/>
<circle cx="359.85" cy="119.911" r="2.07711" transform="rotate(-90 359.85 119.911)" fill="#007438" fill-opacity="0.3"/>
<circle cx="359.85" cy="105.372" r="2.07711" transform="rotate(-90 359.85 105.372)" fill="#007438" fill-opacity="0.3"/>
<circle cx="352.58" cy="104.333" r="2.07711" transform="rotate(-90 352.58 104.333)" fill="#007438" fill-opacity="0.3"/>
<circle cx="348.426" cy="94.9859" r="2.07711" transform="rotate(-90 348.426 94.9859)" fill="#007438" fill-opacity="0.3"/>
<circle cx="340.117" cy="91.8702" r="2.07711" transform="rotate(-90 340.117 91.8702)" fill="#007438" fill-opacity="0.3"/>
<circle cx="344.271" cy="85.6387" r="2.07711" transform="rotate(-90 344.271 85.6387)" fill="#007438" fill-opacity="0.3"/>
<circle cx="337.001" cy="82.523" r="2.07711" transform="rotate(-90 337.001 82.523)" fill="#007438" fill-opacity="0.3"/>
<circle cx="339.079" cy="78.3687" r="2.07711" transform="rotate(-90 339.079 78.3687)" fill="#007438" fill-opacity="0.3"/>
<circle cx="352.58" cy="123.027" r="2.07711" transform="rotate(-90 352.58 123.027)" fill="#007438" fill-opacity="0.3"/>
<circle cx="348.426" cy="112.641" r="2.07711" transform="rotate(-90 348.426 112.641)" fill="#007438" fill-opacity="0.3"/>
<circle cx="343.233" cy="120.95" r="2.07711" transform="rotate(-90 343.233 120.95)" fill="#007438" fill-opacity="0.3"/>
<circle cx="347.387" cy="128.22" r="2.07711" transform="rotate(-90 347.387 128.22)" fill="#007438" fill-opacity="0.3"/>
<circle cx="345.31" cy="133.413" r="2.07711" transform="rotate(-90 345.31 133.413)" fill="#007438" fill-opacity="0.3"/>
<circle cx="339.079" cy="140.682" r="2.07711" transform="rotate(-90 339.079 140.682)" fill="#007438" fill-opacity="0.3"/>
<circle cx="330.77" cy="139.644" r="2.07711" transform="rotate(-90 330.77 139.644)" fill="#007438" fill-opacity="0.3"/>
<circle cx="340.117" cy="126.143" r="2.07711" transform="rotate(-90 340.117 126.143)" fill="#007438" fill-opacity="0.3"/>
<circle cx="325.577" cy="129.258" r="2.07711" transform="rotate(-90 325.577 129.258)" fill="#007438" fill-opacity="0.3"/>
<circle cx="321.423" cy="134.451" r="2.07711" transform="rotate(-90 321.423 134.451)" fill="#007438" fill-opacity="0.3"/>
<circle cx="324.539" cy="147.952" r="2.07711" transform="rotate(-90 324.539 147.952)" fill="#007438" fill-opacity="0.3"/>
<circle cx="335.963" cy="148.99" r="2.07711" transform="rotate(-90 335.963 148.99)" fill="#007438" fill-opacity="0.3"/>
<circle cx="343.233" cy="152.106" r="2.07711" transform="rotate(-90 343.233 152.106)" fill="#007438" fill-opacity="0.3"/>
<circle cx="347.387" cy="144.836" r="2.07711" transform="rotate(-90 347.387 144.836)" fill="#007438" fill-opacity="0.3"/>
<circle cx="339.079" cy="111.603" r="2.07711" transform="rotate(-90 339.079 111.603)" fill="#007438" fill-opacity="0.3"/>
<circle cx="343.233" cy="103.294" r="2.07711" transform="rotate(-90 343.233 103.294)" fill="#007438" fill-opacity="0.3"/>
<circle cx="334.924" cy="100.178" r="2.07711" transform="rotate(-90 334.924 100.178)" fill="#007438" fill-opacity="0.3"/>
<circle cx="330.77" cy="90.8316" r="2.07711" transform="rotate(-90 330.77 90.8316)" fill="#007438" fill-opacity="0.3"/>
<circle cx="326.616" cy="79.4073" r="2.07711" transform="rotate(-90 326.616 79.4073)" fill="#007438" fill-opacity="0.3"/>
<circle cx="322.461" cy="71.0992" r="2.07711" transform="rotate(-90 322.461 71.0992)" fill="#007438" fill-opacity="0.3"/>
<circle cx="318.307" cy="77.3301" r="2.07711" transform="rotate(-90 318.307 77.3301)" fill="#007438" fill-opacity="0.3"/>
<circle cx="322.461" cy="89.793" r="2.07711" transform="rotate(-90 322.461 89.793)" fill="#007438" fill-opacity="0.3"/>
<circle cx="325.577" cy="98.1011" r="2.07711" transform="rotate(-90 325.577 98.1011)" fill="#007438" fill-opacity="0.3"/>
<circle cx="329.731" cy="108.487" r="2.07711" transform="rotate(-90 329.731 108.487)" fill="#007438" fill-opacity="0.3"/>
<circle cx="321.423" cy="106.41" r="2.07711" transform="rotate(-90 321.423 106.41)" fill="#007438" fill-opacity="0.3"/>
<circle cx="317.269" cy="97.063" r="2.07711" transform="rotate(-90 317.269 97.063)" fill="#007438" fill-opacity="0.3"/>
<circle cx="313.115" cy="88.7544" r="2.07711" transform="rotate(-90 313.115 88.7544)" fill="#007438" fill-opacity="0.3"/>
<circle cx="306.883" cy="78.3687" r="2.07711" transform="rotate(-90 306.883 78.3687)" fill="#007438" fill-opacity="0.3"/>
<circle cx="302.729" cy="66.9449" r="2.07711" transform="rotate(-90 302.729 66.9449)" fill="#007438" fill-opacity="0.3"/>
<circle cx="298.575" cy="58.6363" r="2.07711" transform="rotate(-90 298.575 58.6363)" fill="#007438" fill-opacity="0.3"/>
<circle cx="293.382" cy="67.9834" r="2.07711" transform="rotate(-90 293.382 67.9834)" fill="#007438" fill-opacity="0.3"/>
<circle cx="289.228" cy="58.6363" r="2.07711" transform="rotate(-90 289.228 58.6363)" fill="#007438" fill-opacity="0.3"/>
<circle cx="284.036" cy="49.2896" r="2.07711" transform="rotate(-90 284.036 49.2896)" fill="#007438" fill-opacity="0.3"/>
<circle cx="277.804" cy="42.0196" r="2.07711" transform="rotate(-90 277.804 42.0196)" fill="#007438" fill-opacity="0.3"/>
<circle cx="273.649" cy="35.7881" r="2.07711" transform="rotate(-90 273.649 35.7881)" fill="#007438" fill-opacity="0.3"/>
<circle cx="263.265" cy="32.6724" r="2.07711" transform="rotate(-90 263.265 32.6724)" fill="#007438" fill-opacity="0.3"/>
<circle cx="268.457" cy="42.0196" r="2.07711" transform="rotate(-90 268.457 42.0196)" fill="#007438" fill-opacity="0.3"/>
<circle cx="273.649" cy="49.2896" r="2.07711" transform="rotate(-90 273.649 49.2896)" fill="#007438" fill-opacity="0.3"/>
<circle cx="278.843" cy="58.6363" r="2.07711" transform="rotate(-90 278.843 58.6363)" fill="#007438" fill-opacity="0.3"/>
<circle cx="284.036" cy="66.9449" r="2.07711" transform="rotate(-90 284.036 66.9449)" fill="#007438" fill-opacity="0.3"/>
<circle cx="288.19" cy="76.2915" r="2.07711" transform="rotate(-90 288.19 76.2915)" fill="#007438" fill-opacity="0.3"/>
<circle cx="293.382" cy="83.5616" r="2.07711" transform="rotate(-90 293.382 83.5616)" fill="#007438" fill-opacity="0.3"/>
<circle cx="298.575" cy="92.9087" r="2.07711" transform="rotate(-90 298.575 92.9087)" fill="#007438" fill-opacity="0.3"/>
<circle cx="289.228" cy="91.8702" r="2.07711" transform="rotate(-90 289.228 91.8702)" fill="#007438" fill-opacity="0.3"/>
<circle cx="282.998" cy="83.5616" r="2.07711" transform="rotate(-90 282.998 83.5616)" fill="#007438" fill-opacity="0.3"/>
<circle cx="277.804" cy="76.2915" r="2.07711" transform="rotate(-90 277.804 76.2915)" fill="#007438" fill-opacity="0.3"/>
<circle cx="273.649" cy="67.9834" r="2.07711" transform="rotate(-90 273.649 67.9834)" fill="#007438" fill-opacity="0.3"/>
<circle cx="268.457" cy="58.6363" r="2.07711" transform="rotate(-90 268.457 58.6363)" fill="#007438" fill-opacity="0.3"/>
<circle cx="264.302" cy="51.3667" r="2.07711" transform="rotate(-90 264.302 51.3667)" fill="#007438" fill-opacity="0.3"/>
<circle cx="259.111" cy="42.0196" r="2.07711" transform="rotate(-90 259.111 42.0196)" fill="#007438" fill-opacity="0.3"/>
<circle cx="253.918" cy="32.6724" r="2.07711" transform="rotate(-90 253.918 32.6724)" fill="#007438" fill-opacity="0.3"/>
<circle cx="248.725" cy="25.4029" r="2.07711" transform="rotate(-90 248.725 25.4029)" fill="#007438" fill-opacity="0.3"/>
<circle cx="1.55783" cy="1.55783" r="1.55783" transform="matrix(0 1 1 0 243.532 31.6338)" fill="#007438" fill-opacity="0.3"/>
<circle cx="1.55783" cy="1.55783" r="1.55783" transform="matrix(0 1 1 0 239.378 22.2866)" fill="#007438" fill-opacity="0.3"/>
<circle cx="1.55783" cy="1.55783" r="1.55783" transform="matrix(0 1 1 0 233.147 13.9785)" fill="#007438" fill-opacity="0.3"/>
<circle cx="1.55783" cy="1.55783" r="1.55783" transform="matrix(0 1 1 0 228.992 21.2485)" fill="#007438" fill-opacity="0.3"/>
<circle cx="1.55783" cy="1.55783" r="1.55783" transform="matrix(0 1 1 0 223.8 11.9014)" fill="#007438" fill-opacity="0.3"/>
<circle cx="1.55783" cy="1.55783" r="1.55783" transform="matrix(0 1 1 0 218.607 2.55469)" fill="#007438" fill-opacity="0.3"/>
<circle cx="1.55783" cy="1.55783" r="1.55783" transform="matrix(0 1 1 0 200.951 -1.59961)" fill="#007438" fill-opacity="0.3"/>
<circle cx="1.55783" cy="1.55783" r="1.55783" transform="matrix(0 1 1 0 195.759 7.74707)" fill="#007438" fill-opacity="0.3"/>
<circle cx="1.55783" cy="1.55783" r="1.55783" transform="matrix(0 1 1 0 187.45 3.59326)" fill="#007438" fill-opacity="0.3"/>
<circle cx="1.55783" cy="1.55783" r="1.55783" transform="matrix(0 1 1 0 184.334 8.78564)" fill="#007438" fill-opacity="0.3"/>
<circle cx="1.55783" cy="1.55783" r="1.55783" transform="matrix(0 1 1 0 181.219 11.9014)" fill="#007438" fill-opacity="0.3"/>
<circle cx="1.55783" cy="1.55783" r="1.55783" transform="matrix(0 1 1 0 178.103 17.0942)" fill="#007438" fill-opacity="0.3"/>
<circle cx="1.55783" cy="1.55783" r="1.55783" transform="matrix(0 1 1 0 171.872 27.48)" fill="#007438" fill-opacity="0.3"/>
<circle cx="1.55783" cy="1.55783" r="1.55783" transform="matrix(0 1 1 0 173.949 39.9424)" fill="#007438" fill-opacity="0.3"/>
<circle cx="1.55783" cy="1.55783" r="1.55783" transform="matrix(0 1 1 0 168.756 13.9785)" fill="#007438" fill-opacity="0.3"/>
<circle cx="1.55783" cy="1.55783" r="1.55783" transform="matrix(0 1 1 0 171.872 7.74707)" fill="#007438" fill-opacity="0.3"/>
<circle cx="1.55783" cy="1.55783" r="1.55783" transform="matrix(0 1 1 0 174.987 3.59326)" fill="#007438" fill-opacity="0.3"/>
<circle cx="1.55783" cy="1.55783" r="1.55783" transform="matrix(0 1 1 0 179.142 -0.561035)" fill="#007438" fill-opacity="0.3"/>
<circle cx="1.55783" cy="1.55783" r="1.55783" transform="matrix(0 1 1 0 165.64 1.51611)" fill="#007438" fill-opacity="0.3"/>
<circle cx="1.55783" cy="1.55783" r="1.55783" transform="matrix(0 1 1 0 155.255 0.477539)" fill="#007438" fill-opacity="0.3"/>
<circle cx="1.55783" cy="1.55783" r="1.55783" transform="matrix(0 1 1 0 182.257 27.48)" fill="#007438" fill-opacity="0.3"/>
<circle cx="1.55783" cy="1.55783" r="1.55783" transform="matrix(0 1 1 0 186.411 21.2485)" fill="#007438" fill-opacity="0.3"/>
<circle cx="1.55783" cy="1.55783" r="1.55783" transform="matrix(0 1 1 0 193.681 12.9399)" fill="#007438" fill-opacity="0.3"/>
<circle cx="1.55783" cy="1.55783" r="1.55783" transform="matrix(0 1 1 0 197.835 20.21)" fill="#007438" fill-opacity="0.3"/>
<circle cx="1.55783" cy="1.55783" r="1.55783" transform="matrix(0 1 1 0 205.105 24.3643)" fill="#007438" fill-opacity="0.3"/>
<circle cx="1.55783" cy="1.55783" r="1.55783" transform="matrix(0 1 1 0 201.99 29.5571)" fill="#007438" fill-opacity="0.3"/>
<circle cx="1.55783" cy="1.55783" r="1.55783" transform="matrix(0 1 1 0 207.183 36.8267)" fill="#007438" fill-opacity="0.3"/>
<circle cx="1.55783" cy="1.55783" r="1.55783" transform="matrix(0 1 1 0 211.337 32.6724)" fill="#007438" fill-opacity="0.3"/>
<circle cx="1.55783" cy="1.55783" r="1.55783" transform="matrix(0 1 1 0 215.491 42.02)" fill="#007438" fill-opacity="0.3"/>
<circle cx="1.55783" cy="1.55783" r="1.55783" transform="matrix(0 1 1 0 212.375 47.2124)" fill="#007438" fill-opacity="0.3"/>
<circle cx="1.55783" cy="1.55783" r="1.55783" transform="matrix(0 1 1 0 203.028 44.0967)" fill="#007438" fill-opacity="0.3"/>
<circle cx="1.55783" cy="1.55783" r="1.55783" transform="matrix(0 1 1 0 207.183 52.4053)" fill="#007438" fill-opacity="0.3"/>
<circle cx="1.55783" cy="1.55783" r="1.55783" transform="matrix(0 1 1 0 201.99 62.7905)" fill="#007438" fill-opacity="0.3"/>
<circle cx="1.55783" cy="1.55783" r="1.55783" transform="matrix(0 1 1 0 197.835 51.3667)" fill="#007438" fill-opacity="0.3"/>
<circle cx="1.55783" cy="1.55783" r="1.55783" transform="matrix(0 1 1 0 194.72 40.981)" fill="#007438" fill-opacity="0.3"/>
<circle cx="1.55783" cy="1.55783" r="1.55783" transform="matrix(0 1 1 0 198.874 33.7114)" fill="#007438" fill-opacity="0.3"/>
<circle cx="1.55783" cy="1.55783" r="1.55783" transform="matrix(0 1 1 0 194.72 24.3643)" fill="#007438" fill-opacity="0.3"/>
<circle cx="1.55783" cy="1.55783" r="1.55783" transform="matrix(0 1 1 0 190.566 31.6338)" fill="#007438" fill-opacity="0.3"/>
<circle cx="1.55783" cy="1.55783" r="1.55783" transform="matrix(0 1 1 0 184.334 39.9424)" fill="#007438" fill-opacity="0.3"/>
<circle cx="1.55783" cy="1.55783" r="1.55783" transform="matrix(0 1 1 0 188.489 51.3667)" fill="#007438" fill-opacity="0.3"/>
<circle cx="1.55783" cy="1.55783" r="1.55783" transform="matrix(0 1 1 0 178.103 52.4053)" fill="#007438" fill-opacity="0.3"/>
<circle cx="1.55783" cy="1.55783" r="1.55783" transform="matrix(0 1 1 0 182.257 63.8291)" fill="#007438" fill-opacity="0.3"/>
<circle cx="1.55783" cy="1.55783" r="1.55783" transform="matrix(0 1 1 0 192.643 61.752)" fill="#007438" fill-opacity="0.3"/>
<circle cx="1.55783" cy="1.55783" r="1.55783" transform="matrix(0 1 1 0 196.797 71.0991)" fill="#007438" fill-opacity="0.3"/>
<circle cx="1.55783" cy="1.55783" r="1.55783" transform="matrix(0 1 1 0 211.337 62.7905)" fill="#007438" fill-opacity="0.3"/>
<circle cx="1.55783" cy="1.55783" r="1.55783" transform="matrix(0 1 1 0 217.568 56.5596)" fill="#007438" fill-opacity="0.3"/>
<circle cx="1.55783" cy="1.55783" r="1.55783" transform="matrix(0 1 1 0 219.645 51.3667)" fill="#007438" fill-opacity="0.3"/>
<circle cx="1.55783" cy="1.55783" r="1.55783" transform="matrix(0 1 1 0 224.838 58.6367)" fill="#007438" fill-opacity="0.3"/>
<circle cx="1.55783" cy="1.55783" r="1.55783" transform="matrix(0 1 1 0 221.722 64.8677)" fill="#007438" fill-opacity="0.3"/>
<circle cx="1.55783" cy="1.55783" r="1.55783" transform="matrix(0 1 1 0 217.568 71.0991)" fill="#007438" fill-opacity="0.3"/>
<circle cx="1.55783" cy="1.55783" r="1.55783" transform="matrix(0 1 1 0 213.414 77.3301)" fill="#007438" fill-opacity="0.3"/>
<circle cx="1.55783" cy="1.55783" r="1.55783" transform="matrix(0 1 1 0 203.028 80.4458)" fill="#007438" fill-opacity="0.3"/>
<circle cx="1.55783" cy="1.55783" r="1.55783" transform="matrix(0 1 1 0 208.221 88.7544)" fill="#007438" fill-opacity="0.3"/>
<circle cx="1.55783" cy="1.55783" r="1.55783" transform="matrix(0 1 1 0 190.566 83.5615)" fill="#007438" fill-opacity="0.3"/>
<circle cx="1.55783" cy="1.55783" r="1.55783" transform="matrix(0 1 1 0 186.411 72.1372)" fill="#007438" fill-opacity="0.3"/>
<circle cx="1.55783" cy="1.55783" r="1.55783" transform="matrix(0 1 1 0 208.221 71.0991)" fill="#007438" fill-opacity="0.3"/>
<circle cx="1.55783" cy="1.55783" r="1.55783" transform="matrix(0 1 1 0 189.527 16.0557)" fill="#007438" fill-opacity="0.3"/>
<circle cx="1.55783" cy="1.55783" r="1.55783" transform="matrix(0 1 1 0 200.951 15.0171)" fill="#007438" fill-opacity="0.3"/>
<circle cx="1.55783" cy="1.55783" r="1.55783" transform="matrix(0 1 1 0 158.37 15.0171)" fill="#007438" fill-opacity="0.3"/>
<circle cx="1.55783" cy="1.55783" r="1.55783" transform="matrix(0 1 1 0 160.447 29.5571)" fill="#007438" fill-opacity="0.3"/>
<circle cx="1.55783" cy="1.55783" r="1.55783" transform="matrix(0 1 1 0 162.524 43.0581)" fill="#007438" fill-opacity="0.3"/>
<circle cx="1.55783" cy="1.55783" r="1.55783" transform="matrix(0 1 1 0 151.1 47.2124)" fill="#007438" fill-opacity="0.3"/>
<circle cx="1.55783" cy="1.55783" r="1.55783" transform="matrix(0 1 1 0 155.255 58.6362)" fill="#007438" fill-opacity="0.3"/>
<circle cx="1.55783" cy="1.55783" r="1.55783" transform="matrix(0 1 1 0 166.679 54.4824)" fill="#007438" fill-opacity="0.3"/>
<circle cx="1.55783" cy="1.55783" r="1.55783" transform="matrix(0 1 1 0 170.833 65.9062)" fill="#007438" fill-opacity="0.3"/>
<circle cx="1.55783" cy="1.55783" r="1.55783" transform="matrix(0 1 1 0 158.37 72.1372)" fill="#007438" fill-opacity="0.3"/>
<circle cx="1.55783" cy="1.55783" r="1.55783" transform="matrix(0 1 1 0 174.987 77.3301)" fill="#007438" fill-opacity="0.3"/>
<circle cx="1.55783" cy="1.55783" r="1.55783" transform="matrix(0 1 1 0 150.062 33.7109)" fill="#007438" fill-opacity="0.3"/>
<circle cx="1.55783" cy="1.55783" r="1.55783" transform="matrix(0 1 1 0 146.946 18.1328)" fill="#007438" fill-opacity="0.3"/>
<circle cx="1.55783" cy="1.55783" r="1.55783" transform="matrix(0 1 1 0 145.907 2.55469)" fill="#007438" fill-opacity="0.3"/>
<circle cx="1.55783" cy="1.55783" r="1.55783" transform="matrix(0 1 1 0 132.406 6.70898)" fill="#007438" fill-opacity="0.3"/>
<circle cx="1.55783" cy="1.55783" r="1.55783" transform="matrix(0 1 1 0 135.523 24.3643)" fill="#007438" fill-opacity="0.3"/>
<circle cx="1.55783" cy="1.55783" r="1.55783" transform="matrix(0 1 1 0 137.599 36.8267)" fill="#007438" fill-opacity="0.3"/>
<circle cx="1.55783" cy="1.55783" r="1.55783" transform="matrix(0 1 1 0 125.136 45.1353)" fill="#007438" fill-opacity="0.3"/>
<circle cx="1.55783" cy="1.55783" r="1.55783" transform="matrix(0 1 1 0 122.021 29.5571)" fill="#007438" fill-opacity="0.3"/>
<circle cx="1.55783" cy="1.55783" r="1.55783" transform="matrix(0 1 1 0 120.982 12.9399)" fill="#007438" fill-opacity="0.3"/>
<circle cx="1.55783" cy="1.55783" r="1.55783" transform="matrix(0 1 1 0 107.481 5.67041)" fill="#007438" fill-opacity="0.3"/>
<circle cx="1.55783" cy="1.55783" r="1.55783" transform="matrix(0 1 1 0 91.9036 13.9785)" fill="#007438" fill-opacity="0.3"/>
<circle cx="1.55783" cy="1.55783" r="1.55783" transform="matrix(0 1 1 0 109.559 21.2485)" fill="#007438" fill-opacity="0.3"/>
<circle cx="1.55783" cy="1.55783" r="1.55783" transform="matrix(0 1 1 0 93.9807 29.5571)" fill="#007438" fill-opacity="0.3"/>
<circle cx="1.55783" cy="1.55783" r="1.55783" transform="matrix(0 1 1 0 110.598 37.8652)" fill="#007438" fill-opacity="0.3"/>
<circle cx="1.55783" cy="1.55783" r="1.55783" transform="matrix(0 1 1 0 95.0193 48.251)" fill="#007438" fill-opacity="0.3"/>
<circle cx="1.55783" cy="1.55783" r="1.55783" transform="matrix(0 1 1 0 77.3638 45.1353)" fill="#007438" fill-opacity="0.3"/>
<circle cx="1.55783" cy="1.55783" r="1.55783" transform="matrix(0 1 1 0 77.3638 22.2866)" fill="#007438" fill-opacity="0.3"/>
<circle cx="1.55783" cy="1.55783" r="1.55783" transform="matrix(0 1 1 0 78.4023 5.67041)" fill="#007438" fill-opacity="0.3"/>
<circle cx="1.55783" cy="1.55783" r="1.55783" transform="matrix(0 1 1 0 61.7854 0.477539)" fill="#007438" fill-opacity="0.3"/>
<circle cx="1.55783" cy="1.55783" r="1.55783" transform="matrix(0 1 1 0 63.8625 15.0171)" fill="#007438" fill-opacity="0.3"/>
<circle cx="1.55783" cy="1.55783" r="1.55783" transform="matrix(0 1 1 0 60.7466 36.8267)" fill="#007438" fill-opacity="0.3"/>
<circle cx="1.55783" cy="1.55783" r="1.55783" transform="matrix(0 1 1 0 43.0913 32.6724)" fill="#007438" fill-opacity="0.3"/>
<circle cx="1.55783" cy="1.55783" r="1.55783" transform="matrix(0 1 1 0 46.207 11.9014)" fill="#007438" fill-opacity="0.3"/>
<circle cx="1.55783" cy="1.55783" r="1.55783" transform="matrix(0 1 1 0 28.5515 10.8628)" fill="#007438" fill-opacity="0.3"/>
<circle cx="1.55783" cy="1.55783" r="1.55783" transform="matrix(0 1 1 0 29.5901 31.6338)" fill="#007438" fill-opacity="0.3"/>
<circle cx="1.55783" cy="1.55783" r="1.55783" transform="matrix(0 1 1 0 9.85742 28.5181)" fill="#007438" fill-opacity="0.3"/>
<circle cx="1.55783" cy="1.55783" r="1.55783" transform="matrix(0 1 1 0 9.85742 10.8628)" fill="#007438" fill-opacity="0.3"/>
<circle cx="1.55783" cy="1.55783" r="1.55783" transform="matrix(0 1 1 0 109.559 57.5977)" fill="#007438" fill-opacity="0.3"/>
<circle cx="1.55783" cy="1.55783" r="1.55783" transform="matrix(0 1 1 0 93.9807 65.9062)" fill="#007438" fill-opacity="0.3"/>
<circle cx="1.55783" cy="1.55783" r="1.55783" transform="matrix(0 1 1 0 139.676 52.4053)" fill="#007438" fill-opacity="0.3"/>
<circle cx="1.55783" cy="1.55783" r="1.55783" transform="matrix(0 1 1 0 142.792 66.9448)" fill="#007438" fill-opacity="0.3"/>
<circle cx="1.55783" cy="1.55783" r="1.55783" transform="matrix(0 1 1 0 126.175 60.7134)" fill="#007438" fill-opacity="0.3"/>
<circle cx="1.55783" cy="1.55783" r="1.55783" transform="matrix(0 1 1 0 211.337 -0.561035)" fill="#007438" fill-opacity="0.3"/>
<circle cx="1.55783" cy="1.55783" r="1.55783" transform="matrix(0 1 1 0 234.185 30.5952)" fill="#007438" fill-opacity="0.3"/>
<circle cx="1.55783" cy="1.55783" r="1.55783" transform="matrix(0 1 1 0 238.339 39.9424)" fill="#007438" fill-opacity="0.3"/>
<circle cx="1.55783" cy="1.55783" r="1.55783" transform="matrix(0 1 1 0 242.494 49.2896)" fill="#007438" fill-opacity="0.3"/>
<circle cx="1.55783" cy="1.55783" r="1.55783" transform="matrix(0 1 1 0 247.687 56.5596)" fill="#007438" fill-opacity="0.3"/>
<circle cx="1.55783" cy="1.55783" r="1.55783" transform="matrix(0 1 1 0 251.841 64.8677)" fill="#007438" fill-opacity="0.3"/>
<circle cx="1.55783" cy="1.55783" r="1.55783" transform="matrix(0 1 1 0 258.072 73.1763)" fill="#007438" fill-opacity="0.3"/>
<circle cx="1.55783" cy="1.55783" r="1.55783" transform="matrix(0 1 1 0 263.265 79.4072)" fill="#007438" fill-opacity="0.3"/>
<circle cx="1.55783" cy="1.55783" r="1.55783" transform="matrix(0 1 1 0 269.495 85.6387)" fill="#007438" fill-opacity="0.3"/>
<circle cx="1.55783" cy="1.55783" r="1.55783" transform="matrix(0 1 1 0 275.727 91.8701)" fill="#007438" fill-opacity="0.3"/>
<circle cx="1.55783" cy="1.55783" r="1.55783" transform="matrix(0 1 1 0 280.92 99.1401)" fill="#007438" fill-opacity="0.3"/>
<circle cx="1.55783" cy="1.55783" r="1.55783" transform="matrix(0 1 1 0 277.803 104.333)" fill="#007438" fill-opacity="0.3"/>
<circle cx="1.55783" cy="1.55783" r="1.55783" transform="matrix(0 1 1 0 270.534 97.063)" fill="#007438" fill-opacity="0.3"/>
<circle cx="1.55783" cy="1.55783" r="1.55783" transform="matrix(0 1 1 0 266.38 90.8315)" fill="#007438" fill-opacity="0.3"/>
<circle cx="1.55783" cy="1.55783" r="1.55783" transform="matrix(0 1 1 0 262.225 94.9858)" fill="#007438" fill-opacity="0.3"/>
<circle cx="1.55783" cy="1.55783" r="1.55783" transform="matrix(0 1 1 0 255.995 89.793)" fill="#007438" fill-opacity="0.3"/>
<circle cx="1.55783" cy="1.55783" r="1.55783" transform="matrix(0 1 1 0 260.148 85.6387)" fill="#007438" fill-opacity="0.3"/>
<circle cx="1.55783" cy="1.55783" r="1.55783" transform="matrix(0 1 1 0 253.918 79.4072)" fill="#007438" fill-opacity="0.3"/>
<circle cx="1.55783" cy="1.55783" r="1.55783" transform="matrix(0 1 1 0 250.802 83.5615)" fill="#007438" fill-opacity="0.3"/>
<circle cx="1.55783" cy="1.55783" r="1.55783" transform="matrix(0 1 1 0 245.609 76.2915)" fill="#007438" fill-opacity="0.3"/>
<circle cx="1.55783" cy="1.55783" r="1.55783" transform="matrix(0 1 1 0 247.687 72.1372)" fill="#007438" fill-opacity="0.3"/>
<circle cx="1.55783" cy="1.55783" r="1.55783" transform="matrix(0 1 1 0 243.532 64.8677)" fill="#007438" fill-opacity="0.3"/>
<circle cx="1.55783" cy="1.55783" r="1.55783" transform="matrix(0 1 1 0 238.339 56.5596)" fill="#007438" fill-opacity="0.3"/>
<circle cx="1.55783" cy="1.55783" r="1.55783" transform="matrix(0 1 1 0 233.147 48.251)" fill="#007438" fill-opacity="0.3"/>
<circle cx="1.55783" cy="1.55783" r="1.55783" transform="matrix(0 1 1 0 227.954 38.9038)" fill="#007438" fill-opacity="0.3"/>
<circle cx="1.55783" cy="1.55783" r="1.55783" transform="matrix(0 1 1 0 222.761 29.5571)" fill="#007438" fill-opacity="0.3"/>
<circle cx="1.55783" cy="1.55783" r="1.55783" transform="matrix(0 1 1 0 218.607 20.21)" fill="#007438" fill-opacity="0.3"/>
<circle cx="1.55783" cy="1.55783" r="1.55783" transform="matrix(0 1 1 0 214.453 9.82422)" fill="#007438" fill-opacity="0.3"/>
<circle cx="1.55783" cy="1.55783" r="1.55783" transform="matrix(0 1 1 0 205.105 8.78564)" fill="#007438" fill-opacity="0.3"/>
<circle cx="1.55783" cy="1.55783" r="1.55783" transform="matrix(0 1 1 0 210.298 18.1328)" fill="#007438" fill-opacity="0.3"/>
<circle cx="1.55783" cy="1.55783" r="1.55783" transform="matrix(0 1 1 0 214.453 27.48)" fill="#007438" fill-opacity="0.3"/>
<circle cx="1.55783" cy="1.55783" r="1.55783" transform="matrix(0 1 1 0 218.607 35.7881)" fill="#007438" fill-opacity="0.3"/>
<circle cx="1.55783" cy="1.55783" r="1.55783" transform="matrix(0 1 1 0 223.8 45.1353)" fill="#007438" fill-opacity="0.3"/>
<circle cx="1.55783" cy="1.55783" r="1.55783" transform="matrix(0 1 1 0 230.031 53.4438)" fill="#007438" fill-opacity="0.3"/>
<circle cx="1.55783" cy="1.55783" r="1.55783" transform="matrix(0 1 1 0 234.185 60.7134)" fill="#007438" fill-opacity="0.3"/>
<circle cx="1.55783" cy="1.55783" r="1.55783" transform="matrix(0 1 1 0 239.378 69.022)" fill="#007438" fill-opacity="0.3"/>
<circle cx="1.55783" cy="1.55783" r="1.55783" transform="matrix(0 1 1 0 230.031 66.9448)" fill="#007438" fill-opacity="0.3"/>
<circle cx="1.55783" cy="1.55783" r="1.55783" transform="matrix(0 1 1 0 227.954 73.1763)" fill="#007438" fill-opacity="0.3"/>
<circle cx="1.55783" cy="1.55783" r="1.55783" transform="matrix(0 1 1 0 221.722 78.3687)" fill="#007438" fill-opacity="0.3"/>
<circle cx="1.55783" cy="1.55783" r="1.55783" transform="matrix(0 1 1 0 217.568 86.6772)" fill="#007438" fill-opacity="0.3"/>
<circle cx="1.55783" cy="1.55783" r="1.55783" transform="matrix(0 1 1 0 223.8 92.9087)" fill="#007438" fill-opacity="0.3"/>
<circle cx="1.55783" cy="1.55783" r="1.55783" transform="matrix(0 1 1 0 228.992 85.6387)" fill="#007438" fill-opacity="0.3"/>
<circle cx="1.55783" cy="1.55783" r="1.55783" transform="matrix(0 1 1 0 232.108 80.4458)" fill="#007438" fill-opacity="0.3"/>
<circle cx="1.55783" cy="1.55783" r="1.55783" transform="matrix(0 1 1 0 236.262 75.2534)" fill="#007438" fill-opacity="0.3"/>
<circle cx="1.55783" cy="1.55783" r="1.55783" transform="matrix(0 1 1 0 241.454 81.4844)" fill="#007438" fill-opacity="0.3"/>
<circle cx="1.55783" cy="1.55783" r="1.55783" transform="matrix(0 1 1 0 246.648 87.7158)" fill="#007438" fill-opacity="0.3"/>
<circle cx="1.55783" cy="1.55783" r="1.55783" transform="matrix(0 1 1 0 251.841 93.9473)" fill="#007438" fill-opacity="0.3"/>
<circle cx="1.55783" cy="1.55783" r="1.55783" transform="matrix(0 1 1 0 248.725 99.1401)" fill="#007438" fill-opacity="0.3"/>
<circle cx="1.55783" cy="1.55783" r="1.55783" transform="matrix(0 1 1 0 254.957 105.372)" fill="#007438" fill-opacity="0.3"/>
<circle cx="1.55783" cy="1.55783" r="1.55783" transform="matrix(0 1 1 0 259.111 100.178)" fill="#007438" fill-opacity="0.3"/>
<circle cx="1.55783" cy="1.55783" r="1.55783" transform="matrix(0 1 1 0 268.458 102.255)" fill="#007438" fill-opacity="0.3"/>
<circle cx="1.55783" cy="1.55783" r="1.55783" transform="matrix(0 1 1 0 264.302 107.449)" fill="#007438" fill-opacity="0.3"/>
<circle cx="1.55783" cy="1.55783" r="1.55783" transform="matrix(0 1 1 0 269.495 114.718)" fill="#007438" fill-opacity="0.3"/>
<circle cx="1.55783" cy="1.55783" r="1.55783" transform="matrix(0 1 1 0 273.65 108.487)" fill="#007438" fill-opacity="0.3"/>
<circle cx="1.55783" cy="1.55783" r="1.55783" transform="matrix(0 1 1 0 286.113 106.41)" fill="#007438" fill-opacity="0.3"/>
<circle cx="1.55783" cy="1.55783" r="1.55783" transform="matrix(0 1 1 0 281.959 110.564)" fill="#007438" fill-opacity="0.3"/>
<circle cx="1.55783" cy="1.55783" r="1.55783" transform="matrix(0 1 1 0 284.036 125.104)" fill="#007438" fill-opacity="0.3"/>
<circle cx="1.55783" cy="1.55783" r="1.55783" transform="matrix(0 1 1 0 287.15 118.873)" fill="#007438" fill-opacity="0.3"/>
<circle cx="1.55783" cy="1.55783" r="1.55783" transform="matrix(0 1 1 0 291.305 113.68)" fill="#007438" fill-opacity="0.3"/>
<circle cx="1.55783" cy="1.55783" r="1.55783" transform="matrix(0 1 1 0 296.498 120.95)" fill="#007438" fill-opacity="0.3"/>
<circle cx="1.55783" cy="1.55783" r="1.55783" transform="matrix(0 1 1 0 292.343 129.258)" fill="#007438" fill-opacity="0.3"/>
<circle cx="1.55783" cy="1.55783" r="1.55783" transform="matrix(0 1 1 0 296.498 139.644)" fill="#007438" fill-opacity="0.3"/>
<circle cx="1.55783" cy="1.55783" r="1.55783" transform="matrix(0 1 1 0 300.652 131.335)" fill="#007438" fill-opacity="0.3"/>
<circle cx="1.55783" cy="1.55783" r="1.55783" transform="matrix(0 1 1 0 305.845 124.065)" fill="#007438" fill-opacity="0.3"/>
<circle cx="1.55783" cy="1.55783" r="1.55783" transform="matrix(0 1 1 0 309.999 134.451)" fill="#007438" fill-opacity="0.3"/>
<circle cx="1.55783" cy="1.55783" r="1.55783" transform="matrix(0 1 1 0 305.845 143.798)" fill="#007438" fill-opacity="0.3"/>
<circle cx="1.55783" cy="1.55783" r="1.55783" transform="matrix(0 1 1 0 314.153 146.914)" fill="#007438" fill-opacity="0.3"/>
<circle cx="1.55783" cy="1.55783" r="1.55783" transform="matrix(0 1 1 0 308.96 155.222)" fill="#007438" fill-opacity="0.3"/>
<circle cx="1.55783" cy="1.55783" r="1.55783" transform="matrix(0 1 1 0 316.23 159.376)" fill="#007438" fill-opacity="0.3"/>
<circle cx="1.55783" cy="1.55783" r="1.55783" transform="matrix(0 1 1 0 325.577 161.453)" fill="#007438" fill-opacity="0.3"/>
<circle cx="1.55783" cy="1.55783" r="1.55783" transform="matrix(0 1 1 0 335.963 160.415)" fill="#007438" fill-opacity="0.3"/>
<circle cx="1.55783" cy="1.55783" r="1.55783" transform="matrix(0 1 1 0 344.271 160.415)" fill="#007438" fill-opacity="0.3"/>
<circle cx="1.55783" cy="1.55783" r="1.55783" transform="matrix(0 1 1 0 354.657 163.53)" fill="#007438" fill-opacity="0.3"/>
<circle cx="1.55783" cy="1.55783" r="1.55783" transform="matrix(0 1 1 0 359.85 154.183)" fill="#007438" fill-opacity="0.3"/>
<circle cx="1.55783" cy="1.55783" r="1.55783" transform="matrix(0 1 1 0 357.772 174.954)" fill="#007438" fill-opacity="0.3"/>
<circle cx="1.55783" cy="1.55783" r="1.55783" transform="matrix(0 1 1 0 358.811 194.687)" fill="#007438" fill-opacity="0.3"/>
<circle cx="1.55783" cy="1.55783" r="1.55783" transform="matrix(0 1 1 0 348.426 195.726)" fill="#007438" fill-opacity="0.3"/>
<circle cx="1.55783" cy="1.55783" r="1.55783" transform="matrix(0 1 1 0 350.503 215.458)" fill="#007438" fill-opacity="0.3"/>
<circle cx="1.55783" cy="1.55783" r="1.55783" transform="matrix(0 1 1 0 358.811 214.419)" fill="#007438" fill-opacity="0.3"/>
<circle cx="1.55783" cy="1.55783" r="1.55783" transform="matrix(0 1 1 0 351.542 231.036)" fill="#007438" fill-opacity="0.3"/>
<circle cx="1.55783" cy="1.55783" r="1.55783" transform="matrix(0 1 1 0 344.271 227.92)" fill="#007438" fill-opacity="0.3"/>
<circle cx="1.55783" cy="1.55783" r="1.55783" transform="matrix(0 1 1 0 333.886 224.805)" fill="#007438" fill-opacity="0.3"/>
<circle cx="1.55783" cy="1.55783" r="1.55783" transform="matrix(0 1 1 0 346.349 174.954)" fill="#007438" fill-opacity="0.3"/>
<circle cx="1.55783" cy="1.55783" r="1.55783" transform="matrix(0 1 1 0 337.001 178.07)" fill="#007438" fill-opacity="0.3"/>
<circle cx="1.55783" cy="1.55783" r="1.55783" transform="matrix(0 1 1 0 327.654 175.993)" fill="#007438" fill-opacity="0.3"/>
<circle cx="1.55783" cy="1.55783" r="1.55783" transform="matrix(0 1 1 0 243.532 92.9087)" fill="#007438" fill-opacity="0.3"/>
<circle cx="1.55783" cy="1.55783" r="1.55783" transform="matrix(0 1 1 0 238.339 99.1401)" fill="#007438" fill-opacity="0.3"/>
<circle cx="1.55783" cy="1.55783" r="1.55783" transform="matrix(0 1 1 0 233.147 92.9087)" fill="#007438" fill-opacity="0.3"/>
<circle cx="1.55783" cy="1.55783" r="1.55783" transform="matrix(0 1 1 0 237.301 85.6387)" fill="#007438" fill-opacity="0.3"/>
<circle cx="248.725" cy="42.0196" r="2.07711" transform="rotate(-90 248.725 42.0196)" fill="#007438" fill-opacity="0.3"/>
<circle cx="253.918" cy="51.3667" r="2.07711" transform="rotate(-90 253.918 51.3667)" fill="#007438" fill-opacity="0.3"/>
<circle cx="258.072" cy="58.6363" r="2.07711" transform="rotate(-90 258.072 58.6363)" fill="#007438" fill-opacity="0.3"/>
<circle cx="263.265" cy="66.9449" r="2.07711" transform="rotate(-90 263.265 66.9449)" fill="#007438" fill-opacity="0.3"/>
<circle cx="268.457" cy="74.2144" r="2.07711" transform="rotate(-90 268.457 74.2144)" fill="#007438" fill-opacity="0.3"/>
<circle cx="274.689" cy="82.523" r="2.07711" transform="rotate(-90 274.689 82.523)" fill="#007438" fill-opacity="0.3"/>
<circle cx="279.88" cy="88.7544" r="2.07711" transform="rotate(-90 279.88 88.7544)" fill="#007438" fill-opacity="0.3"/>
<circle cx="286.113" cy="96.0245" r="2.07711" transform="rotate(-90 286.113 96.0245)" fill="#007438" fill-opacity="0.3"/>
<circle cx="292.343" cy="102.256" r="2.07711" transform="rotate(-90 292.343 102.256)" fill="#007438" fill-opacity="0.3"/>
<circle cx="298.575" cy="100.178" r="2.07711" transform="rotate(-90 298.575 100.178)" fill="#007438" fill-opacity="0.3"/>
<circle cx="306.883" cy="110.564" r="2.07711" transform="rotate(-90 306.883 110.564)" fill="#007438" fill-opacity="0.3"/>
<circle cx="304.806" cy="102.256" r="2.07711" transform="rotate(-90 304.806 102.256)" fill="#007438" fill-opacity="0.3"/>
<circle cx="297.536" cy="109.525" r="2.07711" transform="rotate(-90 297.536 109.525)" fill="#007438" fill-opacity="0.3"/>
<circle cx="302.729" cy="116.795" r="2.07711" transform="rotate(-90 302.729 116.795)" fill="#007438" fill-opacity="0.3"/>
<circle cx="316.23" cy="127.181" r="2.07711" transform="rotate(-90 316.23 127.181)" fill="#007438" fill-opacity="0.3"/>
<circle cx="311.038" cy="118.873" r="2.07711" transform="rotate(-90 311.038 118.873)" fill="#007438" fill-opacity="0.3"/>
<circle cx="298.575" cy="77.3301" r="2.07711" transform="rotate(-90 298.575 77.3301)" fill="#007438" fill-opacity="0.3"/>
<circle cx="302.729" cy="85.6387" r="2.07711" transform="rotate(-90 302.729 85.6387)" fill="#007438" fill-opacity="0.3"/>
<circle cx="307.922" cy="96.0245" r="2.07711" transform="rotate(-90 307.922 96.0245)" fill="#007438" fill-opacity="0.3"/>
<circle cx="312.076" cy="102.256" r="2.07711" transform="rotate(-90 312.076 102.256)" fill="#007438" fill-opacity="0.3"/>
<circle cx="318.307" cy="110.564" r="2.07711" transform="rotate(-90 318.307 110.564)" fill="#007438" fill-opacity="0.3"/>
<circle cx="314.153" cy="114.718" r="2.07711" transform="rotate(-90 314.153 114.718)" fill="#007438" fill-opacity="0.3"/>
<circle cx="319.346" cy="119.911" r="2.07711" transform="rotate(-90 319.346 119.911)" fill="#007438" fill-opacity="0.3"/>
<circle cx="323.5" cy="115.757" r="2.07711" transform="rotate(-90 323.5 115.757)" fill="#007438" fill-opacity="0.3"/>
<circle cx="330.77" cy="114.718" r="2.07711" transform="rotate(-90 330.77 114.718)" fill="#007438" fill-opacity="0.3"/>
<circle cx="330.77" cy="121.988" r="2.07711" transform="rotate(-90 330.77 121.988)" fill="#007438" fill-opacity="0.3"/>
<circle cx="334.924" cy="132.374" r="2.07711" transform="rotate(-90 334.924 132.374)" fill="#007438" fill-opacity="0.3"/>
<circle cx="337.001" cy="121.988" r="2.07711" transform="rotate(-90 337.001 121.988)" fill="#007438" fill-opacity="0.3"/>
</svg>
