<svg width="273" height="145" viewBox="0 0 273 145" fill="none" xmlns="http://www.w3.org/2000/svg">
<g filter="url(#filter0_d_2135_11489)">
<path d="M183.327 61.2382C185.742 70.2702 184.883 79.8657 180.901 88.3247C176.919 96.7836 170.071 103.56 161.57 107.453C153.07 111.346 143.466 112.104 134.46 109.594C125.454 107.083 117.627 101.466 112.366 93.737C107.106 86.008 104.751 76.6664 105.719 67.3672C106.687 58.068 110.915 49.4116 117.655 42.9317C124.395 36.4519 133.211 32.5669 142.541 31.9651C151.871 31.3632 161.113 34.0835 168.629 39.6437L164.852 44.7487C158.542 40.0804 150.783 37.7966 142.949 38.3019C135.116 38.8071 127.714 42.0689 122.056 47.5092C116.397 52.9495 112.847 60.2172 112.035 68.0246C111.222 75.832 113.199 83.675 117.616 90.1641C122.033 96.6532 128.604 101.369 136.165 103.477C143.726 105.585 151.79 104.948 158.926 101.68C166.063 98.4112 171.812 92.722 175.156 85.62C178.499 78.5181 179.221 70.4619 177.192 62.8789L183.327 61.2382Z" fill="#E81F42"/>
</g>
<g filter="url(#filter1_d_2135_11489)">
<path d="M162 61.5352L140.688 82.5352L131 72.9897" stroke="#E81F42" stroke-width="2" stroke-linecap="round" stroke-linejoin="round" shape-rendering="crispEdges"/>
</g>
<g filter="url(#filter2_d_2135_11489)">
<path d="M46.1836 83.9854L25.8266 69.4003" stroke="#E81F42" stroke-width="2" stroke-linecap="round" stroke-linejoin="round"/>
<path d="M50.707 47.085L30.3501 32.4999" stroke="#E81F42" stroke-width="2" stroke-linecap="round" stroke-linejoin="round"/>
<path d="M43.3574 61.8892L23.0005 47.3041" stroke="#E81F42" stroke-width="2" stroke-linecap="round" stroke-linejoin="round"/>
</g>
<g filter="url(#filter3_d_2135_11489)">
<path d="M244.433 83.9854L264.79 69.4003" stroke="#E81F42" stroke-width="2" stroke-linecap="round" stroke-linejoin="round"/>
<path d="M239.911 47.085L260.268 32.4999" stroke="#E81F42" stroke-width="2" stroke-linecap="round" stroke-linejoin="round"/>
<path d="M247.262 61.8892L267.619 47.3041" stroke="#E81F42" stroke-width="2" stroke-linecap="round" stroke-linejoin="round"/>
</g>
<path d="M11.0018 27.7565L10.6815 32.0621L13.9463 34.6255L9.86734 35.8171L8.36908 39.9032L6.16845 36.3341L1.97565 36.3006L4.69467 32.9023L3.60093 28.7961L7.4848 30.2608L11.0018 27.7565Z" fill="#E81F42" stroke="#E81F42" stroke-width="2" stroke-linecap="round" stroke-linejoin="round"/>
<path d="M243.417 131.087L243.097 135.392L246.361 137.956L242.282 139.147L240.784 143.233L238.583 139.664L234.391 139.631L237.11 136.232L236.016 132.126L239.9 133.591L243.417 131.087Z" fill="#E81F42" stroke="#E81F42" stroke-width="2" stroke-linecap="round" stroke-linejoin="round"/>
<path d="M172.584 2.91471L172.264 7.2203L175.528 9.78372L171.449 10.9753L169.951 15.0614L167.75 11.4923L163.558 11.4588L166.277 8.06054L165.183 3.9543L169.067 5.419L172.584 2.91471Z" fill="#E81F42" stroke="#E81F42" stroke-width="2" stroke-linecap="round" stroke-linejoin="round"/>
<defs>
<filter id="filter0_d_2135_11489" x="97.5059" y="27.8828" width="95.165" height="95.165" filterUnits="userSpaceOnUse" color-interpolation-filters="sRGB">
<feFlood flood-opacity="0" result="BackgroundImageFix"/>
<feColorMatrix in="SourceAlpha" type="matrix" values="0 0 0 0 0 0 0 0 0 0 0 0 0 0 0 0 0 0 127 0" result="hardAlpha"/>
<feOffset dy="4"/>
<feGaussianBlur stdDeviation="4"/>
<feComposite in2="hardAlpha" operator="out"/>
<feColorMatrix type="matrix" values="0 0 0 0 0.909804 0 0 0 0 0.121569 0 0 0 0 0.258824 0 0 0 1 0"/>
<feBlend mode="normal" in2="BackgroundImageFix" result="effect1_dropShadow_2135_11489"/>
<feBlend mode="normal" in="SourceGraphic" in2="effect1_dropShadow_2135_11489" result="shape"/>
</filter>
<filter id="filter1_d_2135_11489" x="126" y="60.5352" width="41" height="31" filterUnits="userSpaceOnUse" color-interpolation-filters="sRGB">
<feFlood flood-opacity="0" result="BackgroundImageFix"/>
<feColorMatrix in="SourceAlpha" type="matrix" values="0 0 0 0 0 0 0 0 0 0 0 0 0 0 0 0 0 0 127 0" result="hardAlpha"/>
<feOffset dy="4"/>
<feGaussianBlur stdDeviation="2"/>
<feComposite in2="hardAlpha" operator="out"/>
<feColorMatrix type="matrix" values="0 0 0 0 0.909804 0 0 0 0 0.121569 0 0 0 0 0.258824 0 0 0 1 0"/>
<feBlend mode="normal" in2="BackgroundImageFix" result="effect1_dropShadow_2135_11489"/>
<feBlend mode="normal" in="SourceGraphic" in2="effect1_dropShadow_2135_11489" result="shape"/>
</filter>
<filter id="filter2_d_2135_11489" x="18.1782" y="31.3486" width="37.3511" height="61.7876" filterUnits="userSpaceOnUse" color-interpolation-filters="sRGB">
<feFlood flood-opacity="0" result="BackgroundImageFix"/>
<feColorMatrix in="SourceAlpha" type="matrix" values="0 0 0 0 0 0 0 0 0 0 0 0 0 0 0 0 0 0 127 0" result="hardAlpha"/>
<feOffset dy="4"/>
<feGaussianBlur stdDeviation="2"/>
<feComposite in2="hardAlpha" operator="out"/>
<feColorMatrix type="matrix" values="0 0 0 0 0.909804 0 0 0 0 0.121569 0 0 0 0 0.258824 0 0 0 1 0"/>
<feBlend mode="normal" in2="BackgroundImageFix" result="effect1_dropShadow_2135_11489"/>
<feBlend mode="normal" in="SourceGraphic" in2="effect1_dropShadow_2135_11489" result="shape"/>
</filter>
<filter id="filter3_d_2135_11489" x="235.089" y="31.3486" width="37.3516" height="61.7876" filterUnits="userSpaceOnUse" color-interpolation-filters="sRGB">
<feFlood flood-opacity="0" result="BackgroundImageFix"/>
<feColorMatrix in="SourceAlpha" type="matrix" values="0 0 0 0 0 0 0 0 0 0 0 0 0 0 0 0 0 0 127 0" result="hardAlpha"/>
<feOffset dy="4"/>
<feGaussianBlur stdDeviation="2"/>
<feComposite in2="hardAlpha" operator="out"/>
<feColorMatrix type="matrix" values="0 0 0 0 0.909804 0 0 0 0 0.121569 0 0 0 0 0.258824 0 0 0 1 0"/>
<feBlend mode="normal" in2="BackgroundImageFix" result="effect1_dropShadow_2135_11489"/>
<feBlend mode="normal" in="SourceGraphic" in2="effect1_dropShadow_2135_11489" result="shape"/>
</filter>
</defs>
</svg>
