<svg width="260" height="260" viewBox="0 0 260 260" fill="none" xmlns="http://www.w3.org/2000/svg">
<path d="M163.216 139.295C178.383 147.312 193.376 155.784 208.109 164.689C208.153 164.732 208.261 164.927 208.239 165.209C207.784 169.52 207.698 171.449 206.701 174.07C201.003 188.999 201.804 187.287 197.514 192.747C176.779 179.01 155.481 166.184 133.836 154.354C133.056 154.765 132.298 155.177 131.518 155.61C153.596 167.635 175.284 180.679 196.388 194.654C197.319 195.282 198.489 195.044 199.226 194.134C201.653 191.057 202.953 189.649 204.123 186.724C208.911 174.742 209.604 173.095 209.951 169.867C210.384 166.032 211.034 163.887 209.258 162.804C208.781 162.479 189.108 150.54 165.664 138.104C164.841 138.494 164.018 138.905 163.216 139.295Z" fill="#007438"/>
<path d="M96.7418 135.2C91.8018 132.795 86.8401 130.455 81.8784 128.158C83.1784 124.432 82.2034 120.532 78.6934 117.867C74.1218 114.335 23.8768 96.0917 23.6601 95.8533C22.6851 94.835 23.3784 93.6867 23.9851 91.9533C23.6384 91.8233 23.2918 91.715 22.9451 91.585C23.4434 90.1333 23.7251 88.7033 25.2851 88.1617C25.9351 87.945 26.6068 87.9667 27.1268 88.1617C88.1184 109.438 81.4668 114.053 90.2418 103.675C90.7834 106.362 88.5951 103.133 125.753 120.597C126.598 120.185 127.465 119.773 128.31 119.362C115.05 113.1 103.112 107.857 90.6534 102.657C89.6134 102.223 88.4651 102.765 88.0968 103.848C86.7101 107.857 83.1784 108.745 79.2568 107.098C54.4701 96.59 29.5318 87.75 27.4518 87.1C25.4368 86.4067 23.1618 87.4683 22.4034 89.6783C21.1684 93.3183 20.7351 93.99 21.0384 95.4417C22.0351 99.9917 24.5484 96.8067 75.1618 118.322C79.0834 119.99 81.2284 123.435 79.7551 127.465C79.3868 128.483 79.8418 129.61 80.7951 130.043C85.3018 132.123 89.8084 134.247 94.2934 136.435C95.1168 136.067 95.9184 135.633 96.7418 135.2Z" fill="#007438"/>
<path d="M90.2414 103.696C81.6397 113.858 88.0531 109.763 33.1931 90.3281C32.9114 91.7798 32.5647 93.2098 32.0664 94.8131C58.6947 104.346 85.1281 115.331 111.193 127.768C111.518 127.595 111.843 127.443 112.168 127.27C106.145 122.525 91.7147 111.193 90.2414 103.696Z" fill="#007438"/>
<path d="M30.2688 89.808C30.3988 89.3747 29.9872 89.3747 32.2838 90.0247C26.8672 88.118 26.4988 87.7713 25.2638 88.2047C23.7038 88.7463 23.4222 90.1763 22.9238 91.628C23.2705 91.7363 27.2788 93.1447 28.9255 93.7297C29.5322 92.213 29.8788 91.1513 30.2688 89.808Z" fill="#007438"/>
<path d="M199.853 176.519C191.013 169.585 172.596 157.56 149.565 146.099C148.85 146.467 148.156 146.835 147.441 147.204C156.13 152.295 183.863 168.264 199.853 176.519Z" fill="#007438"/>
<path d="M27.5605 96.7202C28.6655 97.1969 29.7705 97.6736 30.8539 98.1502C32.0455 95.3119 32.6955 92.7336 33.1939 90.2636C32.8905 90.1769 31.0055 89.6352 30.3555 89.4619C29.6622 91.9752 28.7305 94.4236 27.5605 96.7202Z" fill="#007438"/>
<path d="M237.575 89.7216C236.86 87.62 234.715 86.45 232.527 87.1433C232.375 87.1866 226.807 89.1583 225.897 89.4833C182.217 105.083 179.855 109.135 175.543 107.705C173.637 107.12 172.532 105.733 171.903 103.892C171.535 102.83 170.387 102.267 169.347 102.7C129.393 119.34 90.0901 139.057 50.7651 162.825C49.8985 163.367 49.4868 164.407 49.5951 165.447C50.0718 169.91 50.1801 171.99 51.2635 174.85C56.0951 187.503 56.5935 188.738 58.3268 190.97C60.7535 194.068 61.1651 195 62.5085 195C64.6751 195 107.618 163.15 179.205 130.13C180.158 129.697 180.613 128.548 180.245 127.53C179.183 124.627 179.963 121.702 182.672 119.643C186.203 116.913 223.817 102.917 229.84 100.75C236.6 98.3233 237.012 98.3883 237.965 97.4133C240.045 95.1816 238.593 92.7116 237.575 89.7216ZM226.807 90.3283C226.785 90.2416 226.655 90.3066 227.717 90.0033C233.133 88.075 233.502 87.75 234.737 88.1833C236.297 88.725 236.578 90.155 237.077 91.6066C236.73 91.715 236.383 91.845 236.037 91.975C236.687 93.86 237.293 94.8783 236.362 95.875C235.972 96.265 186.052 114.227 181.328 117.888C177.84 120.532 176.822 124.453 178.143 128.18C138.537 146.467 99.6235 168.177 62.5085 192.747C60.0818 189.67 58.9768 188.457 57.9368 185.9C52.8885 173.312 52.5418 172.337 52.2385 169.628C51.7618 165.273 51.6535 164.862 51.8918 164.688C89.6351 141.895 129.068 121.832 169.368 105.062C169.542 104.607 169.672 104.152 169.758 103.697C178.36 113.858 172.532 109.568 226.807 90.3283Z" fill="#007438"/>
<path d="M147.42 127.595C147.074 127.855 147.355 128.461 147.745 128.288C174.157 115.656 200.937 104.498 227.934 94.8346C227.435 93.2313 227.089 91.8013 226.807 90.3496C172.229 109.698 178.382 113.901 169.759 103.718C168.264 111.28 153.552 122.763 147.42 127.595Z" fill="#007438"/>
<path d="M231.053 93.7088C232.7 93.1238 236.708 91.7371 237.055 91.6071C236.556 90.1554 236.275 88.7254 234.715 88.1838C234.065 87.9671 233.393 87.9888 232.873 88.1838C227.565 90.0254 226.07 90.4588 229.623 89.4621C230.121 91.2604 230.576 92.5171 231.053 93.7088Z" fill="#007438"/>
<path d="M125.97 139.078C106.968 146.488 75.2698 164.666 60.1465 176.518C66.6682 173.333 112.45 147.766 125.97 139.078Z" fill="#007438"/>
<path d="M229.147 98.1501C230.252 97.6734 231.357 97.1967 232.44 96.7201C231.27 94.4451 230.339 91.9967 229.624 89.4834C228.974 89.6567 227.088 90.1984 226.785 90.2851C227.327 92.9717 228.042 95.5284 229.147 98.1501Z" fill="#007438"/>
<path d="M221.867 117.844C172.597 117.844 176.02 117.606 174.699 118.278C174.157 118.018 173.529 117.844 172.9 117.844C163.237 117.844 162.045 117.389 160.442 119.296L156.065 124.496V121.918C156.065 119.664 154.245 117.823 151.97 117.823C144.452 117.823 142.632 117.281 140.985 119.469C132.6 115.483 121.399 116.436 113.924 124.193V121.896C113.924 119.643 112.104 117.801 109.829 117.801H102.137C99.8837 117.801 98.0421 119.621 98.0421 121.896V124.453C95.5721 120.314 90.8704 117.801 84.8904 117.801H72.8221C71.4787 117.801 70.2871 118.451 69.5504 119.448C54.0371 112.059 36.4004 123.109 36.4004 138.818C36.4004 154.483 54.1021 165.446 69.5504 158.079C71.1971 160.289 72.9954 159.726 80.5354 159.726C82.7887 159.726 84.6304 157.906 84.6304 155.631V154.244C90.0254 161.221 85.8437 159.704 109.85 159.704C112.104 159.704 113.945 157.884 113.945 155.609V153.356C121.42 161.048 132.665 162.001 141.007 158.036C142.654 160.246 144.452 159.683 151.992 159.683C154.245 159.683 156.087 157.863 156.087 155.588V152.316L161.352 158.383C163.064 160.354 162.197 159.791 195.845 159.791C198.099 159.791 199.94 157.971 199.94 155.696V148.936C199.94 147.398 199.095 146.076 197.86 145.383C199.984 143.736 199.442 141.721 199.442 135.394C199.442 134.398 199.074 133.488 198.489 132.773H202.02V154.483C202.02 156.736 203.775 158.578 206.029 158.578L213.872 159.791C216.125 159.791 217.967 157.971 217.967 155.696V132.773H221.91C224.164 132.773 226.005 130.953 226.005 128.678V121.918C225.962 119.664 224.12 117.844 221.867 117.844Z" fill="white"/>
<path d="M50.3747 139.356C51.1526 139.356 51.7941 139.227 52.2991 138.967C52.804 138.694 53.1452 138.476 53.3227 138.312L56.1683 142.529C55.9499 142.707 55.5746 142.939 55.0423 143.226C54.51 143.498 53.8413 143.737 53.036 143.942C52.2445 144.147 51.3369 144.249 50.3133 144.249C48.3889 144.249 46.6965 143.887 45.2362 143.164C43.7758 142.427 42.6362 141.39 41.8173 140.052C41.0121 138.715 40.6095 137.145 40.6095 135.344C40.6095 133.529 41.0121 131.959 41.8173 130.635C42.6362 129.311 43.7758 128.288 45.2362 127.564C46.6965 126.827 48.3889 126.459 50.3133 126.459C51.3232 126.459 52.224 126.568 53.0156 126.786C53.8208 126.991 54.4964 127.23 55.0423 127.503C55.5882 127.762 55.9704 127.987 56.1888 128.179L53.2817 132.437C53.1862 132.341 53.0088 132.205 52.7494 132.027C52.5038 131.85 52.183 131.693 51.7872 131.556C51.3915 131.42 50.9206 131.352 50.3747 131.352C49.7059 131.352 49.0781 131.522 48.4912 131.864C47.918 132.205 47.454 132.676 47.0991 133.276C46.7443 133.877 46.5669 134.566 46.5669 135.344C46.5669 136.122 46.7443 136.818 47.0991 137.432C47.454 138.032 47.918 138.503 48.4912 138.845C49.0781 139.186 49.7059 139.356 50.3747 139.356ZM64.3891 143.758H58.1656V126.95H64.3891V129.55H64.2868C64.3959 129.236 64.6621 128.84 65.0852 128.363C65.5083 127.871 66.102 127.435 66.8662 127.053C67.6305 126.657 68.5654 126.459 69.6709 126.459C70.4489 126.459 71.1654 126.582 71.8205 126.827C72.4756 127.059 72.9533 127.285 73.2535 127.503L70.8378 132.56C70.6468 132.328 70.3056 132.089 69.8142 131.843C69.3365 131.584 68.736 131.454 68.0127 131.454C67.1801 131.454 66.4909 131.666 65.945 132.089C65.4127 132.512 65.0169 133.024 64.7576 133.624C64.512 134.225 64.3891 134.791 64.3891 135.323V143.758ZM75.1363 143.758V126.95H81.3599V143.758H75.1363ZM78.33 123.49C77.3473 123.49 76.5148 123.149 75.8324 122.467C75.15 121.771 74.8088 120.945 74.8088 119.99C74.8088 119.034 75.15 118.209 75.8324 117.513C76.5284 116.803 77.361 116.448 78.33 116.448C78.9714 116.448 79.5583 116.612 80.0906 116.939C80.6229 117.253 81.0528 117.676 81.3803 118.209C81.7079 118.741 81.8717 119.335 81.8717 119.99C81.8717 120.945 81.5236 121.771 80.8276 122.467C80.1315 123.149 79.299 123.49 78.33 123.49ZM94.7576 139.356C95.5355 139.356 96.177 139.227 96.682 138.967C97.1869 138.694 97.5281 138.476 97.7056 138.312L100.551 142.529C100.333 142.707 99.9575 142.939 99.4252 143.226C98.893 143.498 98.2242 143.737 97.419 143.942C96.6274 144.147 95.7198 144.249 94.6962 144.249C92.7718 144.249 91.0794 143.887 89.6191 143.164C88.1587 142.427 87.0191 141.39 86.2002 140.052C85.395 138.715 84.9924 137.145 84.9924 135.344C84.9924 133.529 85.395 131.959 86.2002 130.635C87.0191 129.311 88.1587 128.288 89.6191 127.564C91.0794 126.827 92.7718 126.459 94.6962 126.459C95.7061 126.459 96.6069 126.568 97.3985 126.786C98.2037 126.991 98.8793 127.23 99.4252 127.503C99.9712 127.762 100.353 127.987 100.572 128.179L97.6646 132.437C97.5691 132.341 97.3917 132.205 97.1324 132.027C96.8867 131.85 96.566 131.693 96.1702 131.556C95.7744 131.42 95.3035 131.352 94.7576 131.352C94.0888 131.352 93.461 131.522 92.8741 131.864C92.3009 132.205 91.8369 132.676 91.482 133.276C91.1272 133.877 90.9498 134.566 90.9498 135.344C90.9498 136.122 91.1272 136.818 91.482 137.432C91.8369 138.032 92.3009 138.503 92.8741 138.845C93.461 139.186 94.0888 139.356 94.7576 139.356ZM114.545 126.95H121.588L113.665 134.975L122.406 143.758H115.2L108.711 137.002V143.758H102.487V115.588H108.711V132.805L114.545 126.95ZM128.227 136.674C128.268 137.275 128.459 137.807 128.8 138.271C129.142 138.735 129.613 139.104 130.213 139.377C130.827 139.636 131.551 139.766 132.383 139.766C133.175 139.766 133.884 139.684 134.512 139.52C135.154 139.356 135.706 139.152 136.17 138.906C136.648 138.66 137.017 138.408 137.276 138.148L139.692 141.997C139.35 142.366 138.866 142.727 138.238 143.082C137.624 143.423 136.812 143.703 135.802 143.922C134.792 144.14 133.516 144.249 131.974 144.249C130.118 144.249 128.466 143.901 127.019 143.205C125.573 142.509 124.433 141.485 123.601 140.134C122.768 138.783 122.352 137.132 122.352 135.18C122.352 133.542 122.707 132.068 123.416 130.758C124.14 129.434 125.184 128.39 126.549 127.626C127.913 126.848 129.558 126.459 131.482 126.459C133.311 126.459 134.894 126.793 136.232 127.462C137.583 128.131 138.62 129.127 139.344 130.451C140.081 131.761 140.449 133.399 140.449 135.364C140.449 135.473 140.442 135.692 140.429 136.019C140.429 136.347 140.415 136.565 140.388 136.674H128.227ZM134.594 133.419C134.58 132.983 134.464 132.553 134.246 132.13C134.028 131.693 133.7 131.338 133.263 131.065C132.827 130.778 132.267 130.635 131.585 130.635C130.902 130.635 130.322 130.772 129.845 131.045C129.381 131.304 129.026 131.645 128.78 132.068C128.534 132.491 128.398 132.942 128.371 133.419H134.594ZM142.232 126.95H145.098V120.051H151.26V126.95H155.027V132.068H151.26V136.756C151.26 137.452 151.363 138.019 151.567 138.456C151.772 138.879 152.147 139.09 152.693 139.09C153.062 139.09 153.376 139.008 153.635 138.845C153.894 138.681 154.051 138.572 154.106 138.517L156.235 142.939C156.139 143.021 155.839 143.171 155.334 143.389C154.843 143.608 154.215 143.806 153.451 143.983C152.687 144.16 151.834 144.249 150.892 144.249C149.213 144.249 147.828 143.778 146.736 142.837C145.644 141.881 145.098 140.414 145.098 138.435V132.068H142.232V126.95Z" fill="#007438"/>
<path d="M110.554 183.834C111.193 183.834 111.774 183.74 112.295 183.553C112.823 183.365 113.216 183.181 113.474 183L114.808 185.649C114.482 185.927 113.922 186.209 113.129 186.494C112.344 186.779 111.409 186.921 110.324 186.921C109.309 186.921 108.357 186.744 107.467 186.389C106.577 186.035 105.791 185.538 105.11 184.898C104.435 184.251 103.904 183.497 103.514 182.635C103.132 181.766 102.941 180.824 102.941 179.809C102.941 178.794 103.132 177.852 103.514 176.983C103.897 176.107 104.425 175.346 105.099 174.699C105.781 174.052 106.566 173.552 107.456 173.197C108.353 172.836 109.309 172.655 110.324 172.655C111.409 172.655 112.344 172.797 113.129 173.083C113.922 173.368 114.482 173.649 114.808 173.927L113.474 176.576C113.216 176.388 112.823 176.204 112.295 176.023C111.774 175.836 111.193 175.742 110.554 175.742C109.844 175.742 109.226 175.853 108.697 176.076C108.169 176.291 107.727 176.59 107.373 176.972C107.018 177.355 106.754 177.786 106.58 178.265C106.406 178.745 106.32 179.249 106.32 179.778C106.32 180.313 106.406 180.824 106.58 181.311C106.754 181.79 107.018 182.221 107.373 182.604C107.727 182.986 108.169 183.289 108.697 183.511C109.226 183.727 109.844 183.834 110.554 183.834ZM116.79 172.905H119.909V183.939H124.904V186.671H116.79V172.905ZM134.502 172.905H137.62V181.363C137.62 182.496 137.398 183.48 136.953 184.314C136.508 185.141 135.871 185.784 135.044 186.243C134.217 186.695 133.23 186.921 132.082 186.921C130.928 186.921 129.934 186.695 129.1 186.243C128.266 185.784 127.626 185.141 127.181 184.314C126.743 183.48 126.524 182.496 126.524 181.363V172.905H129.632V181.196C129.632 181.822 129.729 182.35 129.924 182.781C130.125 183.212 130.41 183.539 130.779 183.761C131.147 183.977 131.582 184.085 132.082 184.085C132.576 184.085 133.004 183.977 133.365 183.761C133.727 183.539 134.005 183.212 134.199 182.781C134.401 182.35 134.502 181.822 134.502 181.196V172.905ZM139.908 172.905H144.633C145.418 172.905 146.145 173.013 146.812 173.229C147.486 173.444 148.029 173.799 148.439 174.292C148.856 174.779 149.065 175.439 149.065 176.274C149.065 176.823 148.96 177.313 148.752 177.744C148.55 178.175 148.279 178.53 147.938 178.808C147.605 179.079 147.24 179.26 146.843 179.35C147.191 179.392 147.528 179.493 147.855 179.652C148.189 179.805 148.488 180.021 148.752 180.299C149.023 180.57 149.235 180.911 149.388 181.321C149.548 181.724 149.628 182.204 149.628 182.76C149.628 183.532 149.454 184.213 149.106 184.804C148.766 185.388 148.265 185.847 147.605 186.181C146.951 186.508 146.148 186.671 145.196 186.671H139.908V172.905ZM143.027 184.178H144.445C144.89 184.178 145.251 184.112 145.529 183.98C145.814 183.841 146.023 183.647 146.155 183.396C146.287 183.139 146.353 182.833 146.353 182.479C146.353 181.922 146.179 181.516 145.832 181.258C145.491 180.994 145.011 180.862 144.393 180.862H143.027V184.178ZM143.027 178.422H144.288C144.657 178.422 144.963 178.356 145.206 178.224C145.456 178.092 145.644 177.907 145.769 177.671C145.901 177.428 145.967 177.15 145.967 176.837C145.967 176.274 145.807 175.895 145.488 175.7C145.168 175.498 144.73 175.398 144.174 175.398H143.027V178.422Z" fill="#007438"/>
<path d="M94.0762 83.7844C94.2062 83.5678 96.7412 77.8911 100.706 77.8911C100.555 78.3461 92.1695 95.3978 99.1028 102.331C99.1028 102.331 97.6078 93.5561 101.876 93.5561C101.876 93.5561 112.038 114.421 139.814 109.871C139.814 109.871 133.921 107.813 135.221 103.328C135.221 102.786 135.2 103.479 131.603 104.476C131.581 105.408 131.733 106.296 132.036 107.119C112.645 107.076 105.256 92.6894 104.953 92.0611C104.216 90.5661 102.526 89.6994 100.186 90.3928C101.898 80.8594 105.646 78.8228 103.48 75.8761C102.786 74.9444 101.746 74.4244 100.316 74.4894C110.24 59.0844 143.585 56.3544 162.37 90.3494C156.91 89.8511 151.016 89.8944 145.686 91.1728C145.21 92.6028 144.625 93.9028 143.758 95.3111C149.456 93.2311 157.733 92.8194 168.306 94.5528C145.274 44.0044 94.0762 56.9611 94.0762 83.7844Z" fill="#E81F42"/>
<path d="M144.971 85.8864C145.231 81.3798 143.953 77.0898 141.418 73.6448C138.081 69.0731 132.578 66.7114 131.711 66.7114C112.558 60.8614 98.5609 85.4531 113.858 98.8648C125.536 109.091 143.996 101.421 144.971 85.8864ZM119.404 99.4281C118.169 98.8214 120.683 99.9481 128.006 96.7198C142.414 90.3281 142.804 81.4664 142.523 85.9298C142.501 86.4064 142.436 86.8831 142.371 87.3381C138.124 93.7514 129.133 98.8864 121.809 100.338C120.466 99.9698 119.383 99.4281 119.404 99.4281ZM140.183 76.5048C140.594 77.1981 140.248 76.7214 140.053 77.3714C139.879 77.9131 140.334 78.1298 139.879 78.4548C139.446 78.7798 139.359 78.9748 139.403 79.5164C139.468 80.2531 138.601 79.7331 138.579 80.9898C138.579 81.5531 138.124 81.3148 137.799 81.7914C137.474 82.2681 137.864 82.5931 137.323 82.7881C136.803 82.9831 136.673 83.1348 136.586 83.6764C136.543 83.9798 136.543 83.9798 136.239 84.0664C135.308 84.3481 135.503 85.0198 135.351 85.1931C135.308 85.2364 135.178 85.2581 135.069 85.2798C133.921 85.5398 134.506 86.2981 133.834 86.4281C133.271 86.5148 133.119 86.6664 132.946 87.1864C132.708 87.8798 132.079 87.0781 131.603 88.2048C131.559 88.2914 131.516 88.4214 131.473 88.4648C131.278 88.6164 130.649 88.2698 130.216 89.1798C130.086 89.4614 130.086 89.4614 129.783 89.4614C129.219 89.4831 129.046 89.5914 128.786 90.0681C128.439 90.7181 127.941 89.8514 127.313 90.8914C127.269 90.9781 127.183 91.1081 127.139 91.1298C126.923 91.2381 126.338 90.8481 125.796 91.6714C125.623 91.9314 125.644 91.9314 125.319 91.8881C124.344 91.7798 124.279 92.4948 124.063 92.5814C124.019 92.6031 123.868 92.5814 123.781 92.5598C122.806 92.4081 122.719 93.1014 122.503 93.1881C122.286 93.2748 121.744 92.7981 121.094 93.5348C120.618 94.0764 120.336 93.1231 119.469 94.0114C119.404 94.0764 119.296 94.1848 119.253 94.1848C119.014 94.2498 118.559 93.7081 117.823 94.3798C117.584 94.5964 117.606 94.5748 117.303 94.4664C116.349 94.0764 116.198 94.7481 115.916 94.7698C115.786 94.7914 115.418 94.4664 115.071 94.4881C114.703 94.5098 114.356 94.8348 114.248 94.8348C114.118 94.8348 113.793 94.4881 113.446 94.4448C113.338 94.4231 112.644 93.3181 112.601 93.2098C112.319 92.7548 112.579 93.4048 113.424 92.9281C113.663 92.7764 113.706 92.7981 113.684 92.7981C113.814 92.7981 114.183 93.1014 114.551 93.0798C114.898 93.0581 115.223 92.6898 115.353 92.6681C115.483 92.6464 115.873 92.9281 116.241 92.8631C116.588 92.7981 116.869 92.4081 116.999 92.3864C117.043 92.3864 117.173 92.4298 117.259 92.4514C118.234 92.7764 118.343 92.0831 118.624 91.9964C118.841 91.9314 119.361 92.4298 120.011 91.7148C120.488 91.1731 120.813 92.1264 121.593 91.1731C121.939 90.7398 122.178 91.1731 122.698 90.9781C123.196 90.7614 123.066 90.2848 123.608 90.3498C124.821 90.4798 124.409 89.5914 125.124 89.6348C126.338 89.7214 125.883 88.8331 126.598 88.8548C127.768 88.8764 127.378 88.0314 128.049 88.0098C129.024 87.9881 128.981 87.2731 129.176 87.1431C129.371 87.0131 130.021 87.3381 130.411 86.4281C130.693 85.7564 131.299 86.5581 131.733 85.4098C131.971 84.7814 132.643 85.4531 133.011 84.3264C133.228 83.6331 133.921 84.3698 134.224 83.1564C134.246 83.0698 134.289 82.9398 134.311 82.8964C134.484 82.7231 135.178 82.8964 135.351 81.9214C135.459 81.2714 136.283 81.7914 136.391 80.5998C136.413 80.2964 136.413 80.3181 136.694 80.1881C137.604 79.7764 137.236 79.1264 137.366 78.9314C137.388 78.8881 137.518 78.8231 137.604 78.7798C138.471 78.2814 138.059 77.6748 138.146 77.4581C138.211 77.3281 138.644 77.1548 138.774 76.8081C138.904 76.4614 138.709 76.0281 138.753 75.8981C138.774 75.8548 138.861 75.7681 138.948 75.6814C139.078 75.5514 139.229 75.4214 139.294 75.2048C139.533 75.5298 139.771 75.8331 140.183 76.5048ZM126.424 68.7914C131.126 68.7914 135.416 70.8064 138.384 74.0998C138.644 74.4031 138.449 74.1864 138.644 74.7281C138.731 75.0098 138.753 74.9881 138.514 75.2048C137.669 75.9848 138.514 76.3531 137.973 76.7431C137.539 77.0681 137.453 77.2414 137.496 77.7831C137.539 78.4548 136.716 78.0431 136.694 79.1914C136.694 79.4948 136.694 79.4731 136.434 79.6031C135.958 79.8198 135.828 79.9931 135.763 80.5348C135.698 81.2064 134.939 80.6648 134.723 81.7914C134.593 82.4631 133.878 81.8564 133.596 82.9831C133.444 83.6331 132.751 83.0048 132.404 84.1098C132.209 84.7381 131.538 84.0881 131.148 85.1714C130.909 85.7998 130.281 85.1064 129.826 86.1681C129.544 86.8181 128.981 86.0164 128.461 87.0998C128.158 87.7281 127.638 86.9048 127.053 87.9664C126.706 88.5948 126.229 87.7498 125.601 88.7681C125.233 89.3748 124.799 88.5081 124.128 89.5048C123.738 90.0898 123.326 89.2014 122.633 90.1764C122.221 90.7398 121.853 89.8514 121.094 90.7831C120.661 91.3248 120.336 90.4148 119.534 91.3031C119.101 91.8014 118.754 90.9348 117.953 91.7364C117.454 92.2348 117.238 91.2814 116.349 92.0831C115.829 92.5381 115.678 91.6064 114.724 92.2998C114.204 92.6898 114.096 91.7798 113.099 92.3648C112.623 92.6464 112.601 92.1048 111.994 92.0831C106.664 81.3581 114.508 68.7914 126.424 68.7914ZM114.248 95.4848C114.616 95.4848 114.963 95.1381 115.093 95.1381C115.223 95.1381 115.591 95.4631 115.981 95.4198C116.328 95.3981 116.674 95.0081 116.804 94.9864C116.848 94.9864 116.978 95.0298 117.064 95.0731C118.039 95.4631 118.191 94.7698 118.494 94.7048C118.538 94.7048 118.668 94.7264 118.776 94.7698C119.773 95.0948 119.859 94.3798 120.163 94.2931C120.206 94.2714 120.336 94.3148 120.444 94.3364C121.484 94.5964 121.506 93.8814 121.788 93.7948C121.831 93.7731 121.983 93.7948 122.069 93.8164C123.109 94.0331 123.109 93.3181 123.391 93.1881C123.434 93.1664 123.586 93.1881 123.673 93.2098C124.713 93.3614 124.669 92.6681 124.973 92.5381C125.016 92.5164 125.168 92.5381 125.254 92.5381C126.294 92.6464 126.229 91.9531 126.511 91.8014C126.728 91.6931 127.334 92.1048 127.854 91.2381C128.223 90.6314 128.764 91.4548 129.349 90.3714C129.696 89.7431 130.281 90.5448 130.801 89.4398C131.104 88.8114 131.733 89.5481 132.209 88.4431C132.469 87.8148 133.163 88.5081 133.553 87.3814C133.661 87.0998 133.639 87.0998 133.964 87.0564C134.961 86.8831 134.788 86.1681 134.961 85.9948C135.199 85.7781 135.828 86.0814 136.088 85.0631C136.109 84.9548 136.153 84.8248 136.174 84.7814C136.391 84.5431 137.063 84.8031 137.236 83.7848C137.258 83.6764 137.279 83.5464 137.301 83.5031C137.496 83.2648 138.189 83.4814 138.298 82.4198C138.298 82.3114 138.319 82.1814 138.341 82.1381C138.428 82.0081 138.904 81.9431 139.099 81.6181C139.294 81.2931 139.186 80.8164 139.251 80.7081C139.316 80.5781 139.793 80.4481 139.966 80.1014C140.139 79.7548 139.988 79.2998 140.031 79.1698C140.096 79.0398 140.529 78.8448 140.681 78.4981C140.811 78.1298 140.616 77.6964 140.659 77.5664C140.768 77.2414 141.504 79.2348 141.634 79.5814C141.526 79.8848 141.396 80.1664 141.266 80.4698L141.851 80.7298C141.959 80.5131 141.916 80.3831 142.068 80.9898C142.089 80.9898 142.371 82.2464 142.479 83.3514C138.666 91.4331 127.009 97.8248 119.014 98.6048C118.083 98.6914 118.039 98.9081 116.068 97.2398C116.544 97.2181 116.458 97.3481 116.393 96.5681C116.046 96.5898 115.699 96.6114 115.374 96.6114C115.288 96.5464 114.161 95.4848 114.248 95.4848ZM123.174 100.706C129.978 98.9948 137.713 94.5314 142.046 88.8981C139.966 97.0881 131.776 102.461 123.174 100.706Z" fill="#E81F42"/>
<path d="M136.022 88.2696L135.589 87.793C135.264 88.0746 134.917 88.378 134.57 88.6596L134.982 89.158C135.329 88.8763 135.697 88.573 136.022 88.2696Z" fill="#E81F42"/>
<path d="M141.245 81.9645L140.682 81.6611C140.465 82.0511 140.248 82.4195 139.988 82.8095L140.53 83.1561C140.79 82.7661 141.028 82.3545 141.245 81.9645Z" fill="#E81F42"/>
<path d="M139.75 84.2826L139.23 83.8926C138.97 84.2392 138.688 84.5859 138.406 84.9326L138.905 85.3442C139.186 84.9976 139.49 84.6292 139.75 84.2826Z" fill="#E81F42"/>
<path d="M137.994 86.363L137.518 85.9297C137.214 86.2547 136.911 86.5797 136.586 86.883L137.041 87.338C137.366 87.0347 137.691 86.7097 137.994 86.363Z" fill="#E81F42"/>
<path d="M121.809 96.1565L121.614 95.5498C121.181 95.6798 120.748 95.8098 120.314 95.9181L120.466 96.5465C120.921 96.4165 121.354 96.3081 121.809 96.1565Z" fill="#E81F42"/>
<path d="M131.667 91.5632L131.32 91.0215C130.952 91.2598 130.562 91.4981 130.172 91.7365L130.497 92.2998C130.887 92.0615 131.277 91.8015 131.667 91.5632Z" fill="#E81F42"/>
<path d="M126.901 94.2061L126.62 93.6211C126.208 93.8161 125.796 93.9894 125.385 94.1628L125.645 94.7478C126.056 94.5744 126.49 94.4011 126.901 94.2061Z" fill="#E81F42"/>
<path d="M129.327 92.9715L129.024 92.4082C128.634 92.6249 128.244 92.8415 127.832 93.0365L128.135 93.5999C128.525 93.4049 128.915 93.1882 129.327 92.9715Z" fill="#E81F42"/>
<path d="M124.388 95.2676L124.149 94.6826C123.738 94.856 123.304 95.0076 122.893 95.1376L123.109 95.7443C123.521 95.5926 123.954 95.441 124.388 95.2676Z" fill="#E81F42"/>
<path d="M119.145 96.849L119.015 96.2207C118.56 96.3074 118.127 96.394 117.693 96.459L117.78 97.0874C118.235 97.0224 118.69 96.9357 119.145 96.849Z" fill="#E81F42"/>
<path d="M133.899 90.0024L133.509 89.4824C133.162 89.7424 132.794 90.0024 132.426 90.2624L132.794 90.7824C133.184 90.5441 133.552 90.2841 133.899 90.0024Z" fill="#E81F42"/>
</svg>
