<svg width="360" height="30" viewBox="0 0 360 30" fill="none" xmlns="http://www.w3.org/2000/svg">
<rect width="360" height="30" fill="white" fill-opacity="0.5"/>
<path d="M26.28 13.68C26.28 14.0533 26.19 14.4033 26.01 14.73C25.8367 15.0567 25.56 15.32 25.18 15.52C24.8067 15.72 24.3333 15.82 23.76 15.82H22.59V18.5H21.19V11.52H23.76C24.3 11.52 24.76 11.6133 25.14 11.8C25.52 11.9867 25.8033 12.2433 25.99 12.57C26.1833 12.8967 26.28 13.2667 26.28 13.68ZM23.7 14.69C24.0867 14.69 24.3733 14.6033 24.56 14.43C24.7467 14.25 24.84 14 24.84 13.68C24.84 13 24.46 12.66 23.7 12.66H22.59V14.69H23.7ZM28.674 11.1V18.5H27.274V11.1H28.674ZM29.6972 15.71C29.6972 15.15 29.8072 14.6533 30.0272 14.22C30.2539 13.7867 30.5572 13.4533 30.9372 13.22C31.3239 12.9867 31.7539 12.87 32.2272 12.87C32.6405 12.87 33.0005 12.9533 33.3072 13.12C33.6205 13.2867 33.8705 13.4967 34.0572 13.75V12.96H35.4672V18.5H34.0572V17.69C33.8772 17.95 33.6272 18.1667 33.3072 18.34C32.9939 18.5067 32.6305 18.59 32.2172 18.59C31.7505 18.59 31.3239 18.47 30.9372 18.23C30.5572 17.99 30.2539 17.6533 30.0272 17.22C29.8072 16.78 29.6972 16.2767 29.6972 15.71ZM34.0572 15.73C34.0572 15.39 33.9905 15.1 33.8572 14.86C33.7239 14.6133 33.5439 14.4267 33.3172 14.3C33.0905 14.1667 32.8472 14.1 32.5872 14.1C32.3272 14.1 32.0872 14.1633 31.8672 14.29C31.6472 14.4167 31.4672 14.6033 31.3272 14.85C31.1939 15.09 31.1272 15.3767 31.1272 15.71C31.1272 16.0433 31.1939 16.3367 31.3272 16.59C31.4672 16.8367 31.6472 17.0267 31.8672 17.16C32.0939 17.2933 32.3339 17.36 32.5872 17.36C32.8472 17.36 33.0905 17.2967 33.3172 17.17C33.5439 17.0367 33.7239 16.85 33.8572 16.61C33.9905 16.3633 34.0572 16.07 34.0572 15.73ZM42.1345 12.96L38.7045 21.12H37.2145L38.4145 18.36L36.1945 12.96H37.7645L39.1945 16.83L40.6445 12.96H42.1345ZM48.0392 15.61C48.0392 15.81 48.0259 15.99 47.9992 16.15H43.9492C43.9826 16.55 44.1226 16.8633 44.3692 17.09C44.6159 17.3167 44.9192 17.43 45.2792 17.43C45.7992 17.43 46.1692 17.2067 46.3892 16.76H47.8992C47.7392 17.2933 47.4326 17.7333 46.9792 18.08C46.5259 18.42 45.9692 18.59 45.3092 18.59C44.7759 18.59 44.2959 18.4733 43.8692 18.24C43.4492 18 43.1192 17.6633 42.8792 17.23C42.6459 16.7967 42.5292 16.2967 42.5292 15.73C42.5292 15.1567 42.6459 14.6533 42.8792 14.22C43.1126 13.7867 43.4392 13.4533 43.8592 13.22C44.2792 12.9867 44.7626 12.87 45.3092 12.87C45.8359 12.87 46.3059 12.9833 46.7192 13.21C47.1392 13.4367 47.4626 13.76 47.6892 14.18C47.9226 14.5933 48.0392 15.07 48.0392 15.61ZM46.5892 15.21C46.5826 14.85 46.4526 14.5633 46.1992 14.35C45.9459 14.13 45.6359 14.02 45.2692 14.02C44.9226 14.02 44.6292 14.1267 44.3892 14.34C44.1559 14.5467 44.0126 14.8367 43.9592 15.21H46.5892ZM50.4611 13.82C50.6411 13.5267 50.8744 13.2967 51.1611 13.13C51.4544 12.9633 51.7878 12.88 52.1611 12.88V14.35H51.7911C51.3511 14.35 51.0178 14.4533 50.7911 14.66C50.5711 14.8667 50.4611 15.2267 50.4611 15.74V18.5H49.0611V12.96H50.4611V13.82ZM55.2241 18.59C54.7707 18.59 54.3641 18.51 54.0041 18.35C53.6441 18.1833 53.3574 17.96 53.1441 17.68C52.9374 17.4 52.8241 17.09 52.8041 16.75H54.2141C54.2407 16.9633 54.3441 17.14 54.5241 17.28C54.7107 17.42 54.9407 17.49 55.2141 17.49C55.4807 17.49 55.6874 17.4367 55.8341 17.33C55.9874 17.2233 56.0641 17.0867 56.0641 16.92C56.0641 16.74 55.9707 16.6067 55.7841 16.52C55.6041 16.4267 55.3141 16.3267 54.9141 16.22C54.5007 16.12 54.1607 16.0167 53.8941 15.91C53.6341 15.8033 53.4074 15.64 53.2141 15.42C53.0274 15.2 52.9341 14.9033 52.9341 14.53C52.9341 14.2233 53.0207 13.9433 53.1941 13.69C53.3741 13.4367 53.6274 13.2367 53.9541 13.09C54.2874 12.9433 54.6774 12.87 55.1241 12.87C55.7841 12.87 56.3107 13.0367 56.7041 13.37C57.0974 13.6967 57.3141 14.14 57.3541 14.7H56.0141C55.9941 14.48 55.9007 14.3067 55.7341 14.18C55.5741 14.0467 55.3574 13.98 55.0841 13.98C54.8307 13.98 54.6341 14.0267 54.4941 14.12C54.3607 14.2133 54.2941 14.3433 54.2941 14.51C54.2941 14.6967 54.3874 14.84 54.5741 14.94C54.7607 15.0333 55.0507 15.13 55.4441 15.23C55.8441 15.33 56.1741 15.4333 56.4341 15.54C56.6941 15.6467 56.9174 15.8133 57.1041 16.04C57.2974 16.26 57.3974 16.5533 57.4041 16.92C57.4041 17.24 57.3141 17.5267 57.1341 17.78C56.9607 18.0333 56.7074 18.2333 56.3741 18.38C56.0474 18.52 55.6641 18.59 55.2241 18.59Z" fill="black"/>
<path d="M118.94 11.52V12.65H117.08V18.5H115.68V12.65H113.82V11.52H118.94ZM125.111 15.61C125.111 15.81 125.098 15.99 125.071 16.15H121.021C121.055 16.55 121.195 16.8633 121.441 17.09C121.688 17.3167 121.991 17.43 122.351 17.43C122.871 17.43 123.241 17.2067 123.461 16.76H124.971C124.811 17.2933 124.505 17.7333 124.051 18.08C123.598 18.42 123.041 18.59 122.381 18.59C121.848 18.59 121.368 18.4733 120.941 18.24C120.521 18 120.191 17.6633 119.951 17.23C119.718 16.7967 119.601 16.2967 119.601 15.73C119.601 15.1567 119.718 14.6533 119.951 14.22C120.185 13.7867 120.511 13.4533 120.931 13.22C121.351 12.9867 121.835 12.87 122.381 12.87C122.908 12.87 123.378 12.9833 123.791 13.21C124.211 13.4367 124.535 13.76 124.761 14.18C124.995 14.5933 125.111 15.07 125.111 15.61ZM123.661 15.21C123.655 14.85 123.525 14.5633 123.271 14.35C123.018 14.13 122.708 14.02 122.341 14.02C121.995 14.02 121.701 14.1267 121.461 14.34C121.228 14.5467 121.085 14.8367 121.031 15.21H123.661ZM125.773 15.71C125.773 15.15 125.883 14.6533 126.103 14.22C126.33 13.7867 126.633 13.4533 127.013 13.22C127.4 12.9867 127.83 12.87 128.303 12.87C128.717 12.87 129.077 12.9533 129.383 13.12C129.697 13.2867 129.947 13.4967 130.133 13.75V12.96H131.543V18.5H130.133V17.69C129.953 17.95 129.703 18.1667 129.383 18.34C129.07 18.5067 128.707 18.59 128.293 18.59C127.827 18.59 127.4 18.47 127.013 18.23C126.633 17.99 126.33 17.6533 126.103 17.22C125.883 16.78 125.773 16.2767 125.773 15.71ZM130.133 15.73C130.133 15.39 130.067 15.1 129.933 14.86C129.8 14.6133 129.62 14.4267 129.393 14.3C129.167 14.1667 128.923 14.1 128.663 14.1C128.403 14.1 128.163 14.1633 127.943 14.29C127.723 14.4167 127.543 14.6033 127.403 14.85C127.27 15.09 127.203 15.3767 127.203 15.71C127.203 16.0433 127.27 16.3367 127.403 16.59C127.543 16.8367 127.723 17.0267 127.943 17.16C128.17 17.2933 128.41 17.36 128.663 17.36C128.923 17.36 129.167 17.2967 129.393 17.17C129.62 17.0367 129.8 16.85 129.933 16.61C130.067 16.3633 130.133 16.07 130.133 15.73ZM139.791 12.88C140.471 12.88 141.017 13.09 141.431 13.51C141.851 13.9233 142.061 14.5033 142.061 15.25V18.5H140.661V15.44C140.661 15.0067 140.551 14.6767 140.331 14.45C140.111 14.2167 139.811 14.1 139.431 14.1C139.051 14.1 138.747 14.2167 138.521 14.45C138.301 14.6767 138.191 15.0067 138.191 15.44V18.5H136.791V15.44C136.791 15.0067 136.681 14.6767 136.461 14.45C136.241 14.2167 135.941 14.1 135.561 14.1C135.174 14.1 134.867 14.2167 134.641 14.45C134.421 14.6767 134.311 15.0067 134.311 15.44V18.5H132.911V12.96H134.311V13.63C134.491 13.3967 134.721 13.2133 135.001 13.08C135.287 12.9467 135.601 12.88 135.941 12.88C136.374 12.88 136.761 12.9733 137.101 13.16C137.441 13.34 137.704 13.6 137.891 13.94C138.071 13.62 138.331 13.3633 138.671 13.17C139.017 12.9767 139.391 12.88 139.791 12.88Z" fill="black"/>
<path d="M185.501 18.5L183.961 15.78H183.301V18.5H181.901V11.52H184.521C185.061 11.52 185.521 11.6167 185.901 11.81C186.281 11.9967 186.564 12.2533 186.751 12.58C186.944 12.9 187.041 13.26 187.041 13.66C187.041 14.12 186.908 14.5367 186.641 14.91C186.374 15.2767 185.978 15.53 185.451 15.67L187.121 18.5H185.501ZM183.301 14.73H184.471C184.851 14.73 185.134 14.64 185.321 14.46C185.508 14.2733 185.601 14.0167 185.601 13.69C185.601 13.37 185.508 13.1233 185.321 12.95C185.134 12.77 184.851 12.68 184.471 12.68H183.301V14.73ZM193.537 12.96V18.5H192.127V17.8C191.947 18.04 191.711 18.23 191.417 18.37C191.131 18.5033 190.817 18.57 190.477 18.57C190.044 18.57 189.661 18.48 189.327 18.3C188.994 18.1133 188.731 17.8433 188.537 17.49C188.351 17.13 188.257 16.7033 188.257 16.21V12.96H189.657V16.01C189.657 16.45 189.767 16.79 189.987 17.03C190.207 17.2633 190.507 17.38 190.887 17.38C191.274 17.38 191.577 17.2633 191.797 17.03C192.017 16.79 192.127 16.45 192.127 16.01V12.96H193.537ZM197.989 12.88C198.649 12.88 199.182 13.09 199.589 13.51C199.995 13.9233 200.199 14.5033 200.199 15.25V18.5H198.799V15.44C198.799 15 198.689 14.6633 198.469 14.43C198.249 14.19 197.949 14.07 197.569 14.07C197.182 14.07 196.875 14.19 196.649 14.43C196.429 14.6633 196.319 15 196.319 15.44V18.5H194.919V12.96H196.319V13.65C196.505 13.41 196.742 13.2233 197.029 13.09C197.322 12.95 197.642 12.88 197.989 12.88ZM203.65 18.59C203.197 18.59 202.79 18.51 202.43 18.35C202.07 18.1833 201.783 17.96 201.57 17.68C201.363 17.4 201.25 17.09 201.23 16.75H202.64C202.667 16.9633 202.77 17.14 202.95 17.28C203.137 17.42 203.367 17.49 203.64 17.49C203.907 17.49 204.113 17.4367 204.26 17.33C204.413 17.2233 204.49 17.0867 204.49 16.92C204.49 16.74 204.397 16.6067 204.21 16.52C204.03 16.4267 203.74 16.3267 203.34 16.22C202.927 16.12 202.587 16.0167 202.32 15.91C202.06 15.8033 201.833 15.64 201.64 15.42C201.453 15.2 201.36 14.9033 201.36 14.53C201.36 14.2233 201.447 13.9433 201.62 13.69C201.8 13.4367 202.053 13.2367 202.38 13.09C202.713 12.9433 203.103 12.87 203.55 12.87C204.21 12.87 204.737 13.0367 205.13 13.37C205.523 13.6967 205.74 14.14 205.78 14.7H204.44C204.42 14.48 204.327 14.3067 204.16 14.18C204 14.0467 203.783 13.98 203.51 13.98C203.257 13.98 203.06 14.0267 202.92 14.12C202.787 14.2133 202.72 14.3433 202.72 14.51C202.72 14.6967 202.813 14.84 203 14.94C203.187 15.0333 203.477 15.13 203.87 15.23C204.27 15.33 204.6 15.4333 204.86 15.54C205.12 15.6467 205.343 15.8133 205.53 16.04C205.723 16.26 205.823 16.5533 205.83 16.92C205.83 17.24 205.74 17.5267 205.56 17.78C205.387 18.0333 205.133 18.2333 204.8 18.38C204.473 18.52 204.09 18.59 203.65 18.59Z" fill="black"/>
<path d="M247.852 11.52V18.5H246.452V13.96L244.582 18.5H243.522L241.642 13.96V18.5H240.242V11.52H241.832L244.052 16.71L246.272 11.52H247.852ZM248.876 15.71C248.876 15.15 248.986 14.6533 249.206 14.22C249.433 13.7867 249.736 13.4533 250.116 13.22C250.503 12.9867 250.933 12.87 251.406 12.87C251.819 12.87 252.179 12.9533 252.486 13.12C252.799 13.2867 253.049 13.4967 253.236 13.75V12.96H254.646V18.5H253.236V17.69C253.056 17.95 252.806 18.1667 252.486 18.34C252.173 18.5067 251.809 18.59 251.396 18.59C250.929 18.59 250.503 18.47 250.116 18.23C249.736 17.99 249.433 17.6533 249.206 17.22C248.986 16.78 248.876 16.2767 248.876 15.71ZM253.236 15.73C253.236 15.39 253.169 15.1 253.036 14.86C252.903 14.6133 252.723 14.4267 252.496 14.3C252.269 14.1667 252.026 14.1 251.766 14.1C251.506 14.1 251.266 14.1633 251.046 14.29C250.826 14.4167 250.646 14.6033 250.506 14.85C250.373 15.09 250.306 15.3767 250.306 15.71C250.306 16.0433 250.373 16.3367 250.506 16.59C250.646 16.8367 250.826 17.0267 251.046 17.16C251.273 17.2933 251.513 17.36 251.766 17.36C252.026 17.36 252.269 17.2967 252.496 17.17C252.723 17.0367 252.903 16.85 253.036 16.61C253.169 16.3633 253.236 16.07 253.236 15.73ZM257.643 14.11V16.79C257.643 16.9767 257.687 17.1133 257.773 17.2C257.867 17.28 258.02 17.32 258.233 17.32H258.883V18.5H258.003C256.823 18.5 256.233 17.9267 256.233 16.78V14.11H255.573V12.96H256.233V11.59H257.643V12.96H258.883V14.11H257.643ZM259.53 15.73C259.53 15.1567 259.647 14.6567 259.88 14.23C260.114 13.7967 260.437 13.4633 260.85 13.23C261.264 12.99 261.737 12.87 262.27 12.87C262.957 12.87 263.524 13.0433 263.97 13.39C264.424 13.73 264.727 14.21 264.88 14.83H263.37C263.29 14.59 263.154 14.4033 262.96 14.27C262.774 14.13 262.54 14.06 262.26 14.06C261.86 14.06 261.544 14.2067 261.31 14.5C261.077 14.7867 260.96 15.1967 260.96 15.73C260.96 16.2567 261.077 16.6667 261.31 16.96C261.544 17.2467 261.86 17.39 262.26 17.39C262.827 17.39 263.197 17.1367 263.37 16.63H264.88C264.727 17.23 264.424 17.7067 263.97 18.06C263.517 18.4133 262.95 18.59 262.27 18.59C261.737 18.59 261.264 18.4733 260.85 18.24C260.437 18 260.114 17.6667 259.88 17.24C259.647 16.8067 259.53 16.3033 259.53 15.73ZM269.026 12.88C269.446 12.88 269.819 12.9733 270.146 13.16C270.472 13.34 270.726 13.61 270.906 13.97C271.092 14.3233 271.186 14.75 271.186 15.25V18.5H269.786V15.44C269.786 15 269.676 14.6633 269.456 14.43C269.236 14.19 268.936 14.07 268.556 14.07C268.169 14.07 267.862 14.19 267.636 14.43C267.416 14.6633 267.306 15 267.306 15.44V18.5H265.906V11.1H267.306V13.65C267.486 13.41 267.726 13.2233 268.026 13.09C268.326 12.95 268.659 12.88 269.026 12.88ZM277.667 15.61C277.667 15.81 277.654 15.99 277.627 16.15H273.577C273.61 16.55 273.75 16.8633 273.997 17.09C274.244 17.3167 274.547 17.43 274.907 17.43C275.427 17.43 275.797 17.2067 276.017 16.76H277.527C277.367 17.2933 277.06 17.7333 276.607 18.08C276.154 18.42 275.597 18.59 274.937 18.59C274.404 18.59 273.924 18.4733 273.497 18.24C273.077 18 272.747 17.6633 272.507 17.23C272.274 16.7967 272.157 16.2967 272.157 15.73C272.157 15.1567 272.274 14.6533 272.507 14.22C272.74 13.7867 273.067 13.4533 273.487 13.22C273.907 12.9867 274.39 12.87 274.937 12.87C275.464 12.87 275.934 12.9833 276.347 13.21C276.767 13.4367 277.09 13.76 277.317 14.18C277.55 14.5933 277.667 15.07 277.667 15.61ZM276.217 15.21C276.21 14.85 276.08 14.5633 275.827 14.35C275.574 14.13 275.264 14.02 274.897 14.02C274.55 14.02 274.257 14.1267 274.017 14.34C273.784 14.5467 273.64 14.8367 273.587 15.21H276.217ZM280.809 18.59C280.356 18.59 279.949 18.51 279.589 18.35C279.229 18.1833 278.942 17.96 278.729 17.68C278.522 17.4 278.409 17.09 278.389 16.75H279.799C279.826 16.9633 279.929 17.14 280.109 17.28C280.296 17.42 280.526 17.49 280.799 17.49C281.066 17.49 281.272 17.4367 281.419 17.33C281.572 17.2233 281.649 17.0867 281.649 16.92C281.649 16.74 281.556 16.6067 281.369 16.52C281.189 16.4267 280.899 16.3267 280.499 16.22C280.086 16.12 279.746 16.0167 279.479 15.91C279.219 15.8033 278.992 15.64 278.799 15.42C278.612 15.2 278.519 14.9033 278.519 14.53C278.519 14.2233 278.606 13.9433 278.779 13.69C278.959 13.4367 279.212 13.2367 279.539 13.09C279.872 12.9433 280.262 12.87 280.709 12.87C281.369 12.87 281.896 13.0367 282.289 13.37C282.682 13.6967 282.899 14.14 282.939 14.7H281.599C281.579 14.48 281.486 14.3067 281.319 14.18C281.159 14.0467 280.942 13.98 280.669 13.98C280.416 13.98 280.219 14.0267 280.079 14.12C279.946 14.2133 279.879 14.3433 279.879 14.51C279.879 14.6967 279.972 14.84 280.159 14.94C280.346 15.0333 280.636 15.13 281.029 15.23C281.429 15.33 281.759 15.4333 282.019 15.54C282.279 15.6467 282.502 15.8133 282.689 16.04C282.882 16.26 282.982 16.5533 282.989 16.92C282.989 17.24 282.899 17.5267 282.719 17.78C282.546 18.0333 282.292 18.2333 281.959 18.38C281.632 18.52 281.249 18.59 280.809 18.59Z" fill="black"/>
<path d="M303.777 11.52V18.5H302.377V11.52H303.777ZM308.23 12.88C308.89 12.88 309.423 13.09 309.83 13.51C310.236 13.9233 310.44 14.5033 310.44 15.25V18.5H309.04V15.44C309.04 15 308.93 14.6633 308.71 14.43C308.49 14.19 308.19 14.07 307.81 14.07C307.423 14.07 307.116 14.19 306.89 14.43C306.67 14.6633 306.56 15 306.56 15.44V18.5H305.16V12.96H306.56V13.65C306.746 13.41 306.983 13.2233 307.27 13.09C307.563 12.95 307.883 12.88 308.23 12.88ZM314.841 12.88C315.501 12.88 316.034 13.09 316.441 13.51C316.848 13.9233 317.051 14.5033 317.051 15.25V18.5H315.651V15.44C315.651 15 315.541 14.6633 315.321 14.43C315.101 14.19 314.801 14.07 314.421 14.07C314.034 14.07 313.728 14.19 313.501 14.43C313.281 14.6633 313.171 15 313.171 15.44V18.5H311.771V12.96H313.171V13.65C313.358 13.41 313.594 13.2233 313.881 13.09C314.174 12.95 314.494 12.88 314.841 12.88ZM319.092 12.3C318.846 12.3 318.639 12.2233 318.472 12.07C318.312 11.91 318.232 11.7133 318.232 11.48C318.232 11.2467 318.312 11.0533 318.472 10.9C318.639 10.74 318.846 10.66 319.092 10.66C319.339 10.66 319.542 10.74 319.702 10.9C319.869 11.0533 319.952 11.2467 319.952 11.48C319.952 11.7133 319.869 11.91 319.702 12.07C319.542 12.2233 319.339 12.3 319.092 12.3ZM319.782 12.96V18.5H318.382V12.96H319.782ZM324.236 12.88C324.896 12.88 325.429 13.09 325.836 13.51C326.242 13.9233 326.446 14.5033 326.446 15.25V18.5H325.046V15.44C325.046 15 324.936 14.6633 324.716 14.43C324.496 14.19 324.196 14.07 323.816 14.07C323.429 14.07 323.122 14.19 322.896 14.43C322.676 14.6633 322.566 15 322.566 15.44V18.5H321.166V12.96H322.566V13.65C322.752 13.41 322.989 13.2233 323.276 13.09C323.569 12.95 323.889 12.88 324.236 12.88ZM329.947 12.87C330.36 12.87 330.724 12.9533 331.037 13.12C331.35 13.28 331.597 13.49 331.777 13.75V12.96H333.187V18.54C333.187 19.0533 333.084 19.51 332.877 19.91C332.67 20.3167 332.36 20.6367 331.947 20.87C331.534 21.11 331.034 21.23 330.447 21.23C329.66 21.23 329.014 21.0467 328.507 20.68C328.007 20.3133 327.724 19.8133 327.657 19.18H329.047C329.12 19.4333 329.277 19.6333 329.517 19.78C329.764 19.9333 330.06 20.01 330.407 20.01C330.814 20.01 331.144 19.8867 331.397 19.64C331.65 19.4 331.777 19.0333 331.777 18.54V17.68C331.597 17.94 331.347 18.1567 331.027 18.33C330.714 18.5033 330.354 18.59 329.947 18.59C329.48 18.59 329.054 18.47 328.667 18.23C328.28 17.99 327.974 17.6533 327.747 17.22C327.527 16.78 327.417 16.2767 327.417 15.71C327.417 15.15 327.527 14.6533 327.747 14.22C327.974 13.7867 328.277 13.4533 328.657 13.22C329.044 12.9867 329.474 12.87 329.947 12.87ZM331.777 15.73C331.777 15.39 331.71 15.1 331.577 14.86C331.444 14.6133 331.264 14.4267 331.037 14.3C330.81 14.1667 330.567 14.1 330.307 14.1C330.047 14.1 329.807 14.1633 329.587 14.29C329.367 14.4167 329.187 14.6033 329.047 14.85C328.914 15.09 328.847 15.3767 328.847 15.71C328.847 16.0433 328.914 16.3367 329.047 16.59C329.187 16.8367 329.367 17.0267 329.587 17.16C329.814 17.2933 330.054 17.36 330.307 17.36C330.567 17.36 330.81 17.2967 331.037 17.17C331.264 17.0367 331.444 16.85 331.577 16.61C331.71 16.3633 331.777 16.07 331.777 15.73ZM336.674 18.59C336.221 18.59 335.814 18.51 335.454 18.35C335.094 18.1833 334.808 17.96 334.594 17.68C334.388 17.4 334.274 17.09 334.254 16.75H335.664C335.691 16.9633 335.794 17.14 335.974 17.28C336.161 17.42 336.391 17.49 336.664 17.49C336.931 17.49 337.138 17.4367 337.284 17.33C337.438 17.2233 337.514 17.0867 337.514 16.92C337.514 16.74 337.421 16.6067 337.234 16.52C337.054 16.4267 336.764 16.3267 336.364 16.22C335.951 16.12 335.611 16.0167 335.344 15.91C335.084 15.8033 334.858 15.64 334.664 15.42C334.478 15.2 334.384 14.9033 334.384 14.53C334.384 14.2233 334.471 13.9433 334.644 13.69C334.824 13.4367 335.078 13.2367 335.404 13.09C335.738 12.9433 336.128 12.87 336.574 12.87C337.234 12.87 337.761 13.0367 338.154 13.37C338.548 13.6967 338.764 14.14 338.804 14.7H337.464C337.444 14.48 337.351 14.3067 337.184 14.18C337.024 14.0467 336.808 13.98 336.534 13.98C336.281 13.98 336.084 14.0267 335.944 14.12C335.811 14.2133 335.744 14.3433 335.744 14.51C335.744 14.6967 335.838 14.84 336.024 14.94C336.211 15.0333 336.501 15.13 336.894 15.23C337.294 15.33 337.624 15.4333 337.884 15.54C338.144 15.6467 338.368 15.8133 338.554 16.04C338.748 16.26 338.848 16.5533 338.854 16.92C338.854 17.24 338.764 17.5267 338.584 17.78C338.411 18.0333 338.158 18.2333 337.824 18.38C337.498 18.52 337.114 18.59 336.674 18.59Z" fill="black"/>
</svg>
