<svg width="360" height="264" viewBox="0 0 360 264" fill="none" xmlns="http://www.w3.org/2000/svg">
<ellipse cx="3.7702" cy="3.97819" rx="3.7702" ry="3.97819" transform="matrix(-0.678851 -0.734276 -0.734276 0.678851 6.73877 250.635)" fill="#007438" fill-opacity="0.3"/>
<ellipse cx="3.7702" cy="3.97819" rx="3.7702" ry="3.97819" transform="matrix(-0.678851 -0.734276 -0.734276 0.678851 11.9316 262.059)" fill="#007438" fill-opacity="0.3"/>
<ellipse cx="3.7702" cy="3.97819" rx="3.7702" ry="3.97819" transform="matrix(-0.678851 -0.734276 -0.734276 0.678851 22.3186 259.982)" fill="#007438" fill-opacity="0.3"/>
<ellipse cx="3.7702" cy="3.97819" rx="3.7702" ry="3.97819" transform="matrix(-0.678851 -0.734276 -0.734276 0.678851 32.7041 258.943)" fill="#007438" fill-opacity="0.3"/>
<ellipse cx="2.49538" cy="3.63493" rx="2.49538" ry="3.63493" transform="matrix(0.251198 -0.967936 -0.967936 -0.251198 0.292969 244.485)" fill="#007438" fill-opacity="0.3"/>
<ellipse cx="1.27606" cy="3.08597" rx="1.27606" ry="3.08597" transform="matrix(0.481822 -0.876269 -0.876269 -0.481822 13.8179 235.769)" fill="#007438" fill-opacity="0.3"/>
<ellipse cx="1.27606" cy="3.08597" rx="1.27606" ry="3.08597" transform="matrix(0.481822 -0.876269 -0.876269 -0.481822 7.58667 230.576)" fill="#007438" fill-opacity="0.3"/>
<ellipse cx="1.33081" cy="3.08597" rx="1.33081" ry="3.08597" transform="matrix(0.481822 -0.876269 -0.876269 -0.481822 0.290527 225.432)" fill="#007438" fill-opacity="0.3"/>
<ellipse cx="1.27606" cy="3.08597" rx="1.27606" ry="3.08597" transform="matrix(0.481822 -0.876269 -0.876269 -0.481822 20.0493 243.038)" fill="#007438" fill-opacity="0.3"/>
<ellipse cx="1.27606" cy="3.08597" rx="1.27606" ry="3.08597" transform="matrix(0.481822 -0.876269 -0.876269 -0.481822 29.3965 244.077)" fill="#007438" fill-opacity="0.3"/>
<ellipse cx="1.27606" cy="3.08597" rx="1.27606" ry="3.08597" transform="matrix(0.481822 -0.876269 -0.876269 -0.481822 22.1265 237.846)" fill="#007438" fill-opacity="0.3"/>
<ellipse cx="1.27606" cy="3.08597" rx="1.27606" ry="3.08597" transform="matrix(0.481822 -0.876269 -0.876269 -0.481822 31.4736 239.923)" fill="#007438" fill-opacity="0.3"/>
<ellipse cx="1.27606" cy="3.08597" rx="1.27606" ry="3.08597" transform="matrix(0.481822 -0.876269 -0.876269 -0.481822 37.7048 247.193)" fill="#007438" fill-opacity="0.3"/>
<ellipse cx="1.27606" cy="3.08597" rx="1.27606" ry="3.08597" transform="matrix(0.481822 -0.876269 -0.876269 -0.481822 44.9749 249.27)" fill="#007438" fill-opacity="0.3"/>
<ellipse cx="0.97642" cy="2.98938" rx="0.97642" ry="2.98938" transform="matrix(0.481822 -0.876269 -0.876269 -0.481822 0.605469 208.148)" fill="#007438" fill-opacity="0.3"/>
<ellipse cx="0.97642" cy="2.98938" rx="0.97642" ry="2.98938" transform="matrix(0.481822 -0.876269 -0.876269 -0.481822 3.72119 219.572)" fill="#007438" fill-opacity="0.3"/>
<ellipse cx="0.97642" cy="2.98938" rx="0.97642" ry="2.98938" transform="matrix(0.481822 -0.876269 -0.876269 -0.481822 5.7981 216.457)" fill="#007438" fill-opacity="0.3"/>
<ellipse cx="0.97642" cy="2.98938" rx="0.97642" ry="2.98938" transform="matrix(0.481822 -0.876269 -0.876269 -0.481822 12.0295 221.649)" fill="#007438" fill-opacity="0.3"/>
<ellipse cx="0.97642" cy="2.98938" rx="0.97642" ry="2.98938" transform="matrix(0.481822 -0.876269 -0.876269 -0.481822 15.1455 226.842)" fill="#007438" fill-opacity="0.3"/>
<ellipse cx="0.97642" cy="2.98938" rx="0.97642" ry="2.98938" transform="matrix(0.481822 -0.876269 -0.876269 -0.481822 23.4536 230.996)" fill="#007438" fill-opacity="0.3"/>
<ellipse cx="0.97642" cy="2.98938" rx="0.97642" ry="2.98938" transform="matrix(0.481822 -0.876269 -0.876269 -0.481822 33.8394 234.112)" fill="#007438" fill-opacity="0.3"/>
<ellipse cx="0.97642" cy="2.98938" rx="0.97642" ry="2.98938" transform="matrix(0.481822 -0.876269 -0.876269 -0.481822 40.0708 243.459)" fill="#007438" fill-opacity="0.3"/>
<ellipse cx="0.97642" cy="2.98938" rx="0.97642" ry="2.98938" transform="matrix(0.481822 -0.876269 -0.876269 -0.481822 41.1094 239.305)" fill="#007438" fill-opacity="0.3"/>
<ellipse cx="0.97642" cy="2.98938" rx="0.97642" ry="2.98938" transform="matrix(0.481822 -0.876269 -0.876269 -0.481822 47.3406 246.575)" fill="#007438" fill-opacity="0.3"/>
<ellipse cx="0.97642" cy="2.98938" rx="0.97642" ry="2.98938" transform="matrix(0.481822 -0.876269 -0.876269 -0.481822 53.5723 252.806)" fill="#007438" fill-opacity="0.3"/>
<ellipse cx="0.97642" cy="2.98938" rx="0.97642" ry="2.98938" transform="matrix(0.481822 -0.876269 -0.876269 -0.481822 56.6877 247.613)" fill="#007438" fill-opacity="0.3"/>
<ellipse cx="0.97642" cy="2.98938" rx="0.97642" ry="2.98938" transform="matrix(0.481822 -0.876269 -0.876269 -0.481822 62.9189 253.844)" fill="#007438" fill-opacity="0.3"/>
<ellipse cx="0.97642" cy="2.98938" rx="0.97642" ry="2.98938" transform="matrix(0.481822 -0.876269 -0.876269 -0.481822 62.9189 256.96)" fill="#007438" fill-opacity="0.3"/>
<ellipse cx="0.779815" cy="2.98938" rx="0.779815" ry="2.98938" transform="matrix(0.481822 -0.876269 -0.876269 -0.481822 68.2061 263.019)" fill="#007438" fill-opacity="0.3"/>
<ellipse cx="0.779815" cy="2.98938" rx="0.779815" ry="2.98938" transform="matrix(0.481822 -0.876269 -0.876269 -0.481822 75.5713 264.924)" fill="#007438" fill-opacity="0.3"/>
<ellipse cx="0.779815" cy="2.98938" rx="0.779815" ry="2.98938" transform="matrix(0.481822 -0.876269 -0.876269 -0.481822 70.3784 258.693)" fill="#007438" fill-opacity="0.3"/>
<ellipse cx="0.779815" cy="2.98938" rx="0.779815" ry="2.98938" transform="matrix(0.481822 -0.876269 -0.876269 -0.481822 66.2241 251.423)" fill="#007438" fill-opacity="0.3"/>
<ellipse cx="0.97642" cy="2.98938" rx="0.97642" ry="2.98938" transform="matrix(0.481822 -0.876269 -0.876269 -0.481822 50.4563 241.382)" fill="#007438" fill-opacity="0.3"/>
<ellipse cx="2.49538" cy="3.63493" rx="2.49538" ry="3.63493" transform="matrix(0.251198 -0.967936 -0.967936 -0.251198 5.48608 236.177)" fill="#007438" fill-opacity="0.3"/>
<ellipse cx="2.49538" cy="3.63493" rx="2.49538" ry="3.63493" transform="matrix(0.251198 -0.967936 -0.967936 -0.251198 11.7173 243.447)" fill="#007438" fill-opacity="0.3"/>
<ellipse cx="2.49538" cy="3.63493" rx="2.49538" ry="3.63493" transform="matrix(0.251198 -0.967936 -0.967936 -0.251198 15.8716 251.755)" fill="#007438" fill-opacity="0.3"/>
<ellipse cx="2.49538" cy="3.63493" rx="2.49538" ry="3.63493" transform="matrix(0.251198 -0.967936 -0.967936 -0.251198 26.2573 251.755)" fill="#007438" fill-opacity="0.3"/>
<ellipse cx="1.89022" cy="3.05247" rx="1.89022" ry="3.05247" transform="matrix(0.251198 -0.967936 -0.967936 -0.251198 34.78 252.368)" fill="#007438" fill-opacity="0.3"/>
<ellipse cx="1.89022" cy="3.05247" rx="1.89022" ry="3.05247" transform="matrix(0.404541 -0.91452 -0.91452 -0.404541 38.571 262.083)" fill="#007438" fill-opacity="0.3"/>
<ellipse cx="1.89022" cy="3.05247" rx="1.89022" ry="3.05247" transform="matrix(0.404541 -0.91452 -0.91452 -0.404541 48.8298 263.488)" fill="#007438" fill-opacity="0.3"/>
<ellipse cx="1.42628" cy="3.05247" rx="1.42628" ry="3.05247" transform="matrix(0.404541 -0.91452 -0.91452 -0.404541 57.1384 264.527)" fill="#007438" fill-opacity="0.3"/>
<ellipse cx="1.42628" cy="3.05247" rx="1.42628" ry="3.05247" transform="matrix(0.404541 -0.91452 -0.91452 -0.404541 57.5132 264.717)" fill="#007438" fill-opacity="0.3"/>
<ellipse cx="1.42628" cy="3.05247" rx="1.42628" ry="3.05247" transform="matrix(0.404541 -0.91452 -0.91452 -0.404541 42.9734 253.292)" fill="#007438" fill-opacity="0.3"/>
<ellipse cx="1.42628" cy="3.05247" rx="1.42628" ry="3.05247" transform="matrix(0.404541 -0.91452 -0.91452 -0.404541 52.3206 256.408)" fill="#007438" fill-opacity="0.3"/>
<ellipse cx="1.42628" cy="3.05247" rx="1.42628" ry="3.05247" transform="matrix(0.404541 -0.91452 -0.91452 -0.404541 60.6289 260.562)" fill="#007438" fill-opacity="0.3"/>
<ellipse cx="1.42628" cy="3.05247" rx="1.42628" ry="3.05247" transform="matrix(0.573356 -0.819306 -0.819306 -0.573356 65.3398 267.553)" fill="#007438" fill-opacity="0.3"/>
<circle cx="-0.529742" cy="189.017" r="2.07711" transform="rotate(90 -0.529742 189.017)" fill="#007438" fill-opacity="0.3"/>
<circle cx="3.62455" cy="198.364" r="2.07711" transform="rotate(90 3.62455 198.364)" fill="#007438" fill-opacity="0.3"/>
<circle cx="8.81596" cy="207.71" r="2.07711" transform="rotate(90 8.81596 207.71)" fill="#007438" fill-opacity="0.3"/>
<circle cx="15.0486" cy="214.98" r="2.07711" transform="rotate(90 15.0486 214.98)" fill="#007438" fill-opacity="0.3"/>
<circle cx="19.2029" cy="221.212" r="2.07711" transform="rotate(90 19.2029 221.212)" fill="#007438" fill-opacity="0.3"/>
<circle cx="29.5872" cy="224.328" r="2.07711" transform="rotate(90 29.5872 224.328)" fill="#007438" fill-opacity="0.3"/>
<circle cx="24.3946" cy="214.98" r="2.07711" transform="rotate(90 24.3946 214.98)" fill="#007438" fill-opacity="0.3"/>
<circle cx="19.2029" cy="207.71" r="2.07711" transform="rotate(90 19.2029 207.71)" fill="#007438" fill-opacity="0.3"/>
<circle cx="14.0088" cy="198.364" r="2.07711" transform="rotate(90 14.0088 198.364)" fill="#007438" fill-opacity="0.3"/>
<circle cx="8.81596" cy="190.055" r="2.07711" transform="rotate(90 8.81596 190.055)" fill="#007438" fill-opacity="0.3"/>
<circle cx="4.66166" cy="180.708" r="2.07711" transform="rotate(90 4.66166 180.708)" fill="#007438" fill-opacity="0.3"/>
<circle cx="-0.529742" cy="173.438" r="2.07711" transform="rotate(90 -0.529742 173.438)" fill="#007438" fill-opacity="0.3"/>
<circle cx="3.62455" cy="165.13" r="2.07711" transform="rotate(90 3.62455 165.13)" fill="#007438" fill-opacity="0.3"/>
<circle cx="9.85454" cy="173.438" r="2.07711" transform="rotate(90 9.85454 173.438)" fill="#007438" fill-opacity="0.3"/>
<circle cx="15.0486" cy="180.708" r="2.07711" transform="rotate(90 15.0486 180.708)" fill="#007438" fill-opacity="0.3"/>
<circle cx="19.2029" cy="189.017" r="2.07711" transform="rotate(90 19.2029 189.017)" fill="#007438" fill-opacity="0.3"/>
<circle cx="24.3946" cy="198.364" r="2.07711" transform="rotate(90 24.3946 198.364)" fill="#007438" fill-opacity="0.3"/>
<circle cx="28.5498" cy="205.633" r="2.07711" transform="rotate(90 28.5498 205.633)" fill="#007438" fill-opacity="0.3"/>
<circle cx="33.7413" cy="214.98" r="2.07711" transform="rotate(90 33.7413 214.98)" fill="#007438" fill-opacity="0.3"/>
<circle cx="38.9341" cy="224.328" r="2.07711" transform="rotate(90 38.9341 224.328)" fill="#007438" fill-opacity="0.3"/>
<circle cx="44.127" cy="231.597" r="2.07711" transform="rotate(90 44.127 231.597)" fill="#007438" fill-opacity="0.3"/>
<circle cx="1.55783" cy="1.55783" r="1.55783" transform="matrix(0 -1 -1 0 49.3198 225.366)" fill="#007438" fill-opacity="0.3"/>
<circle cx="1.55783" cy="1.55783" r="1.55783" transform="matrix(0 -1 -1 0 53.4741 234.713)" fill="#007438" fill-opacity="0.3"/>
<circle cx="1.55783" cy="1.55783" r="1.55783" transform="matrix(0 -1 -1 0 59.7053 243.021)" fill="#007438" fill-opacity="0.3"/>
<circle cx="1.55783" cy="1.55783" r="1.55783" transform="matrix(0 -1 -1 0 63.8596 235.751)" fill="#007438" fill-opacity="0.3"/>
<circle cx="1.55783" cy="1.55783" r="1.55783" transform="matrix(0 -1 -1 0 69.0525 245.099)" fill="#007438" fill-opacity="0.3"/>
<circle cx="1.55783" cy="1.55783" r="1.55783" transform="matrix(0 -1 -1 0 74.2451 254.445)" fill="#007438" fill-opacity="0.3"/>
<circle cx="1.55783" cy="1.55783" r="1.55783" transform="matrix(0 -1 -1 0 78.3994 261.715)" fill="#007438" fill-opacity="0.3"/>
<circle cx="1.55783" cy="1.55783" r="1.55783" transform="matrix(0 -1 -1 0 86.708 264.831)" fill="#007438" fill-opacity="0.3"/>
<circle cx="1.55783" cy="1.55783" r="1.55783" transform="matrix(0 -1 -1 0 91.9009 258.6)" fill="#007438" fill-opacity="0.3"/>
<circle cx="1.55783" cy="1.55783" r="1.55783" transform="matrix(0 -1 -1 0 100.209 261.715)" fill="#007438" fill-opacity="0.3"/>
<circle cx="1.55783" cy="1.55783" r="1.55783" transform="matrix(0 -1 -1 0 109.556 262.754)" fill="#007438" fill-opacity="0.3"/>
<circle cx="1.55783" cy="1.55783" r="1.55783" transform="matrix(0 -1 -1 0 97.0935 249.253)" fill="#007438" fill-opacity="0.3"/>
<circle cx="1.55783" cy="1.55783" r="1.55783" transform="matrix(0 -1 -1 0 105.402 253.407)" fill="#007438" fill-opacity="0.3"/>
<circle cx="1.55783" cy="1.55783" r="1.55783" transform="matrix(0 -1 -1 0 108.518 248.214)" fill="#007438" fill-opacity="0.3"/>
<circle cx="1.55783" cy="1.55783" r="1.55783" transform="matrix(0 -1 -1 0 111.634 245.099)" fill="#007438" fill-opacity="0.3"/>
<circle cx="1.55783" cy="1.55783" r="1.55783" transform="matrix(0 -1 -1 0 114.749 239.906)" fill="#007438" fill-opacity="0.3"/>
<circle cx="1.55783" cy="1.55783" r="1.55783" transform="matrix(0 -1 -1 0 120.98 229.52)" fill="#007438" fill-opacity="0.3"/>
<circle cx="1.55783" cy="1.55783" r="1.55783" transform="matrix(0 -1 -1 0 118.903 217.058)" fill="#007438" fill-opacity="0.3"/>
<circle cx="1.55783" cy="1.55783" r="1.55783" transform="matrix(0 -1 -1 0 124.096 243.021)" fill="#007438" fill-opacity="0.3"/>
<circle cx="1.55783" cy="1.55783" r="1.55783" transform="matrix(0 -1 -1 0 120.98 249.253)" fill="#007438" fill-opacity="0.3"/>
<circle cx="1.55783" cy="1.55783" r="1.55783" transform="matrix(0 -1 -1 0 117.865 253.407)" fill="#007438" fill-opacity="0.3"/>
<circle cx="1.55783" cy="1.55783" r="1.55783" transform="matrix(0 -1 -1 0 113.71 257.561)" fill="#007438" fill-opacity="0.3"/>
<circle cx="1.55783" cy="1.55783" r="1.55783" transform="matrix(0 -1 -1 0 117.865 265.87)" fill="#007438" fill-opacity="0.3"/>
<circle cx="1.55783" cy="1.55783" r="1.55783" transform="matrix(0 -1 -1 0 122.019 261.715)" fill="#007438" fill-opacity="0.3"/>
<circle cx="1.55783" cy="1.55783" r="1.55783" transform="matrix(0 -1 -1 0 127.212 255.484)" fill="#007438" fill-opacity="0.3"/>
<circle cx="1.55783" cy="1.55783" r="1.55783" transform="matrix(0 -1 -1 0 137.597 256.522)" fill="#007438" fill-opacity="0.3"/>
<circle cx="1.55783" cy="1.55783" r="1.55783" transform="matrix(0 -1 -1 0 131.366 264.831)" fill="#007438" fill-opacity="0.3"/>
<circle cx="1.55783" cy="1.55783" r="1.55783" transform="matrix(0 -1 -1 0 110.595 229.52)" fill="#007438" fill-opacity="0.3"/>
<circle cx="1.55783" cy="1.55783" r="1.55783" transform="matrix(0 -1 -1 0 106.441 235.751)" fill="#007438" fill-opacity="0.3"/>
<circle cx="1.55783" cy="1.55783" r="1.55783" transform="matrix(0 -1 -1 0 99.1707 244.06)" fill="#007438" fill-opacity="0.3"/>
<circle cx="1.55783" cy="1.55783" r="1.55783" transform="matrix(0 -1 -1 0 95.0166 236.79)" fill="#007438" fill-opacity="0.3"/>
<circle cx="1.55783" cy="1.55783" r="1.55783" transform="matrix(0 -1 -1 0 87.7466 232.636)" fill="#007438" fill-opacity="0.3"/>
<circle cx="1.55783" cy="1.55783" r="1.55783" transform="matrix(0 -1 -1 0 90.8623 227.443)" fill="#007438" fill-opacity="0.3"/>
<circle cx="1.55783" cy="1.55783" r="1.55783" transform="matrix(0 -1 -1 0 85.6694 220.173)" fill="#007438" fill-opacity="0.3"/>
<circle cx="1.55783" cy="1.55783" r="1.55783" transform="matrix(0 -1 -1 0 81.5151 224.328)" fill="#007438" fill-opacity="0.3"/>
<circle cx="1.55783" cy="1.55783" r="1.55783" transform="matrix(0 -1 -1 0 77.3608 214.98)" fill="#007438" fill-opacity="0.3"/>
<circle cx="1.55783" cy="1.55783" r="1.55783" transform="matrix(0 -1 -1 0 80.4766 209.788)" fill="#007438" fill-opacity="0.3"/>
<circle cx="1.55783" cy="1.55783" r="1.55783" transform="matrix(0 -1 -1 0 89.8237 212.903)" fill="#007438" fill-opacity="0.3"/>
<circle cx="1.55783" cy="1.55783" r="1.55783" transform="matrix(0 -1 -1 0 85.6694 204.595)" fill="#007438" fill-opacity="0.3"/>
<circle cx="1.55783" cy="1.55783" r="1.55783" transform="matrix(0 -1 -1 0 90.8623 194.209)" fill="#007438" fill-opacity="0.3"/>
<circle cx="1.55783" cy="1.55783" r="1.55783" transform="matrix(0 -1 -1 0 95.0166 205.633)" fill="#007438" fill-opacity="0.3"/>
<circle cx="1.55783" cy="1.55783" r="1.55783" transform="matrix(0 -1 -1 0 98.1321 216.019)" fill="#007438" fill-opacity="0.3"/>
<circle cx="1.55783" cy="1.55783" r="1.55783" transform="matrix(0 -1 -1 0 93.978 223.289)" fill="#007438" fill-opacity="0.3"/>
<circle cx="1.55783" cy="1.55783" r="1.55783" transform="matrix(0 -1 -1 0 98.1321 232.636)" fill="#007438" fill-opacity="0.3"/>
<circle cx="1.55783" cy="1.55783" r="1.55783" transform="matrix(0 -1 -1 0 102.286 225.366)" fill="#007438" fill-opacity="0.3"/>
<circle cx="1.55783" cy="1.55783" r="1.55783" transform="matrix(0 -1 -1 0 108.518 217.058)" fill="#007438" fill-opacity="0.3"/>
<circle cx="1.55783" cy="1.55783" r="1.55783" transform="matrix(0 -1 -1 0 104.363 205.633)" fill="#007438" fill-opacity="0.3"/>
<circle cx="1.55783" cy="1.55783" r="1.55783" transform="matrix(0 -1 -1 0 114.749 204.595)" fill="#007438" fill-opacity="0.3"/>
<circle cx="1.55783" cy="1.55783" r="1.55783" transform="matrix(0 -1 -1 0 110.595 193.171)" fill="#007438" fill-opacity="0.3"/>
<circle cx="1.55783" cy="1.55783" r="1.55783" transform="matrix(0 -1 -1 0 100.209 195.248)" fill="#007438" fill-opacity="0.3"/>
<circle cx="1.55783" cy="1.55783" r="1.55783" transform="matrix(0 -1 -1 0 96.0549 185.901)" fill="#007438" fill-opacity="0.3"/>
<circle cx="1.55783" cy="1.55783" r="1.55783" transform="matrix(0 -1 -1 0 81.5151 194.209)" fill="#007438" fill-opacity="0.3"/>
<circle cx="1.55783" cy="1.55783" r="1.55783" transform="matrix(0 -1 -1 0 75.2837 200.44)" fill="#007438" fill-opacity="0.3"/>
<circle cx="1.55783" cy="1.55783" r="1.55783" transform="matrix(0 -1 -1 0 73.2068 205.633)" fill="#007438" fill-opacity="0.3"/>
<circle cx="1.55783" cy="1.55783" r="1.55783" transform="matrix(0 -1 -1 0 68.0137 198.363)" fill="#007438" fill-opacity="0.3"/>
<circle cx="1.55783" cy="1.55783" r="1.55783" transform="matrix(0 -1 -1 0 71.1296 192.132)" fill="#007438" fill-opacity="0.3"/>
<circle cx="1.55783" cy="1.55783" r="1.55783" transform="matrix(0 -1 -1 0 75.2837 185.901)" fill="#007438" fill-opacity="0.3"/>
<circle cx="1.55783" cy="1.55783" r="1.55783" transform="matrix(0 -1 -1 0 79.438 179.67)" fill="#007438" fill-opacity="0.3"/>
<circle cx="1.55783" cy="1.55783" r="1.55783" transform="matrix(0 -1 -1 0 89.8237 176.554)" fill="#007438" fill-opacity="0.3"/>
<circle cx="1.55783" cy="1.55783" r="1.55783" transform="matrix(0 -1 -1 0 84.6309 168.246)" fill="#007438" fill-opacity="0.3"/>
<circle cx="1.55783" cy="1.55783" r="1.55783" transform="matrix(0 -1 -1 0 102.286 173.438)" fill="#007438" fill-opacity="0.3"/>
<circle cx="1.55783" cy="1.55783" r="1.55783" transform="matrix(0 -1 -1 0 106.441 184.863)" fill="#007438" fill-opacity="0.3"/>
<circle cx="1.55783" cy="1.55783" r="1.55783" transform="matrix(0 -1 -1 0 84.6309 185.901)" fill="#007438" fill-opacity="0.3"/>
<circle cx="1.55783" cy="1.55783" r="1.55783" transform="matrix(0 -1 -1 0 103.325 240.944)" fill="#007438" fill-opacity="0.3"/>
<circle cx="1.55783" cy="1.55783" r="1.55783" transform="matrix(0 -1 -1 0 91.9009 241.983)" fill="#007438" fill-opacity="0.3"/>
<circle cx="1.55783" cy="1.55783" r="1.55783" transform="matrix(0 -1 -1 0 134.482 241.983)" fill="#007438" fill-opacity="0.3"/>
<circle cx="1.55783" cy="1.55783" r="1.55783" transform="matrix(0 -1 -1 0 132.405 227.443)" fill="#007438" fill-opacity="0.3"/>
<circle cx="1.55783" cy="1.55783" r="1.55783" transform="matrix(0 -1 -1 0 130.328 213.942)" fill="#007438" fill-opacity="0.3"/>
<circle cx="1.55783" cy="1.55783" r="1.55783" transform="matrix(0 -1 -1 0 141.752 209.788)" fill="#007438" fill-opacity="0.3"/>
<circle cx="1.55783" cy="1.55783" r="1.55783" transform="matrix(0 -1 -1 0 137.597 198.364)" fill="#007438" fill-opacity="0.3"/>
<circle cx="1.55783" cy="1.55783" r="1.55783" transform="matrix(0 -1 -1 0 126.173 202.518)" fill="#007438" fill-opacity="0.3"/>
<circle cx="1.55783" cy="1.55783" r="1.55783" transform="matrix(0 -1 -1 0 122.019 191.094)" fill="#007438" fill-opacity="0.3"/>
<circle cx="1.55783" cy="1.55783" r="1.55783" transform="matrix(0 -1 -1 0 134.482 184.863)" fill="#007438" fill-opacity="0.3"/>
<circle cx="1.55783" cy="1.55783" r="1.55783" transform="matrix(0 -1 -1 0 117.865 179.67)" fill="#007438" fill-opacity="0.3"/>
<circle cx="1.55783" cy="1.55783" r="1.55783" transform="matrix(0 -1 -1 0 142.79 223.289)" fill="#007438" fill-opacity="0.3"/>
<circle cx="1.55783" cy="1.55783" r="1.55783" transform="matrix(0 -1 -1 0 145.906 238.867)" fill="#007438" fill-opacity="0.3"/>
<circle cx="1.55783" cy="1.55783" r="1.55783" transform="matrix(0 -1 -1 0 146.945 254.445)" fill="#007438" fill-opacity="0.3"/>
<circle cx="1.55783" cy="1.55783" r="1.55783" transform="matrix(0 -1 -1 0 160.446 250.291)" fill="#007438" fill-opacity="0.3"/>
<circle cx="1.55783" cy="1.55783" r="1.55783" transform="matrix(0 -1 -1 0 157.329 232.636)" fill="#007438" fill-opacity="0.3"/>
<circle cx="1.55783" cy="1.55783" r="1.55783" transform="matrix(0 -1 -1 0 155.253 220.173)" fill="#007438" fill-opacity="0.3"/>
<circle cx="1.55783" cy="1.55783" r="1.55783" transform="matrix(0 -1 -1 0 167.716 211.865)" fill="#007438" fill-opacity="0.3"/>
<circle cx="1.55783" cy="1.55783" r="1.55783" transform="matrix(0 -1 -1 0 170.832 227.443)" fill="#007438" fill-opacity="0.3"/>
<circle cx="1.55783" cy="1.55783" r="1.55783" transform="matrix(0 -1 -1 0 171.87 244.06)" fill="#007438" fill-opacity="0.3"/>
<circle cx="1.55783" cy="1.55783" r="1.55783" transform="matrix(0 -1 -1 0 172.907 261.715)" fill="#007438" fill-opacity="0.3"/>
<circle cx="1.55783" cy="1.55783" r="1.55783" transform="matrix(0 -1 -1 0 200.948 264.831)" fill="#007438" fill-opacity="0.3"/>
<circle cx="1.55783" cy="1.55783" r="1.55783" transform="matrix(0 -1 -1 0 185.371 251.33)" fill="#007438" fill-opacity="0.3"/>
<circle cx="1.55783" cy="1.55783" r="1.55783" transform="matrix(0 -1 -1 0 200.948 243.021)" fill="#007438" fill-opacity="0.3"/>
<circle cx="1.55783" cy="1.55783" r="1.55783" transform="matrix(0 -1 -1 0 183.293 235.751)" fill="#007438" fill-opacity="0.3"/>
<circle cx="1.55783" cy="1.55783" r="1.55783" transform="matrix(0 -1 -1 0 198.871 227.443)" fill="#007438" fill-opacity="0.3"/>
<circle cx="1.55783" cy="1.55783" r="1.55783" transform="matrix(0 -1 -1 0 182.254 219.135)" fill="#007438" fill-opacity="0.3"/>
<circle cx="1.55783" cy="1.55783" r="1.55783" transform="matrix(0 -1 -1 0 197.833 208.749)" fill="#007438" fill-opacity="0.3"/>
<circle cx="1.55783" cy="1.55783" r="1.55783" transform="matrix(0 -1 -1 0 215.488 211.865)" fill="#007438" fill-opacity="0.3"/>
<circle cx="1.55783" cy="1.55783" r="1.55783" transform="matrix(0 -1 -1 0 215.488 234.713)" fill="#007438" fill-opacity="0.3"/>
<circle cx="1.55783" cy="1.55783" r="1.55783" transform="matrix(0 -1 -1 0 214.45 251.33)" fill="#007438" fill-opacity="0.3"/>
<circle cx="1.55783" cy="1.55783" r="1.55783" transform="matrix(0 -1 -1 0 231.067 256.522)" fill="#007438" fill-opacity="0.3"/>
<circle cx="1.55783" cy="1.55783" r="1.55783" transform="matrix(0 -1 -1 0 228.99 241.983)" fill="#007438" fill-opacity="0.3"/>
<circle cx="1.55783" cy="1.55783" r="1.55783" transform="matrix(0 -1 -1 0 232.105 220.173)" fill="#007438" fill-opacity="0.3"/>
<circle cx="1.55783" cy="1.55783" r="1.55783" transform="matrix(0 -1 -1 0 249.761 224.328)" fill="#007438" fill-opacity="0.3"/>
<circle cx="1.55783" cy="1.55783" r="1.55783" transform="matrix(0 -1 -1 0 246.645 245.099)" fill="#007438" fill-opacity="0.3"/>
<circle cx="1.55783" cy="1.55783" r="1.55783" transform="matrix(0 -1 -1 0 246.645 262.754)" fill="#007438" fill-opacity="0.3"/>
<circle cx="1.55783" cy="1.55783" r="1.55783" transform="matrix(0 -1 -1 0 265.339 263.792)" fill="#007438" fill-opacity="0.3"/>
<circle cx="1.55783" cy="1.55783" r="1.55783" transform="matrix(0 -1 -1 0 264.301 246.137)" fill="#007438" fill-opacity="0.3"/>
<circle cx="1.55783" cy="1.55783" r="1.55783" transform="matrix(0 -1 -1 0 263.262 225.366)" fill="#007438" fill-opacity="0.3"/>
<circle cx="1.55783" cy="1.55783" r="1.55783" transform="matrix(0 -1 -1 0 282.995 228.482)" fill="#007438" fill-opacity="0.3"/>
<circle cx="1.55783" cy="1.55783" r="1.55783" transform="matrix(0 -1 -1 0 282.995 246.137)" fill="#007438" fill-opacity="0.3"/>
<circle cx="1.55783" cy="1.55783" r="1.55783" transform="matrix(0 -1 -1 0 284.033 265.87)" fill="#007438" fill-opacity="0.3"/>
<circle cx="1.55783" cy="1.55783" r="1.55783" transform="matrix(0 -1 -1 0 302.728 265.87)" fill="#007438" fill-opacity="0.3"/>
<circle cx="1.55783" cy="1.55783" r="1.55783" transform="matrix(0 -1 -1 0 301.689 247.176)" fill="#007438" fill-opacity="0.3"/>
<circle cx="1.55783" cy="1.55783" r="1.55783" transform="matrix(0 -1 -1 0 322.46 247.176)" fill="#007438" fill-opacity="0.3"/>
<circle cx="1.55783" cy="1.55783" r="1.55783" transform="matrix(0 -1 -1 0 319.344 229.52)" fill="#007438" fill-opacity="0.3"/>
<circle cx="1.55783" cy="1.55783" r="1.55783" transform="matrix(0 -1 -1 0 336.999 230.559)" fill="#007438" fill-opacity="0.3"/>
<circle cx="1.55783" cy="1.55783" r="1.55783" transform="matrix(0 -1 -1 0 338.039 251.33)" fill="#007438" fill-opacity="0.3"/>
<circle cx="1.55783" cy="1.55783" r="1.55783" transform="matrix(0 -1 -1 0 355.693 258.6)" fill="#007438" fill-opacity="0.3"/>
<circle cx="1.55783" cy="1.55783" r="1.55783" transform="matrix(0 -1 -1 0 354.654 235.751)" fill="#007438" fill-opacity="0.3"/>
<circle cx="1.55783" cy="1.55783" r="1.55783" transform="matrix(0 -1 -1 0 300.65 228.482)" fill="#007438" fill-opacity="0.3"/>
<circle cx="1.55783" cy="1.55783" r="1.55783" transform="matrix(0 -1 -1 0 183.293 199.402)" fill="#007438" fill-opacity="0.3"/>
<circle cx="1.55783" cy="1.55783" r="1.55783" transform="matrix(0 -1 -1 0 198.871 191.094)" fill="#007438" fill-opacity="0.3"/>
<circle cx="1.55783" cy="1.55783" r="1.55783" transform="matrix(0 -1 -1 0 160.446 266.908)" fill="#007438" fill-opacity="0.3"/>
<circle cx="1.55783" cy="1.55783" r="1.55783" transform="matrix(0 -1 -1 0 153.176 204.595)" fill="#007438" fill-opacity="0.3"/>
<circle cx="1.55783" cy="1.55783" r="1.55783" transform="matrix(0 -1 -1 0 150.06 190.055)" fill="#007438" fill-opacity="0.3"/>
<circle cx="1.55783" cy="1.55783" r="1.55783" transform="matrix(0 -1 -1 0 166.677 196.287)" fill="#007438" fill-opacity="0.3"/>
<circle cx="1.55783" cy="1.55783" r="1.55783" transform="matrix(0 -1 -1 0 81.5151 257.561)" fill="#007438" fill-opacity="0.3"/>
<circle cx="1.55783" cy="1.55783" r="1.55783" transform="matrix(0 -1 -1 0 58.6667 226.405)" fill="#007438" fill-opacity="0.3"/>
<circle cx="1.55783" cy="1.55783" r="1.55783" transform="matrix(0 -1 -1 0 54.5127 217.058)" fill="#007438" fill-opacity="0.3"/>
<circle cx="1.55783" cy="1.55783" r="1.55783" transform="matrix(0 -1 -1 0 50.3584 207.71)" fill="#007438" fill-opacity="0.3"/>
<circle cx="1.55783" cy="1.55783" r="1.55783" transform="matrix(0 -1 -1 0 45.1655 200.44)" fill="#007438" fill-opacity="0.3"/>
<circle cx="1.55783" cy="1.55783" r="1.55783" transform="matrix(0 -1 -1 0 41.0112 192.132)" fill="#007438" fill-opacity="0.3"/>
<circle cx="1.55783" cy="1.55783" r="1.55783" transform="matrix(0 -1 -1 0 34.78 183.824)" fill="#007438" fill-opacity="0.3"/>
<circle cx="1.55783" cy="1.55783" r="1.55783" transform="matrix(0 -1 -1 0 29.5872 177.593)" fill="#007438" fill-opacity="0.3"/>
<circle cx="1.55783" cy="1.55783" r="1.55783" transform="matrix(0 -1 -1 0 23.3569 171.361)" fill="#007438" fill-opacity="0.3"/>
<circle cx="1.55783" cy="1.55783" r="1.55783" transform="matrix(0 -1 -1 0 17.1257 165.13)" fill="#007438" fill-opacity="0.3"/>
<circle cx="1.55783" cy="1.55783" r="1.55783" transform="matrix(0 -1 -1 0 11.9316 157.86)" fill="#007438" fill-opacity="0.3"/>
<circle cx="1.55783" cy="1.55783" r="1.55783" transform="matrix(0 -1 -1 0 15.0488 152.667)" fill="#007438" fill-opacity="0.3"/>
<circle cx="1.55783" cy="1.55783" r="1.55783" transform="matrix(0 -1 -1 0 22.3186 159.937)" fill="#007438" fill-opacity="0.3"/>
<circle cx="1.55783" cy="1.55783" r="1.55783" transform="matrix(0 -1 -1 0 26.4717 166.168)" fill="#007438" fill-opacity="0.3"/>
<circle cx="1.55783" cy="1.55783" r="1.55783" transform="matrix(0 -1 -1 0 30.627 162.014)" fill="#007438" fill-opacity="0.3"/>
<circle cx="1.55783" cy="1.55783" r="1.55783" transform="matrix(0 -1 -1 0 36.8569 167.207)" fill="#007438" fill-opacity="0.3"/>
<circle cx="1.55783" cy="1.55783" r="1.55783" transform="matrix(0 -1 -1 0 32.7041 171.361)" fill="#007438" fill-opacity="0.3"/>
<circle cx="1.55783" cy="1.55783" r="1.55783" transform="matrix(0 -1 -1 0 38.9341 177.593)" fill="#007438" fill-opacity="0.3"/>
<circle cx="1.55783" cy="1.55783" r="1.55783" transform="matrix(0 -1 -1 0 42.0498 173.438)" fill="#007438" fill-opacity="0.3"/>
<circle cx="1.55783" cy="1.55783" r="1.55783" transform="matrix(0 -1 -1 0 47.2427 180.708)" fill="#007438" fill-opacity="0.3"/>
<circle cx="1.55783" cy="1.55783" r="1.55783" transform="matrix(0 -1 -1 0 45.1655 184.863)" fill="#007438" fill-opacity="0.3"/>
<circle cx="1.55783" cy="1.55783" r="1.55783" transform="matrix(0 -1 -1 0 49.3198 192.132)" fill="#007438" fill-opacity="0.3"/>
<circle cx="1.55783" cy="1.55783" r="1.55783" transform="matrix(0 -1 -1 0 54.5127 200.44)" fill="#007438" fill-opacity="0.3"/>
<circle cx="1.55783" cy="1.55783" r="1.55783" transform="matrix(0 -1 -1 0 59.7053 208.749)" fill="#007438" fill-opacity="0.3"/>
<circle cx="1.55783" cy="1.55783" r="1.55783" transform="matrix(0 -1 -1 0 64.8984 218.096)" fill="#007438" fill-opacity="0.3"/>
<circle cx="1.55783" cy="1.55783" r="1.55783" transform="matrix(0 -1 -1 0 70.0911 227.443)" fill="#007438" fill-opacity="0.3"/>
<circle cx="1.55783" cy="1.55783" r="1.55783" transform="matrix(0 -1 -1 0 74.2451 236.79)" fill="#007438" fill-opacity="0.3"/>
<circle cx="1.55783" cy="1.55783" r="1.55783" transform="matrix(0 -1 -1 0 78.3994 247.176)" fill="#007438" fill-opacity="0.3"/>
<circle cx="1.55783" cy="1.55783" r="1.55783" transform="matrix(0 -1 -1 0 87.7466 248.214)" fill="#007438" fill-opacity="0.3"/>
<circle cx="1.55783" cy="1.55783" r="1.55783" transform="matrix(0 -1 -1 0 82.5537 238.867)" fill="#007438" fill-opacity="0.3"/>
<circle cx="1.55783" cy="1.55783" r="1.55783" transform="matrix(0 -1 -1 0 78.3994 229.52)" fill="#007438" fill-opacity="0.3"/>
<circle cx="1.55783" cy="1.55783" r="1.55783" transform="matrix(0 -1 -1 0 74.2451 221.212)" fill="#007438" fill-opacity="0.3"/>
<circle cx="1.55783" cy="1.55783" r="1.55783" transform="matrix(0 -1 -1 0 69.0525 211.865)" fill="#007438" fill-opacity="0.3"/>
<circle cx="1.55783" cy="1.55783" r="1.55783" transform="matrix(0 -1 -1 0 62.821 203.556)" fill="#007438" fill-opacity="0.3"/>
<circle cx="1.55783" cy="1.55783" r="1.55783" transform="matrix(0 -1 -1 0 58.6667 196.287)" fill="#007438" fill-opacity="0.3"/>
<circle cx="1.55783" cy="1.55783" r="1.55783" transform="matrix(0 -1 -1 0 53.4741 187.978)" fill="#007438" fill-opacity="0.3"/>
<circle cx="1.55783" cy="1.55783" r="1.55783" transform="matrix(0 -1 -1 0 62.821 190.055)" fill="#007438" fill-opacity="0.3"/>
<circle cx="1.55783" cy="1.55783" r="1.55783" transform="matrix(0 -1 -1 0 64.8984 183.824)" fill="#007438" fill-opacity="0.3"/>
<circle cx="1.55783" cy="1.55783" r="1.55783" transform="matrix(0 -1 -1 0 71.1296 178.631)" fill="#007438" fill-opacity="0.3"/>
<circle cx="1.55783" cy="1.55783" r="1.55783" transform="matrix(0 -1 -1 0 75.2837 170.323)" fill="#007438" fill-opacity="0.3"/>
<circle cx="1.55783" cy="1.55783" r="1.55783" transform="matrix(0 -1 -1 0 69.0525 164.091)" fill="#007438" fill-opacity="0.3"/>
<circle cx="1.55783" cy="1.55783" r="1.55783" transform="matrix(0 -1 -1 0 63.8596 171.361)" fill="#007438" fill-opacity="0.3"/>
<circle cx="1.55783" cy="1.55783" r="1.55783" transform="matrix(0 -1 -1 0 60.7439 176.554)" fill="#007438" fill-opacity="0.3"/>
<circle cx="1.55783" cy="1.55783" r="1.55783" transform="matrix(0 -1 -1 0 56.5898 181.747)" fill="#007438" fill-opacity="0.3"/>
<circle cx="1.55783" cy="1.55783" r="1.55783" transform="matrix(0 -1 -1 0 51.3982 175.516)" fill="#007438" fill-opacity="0.3"/>
<circle cx="1.55783" cy="1.55783" r="1.55783" transform="matrix(0 -1 -1 0 46.2041 169.284)" fill="#007438" fill-opacity="0.3"/>
<circle cx="1.55783" cy="1.55783" r="1.55783" transform="matrix(0 -1 -1 0 41.0112 163.053)" fill="#007438" fill-opacity="0.3"/>
<circle cx="1.55783" cy="1.55783" r="1.55783" transform="matrix(0 -1 -1 0 44.127 157.86)" fill="#007438" fill-opacity="0.3"/>
<circle cx="1.55783" cy="1.55783" r="1.55783" transform="matrix(0 -1 -1 0 37.8955 151.628)" fill="#007438" fill-opacity="0.3"/>
<circle cx="1.55783" cy="1.55783" r="1.55783" transform="matrix(0 -1 -1 0 33.7415 156.822)" fill="#007438" fill-opacity="0.3"/>
<circle cx="1.55783" cy="1.55783" r="1.55783" transform="matrix(0 -1 -1 0 24.3943 154.745)" fill="#007438" fill-opacity="0.3"/>
<circle cx="1.55783" cy="1.55783" r="1.55783" transform="matrix(0 -1 -1 0 28.5498 149.551)" fill="#007438" fill-opacity="0.3"/>
<circle cx="1.55783" cy="1.55783" r="1.55783" transform="matrix(0 -1 -1 0 23.3569 142.282)" fill="#007438" fill-opacity="0.3"/>
<circle cx="1.55783" cy="1.55783" r="1.55783" transform="matrix(0 -1 -1 0 19.2014 148.513)" fill="#007438" fill-opacity="0.3"/>
<circle cx="1.55783" cy="1.55783" r="1.55783" transform="matrix(0 -1 -1 0 6.73877 150.59)" fill="#007438" fill-opacity="0.3"/>
<circle cx="1.55783" cy="1.55783" r="1.55783" transform="matrix(0 -1 -1 0 10.8931 146.436)" fill="#007438" fill-opacity="0.3"/>
<circle cx="1.55783" cy="1.55783" r="1.55783" transform="matrix(0 -1 -1 0 8.81592 131.896)" fill="#007438" fill-opacity="0.3"/>
<circle cx="1.55783" cy="1.55783" r="1.55783" transform="matrix(0 -1 -1 0 5.70166 138.127)" fill="#007438" fill-opacity="0.3"/>
<circle cx="1.55783" cy="1.55783" r="1.55783" transform="matrix(0 -1 -1 0 1.54736 143.32)" fill="#007438" fill-opacity="0.3"/>
<circle cx="1.55783" cy="1.55783" r="1.55783" transform="matrix(0 -1 -1 0 0.508789 127.742)" fill="#007438" fill-opacity="0.3"/>
<circle cx="1.55783" cy="1.55783" r="1.55783" transform="matrix(0 -1 -1 0 49.3198 164.091)" fill="#007438" fill-opacity="0.3"/>
<circle cx="1.55783" cy="1.55783" r="1.55783" transform="matrix(0 -1 -1 0 54.5127 157.86)" fill="#007438" fill-opacity="0.3"/>
<circle cx="1.55783" cy="1.55783" r="1.55783" transform="matrix(0 -1 -1 0 59.7053 164.091)" fill="#007438" fill-opacity="0.3"/>
<circle cx="1.55783" cy="1.55783" r="1.55783" transform="matrix(0 -1 -1 0 55.5513 171.361)" fill="#007438" fill-opacity="0.3"/>
<circle cx="44.127" cy="214.98" r="2.07711" transform="rotate(90 44.127 214.98)" fill="#007438" fill-opacity="0.3"/>
<circle cx="38.9341" cy="205.633" r="2.07711" transform="rotate(90 38.9341 205.633)" fill="#007438" fill-opacity="0.3"/>
<circle cx="34.7798" cy="198.364" r="2.07711" transform="rotate(90 34.7798 198.364)" fill="#007438" fill-opacity="0.3"/>
<circle cx="29.5872" cy="190.055" r="2.07711" transform="rotate(90 29.5872 190.055)" fill="#007438" fill-opacity="0.3"/>
<circle cx="24.3946" cy="182.786" r="2.07711" transform="rotate(90 24.3946 182.786)" fill="#007438" fill-opacity="0.3"/>
<circle cx="18.1629" cy="174.477" r="2.07711" transform="rotate(90 18.1629 174.477)" fill="#007438" fill-opacity="0.3"/>
<circle cx="12.9717" cy="168.246" r="2.07711" transform="rotate(90 12.9717 168.246)" fill="#007438" fill-opacity="0.3"/>
<circle cx="6.73881" cy="160.976" r="2.07711" transform="rotate(90 6.73881 160.976)" fill="#007438" fill-opacity="0.3"/>
<circle cx="0.508832" cy="154.744" r="2.07711" transform="rotate(90 0.508832 154.744)" fill="#007438" fill-opacity="0.3"/>
</svg>
