<svg width="280" height="181" viewBox="0 0 280 181" fill="none" xmlns="http://www.w3.org/2000/svg">
<rect x="1.21345" y="1.21345" width="277.014" height="178.204" rx="6.76066" fill="#007438" fill-opacity="0.1" stroke="#007438" stroke-width="2.4269" stroke-dasharray="4.85 4.85"/>
<path d="M74.7707 89.1744C74.2359 89.1744 73.7572 89.037 73.3347 88.7622C72.9121 88.4874 72.5782 88.0885 72.333 87.5655C72.0877 87.0424 71.9651 86.4072 71.9651 85.6596C71.9651 84.9031 72.0892 84.2649 72.3374 83.7449C72.5886 83.2218 72.9269 82.8274 73.3524 82.5614C73.7779 82.2926 74.2521 82.1581 74.7751 82.1581C75.174 82.1581 75.502 82.2261 75.7591 82.362C76.0162 82.495 76.22 82.656 76.3707 82.8451C76.5214 83.0313 76.6382 83.2071 76.7209 83.3725H76.7874V79.9774H78.3963V89.0547H76.8184V87.9821H76.7209C76.6382 88.1476 76.5185 88.3234 76.3619 88.5095C76.2053 88.6927 75.9984 88.8493 75.7414 88.9793C75.4843 89.1094 75.1607 89.1744 74.7707 89.1744ZM75.2184 87.858C75.5582 87.858 75.8477 87.7664 76.0871 87.5832C76.3264 87.397 76.5081 87.1385 76.6322 86.8075C76.7563 86.4766 76.8184 86.091 76.8184 85.6507C76.8184 85.2105 76.7563 84.8278 76.6322 84.5028C76.5111 84.1777 76.3309 83.9251 76.0915 83.7449C75.8551 83.5646 75.5641 83.4745 75.2184 83.4745C74.8608 83.4745 74.5624 83.5676 74.323 83.7537C74.0837 83.9399 73.9035 84.1969 73.7823 84.5249C73.6612 84.8529 73.6006 85.2282 73.6006 85.6507C73.6006 86.0762 73.6612 86.4559 73.7823 86.7898C73.9064 87.1207 74.0881 87.3823 74.3275 87.5743C74.5698 87.7634 74.8667 87.858 75.2184 87.858ZM80.106 89.0547V82.2468H81.6617V83.3814H81.7327C81.8568 82.9884 82.0695 82.6855 82.3709 82.4728C82.6752 82.2571 83.0224 82.1492 83.4125 82.1492C83.5011 82.1492 83.6001 82.1537 83.7094 82.1625C83.8217 82.1685 83.9148 82.1788 83.9887 82.1936V83.6695C83.9207 83.6459 83.8129 83.6252 83.6651 83.6075C83.5203 83.5868 83.38 83.5764 83.2441 83.5764C82.9515 83.5764 82.6885 83.64 82.4551 83.767C82.2246 83.8911 82.0429 84.064 81.9099 84.2856C81.777 84.5072 81.7105 84.7628 81.7105 85.0524V89.0547H80.106ZM86.8918 89.1921C86.4604 89.1921 86.0718 89.1153 85.7261 88.9616C85.3834 88.805 85.1115 88.5745 84.9106 88.2702C84.7126 87.9658 84.6136 87.5906 84.6136 87.1444C84.6136 86.7603 84.6845 86.4426 84.8264 86.1915C84.9682 85.9403 85.1617 85.7394 85.407 85.5887C85.6522 85.438 85.9285 85.3242 86.2358 85.2474C86.5461 85.1676 86.8667 85.11 87.1976 85.0745C87.5965 85.0332 87.9201 84.9962 88.1683 84.9637C88.4165 84.9283 88.5967 84.8751 88.709 84.8042C88.8243 84.7303 88.8819 84.6165 88.8819 84.4629V84.4363C88.8819 84.1024 88.7829 83.8438 88.5849 83.6606C88.3869 83.4774 88.1018 83.3858 87.7295 83.3858C87.3365 83.3858 87.0248 83.4715 86.7943 83.6429C86.5668 83.8143 86.4131 84.0167 86.3333 84.2501L84.8352 84.0374C84.9534 83.6237 85.1484 83.278 85.4203 83.0002C85.6921 82.7195 86.0245 82.5097 86.4175 82.3709C86.8105 82.229 87.2449 82.1581 87.7206 82.1581C88.0486 82.1581 88.3751 82.1965 88.7001 82.2733C89.0252 82.3502 89.3221 82.4772 89.591 82.6545C89.8599 82.8289 90.0756 83.0667 90.2381 83.3681C90.4036 83.6695 90.4863 84.0462 90.4863 84.4983V89.0547H88.9439V88.1195H88.8907C88.7932 88.3086 88.6558 88.4859 88.4785 88.6514C88.3042 88.8139 88.0841 88.9454 87.8181 89.0458C87.5552 89.1433 87.2464 89.1921 86.8918 89.1921ZM87.3084 88.0131C87.6305 88.0131 87.9097 87.9496 88.1461 87.8225C88.3825 87.6925 88.5642 87.5211 88.6913 87.3084C88.8213 87.0956 88.8863 86.8637 88.8863 86.6125V85.8103C88.8361 85.8516 88.7504 85.8901 88.6292 85.9255C88.511 85.961 88.3781 85.992 88.2303 86.0186C88.0826 86.0452 87.9363 86.0688 87.7915 86.0895C87.6468 86.1102 87.5212 86.1279 87.4148 86.1427C87.1755 86.1752 86.9612 86.2284 86.7721 86.3023C86.583 86.3761 86.4338 86.4796 86.3245 86.6125C86.2151 86.7425 86.1605 86.911 86.1605 87.1178C86.1605 87.4133 86.2683 87.6364 86.484 87.7871C86.6997 87.9378 86.9745 88.0131 87.3084 88.0131ZM95.0604 91.7495C94.4842 91.7495 93.9893 91.6712 93.5756 91.5146C93.1619 91.3609 92.8295 91.1541 92.5784 90.8941C92.3272 90.634 92.1529 90.3459 92.0554 90.0298L93.5003 89.6796C93.5653 89.8126 93.6598 89.9441 93.7839 90.0741C93.908 90.2071 94.075 90.3164 94.2848 90.4021C94.4975 90.4907 94.7649 90.5351 95.087 90.5351C95.5421 90.5351 95.9188 90.4243 96.2172 90.2026C96.5157 89.984 96.6649 89.6235 96.6649 89.1212V87.8314H96.5851C96.5024 87.9969 96.3812 88.1668 96.2217 88.3411C96.0651 88.5154 95.8568 88.6617 95.5967 88.7799C95.3397 88.8981 95.0161 88.9572 94.6261 88.9572C94.1031 88.9572 93.6288 88.8346 93.2033 88.5893C92.7808 88.3411 92.4439 87.9717 92.1928 87.4812C91.9446 86.9878 91.8205 86.3702 91.8205 85.6286C91.8205 84.881 91.9446 84.2501 92.1928 83.736C92.4439 83.2189 92.7823 82.8274 93.2077 82.5614C93.6332 82.2926 94.1075 82.1581 94.6305 82.1581C95.0294 82.1581 95.3574 82.2261 95.6145 82.362C95.8745 82.495 96.0813 82.656 96.235 82.8451C96.3886 83.0313 96.5053 83.2071 96.5851 83.3725H96.6738V82.2468H98.2561V89.1655C98.2561 89.7476 98.1172 90.2292 97.8394 90.6104C97.5617 90.9916 97.182 91.2767 96.7004 91.4658C96.2187 91.6549 95.6721 91.7495 95.0604 91.7495ZM95.0737 87.6984C95.4135 87.6984 95.7031 87.6157 95.9424 87.4502C96.1818 87.2847 96.3635 87.0469 96.4876 86.7366C96.6117 86.4264 96.6738 86.0541 96.6738 85.6197C96.6738 85.1912 96.6117 84.816 96.4876 84.4939C96.3665 84.1718 96.1862 83.9221 95.9469 83.7449C95.7105 83.5646 95.4194 83.4745 95.0737 83.4745C94.7162 83.4745 94.4177 83.5676 94.1784 83.7537C93.9391 83.9399 93.7588 84.1955 93.6377 84.5205C93.5165 84.8426 93.456 85.209 93.456 85.6197C93.456 86.0363 93.5165 86.4012 93.6377 86.7145C93.7618 87.0247 93.9435 87.267 94.1828 87.4413C94.4251 87.6127 94.7221 87.6984 95.0737 87.6984ZM104.955 89.1921C104.524 89.1921 104.135 89.1153 103.79 88.9616C103.447 88.805 103.175 88.5745 102.974 88.2702C102.776 87.9658 102.677 87.5906 102.677 87.1444C102.677 86.7603 102.748 86.4426 102.89 86.1915C103.032 85.9403 103.225 85.7394 103.471 85.5887C103.716 85.438 103.992 85.3242 104.299 85.2474C104.61 85.1676 104.93 85.11 105.261 85.0745C105.66 85.0332 105.984 84.9962 106.232 84.9637C106.48 84.9283 106.66 84.8751 106.773 84.8042C106.888 84.7303 106.945 84.6165 106.945 84.4629V84.4363C106.945 84.1024 106.847 83.8438 106.649 83.6606C106.451 83.4774 106.165 83.3858 105.793 83.3858C105.4 83.3858 105.088 83.4715 104.858 83.6429C104.63 83.8143 104.477 84.0167 104.397 84.2501L102.899 84.0374C103.017 83.6237 103.212 83.278 103.484 83.0002C103.756 82.7195 104.088 82.5097 104.481 82.3709C104.874 82.229 105.309 82.1581 105.784 82.1581C106.112 82.1581 106.439 82.1965 106.764 82.2733C107.089 82.3502 107.386 82.4772 107.655 82.6545C107.924 82.8289 108.139 83.0667 108.302 83.3681C108.467 83.6695 108.55 84.0462 108.55 84.4983V89.0547H107.008V88.1195H106.954C106.857 88.3086 106.719 88.4859 106.542 88.6514C106.368 88.8139 106.148 88.9454 105.882 89.0458C105.619 89.1433 105.31 89.1921 104.955 89.1921ZM105.372 88.0131C105.694 88.0131 105.973 87.9496 106.21 87.8225C106.446 87.6925 106.628 87.5211 106.755 87.3084C106.885 87.0956 106.95 86.8637 106.95 86.6125V85.8103C106.9 85.8516 106.814 85.8901 106.693 85.9255C106.575 85.961 106.442 85.992 106.294 86.0186C106.146 86.0452 106 86.0688 105.855 86.0895C105.71 86.1102 105.585 86.1279 105.478 86.1427C105.239 86.1752 105.025 86.2284 104.836 86.3023C104.647 86.3761 104.497 86.4796 104.388 86.6125C104.279 86.7425 104.224 86.911 104.224 87.1178C104.224 87.4133 104.332 87.6364 104.548 87.7871C104.763 87.9378 105.038 88.0131 105.372 88.0131ZM111.768 85.0657V89.0547H110.163V82.2468H111.697V83.4036H111.777C111.933 83.0224 112.183 82.7195 112.526 82.495C112.871 82.2704 113.298 82.1581 113.807 82.1581C114.276 82.1581 114.686 82.2586 115.034 82.4595C115.386 82.6604 115.658 82.9515 115.85 83.3327C116.045 83.7138 116.141 84.1763 116.138 84.7199V89.0547H114.534V84.9682C114.534 84.5131 114.415 84.1571 114.179 83.9C113.945 83.6429 113.622 83.5144 113.208 83.5144C112.928 83.5144 112.678 83.5764 112.459 83.7005C112.244 83.8217 112.074 83.9975 111.95 84.228C111.828 84.4584 111.768 84.7377 111.768 85.0657ZM120.295 89.1744C119.761 89.1744 119.282 89.037 118.859 88.7622C118.437 88.4874 118.103 88.0885 117.858 87.5655C117.612 87.0424 117.49 86.4072 117.49 85.6596C117.49 84.9031 117.614 84.2649 117.862 83.7449C118.113 83.2218 118.452 82.8274 118.877 82.5614C119.303 82.2926 119.777 82.1581 120.3 82.1581C120.699 82.1581 121.027 82.2261 121.284 82.362C121.541 82.495 121.745 82.656 121.895 82.8451C122.046 83.0313 122.163 83.2071 122.246 83.3725H122.312V79.9774H123.921V89.0547H122.343V87.9821H122.246C122.163 88.1476 122.043 88.3234 121.887 88.5095C121.73 88.6927 121.523 88.8493 121.266 88.9793C121.009 89.1094 120.685 89.1744 120.295 89.1744ZM120.743 87.858C121.083 87.858 121.372 87.7664 121.612 87.5832C121.851 87.397 122.033 87.1385 122.157 86.8075C122.281 86.4766 122.343 86.091 122.343 85.6507C122.343 85.2105 122.281 84.8278 122.157 84.5028C122.036 84.1777 121.856 83.9251 121.616 83.7449C121.38 83.5646 121.089 83.4745 120.743 83.4745C120.386 83.4745 120.087 83.5676 119.848 83.7537C119.608 83.9399 119.428 84.1969 119.307 84.5249C119.186 84.8529 119.125 85.2282 119.125 85.6507C119.125 86.0762 119.186 86.4559 119.307 86.7898C119.431 87.1207 119.613 87.3823 119.852 87.5743C120.094 87.7634 120.391 87.858 120.743 87.858ZM131.253 89.1744C130.718 89.1744 130.24 89.037 129.817 88.7622C129.394 88.4874 129.061 88.0885 128.815 87.5655C128.57 87.0424 128.447 86.4072 128.447 85.6596C128.447 84.9031 128.572 84.2649 128.82 83.7449C129.071 83.2218 129.409 82.8274 129.835 82.5614C130.26 82.2926 130.734 82.1581 131.257 82.1581C131.656 82.1581 131.984 82.2261 132.241 82.362C132.499 82.495 132.702 82.656 132.853 82.8451C133.004 83.0313 133.121 83.2071 133.203 83.3725H133.27V79.9774H134.879V89.0547H133.301V87.9821H133.203C133.121 88.1476 133.001 88.3234 132.844 88.5095C132.688 88.6927 132.481 88.8493 132.224 88.9793C131.967 89.1094 131.643 89.1744 131.253 89.1744ZM131.701 87.858C132.041 87.858 132.33 87.7664 132.569 87.5832C132.809 87.397 132.99 87.1385 133.115 86.8075C133.239 86.4766 133.301 86.091 133.301 85.6507C133.301 85.2105 133.239 84.8278 133.115 84.5028C132.993 84.1777 132.813 83.9251 132.574 83.7449C132.337 83.5646 132.046 83.4745 131.701 83.4745C131.343 83.4745 131.045 83.5676 130.805 83.7537C130.566 83.9399 130.386 84.1969 130.265 84.5249C130.144 84.8529 130.083 85.2282 130.083 85.6507C130.083 86.0762 130.144 86.4559 130.265 86.7898C130.389 87.1207 130.57 87.3823 130.81 87.5743C131.052 87.7634 131.349 87.858 131.701 87.858ZM136.588 89.0547V82.2468H138.144V83.3814H138.215C138.339 82.9884 138.552 82.6855 138.853 82.4728C139.158 82.2571 139.505 82.1492 139.895 82.1492C139.983 82.1492 140.082 82.1537 140.192 82.1625C140.304 82.1685 140.397 82.1788 140.471 82.1936V83.6695C140.403 83.6459 140.295 83.6252 140.147 83.6075C140.003 83.5868 139.862 83.5764 139.726 83.5764C139.434 83.5764 139.171 83.64 138.937 83.767C138.707 83.8911 138.525 84.064 138.392 84.2856C138.259 84.5072 138.193 84.7628 138.193 85.0524V89.0547H136.588ZM144.226 89.1877C143.561 89.1877 142.985 89.0414 142.498 88.7489C142.01 88.4563 141.632 88.0471 141.363 87.5211C141.097 86.9952 140.964 86.3806 140.964 85.6773C140.964 84.9741 141.097 84.358 141.363 83.8291C141.632 83.3002 142.01 82.8894 142.498 82.5969C142.985 82.3044 143.561 82.1581 144.226 82.1581C144.891 82.1581 145.467 82.3044 145.955 82.5969C146.442 82.8894 146.819 83.3002 147.085 83.8291C147.354 84.358 147.488 84.9741 147.488 85.6773C147.488 86.3806 147.354 86.9952 147.085 87.5211C146.819 88.0471 146.442 88.4563 145.955 88.7489C145.467 89.0414 144.891 89.1877 144.226 89.1877ZM144.235 87.9023C144.596 87.9023 144.897 87.8033 145.139 87.6053C145.382 87.4044 145.562 87.1355 145.68 86.7987C145.801 86.4618 145.862 86.0866 145.862 85.6729C145.862 85.2563 145.801 84.8795 145.68 84.5427C145.562 84.2029 145.382 83.9325 145.139 83.7316C144.897 83.5306 144.596 83.4302 144.235 83.4302C143.866 83.4302 143.558 83.5306 143.313 83.7316C143.071 83.9325 142.889 84.2029 142.768 84.5427C142.65 84.8795 142.591 85.2563 142.591 85.6729C142.591 86.0866 142.65 86.4618 142.768 86.7987C142.889 87.1355 143.071 87.4044 143.313 87.6053C143.558 87.8033 143.866 87.9023 144.235 87.9023ZM148.85 91.6077V82.2468H150.428V83.3725H150.521C150.604 83.2071 150.721 83.0313 150.871 82.8451C151.022 82.656 151.226 82.495 151.483 82.362C151.74 82.2261 152.068 82.1581 152.467 82.1581C152.993 82.1581 153.467 82.2926 153.89 82.5614C154.315 82.8274 154.652 83.2218 154.9 83.7449C155.151 84.2649 155.277 84.9031 155.277 85.6596C155.277 86.4072 155.154 87.0424 154.909 87.5655C154.664 88.0885 154.33 88.4874 153.907 88.7622C153.485 89.037 153.006 89.1744 152.471 89.1744C152.081 89.1744 151.758 89.1094 151.501 88.9793C151.244 88.8493 151.037 88.6927 150.88 88.5095C150.727 88.3234 150.607 88.1476 150.521 87.9821H150.455V91.6077H148.85ZM150.424 85.6507C150.424 86.091 150.486 86.4766 150.61 86.8075C150.737 87.1385 150.919 87.397 151.155 87.5832C151.394 87.7664 151.684 87.858 152.024 87.858C152.378 87.858 152.675 87.7634 152.915 87.5743C153.154 87.3823 153.334 87.1207 153.455 86.7898C153.579 86.4559 153.641 86.0762 153.641 85.6507C153.641 85.2282 153.581 84.8529 153.46 84.5249C153.339 84.1969 153.158 83.9399 152.919 83.7537C152.68 83.5676 152.381 83.4745 152.024 83.4745C151.681 83.4745 151.39 83.5646 151.151 83.7449C150.911 83.9251 150.729 84.1777 150.605 84.5028C150.484 84.8278 150.424 85.2105 150.424 85.6507ZM160.744 91.6077C160.525 91.6077 160.323 91.5899 160.137 91.5545C159.954 91.522 159.807 91.4836 159.698 91.4392L160.07 90.1893C160.304 90.2573 160.512 90.2898 160.695 90.2869C160.879 90.2839 161.04 90.2263 161.178 90.114C161.32 90.0047 161.44 89.8215 161.537 89.5644L161.675 89.1965L159.206 82.2468H160.908L162.477 87.3882H162.548L164.121 82.2468H165.828L163.102 89.8791C162.975 90.2396 162.807 90.5484 162.597 90.8054C162.387 91.0655 162.13 91.2634 161.826 91.3993C161.524 91.5382 161.164 91.6077 160.744 91.6077ZM169.676 89.1877C169.011 89.1877 168.435 89.0414 167.948 88.7489C167.46 88.4563 167.082 88.0471 166.813 87.5211C166.547 86.9952 166.414 86.3806 166.414 85.6773C166.414 84.9741 166.547 84.358 166.813 83.8291C167.082 83.3002 167.46 82.8894 167.948 82.5969C168.435 82.3044 169.011 82.1581 169.676 82.1581C170.341 82.1581 170.917 82.3044 171.405 82.5969C171.892 82.8894 172.269 83.3002 172.535 83.8291C172.804 84.358 172.938 84.9741 172.938 85.6773C172.938 86.3806 172.804 86.9952 172.535 87.5211C172.269 88.0471 171.892 88.4563 171.405 88.7489C170.917 89.0414 170.341 89.1877 169.676 89.1877ZM169.685 87.9023C170.046 87.9023 170.347 87.8033 170.589 87.6053C170.832 87.4044 171.012 87.1355 171.13 86.7987C171.251 86.4618 171.312 86.0866 171.312 85.6729C171.312 85.2563 171.251 84.8795 171.13 84.5427C171.012 84.2029 170.832 83.9325 170.589 83.7316C170.347 83.5306 170.046 83.4302 169.685 83.4302C169.316 83.4302 169.008 83.5306 168.763 83.7316C168.521 83.9325 168.339 84.2029 168.218 84.5427C168.1 84.8795 168.041 85.2563 168.041 85.6729C168.041 86.0866 168.1 86.4618 168.218 86.7987C168.339 87.1355 168.521 87.4044 168.763 87.6053C169.008 87.8033 169.316 87.9023 169.685 87.9023ZM178.639 86.1915V82.2468H180.244V89.0547H178.688V87.8447H178.617C178.464 88.2259 178.211 88.5376 177.859 88.7799C177.511 89.0222 177.081 89.1433 176.569 89.1433C176.123 89.1433 175.729 89.0443 175.386 88.8464C175.046 88.6454 174.78 88.3544 174.588 87.9732C174.396 87.5891 174.3 87.1252 174.3 86.5815V82.2468H175.905V86.3333C175.905 86.7647 176.023 87.1075 176.259 87.3616C176.496 87.6157 176.806 87.7427 177.19 87.7427C177.426 87.7427 177.655 87.6851 177.877 87.5699C178.099 87.4546 178.28 87.2833 178.422 87.0557C178.567 86.8253 178.639 86.5372 178.639 86.1915ZM181.894 89.0547V82.2468H183.449V83.3814H183.52C183.644 82.9884 183.857 82.6855 184.159 82.4728C184.463 82.2571 184.81 82.1492 185.2 82.1492C185.289 82.1492 185.388 82.1537 185.497 82.1625C185.609 82.1685 185.702 82.1788 185.776 82.1936V83.6695C185.708 83.6459 185.601 83.6252 185.453 83.6075C185.308 83.5868 185.168 83.5764 185.032 83.5764C184.739 83.5764 184.476 83.64 184.243 83.767C184.012 83.8911 183.831 84.064 183.698 84.2856C183.565 84.5072 183.498 84.7628 183.498 85.0524V89.0547H181.894ZM193.387 82.2468V83.4878H189.362V82.2468H193.387ZM190.368 89.0547V81.6041C190.368 81.1461 190.463 80.7649 190.652 80.4606C190.844 80.1562 191.101 79.9287 191.423 79.778C191.745 79.6273 192.103 79.5519 192.496 79.5519C192.773 79.5519 193.02 79.5741 193.236 79.6184C193.452 79.6628 193.611 79.7026 193.715 79.7381L193.395 80.9791C193.327 80.9584 193.242 80.9378 193.138 80.9171C193.035 80.8934 192.92 80.8816 192.793 80.8816C192.494 80.8816 192.283 80.954 192.159 81.0988C192.038 81.2406 191.977 81.4445 191.977 81.7105V89.0547H190.368ZM194.643 89.0547V82.2468H196.248V89.0547H194.643ZM195.45 81.2805C195.196 81.2805 194.977 81.1963 194.794 81.0279C194.611 80.8565 194.519 80.6511 194.519 80.4118C194.519 80.1695 194.611 79.9641 194.794 79.7957C194.977 79.6243 195.196 79.5387 195.45 79.5387C195.707 79.5387 195.925 79.6243 196.106 79.7957C196.289 79.9641 196.381 80.1695 196.381 80.4118C196.381 80.6511 196.289 80.8565 196.106 81.0279C195.925 81.1963 195.707 81.2805 195.45 81.2805ZM199.502 79.9774V89.0547H197.897V79.9774H199.502ZM204.166 89.1877C203.483 89.1877 202.894 89.0458 202.397 88.7622C201.904 88.4755 201.524 88.0707 201.258 87.5477C200.992 87.0218 200.859 86.4027 200.859 85.6906C200.859 84.9903 200.992 84.3757 201.258 83.8468C201.527 83.3149 201.902 82.9012 202.384 82.6058C202.866 82.3073 203.431 82.1581 204.082 82.1581C204.501 82.1581 204.897 82.2261 205.269 82.362C205.645 82.495 205.976 82.7018 206.262 82.9825C206.552 83.2632 206.779 83.6208 206.945 84.0551C207.11 84.4865 207.193 85.0007 207.193 85.5975V86.0895H201.613V85.008H205.655C205.652 84.7007 205.586 84.4274 205.456 84.1881C205.326 83.9458 205.144 83.7552 204.91 83.6163C204.68 83.4774 204.411 83.408 204.104 83.408C203.776 83.408 203.488 83.4878 203.239 83.6473C202.991 83.804 202.798 84.0108 202.659 84.2679C202.523 84.522 202.453 84.8012 202.45 85.1056V86.0496C202.45 86.4456 202.523 86.7854 202.668 87.069C202.812 87.3497 203.015 87.5655 203.275 87.7161C203.535 87.8639 203.839 87.9378 204.188 87.9378C204.421 87.9378 204.633 87.9053 204.822 87.8403C205.011 87.7723 205.175 87.6733 205.314 87.5433C205.453 87.4133 205.557 87.2522 205.628 87.0602L207.126 87.2286C207.032 87.6245 206.852 87.9703 206.586 88.2657C206.323 88.5583 205.986 88.7858 205.575 88.9483C205.164 89.1079 204.695 89.1877 204.166 89.1877Z" fill="black"/>
<path d="M141.446 107.398C141.446 108.376 141.263 109.214 140.896 109.911C140.533 110.605 140.036 111.137 139.407 111.507C138.781 111.876 138.07 112.061 137.275 112.061C136.48 112.061 135.768 111.876 135.139 111.507C134.512 111.134 134.016 110.601 133.649 109.907C133.286 109.209 133.104 108.373 133.104 107.398C133.104 106.42 133.286 105.584 133.649 104.889C134.016 104.192 134.512 103.659 135.139 103.289C135.768 102.92 136.48 102.735 137.275 102.735C138.07 102.735 138.781 102.92 139.407 103.289C140.036 103.659 140.533 104.192 140.896 104.889C141.263 105.584 141.446 106.42 141.446 107.398ZM139.793 107.398C139.793 106.709 139.685 106.129 139.469 105.656C139.256 105.18 138.961 104.821 138.583 104.579C138.204 104.334 137.768 104.211 137.275 104.211C136.782 104.211 136.346 104.334 135.968 104.579C135.589 104.821 135.292 105.18 135.077 105.656C134.864 106.129 134.758 106.709 134.758 107.398C134.758 108.086 134.864 108.668 135.077 109.144C135.292 109.617 135.589 109.976 135.968 110.221C136.346 110.464 136.782 110.585 137.275 110.585C137.768 110.585 138.204 110.464 138.583 110.221C138.961 109.976 139.256 109.617 139.469 109.144C139.685 108.668 139.793 108.086 139.793 107.398ZM142.929 111.937V105.129H144.485V106.263H144.556C144.68 105.87 144.893 105.567 145.194 105.355C145.499 105.139 145.846 105.031 146.236 105.031C146.325 105.031 146.424 105.036 146.533 105.044C146.645 105.05 146.738 105.061 146.812 105.075V106.551C146.744 106.528 146.636 106.507 146.489 106.489C146.344 106.469 146.203 106.458 146.068 106.458C145.775 106.458 145.512 106.522 145.279 106.649C145.048 106.773 144.866 106.946 144.733 107.167C144.6 107.389 144.534 107.645 144.534 107.934V111.937H142.929Z" fill="black"/>
<rect x="94.9961" y="122.82" width="99.503" height="23.5756" rx="4.8538" fill="#007438"/>
<path d="M112.186 138.98V129.903H115.661C116.317 129.903 116.862 130.007 117.297 130.213C117.734 130.417 118.061 130.697 118.276 131.051C118.495 131.406 118.604 131.808 118.604 132.257C118.604 132.626 118.533 132.942 118.391 133.205C118.25 133.465 118.059 133.677 117.82 133.839C117.58 134.002 117.313 134.118 117.017 134.189V134.278C117.34 134.296 117.648 134.395 117.944 134.575C118.242 134.752 118.486 135.003 118.675 135.328C118.864 135.653 118.959 136.046 118.959 136.507C118.959 136.977 118.845 137.4 118.618 137.775C118.39 138.147 118.047 138.441 117.589 138.657C117.131 138.873 116.555 138.98 115.861 138.98H112.186ZM113.831 137.606H115.599C116.196 137.606 116.626 137.493 116.889 137.265C117.155 137.035 117.288 136.739 117.288 136.379C117.288 136.11 117.221 135.868 117.088 135.652C116.955 135.433 116.766 135.262 116.521 135.138C116.276 135.011 115.983 134.947 115.643 134.947H113.831V137.606ZM113.831 133.764H115.457C115.741 133.764 115.997 133.712 116.224 133.609C116.452 133.502 116.63 133.353 116.76 133.161C116.893 132.966 116.96 132.735 116.96 132.469C116.96 132.118 116.836 131.828 116.588 131.601C116.342 131.373 115.977 131.259 115.493 131.259H113.831V133.764ZM120.318 138.98V132.173H121.874V133.307H121.945C122.069 132.914 122.282 132.611 122.583 132.399C122.888 132.183 123.235 132.075 123.625 132.075C123.713 132.075 123.812 132.079 123.922 132.088C124.034 132.094 124.127 132.105 124.201 132.119V133.595C124.133 133.572 124.025 133.551 123.877 133.533C123.733 133.513 123.592 133.502 123.456 133.502C123.164 133.502 122.901 133.566 122.667 133.693C122.437 133.817 122.255 133.99 122.122 134.211C121.989 134.433 121.923 134.689 121.923 134.978V138.98H120.318ZM127.956 139.113C127.291 139.113 126.715 138.967 126.228 138.675C125.74 138.382 125.362 137.973 125.093 137.447C124.827 136.921 124.694 136.306 124.694 135.603C124.694 134.9 124.827 134.284 125.093 133.755C125.362 133.226 125.74 132.815 126.228 132.523C126.715 132.23 127.291 132.084 127.956 132.084C128.621 132.084 129.197 132.23 129.685 132.523C130.172 132.815 130.549 133.226 130.815 133.755C131.084 134.284 131.218 134.9 131.218 135.603C131.218 136.306 131.084 136.921 130.815 137.447C130.549 137.973 130.172 138.382 129.685 138.675C129.197 138.967 128.621 139.113 127.956 139.113ZM127.965 137.828C128.326 137.828 128.627 137.729 128.869 137.531C129.112 137.33 129.292 137.061 129.41 136.724C129.531 136.388 129.592 136.012 129.592 135.599C129.592 135.182 129.531 134.805 129.41 134.468C129.292 134.129 129.112 133.858 128.869 133.657C128.627 133.456 128.326 133.356 127.965 133.356C127.596 133.356 127.288 133.456 127.043 133.657C126.801 133.858 126.619 134.129 126.498 134.468C126.38 134.805 126.321 135.182 126.321 135.599C126.321 136.012 126.38 136.388 126.498 136.724C126.619 137.061 126.801 137.33 127.043 137.531C127.288 137.729 127.596 137.828 127.965 137.828ZM133.79 138.98L131.867 132.173H133.502L134.699 136.959H134.761L135.984 132.173H137.602L138.825 136.933H138.892L140.071 132.173H141.711L139.783 138.98H138.112L136.835 134.38H136.742L135.466 138.98H133.79ZM148.212 133.972L146.749 134.132C146.708 133.984 146.635 133.845 146.532 133.715C146.431 133.585 146.295 133.48 146.124 133.4C145.953 133.32 145.743 133.281 145.495 133.281C145.161 133.281 144.88 133.353 144.653 133.498C144.428 133.643 144.317 133.83 144.32 134.061C144.317 134.259 144.39 134.42 144.537 134.544C144.688 134.668 144.936 134.77 145.282 134.85L146.443 135.098C147.087 135.237 147.566 135.457 147.879 135.758C148.195 136.06 148.355 136.454 148.358 136.942C148.355 137.37 148.229 137.748 147.981 138.076C147.736 138.401 147.395 138.655 146.957 138.839C146.52 139.022 146.018 139.113 145.45 139.113C144.617 139.113 143.946 138.939 143.438 138.59C142.93 138.239 142.627 137.75 142.529 137.123L144.094 136.973C144.165 137.28 144.316 137.512 144.546 137.669C144.777 137.825 145.077 137.903 145.446 137.903C145.827 137.903 146.133 137.825 146.363 137.669C146.597 137.512 146.714 137.318 146.714 137.088C146.714 136.893 146.638 136.732 146.487 136.605C146.34 136.478 146.109 136.38 145.796 136.312L144.635 136.068C143.982 135.933 143.499 135.704 143.185 135.381C142.872 135.056 142.717 134.646 142.72 134.149C142.717 133.73 142.831 133.366 143.061 133.059C143.295 132.749 143.618 132.509 144.032 132.341C144.449 132.17 144.929 132.084 145.473 132.084C146.27 132.084 146.898 132.254 147.356 132.594C147.817 132.933 148.102 133.393 148.212 133.972ZM152.695 139.113C152.012 139.113 151.423 138.972 150.926 138.688C150.433 138.401 150.053 137.997 149.787 137.474C149.521 136.948 149.388 136.329 149.388 135.616C149.388 134.916 149.521 134.301 149.787 133.773C150.056 133.241 150.431 132.827 150.913 132.532C151.395 132.233 151.961 132.084 152.611 132.084C153.03 132.084 153.426 132.152 153.798 132.288C154.174 132.421 154.505 132.628 154.791 132.908C155.081 133.189 155.308 133.547 155.474 133.981C155.639 134.412 155.722 134.926 155.722 135.523V136.015H150.142V134.934H154.184C154.181 134.627 154.115 134.353 153.985 134.114C153.855 133.872 153.673 133.681 153.439 133.542C153.209 133.403 152.94 133.334 152.633 133.334C152.305 133.334 152.017 133.414 151.769 133.573C151.52 133.73 151.327 133.937 151.188 134.194C151.052 134.448 150.983 134.727 150.98 135.031V135.975C150.98 136.371 151.052 136.711 151.197 136.995C151.342 137.276 151.544 137.491 151.804 137.642C152.064 137.79 152.368 137.864 152.717 137.864C152.95 137.864 153.162 137.831 153.351 137.766C153.54 137.698 153.704 137.599 153.843 137.469C153.982 137.339 154.087 137.178 154.158 136.986L155.656 137.154C155.561 137.55 155.381 137.896 155.115 138.192C154.852 138.484 154.515 138.712 154.104 138.874C153.694 139.034 153.224 139.113 152.695 139.113ZM163.624 132.173V133.414H159.599V132.173H163.624ZM160.605 138.98V131.53C160.605 131.072 160.7 130.691 160.889 130.386C161.081 130.082 161.338 129.854 161.66 129.704C161.982 129.553 162.34 129.478 162.733 129.478C163.011 129.478 163.257 129.5 163.473 129.544C163.689 129.589 163.848 129.628 163.952 129.664L163.633 130.905C163.565 130.884 163.479 130.864 163.375 130.843C163.272 130.819 163.157 130.807 163.03 130.807C162.731 130.807 162.52 130.88 162.396 131.025C162.275 131.166 162.214 131.37 162.214 131.636V138.98H160.605ZM164.88 138.98V132.173H166.485V138.98H164.88ZM165.687 131.206C165.433 131.206 165.214 131.122 165.031 130.954C164.848 130.782 164.756 130.577 164.756 130.338C164.756 130.095 164.848 129.89 165.031 129.722C165.214 129.55 165.433 129.464 165.687 129.464C165.944 129.464 166.163 129.55 166.343 129.722C166.526 129.89 166.618 130.095 166.618 130.338C166.618 130.577 166.526 130.782 166.343 130.954C166.163 131.122 165.944 131.206 165.687 131.206ZM169.739 129.903V138.98H168.135V129.903H169.739ZM174.403 139.113C173.72 139.113 173.131 138.972 172.634 138.688C172.141 138.401 171.761 137.997 171.495 137.474C171.229 136.948 171.096 136.329 171.096 135.616C171.096 134.916 171.229 134.301 171.495 133.773C171.764 133.241 172.14 132.827 172.621 132.532C173.103 132.233 173.669 132.084 174.319 132.084C174.738 132.084 175.134 132.152 175.507 132.288C175.882 132.421 176.213 132.628 176.499 132.908C176.789 133.189 177.016 133.547 177.182 133.981C177.347 134.412 177.43 134.926 177.43 135.523V136.015H171.85V134.934H175.892C175.889 134.627 175.823 134.353 175.693 134.114C175.563 133.872 175.381 133.681 175.148 133.542C174.917 133.403 174.648 133.334 174.341 133.334C174.013 133.334 173.725 133.414 173.477 133.573C173.228 133.73 173.035 133.937 172.896 134.194C172.76 134.448 172.691 134.727 172.688 135.031V135.975C172.688 136.371 172.76 136.711 172.905 136.995C173.05 137.276 173.252 137.491 173.512 137.642C173.772 137.79 174.076 137.864 174.425 137.864C174.658 137.864 174.87 137.831 175.059 137.766C175.248 137.698 175.412 137.599 175.551 137.469C175.69 137.339 175.795 137.178 175.866 136.986L177.364 137.154C177.269 137.55 177.089 137.896 176.823 138.192C176.56 138.484 176.223 138.712 175.812 138.874C175.402 139.034 174.932 139.113 174.403 139.113Z" fill="white"/>
<path d="M132.526 69.5134H127.196C123.897 69.5134 120.733 68.203 118.401 65.8705C116.068 63.5379 114.758 60.3743 114.758 57.0756C114.758 53.7768 116.068 50.6132 118.401 48.2807C120.733 45.9481 123.897 44.6377 127.196 44.6377C128.236 44.6373 129.273 44.7641 130.283 45.0153" stroke="black" stroke-width="2.7736" stroke-linecap="round" stroke-linejoin="round"/>
<path d="M128.973 51.744C128.973 48.9285 129.642 46.1534 130.925 43.6473C132.208 41.1411 134.068 38.9757 136.352 37.3295C138.636 35.6833 141.278 34.6034 144.061 34.1788C146.845 33.7542 149.689 33.9971 152.36 34.8874C155.031 35.7777 157.452 37.29 159.424 39.2996C161.396 41.3092 162.862 43.7586 163.701 46.446C164.541 49.1334 164.73 51.9818 164.252 54.7565C163.775 57.5311 162.645 60.1527 160.956 62.405" stroke="black" stroke-width="2.7736" stroke-linecap="round" stroke-linejoin="round"/>
<path d="M137.434 59.2745L144.963 51.7451L152.492 59.2745" stroke="black" stroke-width="2.7736" stroke-linecap="round" stroke-linejoin="round"/>
<path d="M144.965 69.5135V51.7451" stroke="black" stroke-width="2.7736" stroke-linecap="round" stroke-linejoin="round"/>
</svg>
